G04 #@! TF.GenerationSoftware,KiCad,Pcbnew,8.0.1*
G04 #@! TF.CreationDate,2024-04-13T23:21:52-07:00*
G04 #@! TF.ProjectId,ac125a_dtmf,61633132-3561-45f6-9474-6d662e6b6963,3*
G04 #@! TF.SameCoordinates,Original*
G04 #@! TF.FileFunction,Copper,L1,Top*
G04 #@! TF.FilePolarity,Positive*
%FSLAX46Y46*%
G04 Gerber Fmt 4.6, Leading zero omitted, Abs format (unit mm)*
G04 Created by KiCad (PCBNEW 8.0.1) date 2024-04-13 23:21:52*
%MOMM*%
%LPD*%
G01*
G04 APERTURE LIST*
%ADD10C,0.150000*%
G04 #@! TA.AperFunction,NonConductor*
%ADD11C,0.150000*%
G04 #@! TD*
G04 #@! TA.AperFunction,ComponentPad*
%ADD12C,1.500000*%
G04 #@! TD*
G04 #@! TA.AperFunction,ComponentPad*
%ADD13C,4.800000*%
G04 #@! TD*
G04 #@! TA.AperFunction,ComponentPad*
%ADD14R,1.700000X1.700000*%
G04 #@! TD*
G04 #@! TA.AperFunction,ComponentPad*
%ADD15O,1.700000X1.700000*%
G04 #@! TD*
G04 #@! TA.AperFunction,ComponentPad*
%ADD16C,5.400000*%
G04 #@! TD*
G04 #@! TA.AperFunction,ComponentPad*
%ADD17C,1.600000*%
G04 #@! TD*
G04 #@! TA.AperFunction,ComponentPad*
%ADD18O,1.600000X1.600000*%
G04 #@! TD*
G04 #@! TA.AperFunction,ComponentPad*
%ADD19R,1.800000X1.800000*%
G04 #@! TD*
G04 #@! TA.AperFunction,ComponentPad*
%ADD20C,1.800000*%
G04 #@! TD*
G04 #@! TA.AperFunction,Conductor*
%ADD21C,0.500000*%
G04 #@! TD*
G04 #@! TA.AperFunction,Conductor*
%ADD22C,0.250000*%
G04 #@! TD*
G04 APERTURE END LIST*
D10*
D11*
X77161903Y-119045847D02*
X77352379Y-119045847D01*
X77352379Y-119045847D02*
X77447617Y-119093466D01*
X77447617Y-119093466D02*
X77542855Y-119188704D01*
X77542855Y-119188704D02*
X77590474Y-119379180D01*
X77590474Y-119379180D02*
X77590474Y-119712513D01*
X77590474Y-119712513D02*
X77542855Y-119902989D01*
X77542855Y-119902989D02*
X77447617Y-119998228D01*
X77447617Y-119998228D02*
X77352379Y-120045847D01*
X77352379Y-120045847D02*
X77161903Y-120045847D01*
X77161903Y-120045847D02*
X77066665Y-119998228D01*
X77066665Y-119998228D02*
X76971427Y-119902989D01*
X76971427Y-119902989D02*
X76923808Y-119712513D01*
X76923808Y-119712513D02*
X76923808Y-119379180D01*
X76923808Y-119379180D02*
X76971427Y-119188704D01*
X76971427Y-119188704D02*
X77066665Y-119093466D01*
X77066665Y-119093466D02*
X77161903Y-119045847D01*
X78019046Y-120045847D02*
X78019046Y-119045847D01*
X78590474Y-120045847D02*
X78161903Y-119474418D01*
X78590474Y-119045847D02*
X78019046Y-119617275D01*
X79019046Y-120045847D02*
X79019046Y-119045847D01*
X80209522Y-119760132D02*
X80685712Y-119760132D01*
X80114284Y-120045847D02*
X80447617Y-119045847D01*
X80447617Y-119045847D02*
X80780950Y-120045847D01*
X81685712Y-119950608D02*
X81638093Y-119998228D01*
X81638093Y-119998228D02*
X81495236Y-120045847D01*
X81495236Y-120045847D02*
X81399998Y-120045847D01*
X81399998Y-120045847D02*
X81257141Y-119998228D01*
X81257141Y-119998228D02*
X81161903Y-119902989D01*
X81161903Y-119902989D02*
X81114284Y-119807751D01*
X81114284Y-119807751D02*
X81066665Y-119617275D01*
X81066665Y-119617275D02*
X81066665Y-119474418D01*
X81066665Y-119474418D02*
X81114284Y-119283942D01*
X81114284Y-119283942D02*
X81161903Y-119188704D01*
X81161903Y-119188704D02*
X81257141Y-119093466D01*
X81257141Y-119093466D02*
X81399998Y-119045847D01*
X81399998Y-119045847D02*
X81495236Y-119045847D01*
X81495236Y-119045847D02*
X81638093Y-119093466D01*
X81638093Y-119093466D02*
X81685712Y-119141085D01*
X82638093Y-120045847D02*
X82066665Y-120045847D01*
X82352379Y-120045847D02*
X82352379Y-119045847D01*
X82352379Y-119045847D02*
X82257141Y-119188704D01*
X82257141Y-119188704D02*
X82161903Y-119283942D01*
X82161903Y-119283942D02*
X82066665Y-119331561D01*
X83019046Y-119141085D02*
X83066665Y-119093466D01*
X83066665Y-119093466D02*
X83161903Y-119045847D01*
X83161903Y-119045847D02*
X83399998Y-119045847D01*
X83399998Y-119045847D02*
X83495236Y-119093466D01*
X83495236Y-119093466D02*
X83542855Y-119141085D01*
X83542855Y-119141085D02*
X83590474Y-119236323D01*
X83590474Y-119236323D02*
X83590474Y-119331561D01*
X83590474Y-119331561D02*
X83542855Y-119474418D01*
X83542855Y-119474418D02*
X82971427Y-120045847D01*
X82971427Y-120045847D02*
X83590474Y-120045847D01*
X84495236Y-119045847D02*
X84019046Y-119045847D01*
X84019046Y-119045847D02*
X83971427Y-119522037D01*
X83971427Y-119522037D02*
X84019046Y-119474418D01*
X84019046Y-119474418D02*
X84114284Y-119426799D01*
X84114284Y-119426799D02*
X84352379Y-119426799D01*
X84352379Y-119426799D02*
X84447617Y-119474418D01*
X84447617Y-119474418D02*
X84495236Y-119522037D01*
X84495236Y-119522037D02*
X84542855Y-119617275D01*
X84542855Y-119617275D02*
X84542855Y-119855370D01*
X84542855Y-119855370D02*
X84495236Y-119950608D01*
X84495236Y-119950608D02*
X84447617Y-119998228D01*
X84447617Y-119998228D02*
X84352379Y-120045847D01*
X84352379Y-120045847D02*
X84114284Y-120045847D01*
X84114284Y-120045847D02*
X84019046Y-119998228D01*
X84019046Y-119998228D02*
X83971427Y-119950608D01*
X84923808Y-119760132D02*
X85399998Y-119760132D01*
X84828570Y-120045847D02*
X85161903Y-119045847D01*
X85161903Y-119045847D02*
X85495236Y-120045847D01*
X86590475Y-120045847D02*
X86590475Y-119045847D01*
X86590475Y-119045847D02*
X86828570Y-119045847D01*
X86828570Y-119045847D02*
X86971427Y-119093466D01*
X86971427Y-119093466D02*
X87066665Y-119188704D01*
X87066665Y-119188704D02*
X87114284Y-119283942D01*
X87114284Y-119283942D02*
X87161903Y-119474418D01*
X87161903Y-119474418D02*
X87161903Y-119617275D01*
X87161903Y-119617275D02*
X87114284Y-119807751D01*
X87114284Y-119807751D02*
X87066665Y-119902989D01*
X87066665Y-119902989D02*
X86971427Y-119998228D01*
X86971427Y-119998228D02*
X86828570Y-120045847D01*
X86828570Y-120045847D02*
X86590475Y-120045847D01*
X87447618Y-119045847D02*
X88019046Y-119045847D01*
X87733332Y-120045847D02*
X87733332Y-119045847D01*
X88352380Y-120045847D02*
X88352380Y-119045847D01*
X88352380Y-119045847D02*
X88685713Y-119760132D01*
X88685713Y-119760132D02*
X89019046Y-119045847D01*
X89019046Y-119045847D02*
X89019046Y-120045847D01*
X89828570Y-119522037D02*
X89495237Y-119522037D01*
X89495237Y-120045847D02*
X89495237Y-119045847D01*
X89495237Y-119045847D02*
X89971427Y-119045847D01*
X91066666Y-119760132D02*
X91542856Y-119760132D01*
X90971428Y-120045847D02*
X91304761Y-119045847D01*
X91304761Y-119045847D02*
X91638094Y-120045847D01*
X92399999Y-120045847D02*
X92399999Y-119045847D01*
X92399999Y-119998228D02*
X92304761Y-120045847D01*
X92304761Y-120045847D02*
X92114285Y-120045847D01*
X92114285Y-120045847D02*
X92019047Y-119998228D01*
X92019047Y-119998228D02*
X91971428Y-119950608D01*
X91971428Y-119950608D02*
X91923809Y-119855370D01*
X91923809Y-119855370D02*
X91923809Y-119569656D01*
X91923809Y-119569656D02*
X91971428Y-119474418D01*
X91971428Y-119474418D02*
X92019047Y-119426799D01*
X92019047Y-119426799D02*
X92114285Y-119379180D01*
X92114285Y-119379180D02*
X92304761Y-119379180D01*
X92304761Y-119379180D02*
X92399999Y-119426799D01*
X93304761Y-120045847D02*
X93304761Y-119522037D01*
X93304761Y-119522037D02*
X93257142Y-119426799D01*
X93257142Y-119426799D02*
X93161904Y-119379180D01*
X93161904Y-119379180D02*
X92971428Y-119379180D01*
X92971428Y-119379180D02*
X92876190Y-119426799D01*
X93304761Y-119998228D02*
X93209523Y-120045847D01*
X93209523Y-120045847D02*
X92971428Y-120045847D01*
X92971428Y-120045847D02*
X92876190Y-119998228D01*
X92876190Y-119998228D02*
X92828571Y-119902989D01*
X92828571Y-119902989D02*
X92828571Y-119807751D01*
X92828571Y-119807751D02*
X92876190Y-119712513D01*
X92876190Y-119712513D02*
X92971428Y-119664894D01*
X92971428Y-119664894D02*
X93209523Y-119664894D01*
X93209523Y-119664894D02*
X93304761Y-119617275D01*
X93780952Y-119379180D02*
X93780952Y-120379180D01*
X93780952Y-119426799D02*
X93876190Y-119379180D01*
X93876190Y-119379180D02*
X94066666Y-119379180D01*
X94066666Y-119379180D02*
X94161904Y-119426799D01*
X94161904Y-119426799D02*
X94209523Y-119474418D01*
X94209523Y-119474418D02*
X94257142Y-119569656D01*
X94257142Y-119569656D02*
X94257142Y-119855370D01*
X94257142Y-119855370D02*
X94209523Y-119950608D01*
X94209523Y-119950608D02*
X94161904Y-119998228D01*
X94161904Y-119998228D02*
X94066666Y-120045847D01*
X94066666Y-120045847D02*
X93876190Y-120045847D01*
X93876190Y-120045847D02*
X93780952Y-119998228D01*
X94542857Y-119379180D02*
X94923809Y-119379180D01*
X94685714Y-119045847D02*
X94685714Y-119902989D01*
X94685714Y-119902989D02*
X94733333Y-119998228D01*
X94733333Y-119998228D02*
X94828571Y-120045847D01*
X94828571Y-120045847D02*
X94923809Y-120045847D01*
X95638095Y-119998228D02*
X95542857Y-120045847D01*
X95542857Y-120045847D02*
X95352381Y-120045847D01*
X95352381Y-120045847D02*
X95257143Y-119998228D01*
X95257143Y-119998228D02*
X95209524Y-119902989D01*
X95209524Y-119902989D02*
X95209524Y-119522037D01*
X95209524Y-119522037D02*
X95257143Y-119426799D01*
X95257143Y-119426799D02*
X95352381Y-119379180D01*
X95352381Y-119379180D02*
X95542857Y-119379180D01*
X95542857Y-119379180D02*
X95638095Y-119426799D01*
X95638095Y-119426799D02*
X95685714Y-119522037D01*
X95685714Y-119522037D02*
X95685714Y-119617275D01*
X95685714Y-119617275D02*
X95209524Y-119712513D01*
X96114286Y-120045847D02*
X96114286Y-119379180D01*
X96114286Y-119569656D02*
X96161905Y-119474418D01*
X96161905Y-119474418D02*
X96209524Y-119426799D01*
X96209524Y-119426799D02*
X96304762Y-119379180D01*
X96304762Y-119379180D02*
X96400000Y-119379180D01*
X97495239Y-120045847D02*
X97495239Y-119045847D01*
X97923810Y-119998228D02*
X98019048Y-120045847D01*
X98019048Y-120045847D02*
X98209524Y-120045847D01*
X98209524Y-120045847D02*
X98304762Y-119998228D01*
X98304762Y-119998228D02*
X98352381Y-119902989D01*
X98352381Y-119902989D02*
X98352381Y-119855370D01*
X98352381Y-119855370D02*
X98304762Y-119760132D01*
X98304762Y-119760132D02*
X98209524Y-119712513D01*
X98209524Y-119712513D02*
X98066667Y-119712513D01*
X98066667Y-119712513D02*
X97971429Y-119664894D01*
X97971429Y-119664894D02*
X97923810Y-119569656D01*
X97923810Y-119569656D02*
X97923810Y-119522037D01*
X97923810Y-119522037D02*
X97971429Y-119426799D01*
X97971429Y-119426799D02*
X98066667Y-119379180D01*
X98066667Y-119379180D02*
X98209524Y-119379180D01*
X98209524Y-119379180D02*
X98304762Y-119426799D01*
X98733334Y-119998228D02*
X98828572Y-120045847D01*
X98828572Y-120045847D02*
X99019048Y-120045847D01*
X99019048Y-120045847D02*
X99114286Y-119998228D01*
X99114286Y-119998228D02*
X99161905Y-119902989D01*
X99161905Y-119902989D02*
X99161905Y-119855370D01*
X99161905Y-119855370D02*
X99114286Y-119760132D01*
X99114286Y-119760132D02*
X99019048Y-119712513D01*
X99019048Y-119712513D02*
X98876191Y-119712513D01*
X98876191Y-119712513D02*
X98780953Y-119664894D01*
X98780953Y-119664894D02*
X98733334Y-119569656D01*
X98733334Y-119569656D02*
X98733334Y-119522037D01*
X98733334Y-119522037D02*
X98780953Y-119426799D01*
X98780953Y-119426799D02*
X98876191Y-119379180D01*
X98876191Y-119379180D02*
X99019048Y-119379180D01*
X99019048Y-119379180D02*
X99114286Y-119426799D01*
X100257144Y-119045847D02*
X100876191Y-119045847D01*
X100876191Y-119045847D02*
X100542858Y-119426799D01*
X100542858Y-119426799D02*
X100685715Y-119426799D01*
X100685715Y-119426799D02*
X100780953Y-119474418D01*
X100780953Y-119474418D02*
X100828572Y-119522037D01*
X100828572Y-119522037D02*
X100876191Y-119617275D01*
X100876191Y-119617275D02*
X100876191Y-119855370D01*
X100876191Y-119855370D02*
X100828572Y-119950608D01*
X100828572Y-119950608D02*
X100780953Y-119998228D01*
X100780953Y-119998228D02*
X100685715Y-120045847D01*
X100685715Y-120045847D02*
X100400001Y-120045847D01*
X100400001Y-120045847D02*
X100304763Y-119998228D01*
X100304763Y-119998228D02*
X100257144Y-119950608D01*
X75947617Y-122036743D02*
X75899998Y-121989124D01*
X75899998Y-121989124D02*
X75804760Y-121846267D01*
X75804760Y-121846267D02*
X75757141Y-121751029D01*
X75757141Y-121751029D02*
X75709522Y-121608172D01*
X75709522Y-121608172D02*
X75661903Y-121370076D01*
X75661903Y-121370076D02*
X75661903Y-121179600D01*
X75661903Y-121179600D02*
X75709522Y-120941505D01*
X75709522Y-120941505D02*
X75757141Y-120798648D01*
X75757141Y-120798648D02*
X75804760Y-120703410D01*
X75804760Y-120703410D02*
X75899998Y-120560552D01*
X75899998Y-120560552D02*
X75947617Y-120512933D01*
X76757141Y-121608172D02*
X76661903Y-121655791D01*
X76661903Y-121655791D02*
X76471427Y-121655791D01*
X76471427Y-121655791D02*
X76376189Y-121608172D01*
X76376189Y-121608172D02*
X76328570Y-121560552D01*
X76328570Y-121560552D02*
X76280951Y-121465314D01*
X76280951Y-121465314D02*
X76280951Y-121179600D01*
X76280951Y-121179600D02*
X76328570Y-121084362D01*
X76328570Y-121084362D02*
X76376189Y-121036743D01*
X76376189Y-121036743D02*
X76471427Y-120989124D01*
X76471427Y-120989124D02*
X76661903Y-120989124D01*
X76661903Y-120989124D02*
X76757141Y-121036743D01*
X77090475Y-122036743D02*
X77138094Y-121989124D01*
X77138094Y-121989124D02*
X77233332Y-121846267D01*
X77233332Y-121846267D02*
X77280951Y-121751029D01*
X77280951Y-121751029D02*
X77328570Y-121608172D01*
X77328570Y-121608172D02*
X77376189Y-121370076D01*
X77376189Y-121370076D02*
X77376189Y-121179600D01*
X77376189Y-121179600D02*
X77328570Y-120941505D01*
X77328570Y-120941505D02*
X77280951Y-120798648D01*
X77280951Y-120798648D02*
X77233332Y-120703410D01*
X77233332Y-120703410D02*
X77138094Y-120560552D01*
X77138094Y-120560552D02*
X77090475Y-120512933D01*
X78566666Y-120751029D02*
X78614285Y-120703410D01*
X78614285Y-120703410D02*
X78709523Y-120655791D01*
X78709523Y-120655791D02*
X78947618Y-120655791D01*
X78947618Y-120655791D02*
X79042856Y-120703410D01*
X79042856Y-120703410D02*
X79090475Y-120751029D01*
X79090475Y-120751029D02*
X79138094Y-120846267D01*
X79138094Y-120846267D02*
X79138094Y-120941505D01*
X79138094Y-120941505D02*
X79090475Y-121084362D01*
X79090475Y-121084362D02*
X78519047Y-121655791D01*
X78519047Y-121655791D02*
X79138094Y-121655791D01*
X79757142Y-120655791D02*
X79852380Y-120655791D01*
X79852380Y-120655791D02*
X79947618Y-120703410D01*
X79947618Y-120703410D02*
X79995237Y-120751029D01*
X79995237Y-120751029D02*
X80042856Y-120846267D01*
X80042856Y-120846267D02*
X80090475Y-121036743D01*
X80090475Y-121036743D02*
X80090475Y-121274838D01*
X80090475Y-121274838D02*
X80042856Y-121465314D01*
X80042856Y-121465314D02*
X79995237Y-121560552D01*
X79995237Y-121560552D02*
X79947618Y-121608172D01*
X79947618Y-121608172D02*
X79852380Y-121655791D01*
X79852380Y-121655791D02*
X79757142Y-121655791D01*
X79757142Y-121655791D02*
X79661904Y-121608172D01*
X79661904Y-121608172D02*
X79614285Y-121560552D01*
X79614285Y-121560552D02*
X79566666Y-121465314D01*
X79566666Y-121465314D02*
X79519047Y-121274838D01*
X79519047Y-121274838D02*
X79519047Y-121036743D01*
X79519047Y-121036743D02*
X79566666Y-120846267D01*
X79566666Y-120846267D02*
X79614285Y-120751029D01*
X79614285Y-120751029D02*
X79661904Y-120703410D01*
X79661904Y-120703410D02*
X79757142Y-120655791D01*
X80471428Y-120751029D02*
X80519047Y-120703410D01*
X80519047Y-120703410D02*
X80614285Y-120655791D01*
X80614285Y-120655791D02*
X80852380Y-120655791D01*
X80852380Y-120655791D02*
X80947618Y-120703410D01*
X80947618Y-120703410D02*
X80995237Y-120751029D01*
X80995237Y-120751029D02*
X81042856Y-120846267D01*
X81042856Y-120846267D02*
X81042856Y-120941505D01*
X81042856Y-120941505D02*
X80995237Y-121084362D01*
X80995237Y-121084362D02*
X80423809Y-121655791D01*
X80423809Y-121655791D02*
X81042856Y-121655791D01*
X81899999Y-120989124D02*
X81899999Y-121655791D01*
X81661904Y-120608172D02*
X81423809Y-121322457D01*
X81423809Y-121322457D02*
X82042856Y-121322457D01*
X83185714Y-121655791D02*
X83185714Y-120655791D01*
X83185714Y-121131981D02*
X83757142Y-121131981D01*
X83757142Y-121655791D02*
X83757142Y-120655791D01*
X84376190Y-121655791D02*
X84280952Y-121608172D01*
X84280952Y-121608172D02*
X84233333Y-121560552D01*
X84233333Y-121560552D02*
X84185714Y-121465314D01*
X84185714Y-121465314D02*
X84185714Y-121179600D01*
X84185714Y-121179600D02*
X84233333Y-121084362D01*
X84233333Y-121084362D02*
X84280952Y-121036743D01*
X84280952Y-121036743D02*
X84376190Y-120989124D01*
X84376190Y-120989124D02*
X84519047Y-120989124D01*
X84519047Y-120989124D02*
X84614285Y-121036743D01*
X84614285Y-121036743D02*
X84661904Y-121084362D01*
X84661904Y-121084362D02*
X84709523Y-121179600D01*
X84709523Y-121179600D02*
X84709523Y-121465314D01*
X84709523Y-121465314D02*
X84661904Y-121560552D01*
X84661904Y-121560552D02*
X84614285Y-121608172D01*
X84614285Y-121608172D02*
X84519047Y-121655791D01*
X84519047Y-121655791D02*
X84376190Y-121655791D01*
X85042857Y-120989124D02*
X85233333Y-121655791D01*
X85233333Y-121655791D02*
X85423809Y-121179600D01*
X85423809Y-121179600D02*
X85614285Y-121655791D01*
X85614285Y-121655791D02*
X85804761Y-120989124D01*
X86614285Y-121655791D02*
X86614285Y-121131981D01*
X86614285Y-121131981D02*
X86566666Y-121036743D01*
X86566666Y-121036743D02*
X86471428Y-120989124D01*
X86471428Y-120989124D02*
X86280952Y-120989124D01*
X86280952Y-120989124D02*
X86185714Y-121036743D01*
X86614285Y-121608172D02*
X86519047Y-121655791D01*
X86519047Y-121655791D02*
X86280952Y-121655791D01*
X86280952Y-121655791D02*
X86185714Y-121608172D01*
X86185714Y-121608172D02*
X86138095Y-121512933D01*
X86138095Y-121512933D02*
X86138095Y-121417695D01*
X86138095Y-121417695D02*
X86185714Y-121322457D01*
X86185714Y-121322457D02*
X86280952Y-121274838D01*
X86280952Y-121274838D02*
X86519047Y-121274838D01*
X86519047Y-121274838D02*
X86614285Y-121227219D01*
X87090476Y-121655791D02*
X87090476Y-120989124D01*
X87090476Y-121179600D02*
X87138095Y-121084362D01*
X87138095Y-121084362D02*
X87185714Y-121036743D01*
X87185714Y-121036743D02*
X87280952Y-120989124D01*
X87280952Y-120989124D02*
X87376190Y-120989124D01*
X88138095Y-121655791D02*
X88138095Y-120655791D01*
X88138095Y-121608172D02*
X88042857Y-121655791D01*
X88042857Y-121655791D02*
X87852381Y-121655791D01*
X87852381Y-121655791D02*
X87757143Y-121608172D01*
X87757143Y-121608172D02*
X87709524Y-121560552D01*
X87709524Y-121560552D02*
X87661905Y-121465314D01*
X87661905Y-121465314D02*
X87661905Y-121179600D01*
X87661905Y-121179600D02*
X87709524Y-121084362D01*
X87709524Y-121084362D02*
X87757143Y-121036743D01*
X87757143Y-121036743D02*
X87852381Y-120989124D01*
X87852381Y-120989124D02*
X88042857Y-120989124D01*
X88042857Y-120989124D02*
X88138095Y-121036743D01*
X89376191Y-121655791D02*
X89376191Y-120655791D01*
X89376191Y-120655791D02*
X89709524Y-121370076D01*
X89709524Y-121370076D02*
X90042857Y-120655791D01*
X90042857Y-120655791D02*
X90042857Y-121655791D01*
X90519048Y-121560552D02*
X90566667Y-121608172D01*
X90566667Y-121608172D02*
X90519048Y-121655791D01*
X90519048Y-121655791D02*
X90471429Y-121608172D01*
X90471429Y-121608172D02*
X90519048Y-121560552D01*
X90519048Y-121560552D02*
X90519048Y-121655791D01*
X91757143Y-121655791D02*
X91757143Y-120655791D01*
X91757143Y-121131981D02*
X92328571Y-121131981D01*
X92328571Y-121655791D02*
X92328571Y-120655791D01*
X93233333Y-121655791D02*
X93233333Y-121131981D01*
X93233333Y-121131981D02*
X93185714Y-121036743D01*
X93185714Y-121036743D02*
X93090476Y-120989124D01*
X93090476Y-120989124D02*
X92900000Y-120989124D01*
X92900000Y-120989124D02*
X92804762Y-121036743D01*
X93233333Y-121608172D02*
X93138095Y-121655791D01*
X93138095Y-121655791D02*
X92900000Y-121655791D01*
X92900000Y-121655791D02*
X92804762Y-121608172D01*
X92804762Y-121608172D02*
X92757143Y-121512933D01*
X92757143Y-121512933D02*
X92757143Y-121417695D01*
X92757143Y-121417695D02*
X92804762Y-121322457D01*
X92804762Y-121322457D02*
X92900000Y-121274838D01*
X92900000Y-121274838D02*
X93138095Y-121274838D01*
X93138095Y-121274838D02*
X93233333Y-121227219D01*
X93709524Y-121655791D02*
X93709524Y-120989124D01*
X93709524Y-121179600D02*
X93757143Y-121084362D01*
X93757143Y-121084362D02*
X93804762Y-121036743D01*
X93804762Y-121036743D02*
X93900000Y-120989124D01*
X93900000Y-120989124D02*
X93995238Y-120989124D01*
X94185715Y-120989124D02*
X94566667Y-120989124D01*
X94328572Y-120655791D02*
X94328572Y-121512933D01*
X94328572Y-121512933D02*
X94376191Y-121608172D01*
X94376191Y-121608172D02*
X94471429Y-121655791D01*
X94471429Y-121655791D02*
X94566667Y-121655791D01*
X95280953Y-121608172D02*
X95185715Y-121655791D01*
X95185715Y-121655791D02*
X94995239Y-121655791D01*
X94995239Y-121655791D02*
X94900001Y-121608172D01*
X94900001Y-121608172D02*
X94852382Y-121512933D01*
X94852382Y-121512933D02*
X94852382Y-121131981D01*
X94852382Y-121131981D02*
X94900001Y-121036743D01*
X94900001Y-121036743D02*
X94995239Y-120989124D01*
X94995239Y-120989124D02*
X95185715Y-120989124D01*
X95185715Y-120989124D02*
X95280953Y-121036743D01*
X95280953Y-121036743D02*
X95328572Y-121131981D01*
X95328572Y-121131981D02*
X95328572Y-121227219D01*
X95328572Y-121227219D02*
X94852382Y-121322457D01*
X96519049Y-121274838D02*
X97280954Y-121274838D01*
X98423811Y-120655791D02*
X98661906Y-121655791D01*
X98661906Y-121655791D02*
X98852382Y-120941505D01*
X98852382Y-120941505D02*
X99042858Y-121655791D01*
X99042858Y-121655791D02*
X99280954Y-120655791D01*
X99566668Y-120655791D02*
X100233334Y-120655791D01*
X100233334Y-120655791D02*
X99566668Y-121655791D01*
X99566668Y-121655791D02*
X100233334Y-121655791D01*
X100566668Y-120751029D02*
X100614287Y-120703410D01*
X100614287Y-120703410D02*
X100709525Y-120655791D01*
X100709525Y-120655791D02*
X100947620Y-120655791D01*
X100947620Y-120655791D02*
X101042858Y-120703410D01*
X101042858Y-120703410D02*
X101090477Y-120751029D01*
X101090477Y-120751029D02*
X101138096Y-120846267D01*
X101138096Y-120846267D02*
X101138096Y-120941505D01*
X101138096Y-120941505D02*
X101090477Y-121084362D01*
X101090477Y-121084362D02*
X100519049Y-121655791D01*
X100519049Y-121655791D02*
X101138096Y-121655791D01*
X102233334Y-121751029D02*
X102138096Y-121703410D01*
X102138096Y-121703410D02*
X102042858Y-121608172D01*
X102042858Y-121608172D02*
X101900001Y-121465314D01*
X101900001Y-121465314D02*
X101804763Y-121417695D01*
X101804763Y-121417695D02*
X101709525Y-121417695D01*
X101757144Y-121655791D02*
X101661906Y-121608172D01*
X101661906Y-121608172D02*
X101566668Y-121512933D01*
X101566668Y-121512933D02*
X101519049Y-121322457D01*
X101519049Y-121322457D02*
X101519049Y-120989124D01*
X101519049Y-120989124D02*
X101566668Y-120798648D01*
X101566668Y-120798648D02*
X101661906Y-120703410D01*
X101661906Y-120703410D02*
X101757144Y-120655791D01*
X101757144Y-120655791D02*
X101947620Y-120655791D01*
X101947620Y-120655791D02*
X102042858Y-120703410D01*
X102042858Y-120703410D02*
X102138096Y-120798648D01*
X102138096Y-120798648D02*
X102185715Y-120989124D01*
X102185715Y-120989124D02*
X102185715Y-121322457D01*
X102185715Y-121322457D02*
X102138096Y-121512933D01*
X102138096Y-121512933D02*
X102042858Y-121608172D01*
X102042858Y-121608172D02*
X101947620Y-121655791D01*
X101947620Y-121655791D02*
X101757144Y-121655791D01*
D12*
X45720000Y-49750000D03*
X45720000Y-51910000D03*
X45720000Y-54070000D03*
X45720000Y-56230000D03*
X45720000Y-58390000D03*
X45720000Y-60550000D03*
X45720000Y-62710000D03*
X45720000Y-64870000D03*
X45720000Y-67030000D03*
X45720000Y-69190000D03*
X45720000Y-71350000D03*
X45720000Y-73510000D03*
X45720000Y-75670000D03*
X45720000Y-77830000D03*
X45720000Y-79990000D03*
X45720000Y-82150000D03*
X45720000Y-84310000D03*
X45720000Y-86470000D03*
X45720000Y-88630000D03*
X45720000Y-90790000D03*
X45720000Y-92950000D03*
X45720000Y-95110000D03*
X45720000Y-97270000D03*
X45720000Y-99430000D03*
X45720000Y-101590000D03*
X41430000Y-49750000D03*
X41430000Y-51910000D03*
X41430000Y-54070000D03*
X41430000Y-56230000D03*
X41430000Y-58390000D03*
X41430000Y-60550000D03*
X41430000Y-62710000D03*
X41430000Y-64870000D03*
X41430000Y-67030000D03*
X41430000Y-69190000D03*
X41430000Y-71350000D03*
X41430000Y-73510000D03*
X41430000Y-75670000D03*
X41430000Y-77830000D03*
X41430000Y-79990000D03*
X41430000Y-82150000D03*
X41430000Y-84310000D03*
X41430000Y-86470000D03*
X41430000Y-88630000D03*
X41430000Y-90790000D03*
X41430000Y-92950000D03*
X41430000Y-95110000D03*
X41430000Y-97270000D03*
X41430000Y-99430000D03*
X41430000Y-101590000D03*
D13*
X43575000Y-38245000D03*
X43575000Y-113095000D03*
D14*
X55388000Y-62920000D03*
D15*
X52848000Y-62920000D03*
X55388000Y-60380000D03*
X52848000Y-60380000D03*
X55388000Y-57840000D03*
X52848000Y-57840000D03*
X55388000Y-55300000D03*
X52848000Y-55300000D03*
X55388000Y-52760000D03*
X52848000Y-52760000D03*
X55388000Y-50220000D03*
X52848000Y-50220000D03*
X55388000Y-47680000D03*
X52848000Y-47680000D03*
X55388000Y-45140000D03*
X52848000Y-45140000D03*
X55388000Y-42600000D03*
X52848000Y-42600000D03*
X55388000Y-40060000D03*
X52848000Y-40060000D03*
D16*
X53848000Y-30920000D03*
X53848000Y-71920000D03*
X129388000Y-71920000D03*
D17*
X121920000Y-100330000D03*
D18*
X114300000Y-100330000D03*
D14*
X55388000Y-112518000D03*
D15*
X52848000Y-112518000D03*
X55388000Y-109978000D03*
X52848000Y-109978000D03*
X55388000Y-107438000D03*
X52848000Y-107438000D03*
X55388000Y-104898000D03*
X52848000Y-104898000D03*
X55388000Y-102358000D03*
X52848000Y-102358000D03*
X55388000Y-99818000D03*
X52848000Y-99818000D03*
X55388000Y-97278000D03*
X52848000Y-97278000D03*
X55388000Y-94738000D03*
X52848000Y-94738000D03*
X55388000Y-92198000D03*
X52848000Y-92198000D03*
X55388000Y-89658000D03*
X52848000Y-89658000D03*
D16*
X53848000Y-80518000D03*
X53848000Y-121518000D03*
X129388000Y-121518000D03*
D17*
X69850000Y-55880000D03*
D18*
X59690000Y-55880000D03*
D17*
X121920000Y-50800000D03*
D18*
X114300000Y-50800000D03*
D16*
X43020000Y-30670000D03*
D19*
X128270000Y-47980000D03*
D20*
X128270000Y-50520000D03*
D17*
X69850000Y-113030000D03*
D18*
X59690000Y-113030000D03*
D17*
X59690000Y-63500000D03*
D18*
X69850000Y-63500000D03*
D16*
X43020000Y-121670000D03*
D19*
X128270000Y-97575000D03*
D20*
X128270000Y-100115000D03*
D16*
X129270000Y-80670000D03*
D17*
X59516000Y-35306000D03*
X64516000Y-35306000D03*
X69850000Y-39370000D03*
D18*
X59690000Y-39370000D03*
D17*
X59690000Y-84455000D03*
D18*
X69850000Y-84455000D03*
D16*
X129270000Y-30670000D03*
D17*
X59516000Y-31556000D03*
D18*
X67136000Y-31556000D03*
D17*
X69850000Y-94420000D03*
D18*
X59690000Y-94420000D03*
D14*
X63480000Y-52830000D03*
D15*
X66020000Y-52830000D03*
X63480000Y-50290000D03*
X66020000Y-50290000D03*
X63480000Y-47750000D03*
X66020000Y-47750000D03*
X63480000Y-45210000D03*
X66020000Y-45210000D03*
X63480000Y-42670000D03*
X66020000Y-42670000D03*
D21*
X63320000Y-52670000D02*
X63480000Y-52830000D01*
X55388000Y-47680000D02*
X60378000Y-52670000D01*
X60378000Y-52670000D02*
X63320000Y-52670000D01*
D22*
X64658200Y-48928200D02*
X61790314Y-48928200D01*
X66020000Y-50290000D02*
X64658200Y-48928200D01*
X61790314Y-48928200D02*
X59180314Y-46318200D01*
X54209800Y-46318200D02*
X52848000Y-47680000D01*
X59180314Y-46318200D02*
X54209800Y-46318200D01*
X43180000Y-73890000D02*
X43180000Y-81134806D01*
X54052000Y-98552000D02*
X55470000Y-99970000D01*
X50800000Y-97536000D02*
X51816000Y-98552000D01*
X46398200Y-83228200D02*
X50800000Y-87630000D01*
X45720000Y-71350000D02*
X43180000Y-73890000D01*
X45273394Y-83228200D02*
X46398200Y-83228200D01*
X51816000Y-98552000D02*
X54052000Y-98552000D01*
X43180000Y-81134806D02*
X45273394Y-83228200D01*
X50800000Y-87630000D02*
X50800000Y-97536000D01*
X45273394Y-81068200D02*
X46524200Y-81068200D01*
X46524200Y-81068200D02*
X51308000Y-85852000D01*
X44196000Y-75034000D02*
X44196000Y-79990806D01*
X44196000Y-79990806D02*
X45273394Y-81068200D01*
X57404000Y-86614000D02*
X57404000Y-100844000D01*
X55890000Y-102358000D02*
X55388000Y-102358000D01*
X57404000Y-100844000D02*
X55890000Y-102358000D01*
X45720000Y-73510000D02*
X44196000Y-75034000D01*
X56642000Y-85852000D02*
X57404000Y-86614000D01*
X51308000Y-85852000D02*
X56642000Y-85852000D01*
X61214000Y-83058000D02*
X53826000Y-75670000D01*
X56392000Y-104898000D02*
X61214000Y-100076000D01*
X61214000Y-100076000D02*
X61214000Y-83058000D01*
X53826000Y-75670000D02*
X45720000Y-75670000D01*
X55388000Y-104898000D02*
X56392000Y-104898000D01*
X61020000Y-61170000D02*
X67520000Y-54670000D01*
X38520000Y-83670000D02*
X38520000Y-67670000D01*
X40241800Y-65948200D02*
X54741800Y-65948200D01*
X66600000Y-47750000D02*
X66020000Y-47750000D01*
X59520000Y-61170000D02*
X61020000Y-61170000D01*
X67520000Y-48670000D02*
X66600000Y-47750000D01*
X54741800Y-65948200D02*
X59520000Y-61170000D01*
X67520000Y-54670000D02*
X67520000Y-48670000D01*
X39160000Y-84310000D02*
X38520000Y-83670000D01*
X38520000Y-67670000D02*
X40241800Y-65948200D01*
X41430000Y-84310000D02*
X39160000Y-84310000D01*
D21*
X69850000Y-94170000D02*
X69850000Y-84455000D01*
X68520000Y-40670000D02*
X64516000Y-36666000D01*
X60960000Y-63500000D02*
X68520000Y-55940000D01*
X68520000Y-55940000D02*
X68520000Y-40670000D01*
X64516000Y-36666000D02*
X64516000Y-35306000D01*
X59690000Y-63500000D02*
X60960000Y-63500000D01*
X45720000Y-79990000D02*
X47224000Y-79990000D01*
X47224000Y-79990000D02*
X51689000Y-84455000D01*
X51689000Y-84455000D02*
X59690000Y-84455000D01*
M02*
