G04 #@! TF.GenerationSoftware,KiCad,Pcbnew,(6.0.5-0)*
G04 #@! TF.CreationDate,2022-08-07T12:30:08-07:00*
G04 #@! TF.ProjectId,ac125a_dtmf,61633132-3561-45f6-9474-6d662e6b6963,rev?*
G04 #@! TF.SameCoordinates,Original*
G04 #@! TF.FileFunction,Soldermask,Top*
G04 #@! TF.FilePolarity,Negative*
%FSLAX46Y46*%
G04 Gerber Fmt 4.6, Leading zero omitted, Abs format (unit mm)*
G04 Created by KiCad (PCBNEW (6.0.5-0)) date 2022-08-07 12:30:08*
%MOMM*%
%LPD*%
G01*
G04 APERTURE LIST*
%ADD10C,1.500000*%
%ADD11C,4.800000*%
%ADD12R,1.700000X1.700000*%
%ADD13C,1.700000*%
%ADD14C,3.500000*%
%ADD15C,1.600000*%
%ADD16C,2.000000*%
%ADD17R,2.200000X2.200000*%
%ADD18O,2.200000X2.200000*%
%ADD19R,1.600000X1.600000*%
%ADD20O,1.600000X1.600000*%
%ADD21O,1.700000X1.700000*%
%ADD22R,1.800000X1.800000*%
%ADD23C,1.800000*%
%ADD24R,1.500000X3.000000*%
%ADD25O,1.500000X3.000000*%
%ADD26C,4.000000*%
%ADD27C,7.400000*%
G04 APERTURE END LIST*
D10*
X45720000Y-116610000D03*
X45720000Y-114450000D03*
X45720000Y-112290000D03*
X45720000Y-110130000D03*
X45720000Y-107970000D03*
X45720000Y-105810000D03*
X45720000Y-103650000D03*
X45720000Y-101490000D03*
X45720000Y-99330000D03*
X45720000Y-97170000D03*
X45720000Y-95010000D03*
X45720000Y-92850000D03*
X45720000Y-90690000D03*
X45720000Y-88530000D03*
X45720000Y-86370000D03*
X45720000Y-84210000D03*
X45720000Y-82050000D03*
X45720000Y-79890000D03*
X45720000Y-77730000D03*
X45720000Y-75570000D03*
X45720000Y-73410000D03*
X45720000Y-71250000D03*
X45720000Y-69090000D03*
X45720000Y-66930000D03*
X45720000Y-64770000D03*
X41430000Y-116610000D03*
X41430000Y-114450000D03*
X41430000Y-112290000D03*
X41430000Y-110130000D03*
X41430000Y-107970000D03*
X41430000Y-105810000D03*
X41430000Y-103650000D03*
X41430000Y-101490000D03*
X41430000Y-99330000D03*
X41430000Y-97170000D03*
X41430000Y-95010000D03*
X41430000Y-92850000D03*
X41430000Y-90690000D03*
X41430000Y-88530000D03*
X41430000Y-86370000D03*
X41430000Y-84210000D03*
X41430000Y-82050000D03*
X41430000Y-79890000D03*
X41430000Y-77730000D03*
X41430000Y-75570000D03*
X41430000Y-73410000D03*
X41430000Y-71250000D03*
X41430000Y-69090000D03*
X41430000Y-66930000D03*
X41430000Y-64770000D03*
D11*
X43575000Y-128115000D03*
X43575000Y-53265000D03*
D12*
X139700000Y-72390000D03*
D13*
X139700000Y-74890000D03*
X141700000Y-74890000D03*
X141700000Y-72390000D03*
D14*
X144410000Y-67620000D03*
X144410000Y-79660000D03*
D15*
X147320000Y-83820000D03*
X149820000Y-83820000D03*
X115570000Y-81280000D03*
X118070000Y-81280000D03*
X104100000Y-38100000D03*
X101600000Y-38100000D03*
X120650000Y-104140000D03*
X123150000Y-104140000D03*
D16*
X59690000Y-69215000D03*
X54690000Y-69215000D03*
X59690000Y-74930000D03*
X54690000Y-74930000D03*
X59690000Y-142240000D03*
X54690000Y-142240000D03*
X59690000Y-135890000D03*
X54690000Y-135890000D03*
D15*
X121920000Y-80010000D03*
X124420000Y-80010000D03*
X97790000Y-119380000D03*
X97790000Y-121880000D03*
X99060000Y-62230000D03*
X99060000Y-64730000D03*
X97790000Y-127000000D03*
X97790000Y-129500000D03*
X87630000Y-101600000D03*
X85130000Y-101600000D03*
X87630000Y-36830000D03*
X85130000Y-36830000D03*
D17*
X83820000Y-142240000D03*
D18*
X76200000Y-142240000D03*
D17*
X83820000Y-135890000D03*
D18*
X76200000Y-135890000D03*
D19*
X113030000Y-119380000D03*
D20*
X113030000Y-111760000D03*
D12*
X107950000Y-81280000D03*
D21*
X105410000Y-81280000D03*
X102870000Y-81280000D03*
X100330000Y-81280000D03*
X97790000Y-81280000D03*
X95250000Y-81280000D03*
D15*
X96520000Y-41910000D03*
D20*
X104140000Y-41910000D03*
D15*
X72390000Y-142240000D03*
D20*
X64770000Y-142240000D03*
D15*
X72390000Y-135890000D03*
D20*
X64770000Y-135890000D03*
D15*
X95250000Y-135890000D03*
D20*
X87630000Y-135890000D03*
D15*
X97790000Y-142240000D03*
D20*
X105410000Y-142240000D03*
D15*
X105410000Y-135890000D03*
D20*
X97790000Y-135890000D03*
D15*
X109220000Y-142240000D03*
D20*
X116840000Y-142240000D03*
D15*
X102870000Y-111760000D03*
D20*
X102870000Y-119380000D03*
D15*
X107950000Y-111760000D03*
D20*
X107950000Y-119380000D03*
D15*
X67310000Y-34290000D03*
D20*
X74930000Y-34290000D03*
D15*
X67310000Y-39370000D03*
D20*
X74930000Y-39370000D03*
D15*
X67310000Y-46990000D03*
D20*
X74930000Y-46990000D03*
D15*
X67691000Y-52070000D03*
D20*
X75311000Y-52070000D03*
D15*
X67691000Y-64770000D03*
D20*
X75311000Y-64770000D03*
D15*
X67310000Y-100965000D03*
D20*
X74930000Y-100965000D03*
D15*
X67310000Y-106045000D03*
D20*
X74930000Y-106045000D03*
D15*
X67310000Y-111760000D03*
D20*
X74930000Y-111760000D03*
D15*
X67310000Y-116840000D03*
D20*
X74930000Y-116840000D03*
D15*
X67310000Y-124015500D03*
D20*
X74930000Y-124015500D03*
D15*
X67310000Y-129540000D03*
D20*
X74930000Y-129540000D03*
D16*
X107950000Y-35156000D03*
X107950000Y-41656000D03*
X112450000Y-41656000D03*
X112450000Y-35156000D03*
D19*
X95250000Y-100330000D03*
D20*
X97790000Y-100330000D03*
X100330000Y-100330000D03*
X102870000Y-100330000D03*
X105410000Y-100330000D03*
X107950000Y-100330000D03*
X110490000Y-100330000D03*
X113030000Y-100330000D03*
X115570000Y-100330000D03*
X118110000Y-100330000D03*
X120650000Y-100330000D03*
X123190000Y-100330000D03*
X125730000Y-100330000D03*
X128270000Y-100330000D03*
X130810000Y-100330000D03*
X133350000Y-100330000D03*
X135890000Y-100330000D03*
X138430000Y-100330000D03*
X140970000Y-100330000D03*
X143510000Y-100330000D03*
X143510000Y-85090000D03*
X140970000Y-85090000D03*
X138430000Y-85090000D03*
X135890000Y-85090000D03*
X133350000Y-85090000D03*
X130810000Y-85090000D03*
X128270000Y-85090000D03*
X125730000Y-85090000D03*
X123190000Y-85090000D03*
X120650000Y-85090000D03*
X118110000Y-85090000D03*
X115570000Y-85090000D03*
X113030000Y-85090000D03*
X110490000Y-85090000D03*
X107950000Y-85090000D03*
X105410000Y-85090000D03*
X102870000Y-85090000D03*
X100330000Y-85090000D03*
X97790000Y-85090000D03*
X95250000Y-85090000D03*
D19*
X104140000Y-67310000D03*
D20*
X106680000Y-67310000D03*
X109220000Y-67310000D03*
X111760000Y-67310000D03*
X114300000Y-67310000D03*
X116840000Y-67310000D03*
X119380000Y-67310000D03*
X121920000Y-67310000D03*
X124460000Y-67310000D03*
X124460000Y-59690000D03*
X121920000Y-59690000D03*
X119380000Y-59690000D03*
X116840000Y-59690000D03*
X114300000Y-59690000D03*
X111760000Y-59690000D03*
X109220000Y-59690000D03*
X106680000Y-59690000D03*
X104140000Y-59690000D03*
D19*
X102870000Y-132080000D03*
D20*
X105410000Y-132080000D03*
X107950000Y-132080000D03*
X110490000Y-132080000D03*
X113030000Y-132080000D03*
X115570000Y-132080000D03*
X118110000Y-132080000D03*
X120650000Y-132080000D03*
X123190000Y-132080000D03*
X123190000Y-124460000D03*
X120650000Y-124460000D03*
X118110000Y-124460000D03*
X115570000Y-124460000D03*
X113030000Y-124460000D03*
X110490000Y-124460000D03*
X107950000Y-124460000D03*
X105410000Y-124460000D03*
X102870000Y-124460000D03*
D19*
X82550000Y-41910000D03*
D20*
X82550000Y-44450000D03*
X82550000Y-46990000D03*
X82550000Y-49530000D03*
X82550000Y-52070000D03*
X82550000Y-54610000D03*
X82550000Y-57150000D03*
X82550000Y-59690000D03*
X90170000Y-59690000D03*
X90170000Y-57150000D03*
X90170000Y-54610000D03*
X90170000Y-52070000D03*
X90170000Y-49530000D03*
X90170000Y-46990000D03*
X90170000Y-44450000D03*
X90170000Y-41910000D03*
D19*
X82550000Y-106680000D03*
D20*
X82550000Y-109220000D03*
X82550000Y-111760000D03*
X82550000Y-114300000D03*
X82550000Y-116840000D03*
X82550000Y-119380000D03*
X82550000Y-121920000D03*
X82550000Y-124460000D03*
X90170000Y-124460000D03*
X90170000Y-121920000D03*
X90170000Y-119380000D03*
X90170000Y-116840000D03*
X90170000Y-114300000D03*
X90170000Y-111760000D03*
X90170000Y-109220000D03*
X90170000Y-106680000D03*
D19*
X54610000Y-31750000D03*
D20*
X54610000Y-34290000D03*
X54610000Y-36830000D03*
X54610000Y-39370000D03*
X62230000Y-39370000D03*
X62230000Y-36830000D03*
X62230000Y-34290000D03*
X62230000Y-31750000D03*
D19*
X54610000Y-44450000D03*
D20*
X54610000Y-46990000D03*
X54610000Y-49530000D03*
X54610000Y-52070000D03*
X62230000Y-52070000D03*
X62230000Y-49530000D03*
X62230000Y-46990000D03*
X62230000Y-44450000D03*
D19*
X54610000Y-56896000D03*
D20*
X54610000Y-59436000D03*
X54610000Y-61976000D03*
X54610000Y-64516000D03*
X62230000Y-64516000D03*
X62230000Y-61976000D03*
X62230000Y-59436000D03*
X62230000Y-56896000D03*
D19*
X54610000Y-96520000D03*
D20*
X54610000Y-99060000D03*
X54610000Y-101600000D03*
X54610000Y-104140000D03*
X62230000Y-104140000D03*
X62230000Y-101600000D03*
X62230000Y-99060000D03*
X62230000Y-96520000D03*
D19*
X54610000Y-109220000D03*
D20*
X54610000Y-111760000D03*
X54610000Y-114300000D03*
X54610000Y-116840000D03*
X62230000Y-116840000D03*
X62230000Y-114300000D03*
X62230000Y-111760000D03*
X62230000Y-109220000D03*
D19*
X54610000Y-121920000D03*
D20*
X54610000Y-124460000D03*
X54610000Y-127000000D03*
X54610000Y-129540000D03*
X62230000Y-129540000D03*
X62230000Y-127000000D03*
X62230000Y-124460000D03*
X62230000Y-121920000D03*
D15*
X95250000Y-142240000D03*
D20*
X87630000Y-142240000D03*
D10*
X120650000Y-73660000D03*
X125530000Y-73660000D03*
D15*
X118745000Y-54610000D03*
D20*
X118745000Y-46990000D03*
D15*
X109220000Y-46990000D03*
D20*
X109220000Y-54610000D03*
D15*
X104140000Y-46990000D03*
D20*
X104140000Y-54610000D03*
D15*
X95250000Y-71120000D03*
D20*
X87630000Y-71120000D03*
D15*
X106680000Y-77470000D03*
D20*
X99060000Y-77470000D03*
D15*
X72390000Y-74930000D03*
D20*
X64770000Y-74930000D03*
D15*
X72390000Y-69215000D03*
D20*
X64770000Y-69215000D03*
D17*
X83820000Y-78740000D03*
D18*
X76200000Y-78740000D03*
D17*
X83820000Y-71120000D03*
D18*
X76200000Y-71120000D03*
D19*
X114300000Y-54610000D03*
D20*
X114300000Y-46990000D03*
D15*
X95250000Y-77470000D03*
D20*
X87630000Y-77470000D03*
D15*
X99060000Y-54610000D03*
X99060000Y-57110000D03*
X99060000Y-71120000D03*
D20*
X106680000Y-71120000D03*
D15*
X67691000Y-59690000D03*
D20*
X75311000Y-59690000D03*
D15*
X124460000Y-142240000D03*
D20*
X132080000Y-142240000D03*
D15*
X124460000Y-137160000D03*
D20*
X132080000Y-137160000D03*
D15*
X130810000Y-132080000D03*
D20*
X130810000Y-124460000D03*
D15*
X135890000Y-132080000D03*
D20*
X135890000Y-124460000D03*
D19*
X119380000Y-111760000D03*
D20*
X119380000Y-114300000D03*
X119380000Y-116840000D03*
X127000000Y-116840000D03*
X127000000Y-114300000D03*
X127000000Y-111760000D03*
D19*
X132080000Y-111760000D03*
D20*
X132080000Y-114300000D03*
X132080000Y-116840000D03*
X139700000Y-116840000D03*
X139700000Y-114300000D03*
X139700000Y-111760000D03*
D22*
X144780000Y-123190000D03*
D23*
X144780000Y-125730000D03*
D22*
X144780000Y-113030000D03*
D23*
X144780000Y-115570000D03*
D19*
X81280000Y-88900000D03*
D15*
X81280000Y-86400000D03*
X88900000Y-88900000D03*
X88900000Y-86400000D03*
D24*
X55880000Y-86360000D03*
D25*
X58420000Y-86360000D03*
X60960000Y-86360000D03*
X66040000Y-86360000D03*
X68580000Y-86360000D03*
X71120000Y-86360000D03*
X73660000Y-86360000D03*
D22*
X144780000Y-133350000D03*
D23*
X144780000Y-135890000D03*
D15*
X132080000Y-147320000D03*
D20*
X124460000Y-147320000D03*
D15*
X135890000Y-104140000D03*
X138390000Y-104140000D03*
D26*
X143660000Y-32410000D03*
X143660000Y-57410000D03*
D19*
X142240000Y-39370000D03*
D15*
X142240000Y-42140000D03*
X142240000Y-44910000D03*
X142240000Y-47680000D03*
X142240000Y-50450000D03*
X145080000Y-40755000D03*
X145080000Y-43525000D03*
X145080000Y-46295000D03*
X145080000Y-49065000D03*
D19*
X125730000Y-36830000D03*
D20*
X125730000Y-39370000D03*
X125730000Y-41910000D03*
X125730000Y-44450000D03*
X125730000Y-46990000D03*
X125730000Y-49530000D03*
X125730000Y-52070000D03*
X125730000Y-54610000D03*
X133350000Y-54610000D03*
X133350000Y-52070000D03*
X133350000Y-49530000D03*
X133350000Y-46990000D03*
X133350000Y-44450000D03*
X133350000Y-41910000D03*
X133350000Y-39370000D03*
X133350000Y-36830000D03*
D15*
X132080000Y-64770000D03*
X132080000Y-59770000D03*
X137160000Y-36830000D03*
X137160000Y-39330000D03*
X121920000Y-39370000D03*
X121920000Y-41870000D03*
X126365000Y-32385000D03*
X123865000Y-32385000D03*
X121920000Y-49530000D03*
X121920000Y-52030000D03*
X137160000Y-33655000D03*
X132160000Y-33655000D03*
D12*
X134620000Y-72390000D03*
D21*
X132080000Y-72390000D03*
D15*
X135382000Y-67310000D03*
D20*
X135382000Y-59690000D03*
D15*
X137160000Y-30480000D03*
D20*
X129540000Y-30480000D03*
D15*
X121920000Y-44450000D03*
X121920000Y-46950000D03*
X65405000Y-94615000D03*
D20*
X78105000Y-94615000D03*
D15*
X63500000Y-80010000D03*
D20*
X50800000Y-80010000D03*
D15*
X106680000Y-74295000D03*
D20*
X99060000Y-74295000D03*
D15*
X105410000Y-139065000D03*
D20*
X97790000Y-139065000D03*
D12*
X149860000Y-87630000D03*
D21*
X149860000Y-90170000D03*
X149860000Y-92710000D03*
X149860000Y-95250000D03*
X149860000Y-97790000D03*
X149860000Y-100330000D03*
X149860000Y-102870000D03*
X149860000Y-105410000D03*
X149860000Y-107950000D03*
X149860000Y-110490000D03*
X149860000Y-113030000D03*
X149860000Y-115570000D03*
X149860000Y-118110000D03*
X149860000Y-120650000D03*
X149860000Y-123190000D03*
D27*
X40640000Y-34290000D03*
X40640000Y-146050000D03*
X144780000Y-146050000D03*
X118110000Y-34290000D03*
M02*
