G04 #@! TF.GenerationSoftware,KiCad,Pcbnew,(6.0.5-0)*
G04 #@! TF.CreationDate,2022-08-07T12:30:07-07:00*
G04 #@! TF.ProjectId,ac125a_dtmf,61633132-3561-45f6-9474-6d662e6b6963,rev?*
G04 #@! TF.SameCoordinates,Original*
G04 #@! TF.FileFunction,Legend,Top*
G04 #@! TF.FilePolarity,Positive*
%FSLAX46Y46*%
G04 Gerber Fmt 4.6, Leading zero omitted, Abs format (unit mm)*
G04 Created by KiCad (PCBNEW (6.0.5-0)) date 2022-08-07 12:30:07*
%MOMM*%
%LPD*%
G01*
G04 APERTURE LIST*
%ADD10C,0.150000*%
%ADD11C,0.300000*%
%ADD12C,0.120000*%
G04 APERTURE END LIST*
D10*
X70073809Y-146602380D02*
X70264285Y-146602380D01*
X70359523Y-146650000D01*
X70454761Y-146745238D01*
X70502380Y-146935714D01*
X70502380Y-147269047D01*
X70454761Y-147459523D01*
X70359523Y-147554761D01*
X70264285Y-147602380D01*
X70073809Y-147602380D01*
X69978571Y-147554761D01*
X69883333Y-147459523D01*
X69835714Y-147269047D01*
X69835714Y-146935714D01*
X69883333Y-146745238D01*
X69978571Y-146650000D01*
X70073809Y-146602380D01*
X70930952Y-147602380D02*
X70930952Y-146602380D01*
X71502380Y-147602380D02*
X71073809Y-147030952D01*
X71502380Y-146602380D02*
X70930952Y-147173809D01*
X71930952Y-147602380D02*
X71930952Y-146602380D01*
X73121428Y-147316666D02*
X73597619Y-147316666D01*
X73026190Y-147602380D02*
X73359523Y-146602380D01*
X73692857Y-147602380D01*
X74597619Y-147507142D02*
X74550000Y-147554761D01*
X74407142Y-147602380D01*
X74311904Y-147602380D01*
X74169047Y-147554761D01*
X74073809Y-147459523D01*
X74026190Y-147364285D01*
X73978571Y-147173809D01*
X73978571Y-147030952D01*
X74026190Y-146840476D01*
X74073809Y-146745238D01*
X74169047Y-146650000D01*
X74311904Y-146602380D01*
X74407142Y-146602380D01*
X74550000Y-146650000D01*
X74597619Y-146697619D01*
X75550000Y-147602380D02*
X74978571Y-147602380D01*
X75264285Y-147602380D02*
X75264285Y-146602380D01*
X75169047Y-146745238D01*
X75073809Y-146840476D01*
X74978571Y-146888095D01*
X75930952Y-146697619D02*
X75978571Y-146650000D01*
X76073809Y-146602380D01*
X76311904Y-146602380D01*
X76407142Y-146650000D01*
X76454761Y-146697619D01*
X76502380Y-146792857D01*
X76502380Y-146888095D01*
X76454761Y-147030952D01*
X75883333Y-147602380D01*
X76502380Y-147602380D01*
X77407142Y-146602380D02*
X76930952Y-146602380D01*
X76883333Y-147078571D01*
X76930952Y-147030952D01*
X77026190Y-146983333D01*
X77264285Y-146983333D01*
X77359523Y-147030952D01*
X77407142Y-147078571D01*
X77454761Y-147173809D01*
X77454761Y-147411904D01*
X77407142Y-147507142D01*
X77359523Y-147554761D01*
X77264285Y-147602380D01*
X77026190Y-147602380D01*
X76930952Y-147554761D01*
X76883333Y-147507142D01*
X77835714Y-147316666D02*
X78311904Y-147316666D01*
X77740476Y-147602380D02*
X78073809Y-146602380D01*
X78407142Y-147602380D01*
X79502380Y-147602380D02*
X79502380Y-146602380D01*
X79740476Y-146602380D01*
X79883333Y-146650000D01*
X79978571Y-146745238D01*
X80026190Y-146840476D01*
X80073809Y-147030952D01*
X80073809Y-147173809D01*
X80026190Y-147364285D01*
X79978571Y-147459523D01*
X79883333Y-147554761D01*
X79740476Y-147602380D01*
X79502380Y-147602380D01*
X80359523Y-146602380D02*
X80930952Y-146602380D01*
X80645238Y-147602380D02*
X80645238Y-146602380D01*
X81264285Y-147602380D02*
X81264285Y-146602380D01*
X81597619Y-147316666D01*
X81930952Y-146602380D01*
X81930952Y-147602380D01*
X82740476Y-147078571D02*
X82407142Y-147078571D01*
X82407142Y-147602380D02*
X82407142Y-146602380D01*
X82883333Y-146602380D01*
X84597619Y-147507142D02*
X84549999Y-147554761D01*
X84407142Y-147602380D01*
X84311904Y-147602380D01*
X84169047Y-147554761D01*
X84073809Y-147459523D01*
X84026190Y-147364285D01*
X83978571Y-147173809D01*
X83978571Y-147030952D01*
X84026190Y-146840476D01*
X84073809Y-146745238D01*
X84169047Y-146650000D01*
X84311904Y-146602380D01*
X84407142Y-146602380D01*
X84549999Y-146650000D01*
X84597619Y-146697619D01*
X85169047Y-147602380D02*
X85073809Y-147554761D01*
X85026190Y-147507142D01*
X84978571Y-147411904D01*
X84978571Y-147126190D01*
X85026190Y-147030952D01*
X85073809Y-146983333D01*
X85169047Y-146935714D01*
X85311904Y-146935714D01*
X85407142Y-146983333D01*
X85454761Y-147030952D01*
X85502380Y-147126190D01*
X85502380Y-147411904D01*
X85454761Y-147507142D01*
X85407142Y-147554761D01*
X85311904Y-147602380D01*
X85169047Y-147602380D01*
X85930952Y-146935714D02*
X85930952Y-147602380D01*
X85930952Y-147030952D02*
X85978571Y-146983333D01*
X86073809Y-146935714D01*
X86216666Y-146935714D01*
X86311904Y-146983333D01*
X86359523Y-147078571D01*
X86359523Y-147602380D01*
X86740476Y-146935714D02*
X86978571Y-147602380D01*
X87216666Y-146935714D01*
X87978571Y-147554761D02*
X87883333Y-147602380D01*
X87692857Y-147602380D01*
X87597619Y-147554761D01*
X87549999Y-147459523D01*
X87549999Y-147078571D01*
X87597619Y-146983333D01*
X87692857Y-146935714D01*
X87883333Y-146935714D01*
X87978571Y-146983333D01*
X88026190Y-147078571D01*
X88026190Y-147173809D01*
X87549999Y-147269047D01*
X88454761Y-147602380D02*
X88454761Y-146935714D01*
X88454761Y-147126190D02*
X88502380Y-147030952D01*
X88549999Y-146983333D01*
X88645238Y-146935714D01*
X88740476Y-146935714D01*
X88930952Y-146935714D02*
X89311904Y-146935714D01*
X89073809Y-146602380D02*
X89073809Y-147459523D01*
X89121428Y-147554761D01*
X89216666Y-147602380D01*
X89311904Y-147602380D01*
X90026190Y-147554761D02*
X89930952Y-147602380D01*
X89740476Y-147602380D01*
X89645238Y-147554761D01*
X89597619Y-147459523D01*
X89597619Y-147078571D01*
X89645238Y-146983333D01*
X89740476Y-146935714D01*
X89930952Y-146935714D01*
X90026190Y-146983333D01*
X90073809Y-147078571D01*
X90073809Y-147173809D01*
X89597619Y-147269047D01*
X90502380Y-147602380D02*
X90502380Y-146935714D01*
X90502380Y-147126190D02*
X90550000Y-147030952D01*
X90597619Y-146983333D01*
X90692857Y-146935714D01*
X90788095Y-146935714D01*
X91883333Y-147602380D02*
X91883333Y-146602380D01*
X92311904Y-147554761D02*
X92407142Y-147602380D01*
X92597619Y-147602380D01*
X92692857Y-147554761D01*
X92740476Y-147459523D01*
X92740476Y-147411904D01*
X92692857Y-147316666D01*
X92597619Y-147269047D01*
X92454761Y-147269047D01*
X92359523Y-147221428D01*
X92311904Y-147126190D01*
X92311904Y-147078571D01*
X92359523Y-146983333D01*
X92454761Y-146935714D01*
X92597619Y-146935714D01*
X92692857Y-146983333D01*
X93121428Y-147554761D02*
X93216666Y-147602380D01*
X93407142Y-147602380D01*
X93502380Y-147554761D01*
X93550000Y-147459523D01*
X93550000Y-147411904D01*
X93502380Y-147316666D01*
X93407142Y-147269047D01*
X93264285Y-147269047D01*
X93169047Y-147221428D01*
X93121428Y-147126190D01*
X93121428Y-147078571D01*
X93169047Y-146983333D01*
X93264285Y-146935714D01*
X93407142Y-146935714D01*
X93502380Y-146983333D01*
X94692857Y-146697619D02*
X94740476Y-146650000D01*
X94835714Y-146602380D01*
X95073809Y-146602380D01*
X95169047Y-146650000D01*
X95216666Y-146697619D01*
X95264285Y-146792857D01*
X95264285Y-146888095D01*
X95216666Y-147030952D01*
X94645238Y-147602380D01*
X95264285Y-147602380D01*
X69597619Y-149593333D02*
X69550000Y-149545714D01*
X69454761Y-149402857D01*
X69407142Y-149307619D01*
X69359523Y-149164761D01*
X69311904Y-148926666D01*
X69311904Y-148736190D01*
X69359523Y-148498095D01*
X69407142Y-148355238D01*
X69454761Y-148260000D01*
X69550000Y-148117142D01*
X69597619Y-148069523D01*
X70407142Y-149164761D02*
X70311904Y-149212380D01*
X70121428Y-149212380D01*
X70026190Y-149164761D01*
X69978571Y-149117142D01*
X69930952Y-149021904D01*
X69930952Y-148736190D01*
X69978571Y-148640952D01*
X70026190Y-148593333D01*
X70121428Y-148545714D01*
X70311904Y-148545714D01*
X70407142Y-148593333D01*
X70740476Y-149593333D02*
X70788095Y-149545714D01*
X70883333Y-149402857D01*
X70930952Y-149307619D01*
X70978571Y-149164761D01*
X71026190Y-148926666D01*
X71026190Y-148736190D01*
X70978571Y-148498095D01*
X70930952Y-148355238D01*
X70883333Y-148260000D01*
X70788095Y-148117142D01*
X70740476Y-148069523D01*
X72216666Y-148307619D02*
X72264285Y-148260000D01*
X72359523Y-148212380D01*
X72597619Y-148212380D01*
X72692857Y-148260000D01*
X72740476Y-148307619D01*
X72788095Y-148402857D01*
X72788095Y-148498095D01*
X72740476Y-148640952D01*
X72169047Y-149212380D01*
X72788095Y-149212380D01*
X73407142Y-148212380D02*
X73502380Y-148212380D01*
X73597619Y-148260000D01*
X73645238Y-148307619D01*
X73692857Y-148402857D01*
X73740476Y-148593333D01*
X73740476Y-148831428D01*
X73692857Y-149021904D01*
X73645238Y-149117142D01*
X73597619Y-149164761D01*
X73502380Y-149212380D01*
X73407142Y-149212380D01*
X73311904Y-149164761D01*
X73264285Y-149117142D01*
X73216666Y-149021904D01*
X73169047Y-148831428D01*
X73169047Y-148593333D01*
X73216666Y-148402857D01*
X73264285Y-148307619D01*
X73311904Y-148260000D01*
X73407142Y-148212380D01*
X74121428Y-148307619D02*
X74169047Y-148260000D01*
X74264285Y-148212380D01*
X74502380Y-148212380D01*
X74597619Y-148260000D01*
X74645238Y-148307619D01*
X74692857Y-148402857D01*
X74692857Y-148498095D01*
X74645238Y-148640952D01*
X74073809Y-149212380D01*
X74692857Y-149212380D01*
X75311904Y-148212380D02*
X75407142Y-148212380D01*
X75502380Y-148260000D01*
X75550000Y-148307619D01*
X75597619Y-148402857D01*
X75645238Y-148593333D01*
X75645238Y-148831428D01*
X75597619Y-149021904D01*
X75550000Y-149117142D01*
X75502380Y-149164761D01*
X75407142Y-149212380D01*
X75311904Y-149212380D01*
X75216666Y-149164761D01*
X75169047Y-149117142D01*
X75121428Y-149021904D01*
X75073809Y-148831428D01*
X75073809Y-148593333D01*
X75121428Y-148402857D01*
X75169047Y-148307619D01*
X75216666Y-148260000D01*
X75311904Y-148212380D01*
X76835714Y-149212380D02*
X76835714Y-148212380D01*
X76835714Y-148688571D02*
X77407142Y-148688571D01*
X77407142Y-149212380D02*
X77407142Y-148212380D01*
X78026190Y-149212380D02*
X77930952Y-149164761D01*
X77883333Y-149117142D01*
X77835714Y-149021904D01*
X77835714Y-148736190D01*
X77883333Y-148640952D01*
X77930952Y-148593333D01*
X78026190Y-148545714D01*
X78169047Y-148545714D01*
X78264285Y-148593333D01*
X78311904Y-148640952D01*
X78359523Y-148736190D01*
X78359523Y-149021904D01*
X78311904Y-149117142D01*
X78264285Y-149164761D01*
X78169047Y-149212380D01*
X78026190Y-149212380D01*
X78692857Y-148545714D02*
X78883333Y-149212380D01*
X79073809Y-148736190D01*
X79264285Y-149212380D01*
X79454761Y-148545714D01*
X80264285Y-149212380D02*
X80264285Y-148688571D01*
X80216666Y-148593333D01*
X80121428Y-148545714D01*
X79930952Y-148545714D01*
X79835714Y-148593333D01*
X80264285Y-149164761D02*
X80169047Y-149212380D01*
X79930952Y-149212380D01*
X79835714Y-149164761D01*
X79788095Y-149069523D01*
X79788095Y-148974285D01*
X79835714Y-148879047D01*
X79930952Y-148831428D01*
X80169047Y-148831428D01*
X80264285Y-148783809D01*
X80740476Y-149212380D02*
X80740476Y-148545714D01*
X80740476Y-148736190D02*
X80788095Y-148640952D01*
X80835714Y-148593333D01*
X80930952Y-148545714D01*
X81026190Y-148545714D01*
X81788095Y-149212380D02*
X81788095Y-148212380D01*
X81788095Y-149164761D02*
X81692857Y-149212380D01*
X81502380Y-149212380D01*
X81407142Y-149164761D01*
X81359523Y-149117142D01*
X81311904Y-149021904D01*
X81311904Y-148736190D01*
X81359523Y-148640952D01*
X81407142Y-148593333D01*
X81502380Y-148545714D01*
X81692857Y-148545714D01*
X81788095Y-148593333D01*
X83026190Y-149212380D02*
X83026190Y-148212380D01*
X83359523Y-148926666D01*
X83692857Y-148212380D01*
X83692857Y-149212380D01*
X84169047Y-149117142D02*
X84216666Y-149164761D01*
X84169047Y-149212380D01*
X84121428Y-149164761D01*
X84169047Y-149117142D01*
X84169047Y-149212380D01*
X85407142Y-149212380D02*
X85407142Y-148212380D01*
X85407142Y-148688571D02*
X85978571Y-148688571D01*
X85978571Y-149212380D02*
X85978571Y-148212380D01*
X86883333Y-149212380D02*
X86883333Y-148688571D01*
X86835714Y-148593333D01*
X86740476Y-148545714D01*
X86550000Y-148545714D01*
X86454761Y-148593333D01*
X86883333Y-149164761D02*
X86788095Y-149212380D01*
X86550000Y-149212380D01*
X86454761Y-149164761D01*
X86407142Y-149069523D01*
X86407142Y-148974285D01*
X86454761Y-148879047D01*
X86550000Y-148831428D01*
X86788095Y-148831428D01*
X86883333Y-148783809D01*
X87359523Y-149212380D02*
X87359523Y-148545714D01*
X87359523Y-148736190D02*
X87407142Y-148640952D01*
X87454761Y-148593333D01*
X87550000Y-148545714D01*
X87645238Y-148545714D01*
X87835714Y-148545714D02*
X88216666Y-148545714D01*
X87978571Y-148212380D02*
X87978571Y-149069523D01*
X88026190Y-149164761D01*
X88121428Y-149212380D01*
X88216666Y-149212380D01*
X88930952Y-149164761D02*
X88835714Y-149212380D01*
X88645238Y-149212380D01*
X88550000Y-149164761D01*
X88502380Y-149069523D01*
X88502380Y-148688571D01*
X88550000Y-148593333D01*
X88645238Y-148545714D01*
X88835714Y-148545714D01*
X88930952Y-148593333D01*
X88978571Y-148688571D01*
X88978571Y-148783809D01*
X88502380Y-148879047D01*
X90169047Y-148831428D02*
X90930952Y-148831428D01*
X92073809Y-148212380D02*
X92311904Y-149212380D01*
X92502380Y-148498095D01*
X92692857Y-149212380D01*
X92930952Y-148212380D01*
X93216666Y-148212380D02*
X93883333Y-148212380D01*
X93216666Y-149212380D01*
X93883333Y-149212380D01*
X94216666Y-148307619D02*
X94264285Y-148260000D01*
X94359523Y-148212380D01*
X94597619Y-148212380D01*
X94692857Y-148260000D01*
X94740476Y-148307619D01*
X94788095Y-148402857D01*
X94788095Y-148498095D01*
X94740476Y-148640952D01*
X94169047Y-149212380D01*
X94788095Y-149212380D01*
X95883333Y-149307619D02*
X95788095Y-149260000D01*
X95692857Y-149164761D01*
X95549999Y-149021904D01*
X95454761Y-148974285D01*
X95359523Y-148974285D01*
X95407142Y-149212380D02*
X95311904Y-149164761D01*
X95216666Y-149069523D01*
X95169047Y-148879047D01*
X95169047Y-148545714D01*
X95216666Y-148355238D01*
X95311904Y-148260000D01*
X95407142Y-148212380D01*
X95597619Y-148212380D01*
X95692857Y-148260000D01*
X95788095Y-148355238D01*
X95835714Y-148545714D01*
X95835714Y-148879047D01*
X95788095Y-149069523D01*
X95692857Y-149164761D01*
X95597619Y-149212380D01*
X95407142Y-149212380D01*
X109037619Y-32202380D02*
X108704285Y-31726190D01*
X108466190Y-32202380D02*
X108466190Y-31202380D01*
X108847142Y-31202380D01*
X108942380Y-31250000D01*
X108990000Y-31297619D01*
X109037619Y-31392857D01*
X109037619Y-31535714D01*
X108990000Y-31630952D01*
X108942380Y-31678571D01*
X108847142Y-31726190D01*
X108466190Y-31726190D01*
X109466190Y-31678571D02*
X109799523Y-31678571D01*
X109942380Y-32202380D02*
X109466190Y-32202380D01*
X109466190Y-31202380D01*
X109942380Y-31202380D01*
X110323333Y-32154761D02*
X110466190Y-32202380D01*
X110704285Y-32202380D01*
X110799523Y-32154761D01*
X110847142Y-32107142D01*
X110894761Y-32011904D01*
X110894761Y-31916666D01*
X110847142Y-31821428D01*
X110799523Y-31773809D01*
X110704285Y-31726190D01*
X110513809Y-31678571D01*
X110418571Y-31630952D01*
X110370952Y-31583333D01*
X110323333Y-31488095D01*
X110323333Y-31392857D01*
X110370952Y-31297619D01*
X110418571Y-31250000D01*
X110513809Y-31202380D01*
X110751904Y-31202380D01*
X110894761Y-31250000D01*
X111323333Y-31678571D02*
X111656666Y-31678571D01*
X111799523Y-32202380D02*
X111323333Y-32202380D01*
X111323333Y-31202380D01*
X111799523Y-31202380D01*
X112085238Y-31202380D02*
X112656666Y-31202380D01*
X112370952Y-32202380D02*
X112370952Y-31202380D01*
X39179999Y-57067380D02*
X39370476Y-57067380D01*
X39465714Y-57115000D01*
X39560952Y-57210238D01*
X39608571Y-57400714D01*
X39608571Y-57734047D01*
X39560952Y-57924523D01*
X39465714Y-58019761D01*
X39370476Y-58067380D01*
X39179999Y-58067380D01*
X39084761Y-58019761D01*
X38989523Y-57924523D01*
X38941904Y-57734047D01*
X38941904Y-57400714D01*
X38989523Y-57210238D01*
X39084761Y-57115000D01*
X39179999Y-57067380D01*
X40037142Y-58067380D02*
X40037142Y-57067380D01*
X40608571Y-58067380D02*
X40179999Y-57495952D01*
X40608571Y-57067380D02*
X40037142Y-57638809D01*
X41037142Y-58067380D02*
X41037142Y-57067380D01*
X42227619Y-57781666D02*
X42703809Y-57781666D01*
X42132380Y-58067380D02*
X42465714Y-57067380D01*
X42799047Y-58067380D01*
X43703809Y-57972142D02*
X43656190Y-58019761D01*
X43513333Y-58067380D01*
X43418095Y-58067380D01*
X43275238Y-58019761D01*
X43179999Y-57924523D01*
X43132380Y-57829285D01*
X43084761Y-57638809D01*
X43084761Y-57495952D01*
X43132380Y-57305476D01*
X43179999Y-57210238D01*
X43275238Y-57115000D01*
X43418095Y-57067380D01*
X43513333Y-57067380D01*
X43656190Y-57115000D01*
X43703809Y-57162619D01*
X44656190Y-58067380D02*
X44084761Y-58067380D01*
X44370476Y-58067380D02*
X44370476Y-57067380D01*
X44275238Y-57210238D01*
X44179999Y-57305476D01*
X44084761Y-57353095D01*
X45037142Y-57162619D02*
X45084761Y-57115000D01*
X45179999Y-57067380D01*
X45418095Y-57067380D01*
X45513333Y-57115000D01*
X45560952Y-57162619D01*
X45608571Y-57257857D01*
X45608571Y-57353095D01*
X45560952Y-57495952D01*
X44989523Y-58067380D01*
X45608571Y-58067380D01*
X46513333Y-57067380D02*
X46037142Y-57067380D01*
X45989523Y-57543571D01*
X46037142Y-57495952D01*
X46132380Y-57448333D01*
X46370476Y-57448333D01*
X46465714Y-57495952D01*
X46513333Y-57543571D01*
X46560952Y-57638809D01*
X46560952Y-57876904D01*
X46513333Y-57972142D01*
X46465714Y-58019761D01*
X46370476Y-58067380D01*
X46132380Y-58067380D01*
X46037142Y-58019761D01*
X45989523Y-57972142D01*
X46941904Y-57781666D02*
X47418095Y-57781666D01*
X46846666Y-58067380D02*
X47180000Y-57067380D01*
X47513333Y-58067380D01*
X41060952Y-59582142D02*
X41013333Y-59629761D01*
X40870476Y-59677380D01*
X40775238Y-59677380D01*
X40632380Y-59629761D01*
X40537142Y-59534523D01*
X40489523Y-59439285D01*
X40441904Y-59248809D01*
X40441904Y-59105952D01*
X40489523Y-58915476D01*
X40537142Y-58820238D01*
X40632380Y-58725000D01*
X40775238Y-58677380D01*
X40870476Y-58677380D01*
X41013333Y-58725000D01*
X41060952Y-58772619D01*
X41680000Y-58677380D02*
X41870476Y-58677380D01*
X41965714Y-58725000D01*
X42060952Y-58820238D01*
X42108571Y-59010714D01*
X42108571Y-59344047D01*
X42060952Y-59534523D01*
X41965714Y-59629761D01*
X41870476Y-59677380D01*
X41680000Y-59677380D01*
X41584761Y-59629761D01*
X41489523Y-59534523D01*
X41441904Y-59344047D01*
X41441904Y-59010714D01*
X41489523Y-58820238D01*
X41584761Y-58725000D01*
X41680000Y-58677380D01*
X42537142Y-59677380D02*
X42537142Y-58677380D01*
X43108571Y-59677380D01*
X43108571Y-58677380D01*
X43584761Y-59677380D02*
X43584761Y-58677380D01*
X44156190Y-59677380D01*
X44156190Y-58677380D01*
X45822857Y-58677380D02*
X45632380Y-58677380D01*
X45537142Y-58725000D01*
X45489523Y-58772619D01*
X45394285Y-58915476D01*
X45346666Y-59105952D01*
X45346666Y-59486904D01*
X45394285Y-59582142D01*
X45441904Y-59629761D01*
X45537142Y-59677380D01*
X45727619Y-59677380D01*
X45822857Y-59629761D01*
X45870476Y-59582142D01*
X45918095Y-59486904D01*
X45918095Y-59248809D01*
X45870476Y-59153571D01*
X45822857Y-59105952D01*
X45727619Y-59058333D01*
X45537142Y-59058333D01*
X45441904Y-59105952D01*
X45394285Y-59153571D01*
X45346666Y-59248809D01*
X47458333Y-108307142D02*
X47410714Y-108354761D01*
X47267857Y-108402380D01*
X47172619Y-108402380D01*
X47029761Y-108354761D01*
X46934523Y-108259523D01*
X46886904Y-108164285D01*
X46839285Y-107973809D01*
X46839285Y-107830952D01*
X46886904Y-107640476D01*
X46934523Y-107545238D01*
X47029761Y-107450000D01*
X47172619Y-107402380D01*
X47267857Y-107402380D01*
X47410714Y-107450000D01*
X47458333Y-107497619D01*
X48077380Y-107402380D02*
X48172619Y-107402380D01*
X48267857Y-107450000D01*
X48315476Y-107497619D01*
X48363095Y-107592857D01*
X48410714Y-107783333D01*
X48410714Y-108021428D01*
X48363095Y-108211904D01*
X48315476Y-108307142D01*
X48267857Y-108354761D01*
X48172619Y-108402380D01*
X48077380Y-108402380D01*
X47982142Y-108354761D01*
X47934523Y-108307142D01*
X47886904Y-108211904D01*
X47839285Y-108021428D01*
X47839285Y-107783333D01*
X47886904Y-107592857D01*
X47934523Y-107497619D01*
X47982142Y-107450000D01*
X48077380Y-107402380D01*
X38608095Y-98766380D02*
X39179523Y-98766380D01*
X38893809Y-99766380D02*
X38893809Y-98766380D01*
X40036666Y-99766380D02*
X39465238Y-99766380D01*
X39750952Y-99766380D02*
X39750952Y-98766380D01*
X39655714Y-98909238D01*
X39560476Y-99004476D01*
X39465238Y-99052095D01*
X50879523Y-57602380D02*
X50879523Y-56602380D01*
X51260476Y-56602380D01*
X51355714Y-56650000D01*
X51403333Y-56697619D01*
X51450952Y-56792857D01*
X51450952Y-56935714D01*
X51403333Y-57030952D01*
X51355714Y-57078571D01*
X51260476Y-57126190D01*
X50879523Y-57126190D01*
X51879523Y-57078571D02*
X52212857Y-57078571D01*
X52355714Y-57602380D02*
X51879523Y-57602380D01*
X51879523Y-56602380D01*
X52355714Y-56602380D01*
X53308095Y-57602380D02*
X52736666Y-57602380D01*
X53022380Y-57602380D02*
X53022380Y-56602380D01*
X52927142Y-56745238D01*
X52831904Y-56840476D01*
X52736666Y-56888095D01*
X50831904Y-109672380D02*
X50831904Y-108672380D01*
X51212857Y-108672380D01*
X51308095Y-108720000D01*
X51355714Y-108767619D01*
X51403333Y-108862857D01*
X51403333Y-109005714D01*
X51355714Y-109100952D01*
X51308095Y-109148571D01*
X51212857Y-109196190D01*
X50831904Y-109196190D01*
X52403333Y-109577142D02*
X52355714Y-109624761D01*
X52212857Y-109672380D01*
X52117619Y-109672380D01*
X51974761Y-109624761D01*
X51879523Y-109529523D01*
X51831904Y-109434285D01*
X51784285Y-109243809D01*
X51784285Y-109100952D01*
X51831904Y-108910476D01*
X51879523Y-108815238D01*
X51974761Y-108720000D01*
X52117619Y-108672380D01*
X52212857Y-108672380D01*
X52355714Y-108720000D01*
X52403333Y-108767619D01*
X53022380Y-108672380D02*
X53117619Y-108672380D01*
X53212857Y-108720000D01*
X53260476Y-108767619D01*
X53308095Y-108862857D01*
X53355714Y-109053333D01*
X53355714Y-109291428D01*
X53308095Y-109481904D01*
X53260476Y-109577142D01*
X53212857Y-109624761D01*
X53117619Y-109672380D01*
X53022380Y-109672380D01*
X52927142Y-109624761D01*
X52879523Y-109577142D01*
X52831904Y-109481904D01*
X52784285Y-109291428D01*
X52784285Y-109053333D01*
X52831904Y-108862857D01*
X52879523Y-108767619D01*
X52927142Y-108720000D01*
X53022380Y-108672380D01*
X40401904Y-61682380D02*
X39925714Y-61682380D01*
X39878095Y-62158571D01*
X39925714Y-62110952D01*
X40020952Y-62063333D01*
X40259047Y-62063333D01*
X40354285Y-62110952D01*
X40401904Y-62158571D01*
X40449523Y-62253809D01*
X40449523Y-62491904D01*
X40401904Y-62587142D01*
X40354285Y-62634761D01*
X40259047Y-62682380D01*
X40020952Y-62682380D01*
X39925714Y-62634761D01*
X39878095Y-62587142D01*
X41068571Y-61682380D02*
X41163809Y-61682380D01*
X41259047Y-61730000D01*
X41306666Y-61777619D01*
X41354285Y-61872857D01*
X41401904Y-62063333D01*
X41401904Y-62301428D01*
X41354285Y-62491904D01*
X41306666Y-62587142D01*
X41259047Y-62634761D01*
X41163809Y-62682380D01*
X41068571Y-62682380D01*
X40973333Y-62634761D01*
X40925714Y-62587142D01*
X40878095Y-62491904D01*
X40830476Y-62301428D01*
X40830476Y-62063333D01*
X40878095Y-61872857D01*
X40925714Y-61777619D01*
X40973333Y-61730000D01*
X41068571Y-61682380D01*
X38711238Y-77652571D02*
X38854095Y-77700190D01*
X38901714Y-77747809D01*
X38949333Y-77843047D01*
X38949333Y-77985904D01*
X38901714Y-78081142D01*
X38854095Y-78128761D01*
X38758857Y-78176380D01*
X38377904Y-78176380D01*
X38377904Y-77176380D01*
X38711238Y-77176380D01*
X38806476Y-77224000D01*
X38854095Y-77271619D01*
X38901714Y-77366857D01*
X38901714Y-77462095D01*
X38854095Y-77557333D01*
X38806476Y-77604952D01*
X38711238Y-77652571D01*
X38377904Y-77652571D01*
X39330285Y-77271619D02*
X39377904Y-77224000D01*
X39473142Y-77176380D01*
X39711238Y-77176380D01*
X39806476Y-77224000D01*
X39854095Y-77271619D01*
X39901714Y-77366857D01*
X39901714Y-77462095D01*
X39854095Y-77604952D01*
X39282666Y-78176380D01*
X39901714Y-78176380D01*
X50879523Y-122372380D02*
X50879523Y-121372380D01*
X51260476Y-121372380D01*
X51355714Y-121420000D01*
X51403333Y-121467619D01*
X51450952Y-121562857D01*
X51450952Y-121705714D01*
X51403333Y-121800952D01*
X51355714Y-121848571D01*
X51260476Y-121896190D01*
X50879523Y-121896190D01*
X51879523Y-121848571D02*
X52212857Y-121848571D01*
X52355714Y-122372380D02*
X51879523Y-122372380D01*
X51879523Y-121372380D01*
X52355714Y-121372380D01*
X52974761Y-121372380D02*
X53070000Y-121372380D01*
X53165238Y-121420000D01*
X53212857Y-121467619D01*
X53260476Y-121562857D01*
X53308095Y-121753333D01*
X53308095Y-121991428D01*
X53260476Y-122181904D01*
X53212857Y-122277142D01*
X53165238Y-122324761D01*
X53070000Y-122372380D01*
X52974761Y-122372380D01*
X52879523Y-122324761D01*
X52831904Y-122277142D01*
X52784285Y-122181904D01*
X52736666Y-121991428D01*
X52736666Y-121753333D01*
X52784285Y-121562857D01*
X52831904Y-121467619D01*
X52879523Y-121420000D01*
X52974761Y-121372380D01*
D11*
X58315714Y-151808571D02*
X58315714Y-150308571D01*
X58958571Y-151808571D02*
X58958571Y-151022857D01*
X58887142Y-150880000D01*
X58744285Y-150808571D01*
X58529999Y-150808571D01*
X58387142Y-150880000D01*
X58315714Y-150951428D01*
X59458571Y-150808571D02*
X60029999Y-150808571D01*
X59672857Y-150308571D02*
X59672857Y-151594285D01*
X59744285Y-151737142D01*
X59887142Y-151808571D01*
X60029999Y-151808571D01*
X60315714Y-150808571D02*
X60887142Y-150808571D01*
X60529999Y-150308571D02*
X60529999Y-151594285D01*
X60601428Y-151737142D01*
X60744285Y-151808571D01*
X60887142Y-151808571D01*
X61387142Y-150808571D02*
X61387142Y-152308571D01*
X61387142Y-150880000D02*
X61529999Y-150808571D01*
X61815714Y-150808571D01*
X61958571Y-150880000D01*
X62029999Y-150951428D01*
X62101428Y-151094285D01*
X62101428Y-151522857D01*
X62029999Y-151665714D01*
X61958571Y-151737142D01*
X61815714Y-151808571D01*
X61529999Y-151808571D01*
X61387142Y-151737142D01*
X62672857Y-151737142D02*
X62815714Y-151808571D01*
X63101428Y-151808571D01*
X63244285Y-151737142D01*
X63315714Y-151594285D01*
X63315714Y-151522857D01*
X63244285Y-151380000D01*
X63101428Y-151308571D01*
X62887142Y-151308571D01*
X62744285Y-151237142D01*
X62672857Y-151094285D01*
X62672857Y-151022857D01*
X62744285Y-150880000D01*
X62887142Y-150808571D01*
X63101428Y-150808571D01*
X63244285Y-150880000D01*
X63958571Y-151665714D02*
X64029999Y-151737142D01*
X63958571Y-151808571D01*
X63887142Y-151737142D01*
X63958571Y-151665714D01*
X63958571Y-151808571D01*
X63958571Y-150880000D02*
X64029999Y-150951428D01*
X63958571Y-151022857D01*
X63887142Y-150951428D01*
X63958571Y-150880000D01*
X63958571Y-151022857D01*
X65744285Y-150237142D02*
X64458571Y-152165714D01*
X67315714Y-150237142D02*
X66029999Y-152165714D01*
X68458571Y-150808571D02*
X68458571Y-152022857D01*
X68387142Y-152165714D01*
X68315714Y-152237142D01*
X68172857Y-152308571D01*
X67958571Y-152308571D01*
X67815714Y-152237142D01*
X68458571Y-151737142D02*
X68315714Y-151808571D01*
X68029999Y-151808571D01*
X67887142Y-151737142D01*
X67815714Y-151665714D01*
X67744285Y-151522857D01*
X67744285Y-151094285D01*
X67815714Y-150951428D01*
X67887142Y-150880000D01*
X68029999Y-150808571D01*
X68315714Y-150808571D01*
X68458571Y-150880000D01*
X69172857Y-151808571D02*
X69172857Y-150808571D01*
X69172857Y-150308571D02*
X69101428Y-150380000D01*
X69172857Y-150451428D01*
X69244285Y-150380000D01*
X69172857Y-150308571D01*
X69172857Y-150451428D01*
X69672857Y-150808571D02*
X70244285Y-150808571D01*
X69887142Y-150308571D02*
X69887142Y-151594285D01*
X69958571Y-151737142D01*
X70101428Y-151808571D01*
X70244285Y-151808571D01*
X70744285Y-151808571D02*
X70744285Y-150308571D01*
X71387142Y-151808571D02*
X71387142Y-151022857D01*
X71315714Y-150880000D01*
X71172857Y-150808571D01*
X70958571Y-150808571D01*
X70815714Y-150880000D01*
X70744285Y-150951428D01*
X72744285Y-150808571D02*
X72744285Y-151808571D01*
X72101428Y-150808571D02*
X72101428Y-151594285D01*
X72172857Y-151737142D01*
X72315714Y-151808571D01*
X72529999Y-151808571D01*
X72672857Y-151737142D01*
X72744285Y-151665714D01*
X73458571Y-151808571D02*
X73458571Y-150308571D01*
X73458571Y-150880000D02*
X73601428Y-150808571D01*
X73887142Y-150808571D01*
X74029999Y-150880000D01*
X74101428Y-150951428D01*
X74172857Y-151094285D01*
X74172857Y-151522857D01*
X74101428Y-151665714D01*
X74029999Y-151737142D01*
X73887142Y-151808571D01*
X73601428Y-151808571D01*
X73458571Y-151737142D01*
X74815714Y-151665714D02*
X74887142Y-151737142D01*
X74815714Y-151808571D01*
X74744285Y-151737142D01*
X74815714Y-151665714D01*
X74815714Y-151808571D01*
X76172857Y-151737142D02*
X76029999Y-151808571D01*
X75744285Y-151808571D01*
X75601428Y-151737142D01*
X75529999Y-151665714D01*
X75458571Y-151522857D01*
X75458571Y-151094285D01*
X75529999Y-150951428D01*
X75601428Y-150880000D01*
X75744285Y-150808571D01*
X76029999Y-150808571D01*
X76172857Y-150880000D01*
X77029999Y-151808571D02*
X76887142Y-151737142D01*
X76815714Y-151665714D01*
X76744285Y-151522857D01*
X76744285Y-151094285D01*
X76815714Y-150951428D01*
X76887142Y-150880000D01*
X77029999Y-150808571D01*
X77244285Y-150808571D01*
X77387142Y-150880000D01*
X77458571Y-150951428D01*
X77529999Y-151094285D01*
X77529999Y-151522857D01*
X77458571Y-151665714D01*
X77387142Y-151737142D01*
X77244285Y-151808571D01*
X77029999Y-151808571D01*
X78172857Y-151808571D02*
X78172857Y-150808571D01*
X78172857Y-150951428D02*
X78244285Y-150880000D01*
X78387142Y-150808571D01*
X78601428Y-150808571D01*
X78744285Y-150880000D01*
X78815714Y-151022857D01*
X78815714Y-151808571D01*
X78815714Y-151022857D02*
X78887142Y-150880000D01*
X79029999Y-150808571D01*
X79244285Y-150808571D01*
X79387142Y-150880000D01*
X79458571Y-151022857D01*
X79458571Y-151808571D01*
X81244285Y-150237142D02*
X79958571Y-152165714D01*
X81744285Y-151808571D02*
X81744285Y-150308571D01*
X82387142Y-151808571D02*
X82387142Y-151022857D01*
X82315714Y-150880000D01*
X82172857Y-150808571D01*
X81958571Y-150808571D01*
X81815714Y-150880000D01*
X81744285Y-150951428D01*
X83101428Y-151808571D02*
X83101428Y-150308571D01*
X83744285Y-151808571D02*
X83744285Y-151022857D01*
X83672857Y-150880000D01*
X83529999Y-150808571D01*
X83315714Y-150808571D01*
X83172857Y-150880000D01*
X83101428Y-150951428D01*
X85101428Y-151808571D02*
X85101428Y-151022857D01*
X85029999Y-150880000D01*
X84887142Y-150808571D01*
X84601428Y-150808571D01*
X84458571Y-150880000D01*
X85101428Y-151737142D02*
X84958571Y-151808571D01*
X84601428Y-151808571D01*
X84458571Y-151737142D01*
X84387142Y-151594285D01*
X84387142Y-151451428D01*
X84458571Y-151308571D01*
X84601428Y-151237142D01*
X84958571Y-151237142D01*
X85101428Y-151165714D01*
X85815714Y-151808571D02*
X85815714Y-150808571D01*
X85815714Y-151094285D02*
X85887142Y-150951428D01*
X85958571Y-150880000D01*
X86101428Y-150808571D01*
X86244285Y-150808571D01*
X86529999Y-150808571D02*
X87101428Y-150808571D01*
X86744285Y-150308571D02*
X86744285Y-151594285D01*
X86815714Y-151737142D01*
X86958571Y-151808571D01*
X87101428Y-151808571D01*
X88172857Y-151737142D02*
X88030000Y-151808571D01*
X87744285Y-151808571D01*
X87601428Y-151737142D01*
X87530000Y-151594285D01*
X87530000Y-151022857D01*
X87601428Y-150880000D01*
X87744285Y-150808571D01*
X88030000Y-150808571D01*
X88172857Y-150880000D01*
X88244285Y-151022857D01*
X88244285Y-151165714D01*
X87530000Y-151308571D01*
X89958571Y-150237142D02*
X88672857Y-152165714D01*
X91101428Y-151808571D02*
X91101428Y-151022857D01*
X91030000Y-150880000D01*
X90887142Y-150808571D01*
X90601428Y-150808571D01*
X90458571Y-150880000D01*
X91101428Y-151737142D02*
X90958571Y-151808571D01*
X90601428Y-151808571D01*
X90458571Y-151737142D01*
X90387142Y-151594285D01*
X90387142Y-151451428D01*
X90458571Y-151308571D01*
X90601428Y-151237142D01*
X90958571Y-151237142D01*
X91101428Y-151165714D01*
X92458571Y-151737142D02*
X92315714Y-151808571D01*
X92030000Y-151808571D01*
X91887142Y-151737142D01*
X91815714Y-151665714D01*
X91744285Y-151522857D01*
X91744285Y-151094285D01*
X91815714Y-150951428D01*
X91887142Y-150880000D01*
X92030000Y-150808571D01*
X92315714Y-150808571D01*
X92458571Y-150880000D01*
X93887142Y-151808571D02*
X93030000Y-151808571D01*
X93458571Y-151808571D02*
X93458571Y-150308571D01*
X93315714Y-150522857D01*
X93172857Y-150665714D01*
X93030000Y-150737142D01*
X94458571Y-150451428D02*
X94530000Y-150380000D01*
X94672857Y-150308571D01*
X95030000Y-150308571D01*
X95172857Y-150380000D01*
X95244285Y-150451428D01*
X95315714Y-150594285D01*
X95315714Y-150737142D01*
X95244285Y-150951428D01*
X94387142Y-151808571D01*
X95315714Y-151808571D01*
X96672857Y-150308571D02*
X95958571Y-150308571D01*
X95887142Y-151022857D01*
X95958571Y-150951428D01*
X96101428Y-150880000D01*
X96458571Y-150880000D01*
X96601428Y-150951428D01*
X96672857Y-151022857D01*
X96744285Y-151165714D01*
X96744285Y-151522857D01*
X96672857Y-151665714D01*
X96601428Y-151737142D01*
X96458571Y-151808571D01*
X96101428Y-151808571D01*
X95958571Y-151737142D01*
X95887142Y-151665714D01*
X98029999Y-151808571D02*
X98029999Y-151022857D01*
X97958571Y-150880000D01*
X97815714Y-150808571D01*
X97529999Y-150808571D01*
X97387142Y-150880000D01*
X98029999Y-151737142D02*
X97887142Y-151808571D01*
X97529999Y-151808571D01*
X97387142Y-151737142D01*
X97315714Y-151594285D01*
X97315714Y-151451428D01*
X97387142Y-151308571D01*
X97529999Y-151237142D01*
X97887142Y-151237142D01*
X98029999Y-151165714D01*
X98387142Y-151951428D02*
X99529999Y-151951428D01*
X100529999Y-151808571D02*
X100529999Y-150308571D01*
X100529999Y-151737142D02*
X100387142Y-151808571D01*
X100101428Y-151808571D01*
X99958571Y-151737142D01*
X99887142Y-151665714D01*
X99815714Y-151522857D01*
X99815714Y-151094285D01*
X99887142Y-150951428D01*
X99958571Y-150880000D01*
X100101428Y-150808571D01*
X100387142Y-150808571D01*
X100529999Y-150880000D01*
X101029999Y-150808571D02*
X101601428Y-150808571D01*
X101244285Y-150308571D02*
X101244285Y-151594285D01*
X101315714Y-151737142D01*
X101458571Y-151808571D01*
X101601428Y-151808571D01*
X102101428Y-151808571D02*
X102101428Y-150808571D01*
X102101428Y-150951428D02*
X102172857Y-150880000D01*
X102315714Y-150808571D01*
X102529999Y-150808571D01*
X102672857Y-150880000D01*
X102744285Y-151022857D01*
X102744285Y-151808571D01*
X102744285Y-151022857D02*
X102815714Y-150880000D01*
X102958571Y-150808571D01*
X103172857Y-150808571D01*
X103315714Y-150880000D01*
X103387142Y-151022857D01*
X103387142Y-151808571D01*
X103887142Y-150808571D02*
X104458571Y-150808571D01*
X104101428Y-151808571D02*
X104101428Y-150522857D01*
X104172857Y-150380000D01*
X104315714Y-150308571D01*
X104458571Y-150308571D01*
D10*
X47521904Y-103132000D02*
X47426666Y-103084380D01*
X47283809Y-103084380D01*
X47140952Y-103132000D01*
X47045714Y-103227238D01*
X46998095Y-103322476D01*
X46950476Y-103512952D01*
X46950476Y-103655809D01*
X46998095Y-103846285D01*
X47045714Y-103941523D01*
X47140952Y-104036761D01*
X47283809Y-104084380D01*
X47379047Y-104084380D01*
X47521904Y-104036761D01*
X47569523Y-103989142D01*
X47569523Y-103655809D01*
X47379047Y-103655809D01*
X48569523Y-104084380D02*
X48236190Y-103608190D01*
X47998095Y-104084380D02*
X47998095Y-103084380D01*
X48379047Y-103084380D01*
X48474285Y-103132000D01*
X48521904Y-103179619D01*
X48569523Y-103274857D01*
X48569523Y-103417714D01*
X48521904Y-103512952D01*
X48474285Y-103560571D01*
X48379047Y-103608190D01*
X47998095Y-103608190D01*
X48998095Y-104084380D02*
X48998095Y-103084380D01*
X49236190Y-103084380D01*
X49379047Y-103132000D01*
X49474285Y-103227238D01*
X49521904Y-103322476D01*
X49569523Y-103512952D01*
X49569523Y-103655809D01*
X49521904Y-103846285D01*
X49474285Y-103941523D01*
X49379047Y-104036761D01*
X49236190Y-104084380D01*
X48998095Y-104084380D01*
X37496904Y-93162380D02*
X37496904Y-92162380D01*
X37877857Y-92162380D01*
X37973095Y-92210000D01*
X38020714Y-92257619D01*
X38068333Y-92352857D01*
X38068333Y-92495714D01*
X38020714Y-92590952D01*
X37973095Y-92638571D01*
X37877857Y-92686190D01*
X37496904Y-92686190D01*
X39068333Y-93067142D02*
X39020714Y-93114761D01*
X38877857Y-93162380D01*
X38782619Y-93162380D01*
X38639761Y-93114761D01*
X38544523Y-93019523D01*
X38496904Y-92924285D01*
X38449285Y-92733809D01*
X38449285Y-92590952D01*
X38496904Y-92400476D01*
X38544523Y-92305238D01*
X38639761Y-92210000D01*
X38782619Y-92162380D01*
X38877857Y-92162380D01*
X39020714Y-92210000D01*
X39068333Y-92257619D01*
X40020714Y-93162380D02*
X39449285Y-93162380D01*
X39735000Y-93162380D02*
X39735000Y-92162380D01*
X39639761Y-92305238D01*
X39544523Y-92400476D01*
X39449285Y-92448095D01*
X37719142Y-97559761D02*
X37862000Y-97607380D01*
X38100095Y-97607380D01*
X38195333Y-97559761D01*
X38242952Y-97512142D01*
X38290571Y-97416904D01*
X38290571Y-97321666D01*
X38242952Y-97226428D01*
X38195333Y-97178809D01*
X38100095Y-97131190D01*
X37909619Y-97083571D01*
X37814380Y-97035952D01*
X37766761Y-96988333D01*
X37719142Y-96893095D01*
X37719142Y-96797857D01*
X37766761Y-96702619D01*
X37814380Y-96655000D01*
X37909619Y-96607380D01*
X38147714Y-96607380D01*
X38290571Y-96655000D01*
X38576285Y-96607380D02*
X39147714Y-96607380D01*
X38862000Y-97607380D02*
X38862000Y-96607380D01*
X40004857Y-97607380D02*
X39433428Y-97607380D01*
X39719142Y-97607380D02*
X39719142Y-96607380D01*
X39623904Y-96750238D01*
X39528666Y-96845476D01*
X39433428Y-96893095D01*
X50831904Y-37282380D02*
X50831904Y-36282380D01*
X51212857Y-36282380D01*
X51308095Y-36330000D01*
X51355714Y-36377619D01*
X51403333Y-36472857D01*
X51403333Y-36615714D01*
X51355714Y-36710952D01*
X51308095Y-36758571D01*
X51212857Y-36806190D01*
X50831904Y-36806190D01*
X52165238Y-36758571D02*
X52308095Y-36806190D01*
X52355714Y-36853809D01*
X52403333Y-36949047D01*
X52403333Y-37091904D01*
X52355714Y-37187142D01*
X52308095Y-37234761D01*
X52212857Y-37282380D01*
X51831904Y-37282380D01*
X51831904Y-36282380D01*
X52165238Y-36282380D01*
X52260476Y-36330000D01*
X52308095Y-36377619D01*
X52355714Y-36472857D01*
X52355714Y-36568095D01*
X52308095Y-36663333D01*
X52260476Y-36710952D01*
X52165238Y-36758571D01*
X51831904Y-36758571D01*
X53355714Y-37282380D02*
X52784285Y-37282380D01*
X53070000Y-37282380D02*
X53070000Y-36282380D01*
X52974761Y-36425238D01*
X52879523Y-36520476D01*
X52784285Y-36568095D01*
X39878095Y-118927619D02*
X39925714Y-118880000D01*
X40020952Y-118832380D01*
X40259047Y-118832380D01*
X40354285Y-118880000D01*
X40401904Y-118927619D01*
X40449523Y-119022857D01*
X40449523Y-119118095D01*
X40401904Y-119260952D01*
X39830476Y-119832380D01*
X40449523Y-119832380D01*
X41306666Y-118832380D02*
X41116190Y-118832380D01*
X41020952Y-118880000D01*
X40973333Y-118927619D01*
X40878095Y-119070476D01*
X40830476Y-119260952D01*
X40830476Y-119641904D01*
X40878095Y-119737142D01*
X40925714Y-119784761D01*
X41020952Y-119832380D01*
X41211428Y-119832380D01*
X41306666Y-119784761D01*
X41354285Y-119737142D01*
X41401904Y-119641904D01*
X41401904Y-119403809D01*
X41354285Y-119308571D01*
X41306666Y-119260952D01*
X41211428Y-119213333D01*
X41020952Y-119213333D01*
X40925714Y-119260952D01*
X40878095Y-119308571D01*
X40830476Y-119403809D01*
X47021904Y-93416380D02*
X47021904Y-92416380D01*
X47402857Y-92416380D01*
X47498095Y-92464000D01*
X47545714Y-92511619D01*
X47593333Y-92606857D01*
X47593333Y-92749714D01*
X47545714Y-92844952D01*
X47498095Y-92892571D01*
X47402857Y-92940190D01*
X47021904Y-92940190D01*
X48021904Y-93416380D02*
X48021904Y-92416380D01*
X48260000Y-92416380D01*
X48402857Y-92464000D01*
X48498095Y-92559238D01*
X48545714Y-92654476D01*
X48593333Y-92844952D01*
X48593333Y-92987809D01*
X48545714Y-93178285D01*
X48498095Y-93273523D01*
X48402857Y-93368761D01*
X48260000Y-93416380D01*
X48021904Y-93416380D01*
X49545714Y-93416380D02*
X48974285Y-93416380D01*
X49260000Y-93416380D02*
X49260000Y-92416380D01*
X49164761Y-92559238D01*
X49069523Y-92654476D01*
X48974285Y-92702095D01*
X38608095Y-116038380D02*
X39179523Y-116038380D01*
X38893809Y-117038380D02*
X38893809Y-116038380D01*
X39703333Y-116038380D02*
X39798571Y-116038380D01*
X39893809Y-116086000D01*
X39941428Y-116133619D01*
X39989047Y-116228857D01*
X40036666Y-116419333D01*
X40036666Y-116657428D01*
X39989047Y-116847904D01*
X39941428Y-116943142D01*
X39893809Y-116990761D01*
X39798571Y-117038380D01*
X39703333Y-117038380D01*
X39608095Y-116990761D01*
X39560476Y-116943142D01*
X39512857Y-116847904D01*
X39465238Y-116657428D01*
X39465238Y-116419333D01*
X39512857Y-116228857D01*
X39560476Y-116133619D01*
X39608095Y-116086000D01*
X39703333Y-116038380D01*
X37719142Y-114958761D02*
X37862000Y-115006380D01*
X38100095Y-115006380D01*
X38195333Y-114958761D01*
X38242952Y-114911142D01*
X38290571Y-114815904D01*
X38290571Y-114720666D01*
X38242952Y-114625428D01*
X38195333Y-114577809D01*
X38100095Y-114530190D01*
X37909619Y-114482571D01*
X37814380Y-114434952D01*
X37766761Y-114387333D01*
X37719142Y-114292095D01*
X37719142Y-114196857D01*
X37766761Y-114101619D01*
X37814380Y-114054000D01*
X37909619Y-114006380D01*
X38147714Y-114006380D01*
X38290571Y-114054000D01*
X38576285Y-114006380D02*
X39147714Y-114006380D01*
X38862000Y-115006380D02*
X38862000Y-114006380D01*
X39671523Y-114006380D02*
X39766761Y-114006380D01*
X39862000Y-114054000D01*
X39909619Y-114101619D01*
X39957238Y-114196857D01*
X40004857Y-114387333D01*
X40004857Y-114625428D01*
X39957238Y-114815904D01*
X39909619Y-114911142D01*
X39862000Y-114958761D01*
X39766761Y-115006380D01*
X39671523Y-115006380D01*
X39576285Y-114958761D01*
X39528666Y-114911142D01*
X39481047Y-114815904D01*
X39433428Y-114625428D01*
X39433428Y-114387333D01*
X39481047Y-114196857D01*
X39528666Y-114101619D01*
X39576285Y-114054000D01*
X39671523Y-114006380D01*
X46005714Y-119832380D02*
X45434285Y-119832380D01*
X45720000Y-119832380D02*
X45720000Y-118832380D01*
X45624761Y-118975238D01*
X45529523Y-119070476D01*
X45434285Y-119118095D01*
X50903333Y-96972380D02*
X50903333Y-95972380D01*
X51284285Y-95972380D01*
X51379523Y-96020000D01*
X51427142Y-96067619D01*
X51474761Y-96162857D01*
X51474761Y-96305714D01*
X51427142Y-96400952D01*
X51379523Y-96448571D01*
X51284285Y-96496190D01*
X50903333Y-96496190D01*
X51855714Y-96686666D02*
X52331904Y-96686666D01*
X51760476Y-96972380D02*
X52093809Y-95972380D01*
X52427142Y-96972380D01*
X52950952Y-95972380D02*
X53046190Y-95972380D01*
X53141428Y-96020000D01*
X53189047Y-96067619D01*
X53236666Y-96162857D01*
X53284285Y-96353333D01*
X53284285Y-96591428D01*
X53236666Y-96781904D01*
X53189047Y-96877142D01*
X53141428Y-96924761D01*
X53046190Y-96972380D01*
X52950952Y-96972380D01*
X52855714Y-96924761D01*
X52808095Y-96877142D01*
X52760476Y-96781904D01*
X52712857Y-96591428D01*
X52712857Y-96353333D01*
X52760476Y-96162857D01*
X52808095Y-96067619D01*
X52855714Y-96020000D01*
X52950952Y-95972380D01*
X37496904Y-110688380D02*
X37496904Y-109688380D01*
X37877857Y-109688380D01*
X37973095Y-109736000D01*
X38020714Y-109783619D01*
X38068333Y-109878857D01*
X38068333Y-110021714D01*
X38020714Y-110116952D01*
X37973095Y-110164571D01*
X37877857Y-110212190D01*
X37496904Y-110212190D01*
X39068333Y-110593142D02*
X39020714Y-110640761D01*
X38877857Y-110688380D01*
X38782619Y-110688380D01*
X38639761Y-110640761D01*
X38544523Y-110545523D01*
X38496904Y-110450285D01*
X38449285Y-110259809D01*
X38449285Y-110116952D01*
X38496904Y-109926476D01*
X38544523Y-109831238D01*
X38639761Y-109736000D01*
X38782619Y-109688380D01*
X38877857Y-109688380D01*
X39020714Y-109736000D01*
X39068333Y-109783619D01*
X39687380Y-109688380D02*
X39782619Y-109688380D01*
X39877857Y-109736000D01*
X39925476Y-109783619D01*
X39973095Y-109878857D01*
X40020714Y-110069333D01*
X40020714Y-110307428D01*
X39973095Y-110497904D01*
X39925476Y-110593142D01*
X39877857Y-110640761D01*
X39782619Y-110688380D01*
X39687380Y-110688380D01*
X39592142Y-110640761D01*
X39544523Y-110593142D01*
X39496904Y-110497904D01*
X39449285Y-110307428D01*
X39449285Y-110069333D01*
X39496904Y-109878857D01*
X39544523Y-109783619D01*
X39592142Y-109736000D01*
X39687380Y-109688380D01*
X37544523Y-108402380D02*
X37544523Y-107402380D01*
X37925476Y-107402380D01*
X38020714Y-107450000D01*
X38068333Y-107497619D01*
X38115952Y-107592857D01*
X38115952Y-107735714D01*
X38068333Y-107830952D01*
X38020714Y-107878571D01*
X37925476Y-107926190D01*
X37544523Y-107926190D01*
X38544523Y-107878571D02*
X38877857Y-107878571D01*
X39020714Y-108402380D02*
X38544523Y-108402380D01*
X38544523Y-107402380D01*
X39020714Y-107402380D01*
X39639761Y-107402380D02*
X39735000Y-107402380D01*
X39830238Y-107450000D01*
X39877857Y-107497619D01*
X39925476Y-107592857D01*
X39973095Y-107783333D01*
X39973095Y-108021428D01*
X39925476Y-108211904D01*
X39877857Y-108307142D01*
X39830238Y-108354761D01*
X39735000Y-108402380D01*
X39639761Y-108402380D01*
X39544523Y-108354761D01*
X39496904Y-108307142D01*
X39449285Y-108211904D01*
X39401666Y-108021428D01*
X39401666Y-107783333D01*
X39449285Y-107592857D01*
X39496904Y-107497619D01*
X39544523Y-107450000D01*
X39639761Y-107402380D01*
X47585333Y-117038380D02*
X47252000Y-116562190D01*
X47013904Y-117038380D02*
X47013904Y-116038380D01*
X47394857Y-116038380D01*
X47490095Y-116086000D01*
X47537714Y-116133619D01*
X47585333Y-116228857D01*
X47585333Y-116371714D01*
X47537714Y-116466952D01*
X47490095Y-116514571D01*
X47394857Y-116562190D01*
X47013904Y-116562190D01*
X48204380Y-116038380D02*
X48299619Y-116038380D01*
X48394857Y-116086000D01*
X48442476Y-116133619D01*
X48490095Y-116228857D01*
X48537714Y-116419333D01*
X48537714Y-116657428D01*
X48490095Y-116847904D01*
X48442476Y-116943142D01*
X48394857Y-116990761D01*
X48299619Y-117038380D01*
X48204380Y-117038380D01*
X48109142Y-116990761D01*
X48061523Y-116943142D01*
X48013904Y-116847904D01*
X47966285Y-116657428D01*
X47966285Y-116419333D01*
X48013904Y-116228857D01*
X48061523Y-116133619D01*
X48109142Y-116086000D01*
X48204380Y-116038380D01*
X47021904Y-110688380D02*
X47021904Y-109688380D01*
X47402857Y-109688380D01*
X47498095Y-109736000D01*
X47545714Y-109783619D01*
X47593333Y-109878857D01*
X47593333Y-110021714D01*
X47545714Y-110116952D01*
X47498095Y-110164571D01*
X47402857Y-110212190D01*
X47021904Y-110212190D01*
X48021904Y-110688380D02*
X48021904Y-109688380D01*
X48260000Y-109688380D01*
X48402857Y-109736000D01*
X48498095Y-109831238D01*
X48545714Y-109926476D01*
X48593333Y-110116952D01*
X48593333Y-110259809D01*
X48545714Y-110450285D01*
X48498095Y-110545523D01*
X48402857Y-110640761D01*
X48260000Y-110688380D01*
X48021904Y-110688380D01*
X49212380Y-109688380D02*
X49307619Y-109688380D01*
X49402857Y-109736000D01*
X49450476Y-109783619D01*
X49498095Y-109878857D01*
X49545714Y-110069333D01*
X49545714Y-110307428D01*
X49498095Y-110497904D01*
X49450476Y-110593142D01*
X49402857Y-110640761D01*
X49307619Y-110688380D01*
X49212380Y-110688380D01*
X49117142Y-110640761D01*
X49069523Y-110593142D01*
X49021904Y-110497904D01*
X48974285Y-110307428D01*
X48974285Y-110069333D01*
X49021904Y-109878857D01*
X49069523Y-109783619D01*
X49117142Y-109736000D01*
X49212380Y-109688380D01*
X50831904Y-102052380D02*
X50831904Y-101052380D01*
X51212857Y-101052380D01*
X51308095Y-101100000D01*
X51355714Y-101147619D01*
X51403333Y-101242857D01*
X51403333Y-101385714D01*
X51355714Y-101480952D01*
X51308095Y-101528571D01*
X51212857Y-101576190D01*
X50831904Y-101576190D01*
X52165238Y-101528571D02*
X52308095Y-101576190D01*
X52355714Y-101623809D01*
X52403333Y-101719047D01*
X52403333Y-101861904D01*
X52355714Y-101957142D01*
X52308095Y-102004761D01*
X52212857Y-102052380D01*
X51831904Y-102052380D01*
X51831904Y-101052380D01*
X52165238Y-101052380D01*
X52260476Y-101100000D01*
X52308095Y-101147619D01*
X52355714Y-101242857D01*
X52355714Y-101338095D01*
X52308095Y-101433333D01*
X52260476Y-101480952D01*
X52165238Y-101528571D01*
X51831904Y-101528571D01*
X53022380Y-101052380D02*
X53117619Y-101052380D01*
X53212857Y-101100000D01*
X53260476Y-101147619D01*
X53308095Y-101242857D01*
X53355714Y-101433333D01*
X53355714Y-101671428D01*
X53308095Y-101861904D01*
X53260476Y-101957142D01*
X53212857Y-102004761D01*
X53117619Y-102052380D01*
X53022380Y-102052380D01*
X52927142Y-102004761D01*
X52879523Y-101957142D01*
X52831904Y-101861904D01*
X52784285Y-101671428D01*
X52784285Y-101433333D01*
X52831904Y-101242857D01*
X52879523Y-101147619D01*
X52927142Y-101100000D01*
X53022380Y-101052380D01*
X47537714Y-77224000D02*
X47442476Y-77176380D01*
X47299619Y-77176380D01*
X47156761Y-77224000D01*
X47061523Y-77319238D01*
X47013904Y-77414476D01*
X46966285Y-77604952D01*
X46966285Y-77747809D01*
X47013904Y-77938285D01*
X47061523Y-78033523D01*
X47156761Y-78128761D01*
X47299619Y-78176380D01*
X47394857Y-78176380D01*
X47537714Y-78128761D01*
X47585333Y-78081142D01*
X47585333Y-77747809D01*
X47394857Y-77747809D01*
X47966285Y-77271619D02*
X48013904Y-77224000D01*
X48109142Y-77176380D01*
X48347238Y-77176380D01*
X48442476Y-77224000D01*
X48490095Y-77271619D01*
X48537714Y-77366857D01*
X48537714Y-77462095D01*
X48490095Y-77604952D01*
X47918666Y-78176380D01*
X48537714Y-78176380D01*
X34703095Y-103703428D02*
X35465000Y-103703428D01*
X36369761Y-103417714D02*
X36369761Y-104084380D01*
X36131666Y-103036761D02*
X35893571Y-103751047D01*
X36512619Y-103751047D01*
X37036428Y-103512952D02*
X36941190Y-103465333D01*
X36893571Y-103417714D01*
X36845952Y-103322476D01*
X36845952Y-103274857D01*
X36893571Y-103179619D01*
X36941190Y-103132000D01*
X37036428Y-103084380D01*
X37226904Y-103084380D01*
X37322142Y-103132000D01*
X37369761Y-103179619D01*
X37417380Y-103274857D01*
X37417380Y-103322476D01*
X37369761Y-103417714D01*
X37322142Y-103465333D01*
X37226904Y-103512952D01*
X37036428Y-103512952D01*
X36941190Y-103560571D01*
X36893571Y-103608190D01*
X36845952Y-103703428D01*
X36845952Y-103893904D01*
X36893571Y-103989142D01*
X36941190Y-104036761D01*
X37036428Y-104084380D01*
X37226904Y-104084380D01*
X37322142Y-104036761D01*
X37369761Y-103989142D01*
X37417380Y-103893904D01*
X37417380Y-103703428D01*
X37369761Y-103608190D01*
X37322142Y-103560571D01*
X37226904Y-103512952D01*
X37703095Y-103084380D02*
X38036428Y-104084380D01*
X38369761Y-103084380D01*
X38703095Y-104084380D02*
X38703095Y-103084380D01*
X38941190Y-103084380D01*
X39084047Y-103132000D01*
X39179285Y-103227238D01*
X39226904Y-103322476D01*
X39274523Y-103512952D01*
X39274523Y-103655809D01*
X39226904Y-103846285D01*
X39179285Y-103941523D01*
X39084047Y-104036761D01*
X38941190Y-104084380D01*
X38703095Y-104084380D01*
X40274523Y-103989142D02*
X40226904Y-104036761D01*
X40084047Y-104084380D01*
X39988809Y-104084380D01*
X39845952Y-104036761D01*
X39750714Y-103941523D01*
X39703095Y-103846285D01*
X39655476Y-103655809D01*
X39655476Y-103512952D01*
X39703095Y-103322476D01*
X39750714Y-103227238D01*
X39845952Y-103132000D01*
X39988809Y-103084380D01*
X40084047Y-103084380D01*
X40226904Y-103132000D01*
X40274523Y-103179619D01*
X47585333Y-91162142D02*
X47537714Y-91209761D01*
X47394857Y-91257380D01*
X47299619Y-91257380D01*
X47156761Y-91209761D01*
X47061523Y-91114523D01*
X47013904Y-91019285D01*
X46966285Y-90828809D01*
X46966285Y-90685952D01*
X47013904Y-90495476D01*
X47061523Y-90400238D01*
X47156761Y-90305000D01*
X47299619Y-90257380D01*
X47394857Y-90257380D01*
X47537714Y-90305000D01*
X47585333Y-90352619D01*
X48537714Y-91257380D02*
X47966285Y-91257380D01*
X48252000Y-91257380D02*
X48252000Y-90257380D01*
X48156761Y-90400238D01*
X48061523Y-90495476D01*
X47966285Y-90543095D01*
X46228095Y-61777619D02*
X46275714Y-61730000D01*
X46370952Y-61682380D01*
X46609047Y-61682380D01*
X46704285Y-61730000D01*
X46751904Y-61777619D01*
X46799523Y-61872857D01*
X46799523Y-61968095D01*
X46751904Y-62110952D01*
X46180476Y-62682380D01*
X46799523Y-62682380D01*
X47704285Y-61682380D02*
X47228095Y-61682380D01*
X47180476Y-62158571D01*
X47228095Y-62110952D01*
X47323333Y-62063333D01*
X47561428Y-62063333D01*
X47656666Y-62110952D01*
X47704285Y-62158571D01*
X47751904Y-62253809D01*
X47751904Y-62491904D01*
X47704285Y-62587142D01*
X47656666Y-62634761D01*
X47561428Y-62682380D01*
X47323333Y-62682380D01*
X47228095Y-62634761D01*
X47180476Y-62587142D01*
X47537714Y-85860000D02*
X47442476Y-85812380D01*
X47299619Y-85812380D01*
X47156761Y-85860000D01*
X47061523Y-85955238D01*
X47013904Y-86050476D01*
X46966285Y-86240952D01*
X46966285Y-86383809D01*
X47013904Y-86574285D01*
X47061523Y-86669523D01*
X47156761Y-86764761D01*
X47299619Y-86812380D01*
X47394857Y-86812380D01*
X47537714Y-86764761D01*
X47585333Y-86717142D01*
X47585333Y-86383809D01*
X47394857Y-86383809D01*
X48537714Y-86812380D02*
X47966285Y-86812380D01*
X48252000Y-86812380D02*
X48252000Y-85812380D01*
X48156761Y-85955238D01*
X48061523Y-86050476D01*
X47966285Y-86098095D01*
X51903333Y-127357142D02*
X51855714Y-127404761D01*
X51712857Y-127452380D01*
X51617619Y-127452380D01*
X51474761Y-127404761D01*
X51379523Y-127309523D01*
X51331904Y-127214285D01*
X51284285Y-127023809D01*
X51284285Y-126880952D01*
X51331904Y-126690476D01*
X51379523Y-126595238D01*
X51474761Y-126500000D01*
X51617619Y-126452380D01*
X51712857Y-126452380D01*
X51855714Y-126500000D01*
X51903333Y-126547619D01*
X52522380Y-126452380D02*
X52617619Y-126452380D01*
X52712857Y-126500000D01*
X52760476Y-126547619D01*
X52808095Y-126642857D01*
X52855714Y-126833333D01*
X52855714Y-127071428D01*
X52808095Y-127261904D01*
X52760476Y-127357142D01*
X52712857Y-127404761D01*
X52617619Y-127452380D01*
X52522380Y-127452380D01*
X52427142Y-127404761D01*
X52379523Y-127357142D01*
X52331904Y-127261904D01*
X52284285Y-127071428D01*
X52284285Y-126833333D01*
X52331904Y-126642857D01*
X52379523Y-126547619D01*
X52427142Y-126500000D01*
X52522380Y-126452380D01*
X37544523Y-91130380D02*
X37544523Y-90130380D01*
X37925476Y-90130380D01*
X38020714Y-90178000D01*
X38068333Y-90225619D01*
X38115952Y-90320857D01*
X38115952Y-90463714D01*
X38068333Y-90558952D01*
X38020714Y-90606571D01*
X37925476Y-90654190D01*
X37544523Y-90654190D01*
X38544523Y-90606571D02*
X38877857Y-90606571D01*
X39020714Y-91130380D02*
X38544523Y-91130380D01*
X38544523Y-90130380D01*
X39020714Y-90130380D01*
X39973095Y-91130380D02*
X39401666Y-91130380D01*
X39687380Y-91130380D02*
X39687380Y-90130380D01*
X39592142Y-90273238D01*
X39496904Y-90368476D01*
X39401666Y-90416095D01*
X37695333Y-95448380D02*
X37695333Y-94448380D01*
X38076285Y-94448380D01*
X38171523Y-94496000D01*
X38219142Y-94543619D01*
X38266761Y-94638857D01*
X38266761Y-94781714D01*
X38219142Y-94876952D01*
X38171523Y-94924571D01*
X38076285Y-94972190D01*
X37695333Y-94972190D01*
X38647714Y-95162666D02*
X39123904Y-95162666D01*
X38552476Y-95448380D02*
X38885809Y-94448380D01*
X39219142Y-95448380D01*
X40076285Y-95448380D02*
X39504857Y-95448380D01*
X39790571Y-95448380D02*
X39790571Y-94448380D01*
X39695333Y-94591238D01*
X39600095Y-94686476D01*
X39504857Y-94734095D01*
X37568333Y-112847380D02*
X37568333Y-111847380D01*
X37949285Y-111847380D01*
X38044523Y-111895000D01*
X38092142Y-111942619D01*
X38139761Y-112037857D01*
X38139761Y-112180714D01*
X38092142Y-112275952D01*
X38044523Y-112323571D01*
X37949285Y-112371190D01*
X37568333Y-112371190D01*
X38520714Y-112561666D02*
X38996904Y-112561666D01*
X38425476Y-112847380D02*
X38758809Y-111847380D01*
X39092142Y-112847380D01*
X39615952Y-111847380D02*
X39711190Y-111847380D01*
X39806428Y-111895000D01*
X39854047Y-111942619D01*
X39901666Y-112037857D01*
X39949285Y-112228333D01*
X39949285Y-112466428D01*
X39901666Y-112656904D01*
X39854047Y-112752142D01*
X39806428Y-112799761D01*
X39711190Y-112847380D01*
X39615952Y-112847380D01*
X39520714Y-112799761D01*
X39473095Y-112752142D01*
X39425476Y-112656904D01*
X39377857Y-112466428D01*
X39377857Y-112228333D01*
X39425476Y-112037857D01*
X39473095Y-111942619D01*
X39520714Y-111895000D01*
X39615952Y-111847380D01*
X50831904Y-49982380D02*
X50831904Y-48982380D01*
X51212857Y-48982380D01*
X51308095Y-49030000D01*
X51355714Y-49077619D01*
X51403333Y-49172857D01*
X51403333Y-49315714D01*
X51355714Y-49410952D01*
X51308095Y-49458571D01*
X51212857Y-49506190D01*
X50831904Y-49506190D01*
X51831904Y-49982380D02*
X51831904Y-48982380D01*
X52070000Y-48982380D01*
X52212857Y-49030000D01*
X52308095Y-49125238D01*
X52355714Y-49220476D01*
X52403333Y-49410952D01*
X52403333Y-49553809D01*
X52355714Y-49744285D01*
X52308095Y-49839523D01*
X52212857Y-49934761D01*
X52070000Y-49982380D01*
X51831904Y-49982380D01*
X53355714Y-49982380D02*
X52784285Y-49982380D01*
X53070000Y-49982380D02*
X53070000Y-48982380D01*
X52974761Y-49125238D01*
X52879523Y-49220476D01*
X52784285Y-49268095D01*
X50903333Y-32202380D02*
X50903333Y-31202380D01*
X51284285Y-31202380D01*
X51379523Y-31250000D01*
X51427142Y-31297619D01*
X51474761Y-31392857D01*
X51474761Y-31535714D01*
X51427142Y-31630952D01*
X51379523Y-31678571D01*
X51284285Y-31726190D01*
X50903333Y-31726190D01*
X51855714Y-31916666D02*
X52331904Y-31916666D01*
X51760476Y-32202380D02*
X52093809Y-31202380D01*
X52427142Y-32202380D01*
X53284285Y-32202380D02*
X52712857Y-32202380D01*
X52998571Y-32202380D02*
X52998571Y-31202380D01*
X52903333Y-31345238D01*
X52808095Y-31440476D01*
X52712857Y-31488095D01*
X38965238Y-86288571D02*
X39108095Y-86336190D01*
X39155714Y-86383809D01*
X39203333Y-86479047D01*
X39203333Y-86621904D01*
X39155714Y-86717142D01*
X39108095Y-86764761D01*
X39012857Y-86812380D01*
X38631904Y-86812380D01*
X38631904Y-85812380D01*
X38965238Y-85812380D01*
X39060476Y-85860000D01*
X39108095Y-85907619D01*
X39155714Y-86002857D01*
X39155714Y-86098095D01*
X39108095Y-86193333D01*
X39060476Y-86240952D01*
X38965238Y-86288571D01*
X38631904Y-86288571D01*
X40155714Y-86812380D02*
X39584285Y-86812380D01*
X39870000Y-86812380D02*
X39870000Y-85812380D01*
X39774761Y-85955238D01*
X39679523Y-86050476D01*
X39584285Y-86098095D01*
X50831904Y-44902380D02*
X50831904Y-43902380D01*
X51212857Y-43902380D01*
X51308095Y-43950000D01*
X51355714Y-43997619D01*
X51403333Y-44092857D01*
X51403333Y-44235714D01*
X51355714Y-44330952D01*
X51308095Y-44378571D01*
X51212857Y-44426190D01*
X50831904Y-44426190D01*
X52403333Y-44807142D02*
X52355714Y-44854761D01*
X52212857Y-44902380D01*
X52117619Y-44902380D01*
X51974761Y-44854761D01*
X51879523Y-44759523D01*
X51831904Y-44664285D01*
X51784285Y-44473809D01*
X51784285Y-44330952D01*
X51831904Y-44140476D01*
X51879523Y-44045238D01*
X51974761Y-43950000D01*
X52117619Y-43902380D01*
X52212857Y-43902380D01*
X52355714Y-43950000D01*
X52403333Y-43997619D01*
X53355714Y-44902380D02*
X52784285Y-44902380D01*
X53070000Y-44902380D02*
X53070000Y-43902380D01*
X52974761Y-44045238D01*
X52879523Y-44140476D01*
X52784285Y-44188095D01*
X38727142Y-82494380D02*
X38727142Y-81494380D01*
X38965238Y-81494380D01*
X39108095Y-81542000D01*
X39203333Y-81637238D01*
X39250952Y-81732476D01*
X39298571Y-81922952D01*
X39298571Y-82065809D01*
X39250952Y-82256285D01*
X39203333Y-82351523D01*
X39108095Y-82446761D01*
X38965238Y-82494380D01*
X38727142Y-82494380D01*
X39584285Y-81494380D02*
X40155714Y-81494380D01*
X39870000Y-82494380D02*
X39870000Y-81494380D01*
X47021904Y-112847380D02*
X47021904Y-111847380D01*
X47402857Y-111847380D01*
X47498095Y-111895000D01*
X47545714Y-111942619D01*
X47593333Y-112037857D01*
X47593333Y-112180714D01*
X47545714Y-112275952D01*
X47498095Y-112323571D01*
X47402857Y-112371190D01*
X47021904Y-112371190D01*
X48355238Y-112323571D02*
X48498095Y-112371190D01*
X48545714Y-112418809D01*
X48593333Y-112514047D01*
X48593333Y-112656904D01*
X48545714Y-112752142D01*
X48498095Y-112799761D01*
X48402857Y-112847380D01*
X48021904Y-112847380D01*
X48021904Y-111847380D01*
X48355238Y-111847380D01*
X48450476Y-111895000D01*
X48498095Y-111942619D01*
X48545714Y-112037857D01*
X48545714Y-112133095D01*
X48498095Y-112228333D01*
X48450476Y-112275952D01*
X48355238Y-112323571D01*
X48021904Y-112323571D01*
X49212380Y-111847380D02*
X49307619Y-111847380D01*
X49402857Y-111895000D01*
X49450476Y-111942619D01*
X49498095Y-112037857D01*
X49545714Y-112228333D01*
X49545714Y-112466428D01*
X49498095Y-112656904D01*
X49450476Y-112752142D01*
X49402857Y-112799761D01*
X49307619Y-112847380D01*
X49212380Y-112847380D01*
X49117142Y-112799761D01*
X49069523Y-112752142D01*
X49021904Y-112656904D01*
X48974285Y-112466428D01*
X48974285Y-112228333D01*
X49021904Y-112037857D01*
X49069523Y-111942619D01*
X49117142Y-111895000D01*
X49212380Y-111847380D01*
X50831904Y-114752380D02*
X50831904Y-113752380D01*
X51212857Y-113752380D01*
X51308095Y-113800000D01*
X51355714Y-113847619D01*
X51403333Y-113942857D01*
X51403333Y-114085714D01*
X51355714Y-114180952D01*
X51308095Y-114228571D01*
X51212857Y-114276190D01*
X50831904Y-114276190D01*
X51831904Y-114752380D02*
X51831904Y-113752380D01*
X52070000Y-113752380D01*
X52212857Y-113800000D01*
X52308095Y-113895238D01*
X52355714Y-113990476D01*
X52403333Y-114180952D01*
X52403333Y-114323809D01*
X52355714Y-114514285D01*
X52308095Y-114609523D01*
X52212857Y-114704761D01*
X52070000Y-114752380D01*
X51831904Y-114752380D01*
X53022380Y-113752380D02*
X53117619Y-113752380D01*
X53212857Y-113800000D01*
X53260476Y-113847619D01*
X53308095Y-113942857D01*
X53355714Y-114133333D01*
X53355714Y-114371428D01*
X53308095Y-114561904D01*
X53260476Y-114657142D01*
X53212857Y-114704761D01*
X53117619Y-114752380D01*
X53022380Y-114752380D01*
X52927142Y-114704761D01*
X52879523Y-114657142D01*
X52831904Y-114561904D01*
X52784285Y-114371428D01*
X52784285Y-114133333D01*
X52831904Y-113942857D01*
X52879523Y-113847619D01*
X52927142Y-113800000D01*
X53022380Y-113752380D01*
X47021904Y-95448380D02*
X47021904Y-94448380D01*
X47402857Y-94448380D01*
X47498095Y-94496000D01*
X47545714Y-94543619D01*
X47593333Y-94638857D01*
X47593333Y-94781714D01*
X47545714Y-94876952D01*
X47498095Y-94924571D01*
X47402857Y-94972190D01*
X47021904Y-94972190D01*
X48355238Y-94924571D02*
X48498095Y-94972190D01*
X48545714Y-95019809D01*
X48593333Y-95115047D01*
X48593333Y-95257904D01*
X48545714Y-95353142D01*
X48498095Y-95400761D01*
X48402857Y-95448380D01*
X48021904Y-95448380D01*
X48021904Y-94448380D01*
X48355238Y-94448380D01*
X48450476Y-94496000D01*
X48498095Y-94543619D01*
X48545714Y-94638857D01*
X48545714Y-94734095D01*
X48498095Y-94829333D01*
X48450476Y-94876952D01*
X48355238Y-94924571D01*
X48021904Y-94924571D01*
X49545714Y-95448380D02*
X48974285Y-95448380D01*
X49260000Y-95448380D02*
X49260000Y-94448380D01*
X49164761Y-94591238D01*
X49069523Y-94686476D01*
X48974285Y-94734095D01*
X138882380Y-51744285D02*
X138406190Y-52077619D01*
X138882380Y-52315714D02*
X137882380Y-52315714D01*
X137882380Y-51934761D01*
X137930000Y-51839523D01*
X137977619Y-51791904D01*
X138072857Y-51744285D01*
X138215714Y-51744285D01*
X138310952Y-51791904D01*
X138358571Y-51839523D01*
X138406190Y-51934761D01*
X138406190Y-52315714D01*
X138834761Y-51363333D02*
X138882380Y-51220476D01*
X138882380Y-50982380D01*
X138834761Y-50887142D01*
X138787142Y-50839523D01*
X138691904Y-50791904D01*
X138596666Y-50791904D01*
X138501428Y-50839523D01*
X138453809Y-50887142D01*
X138406190Y-50982380D01*
X138358571Y-51172857D01*
X138310952Y-51268095D01*
X138263333Y-51315714D01*
X138168095Y-51363333D01*
X138072857Y-51363333D01*
X137977619Y-51315714D01*
X137930000Y-51268095D01*
X137882380Y-51172857D01*
X137882380Y-50934761D01*
X137930000Y-50791904D01*
X138501428Y-50363333D02*
X138501428Y-49601428D01*
X137977619Y-49172857D02*
X137930000Y-49125238D01*
X137882380Y-49030000D01*
X137882380Y-48791904D01*
X137930000Y-48696666D01*
X137977619Y-48649047D01*
X138072857Y-48601428D01*
X138168095Y-48601428D01*
X138310952Y-48649047D01*
X138882380Y-49220476D01*
X138882380Y-48601428D01*
X137882380Y-48268095D02*
X137882380Y-47649047D01*
X138263333Y-47982380D01*
X138263333Y-47839523D01*
X138310952Y-47744285D01*
X138358571Y-47696666D01*
X138453809Y-47649047D01*
X138691904Y-47649047D01*
X138787142Y-47696666D01*
X138834761Y-47744285D01*
X138882380Y-47839523D01*
X138882380Y-48125238D01*
X138834761Y-48220476D01*
X138787142Y-48268095D01*
X137977619Y-47268095D02*
X137930000Y-47220476D01*
X137882380Y-47125238D01*
X137882380Y-46887142D01*
X137930000Y-46791904D01*
X137977619Y-46744285D01*
X138072857Y-46696666D01*
X138168095Y-46696666D01*
X138310952Y-46744285D01*
X138882380Y-47315714D01*
X138882380Y-46696666D01*
X51903333Y-62587142D02*
X51855714Y-62634761D01*
X51712857Y-62682380D01*
X51617619Y-62682380D01*
X51474761Y-62634761D01*
X51379523Y-62539523D01*
X51331904Y-62444285D01*
X51284285Y-62253809D01*
X51284285Y-62110952D01*
X51331904Y-61920476D01*
X51379523Y-61825238D01*
X51474761Y-61730000D01*
X51617619Y-61682380D01*
X51712857Y-61682380D01*
X51855714Y-61730000D01*
X51903333Y-61777619D01*
X52855714Y-62682380D02*
X52284285Y-62682380D01*
X52570000Y-62682380D02*
X52570000Y-61682380D01*
X52474761Y-61825238D01*
X52379523Y-61920476D01*
X52284285Y-61968095D01*
X47585333Y-99766380D02*
X47252000Y-99290190D01*
X47013904Y-99766380D02*
X47013904Y-98766380D01*
X47394857Y-98766380D01*
X47490095Y-98814000D01*
X47537714Y-98861619D01*
X47585333Y-98956857D01*
X47585333Y-99099714D01*
X47537714Y-99194952D01*
X47490095Y-99242571D01*
X47394857Y-99290190D01*
X47013904Y-99290190D01*
X48537714Y-99766380D02*
X47966285Y-99766380D01*
X48252000Y-99766380D02*
X48252000Y-98766380D01*
X48156761Y-98909238D01*
X48061523Y-99004476D01*
X47966285Y-99052095D01*
X146126666Y-64072380D02*
X146126666Y-64786666D01*
X146079047Y-64929523D01*
X145983809Y-65024761D01*
X145840952Y-65072380D01*
X145745714Y-65072380D01*
X146507619Y-64072380D02*
X147126666Y-64072380D01*
X146793333Y-64453333D01*
X146936190Y-64453333D01*
X147031428Y-64500952D01*
X147079047Y-64548571D01*
X147126666Y-64643809D01*
X147126666Y-64881904D01*
X147079047Y-64977142D01*
X147031428Y-65024761D01*
X146936190Y-65072380D01*
X146650476Y-65072380D01*
X146555238Y-65024761D01*
X146507619Y-64977142D01*
X148403333Y-81927142D02*
X148355714Y-81974761D01*
X148212857Y-82022380D01*
X148117619Y-82022380D01*
X147974761Y-81974761D01*
X147879523Y-81879523D01*
X147831904Y-81784285D01*
X147784285Y-81593809D01*
X147784285Y-81450952D01*
X147831904Y-81260476D01*
X147879523Y-81165238D01*
X147974761Y-81070000D01*
X148117619Y-81022380D01*
X148212857Y-81022380D01*
X148355714Y-81070000D01*
X148403333Y-81117619D01*
X149355714Y-82022380D02*
X148784285Y-82022380D01*
X149070000Y-82022380D02*
X149070000Y-81022380D01*
X148974761Y-81165238D01*
X148879523Y-81260476D01*
X148784285Y-81308095D01*
X116653333Y-79387142D02*
X116605714Y-79434761D01*
X116462857Y-79482380D01*
X116367619Y-79482380D01*
X116224761Y-79434761D01*
X116129523Y-79339523D01*
X116081904Y-79244285D01*
X116034285Y-79053809D01*
X116034285Y-78910952D01*
X116081904Y-78720476D01*
X116129523Y-78625238D01*
X116224761Y-78530000D01*
X116367619Y-78482380D01*
X116462857Y-78482380D01*
X116605714Y-78530000D01*
X116653333Y-78577619D01*
X117034285Y-78577619D02*
X117081904Y-78530000D01*
X117177142Y-78482380D01*
X117415238Y-78482380D01*
X117510476Y-78530000D01*
X117558095Y-78577619D01*
X117605714Y-78672857D01*
X117605714Y-78768095D01*
X117558095Y-78910952D01*
X116986666Y-79482380D01*
X117605714Y-79482380D01*
X102068333Y-36552142D02*
X102020714Y-36599761D01*
X101877857Y-36647380D01*
X101782619Y-36647380D01*
X101639761Y-36599761D01*
X101544523Y-36504523D01*
X101496904Y-36409285D01*
X101449285Y-36218809D01*
X101449285Y-36075952D01*
X101496904Y-35885476D01*
X101544523Y-35790238D01*
X101639761Y-35695000D01*
X101782619Y-35647380D01*
X101877857Y-35647380D01*
X102020714Y-35695000D01*
X102068333Y-35742619D01*
X102401666Y-35647380D02*
X103020714Y-35647380D01*
X102687380Y-36028333D01*
X102830238Y-36028333D01*
X102925476Y-36075952D01*
X102973095Y-36123571D01*
X103020714Y-36218809D01*
X103020714Y-36456904D01*
X102973095Y-36552142D01*
X102925476Y-36599761D01*
X102830238Y-36647380D01*
X102544523Y-36647380D01*
X102449285Y-36599761D01*
X102401666Y-36552142D01*
X121733333Y-107037142D02*
X121685714Y-107084761D01*
X121542857Y-107132380D01*
X121447619Y-107132380D01*
X121304761Y-107084761D01*
X121209523Y-106989523D01*
X121161904Y-106894285D01*
X121114285Y-106703809D01*
X121114285Y-106560952D01*
X121161904Y-106370476D01*
X121209523Y-106275238D01*
X121304761Y-106180000D01*
X121447619Y-106132380D01*
X121542857Y-106132380D01*
X121685714Y-106180000D01*
X121733333Y-106227619D01*
X122590476Y-106465714D02*
X122590476Y-107132380D01*
X122352380Y-106084761D02*
X122114285Y-106799047D01*
X122733333Y-106799047D01*
X51903333Y-69572142D02*
X51855714Y-69619761D01*
X51712857Y-69667380D01*
X51617619Y-69667380D01*
X51474761Y-69619761D01*
X51379523Y-69524523D01*
X51331904Y-69429285D01*
X51284285Y-69238809D01*
X51284285Y-69095952D01*
X51331904Y-68905476D01*
X51379523Y-68810238D01*
X51474761Y-68715000D01*
X51617619Y-68667380D01*
X51712857Y-68667380D01*
X51855714Y-68715000D01*
X51903333Y-68762619D01*
X52760476Y-68667380D02*
X52570000Y-68667380D01*
X52474761Y-68715000D01*
X52427142Y-68762619D01*
X52331904Y-68905476D01*
X52284285Y-69095952D01*
X52284285Y-69476904D01*
X52331904Y-69572142D01*
X52379523Y-69619761D01*
X52474761Y-69667380D01*
X52665238Y-69667380D01*
X52760476Y-69619761D01*
X52808095Y-69572142D01*
X52855714Y-69476904D01*
X52855714Y-69238809D01*
X52808095Y-69143571D01*
X52760476Y-69095952D01*
X52665238Y-69048333D01*
X52474761Y-69048333D01*
X52379523Y-69095952D01*
X52331904Y-69143571D01*
X52284285Y-69238809D01*
X51903333Y-75287142D02*
X51855714Y-75334761D01*
X51712857Y-75382380D01*
X51617619Y-75382380D01*
X51474761Y-75334761D01*
X51379523Y-75239523D01*
X51331904Y-75144285D01*
X51284285Y-74953809D01*
X51284285Y-74810952D01*
X51331904Y-74620476D01*
X51379523Y-74525238D01*
X51474761Y-74430000D01*
X51617619Y-74382380D01*
X51712857Y-74382380D01*
X51855714Y-74430000D01*
X51903333Y-74477619D01*
X52236666Y-74382380D02*
X52903333Y-74382380D01*
X52474761Y-75382380D01*
X51903333Y-142597142D02*
X51855714Y-142644761D01*
X51712857Y-142692380D01*
X51617619Y-142692380D01*
X51474761Y-142644761D01*
X51379523Y-142549523D01*
X51331904Y-142454285D01*
X51284285Y-142263809D01*
X51284285Y-142120952D01*
X51331904Y-141930476D01*
X51379523Y-141835238D01*
X51474761Y-141740000D01*
X51617619Y-141692380D01*
X51712857Y-141692380D01*
X51855714Y-141740000D01*
X51903333Y-141787619D01*
X52474761Y-142120952D02*
X52379523Y-142073333D01*
X52331904Y-142025714D01*
X52284285Y-141930476D01*
X52284285Y-141882857D01*
X52331904Y-141787619D01*
X52379523Y-141740000D01*
X52474761Y-141692380D01*
X52665238Y-141692380D01*
X52760476Y-141740000D01*
X52808095Y-141787619D01*
X52855714Y-141882857D01*
X52855714Y-141930476D01*
X52808095Y-142025714D01*
X52760476Y-142073333D01*
X52665238Y-142120952D01*
X52474761Y-142120952D01*
X52379523Y-142168571D01*
X52331904Y-142216190D01*
X52284285Y-142311428D01*
X52284285Y-142501904D01*
X52331904Y-142597142D01*
X52379523Y-142644761D01*
X52474761Y-142692380D01*
X52665238Y-142692380D01*
X52760476Y-142644761D01*
X52808095Y-142597142D01*
X52855714Y-142501904D01*
X52855714Y-142311428D01*
X52808095Y-142216190D01*
X52760476Y-142168571D01*
X52665238Y-142120952D01*
X51903333Y-136247142D02*
X51855714Y-136294761D01*
X51712857Y-136342380D01*
X51617619Y-136342380D01*
X51474761Y-136294761D01*
X51379523Y-136199523D01*
X51331904Y-136104285D01*
X51284285Y-135913809D01*
X51284285Y-135770952D01*
X51331904Y-135580476D01*
X51379523Y-135485238D01*
X51474761Y-135390000D01*
X51617619Y-135342380D01*
X51712857Y-135342380D01*
X51855714Y-135390000D01*
X51903333Y-135437619D01*
X52379523Y-136342380D02*
X52570000Y-136342380D01*
X52665238Y-136294761D01*
X52712857Y-136247142D01*
X52808095Y-136104285D01*
X52855714Y-135913809D01*
X52855714Y-135532857D01*
X52808095Y-135437619D01*
X52760476Y-135390000D01*
X52665238Y-135342380D01*
X52474761Y-135342380D01*
X52379523Y-135390000D01*
X52331904Y-135437619D01*
X52284285Y-135532857D01*
X52284285Y-135770952D01*
X52331904Y-135866190D01*
X52379523Y-135913809D01*
X52474761Y-135961428D01*
X52665238Y-135961428D01*
X52760476Y-135913809D01*
X52808095Y-135866190D01*
X52855714Y-135770952D01*
X122527142Y-78117142D02*
X122479523Y-78164761D01*
X122336666Y-78212380D01*
X122241428Y-78212380D01*
X122098571Y-78164761D01*
X122003333Y-78069523D01*
X121955714Y-77974285D01*
X121908095Y-77783809D01*
X121908095Y-77640952D01*
X121955714Y-77450476D01*
X122003333Y-77355238D01*
X122098571Y-77260000D01*
X122241428Y-77212380D01*
X122336666Y-77212380D01*
X122479523Y-77260000D01*
X122527142Y-77307619D01*
X123479523Y-78212380D02*
X122908095Y-78212380D01*
X123193809Y-78212380D02*
X123193809Y-77212380D01*
X123098571Y-77355238D01*
X123003333Y-77450476D01*
X122908095Y-77498095D01*
X124098571Y-77212380D02*
X124193809Y-77212380D01*
X124289047Y-77260000D01*
X124336666Y-77307619D01*
X124384285Y-77402857D01*
X124431904Y-77593333D01*
X124431904Y-77831428D01*
X124384285Y-78021904D01*
X124336666Y-78117142D01*
X124289047Y-78164761D01*
X124193809Y-78212380D01*
X124098571Y-78212380D01*
X124003333Y-78164761D01*
X123955714Y-78117142D01*
X123908095Y-78021904D01*
X123860476Y-77831428D01*
X123860476Y-77593333D01*
X123908095Y-77402857D01*
X123955714Y-77307619D01*
X124003333Y-77260000D01*
X124098571Y-77212380D01*
X100397142Y-121272857D02*
X100444761Y-121320476D01*
X100492380Y-121463333D01*
X100492380Y-121558571D01*
X100444761Y-121701428D01*
X100349523Y-121796666D01*
X100254285Y-121844285D01*
X100063809Y-121891904D01*
X99920952Y-121891904D01*
X99730476Y-121844285D01*
X99635238Y-121796666D01*
X99540000Y-121701428D01*
X99492380Y-121558571D01*
X99492380Y-121463333D01*
X99540000Y-121320476D01*
X99587619Y-121272857D01*
X100492380Y-120320476D02*
X100492380Y-120891904D01*
X100492380Y-120606190D02*
X99492380Y-120606190D01*
X99635238Y-120701428D01*
X99730476Y-120796666D01*
X99778095Y-120891904D01*
X99587619Y-119939523D02*
X99540000Y-119891904D01*
X99492380Y-119796666D01*
X99492380Y-119558571D01*
X99540000Y-119463333D01*
X99587619Y-119415714D01*
X99682857Y-119368095D01*
X99778095Y-119368095D01*
X99920952Y-119415714D01*
X100492380Y-119987142D01*
X100492380Y-119368095D01*
X96877142Y-64122857D02*
X96924761Y-64170476D01*
X96972380Y-64313333D01*
X96972380Y-64408571D01*
X96924761Y-64551428D01*
X96829523Y-64646666D01*
X96734285Y-64694285D01*
X96543809Y-64741904D01*
X96400952Y-64741904D01*
X96210476Y-64694285D01*
X96115238Y-64646666D01*
X96020000Y-64551428D01*
X95972380Y-64408571D01*
X95972380Y-64313333D01*
X96020000Y-64170476D01*
X96067619Y-64122857D01*
X96972380Y-63170476D02*
X96972380Y-63741904D01*
X96972380Y-63456190D02*
X95972380Y-63456190D01*
X96115238Y-63551428D01*
X96210476Y-63646666D01*
X96258095Y-63741904D01*
X95972380Y-62837142D02*
X95972380Y-62218095D01*
X96353333Y-62551428D01*
X96353333Y-62408571D01*
X96400952Y-62313333D01*
X96448571Y-62265714D01*
X96543809Y-62218095D01*
X96781904Y-62218095D01*
X96877142Y-62265714D01*
X96924761Y-62313333D01*
X96972380Y-62408571D01*
X96972380Y-62694285D01*
X96924761Y-62789523D01*
X96877142Y-62837142D01*
X95607142Y-129547857D02*
X95654761Y-129595476D01*
X95702380Y-129738333D01*
X95702380Y-129833571D01*
X95654761Y-129976428D01*
X95559523Y-130071666D01*
X95464285Y-130119285D01*
X95273809Y-130166904D01*
X95130952Y-130166904D01*
X94940476Y-130119285D01*
X94845238Y-130071666D01*
X94750000Y-129976428D01*
X94702380Y-129833571D01*
X94702380Y-129738333D01*
X94750000Y-129595476D01*
X94797619Y-129547857D01*
X95702380Y-128595476D02*
X95702380Y-129166904D01*
X95702380Y-128881190D02*
X94702380Y-128881190D01*
X94845238Y-128976428D01*
X94940476Y-129071666D01*
X94988095Y-129166904D01*
X95035714Y-127738333D02*
X95702380Y-127738333D01*
X94654761Y-127976428D02*
X95369047Y-128214523D01*
X95369047Y-127595476D01*
X85737142Y-99417142D02*
X85689523Y-99464761D01*
X85546666Y-99512380D01*
X85451428Y-99512380D01*
X85308571Y-99464761D01*
X85213333Y-99369523D01*
X85165714Y-99274285D01*
X85118095Y-99083809D01*
X85118095Y-98940952D01*
X85165714Y-98750476D01*
X85213333Y-98655238D01*
X85308571Y-98560000D01*
X85451428Y-98512380D01*
X85546666Y-98512380D01*
X85689523Y-98560000D01*
X85737142Y-98607619D01*
X86689523Y-99512380D02*
X86118095Y-99512380D01*
X86403809Y-99512380D02*
X86403809Y-98512380D01*
X86308571Y-98655238D01*
X86213333Y-98750476D01*
X86118095Y-98798095D01*
X87594285Y-98512380D02*
X87118095Y-98512380D01*
X87070476Y-98988571D01*
X87118095Y-98940952D01*
X87213333Y-98893333D01*
X87451428Y-98893333D01*
X87546666Y-98940952D01*
X87594285Y-98988571D01*
X87641904Y-99083809D01*
X87641904Y-99321904D01*
X87594285Y-99417142D01*
X87546666Y-99464761D01*
X87451428Y-99512380D01*
X87213333Y-99512380D01*
X87118095Y-99464761D01*
X87070476Y-99417142D01*
X85737142Y-34647142D02*
X85689523Y-34694761D01*
X85546666Y-34742380D01*
X85451428Y-34742380D01*
X85308571Y-34694761D01*
X85213333Y-34599523D01*
X85165714Y-34504285D01*
X85118095Y-34313809D01*
X85118095Y-34170952D01*
X85165714Y-33980476D01*
X85213333Y-33885238D01*
X85308571Y-33790000D01*
X85451428Y-33742380D01*
X85546666Y-33742380D01*
X85689523Y-33790000D01*
X85737142Y-33837619D01*
X86689523Y-34742380D02*
X86118095Y-34742380D01*
X86403809Y-34742380D02*
X86403809Y-33742380D01*
X86308571Y-33885238D01*
X86213333Y-33980476D01*
X86118095Y-34028095D01*
X87546666Y-33742380D02*
X87356190Y-33742380D01*
X87260952Y-33790000D01*
X87213333Y-33837619D01*
X87118095Y-33980476D01*
X87070476Y-34170952D01*
X87070476Y-34551904D01*
X87118095Y-34647142D01*
X87165714Y-34694761D01*
X87260952Y-34742380D01*
X87451428Y-34742380D01*
X87546666Y-34694761D01*
X87594285Y-34647142D01*
X87641904Y-34551904D01*
X87641904Y-34313809D01*
X87594285Y-34218571D01*
X87546666Y-34170952D01*
X87451428Y-34123333D01*
X87260952Y-34123333D01*
X87165714Y-34170952D01*
X87118095Y-34218571D01*
X87070476Y-34313809D01*
X79271904Y-145162380D02*
X79271904Y-144162380D01*
X79510000Y-144162380D01*
X79652857Y-144210000D01*
X79748095Y-144305238D01*
X79795714Y-144400476D01*
X79843333Y-144590952D01*
X79843333Y-144733809D01*
X79795714Y-144924285D01*
X79748095Y-145019523D01*
X79652857Y-145114761D01*
X79510000Y-145162380D01*
X79271904Y-145162380D01*
X80176666Y-144162380D02*
X80795714Y-144162380D01*
X80462380Y-144543333D01*
X80605238Y-144543333D01*
X80700476Y-144590952D01*
X80748095Y-144638571D01*
X80795714Y-144733809D01*
X80795714Y-144971904D01*
X80748095Y-145067142D01*
X80700476Y-145114761D01*
X80605238Y-145162380D01*
X80319523Y-145162380D01*
X80224285Y-145114761D01*
X80176666Y-145067142D01*
X83558095Y-144792380D02*
X83558095Y-143792380D01*
X84129523Y-144792380D02*
X83700952Y-144220952D01*
X84129523Y-143792380D02*
X83558095Y-144363809D01*
X79271904Y-138812380D02*
X79271904Y-137812380D01*
X79510000Y-137812380D01*
X79652857Y-137860000D01*
X79748095Y-137955238D01*
X79795714Y-138050476D01*
X79843333Y-138240952D01*
X79843333Y-138383809D01*
X79795714Y-138574285D01*
X79748095Y-138669523D01*
X79652857Y-138764761D01*
X79510000Y-138812380D01*
X79271904Y-138812380D01*
X80700476Y-138145714D02*
X80700476Y-138812380D01*
X80462380Y-137764761D02*
X80224285Y-138479047D01*
X80843333Y-138479047D01*
X83558095Y-138442380D02*
X83558095Y-137442380D01*
X84129523Y-138442380D02*
X83700952Y-137870952D01*
X84129523Y-137442380D02*
X83558095Y-138013809D01*
X116022380Y-116308095D02*
X115022380Y-116308095D01*
X115022380Y-116070000D01*
X115070000Y-115927142D01*
X115165238Y-115831904D01*
X115260476Y-115784285D01*
X115450952Y-115736666D01*
X115593809Y-115736666D01*
X115784285Y-115784285D01*
X115879523Y-115831904D01*
X115974761Y-115927142D01*
X116022380Y-116070000D01*
X116022380Y-116308095D01*
X115022380Y-114879523D02*
X115022380Y-115070000D01*
X115070000Y-115165238D01*
X115117619Y-115212857D01*
X115260476Y-115308095D01*
X115450952Y-115355714D01*
X115831904Y-115355714D01*
X115927142Y-115308095D01*
X115974761Y-115260476D01*
X116022380Y-115165238D01*
X116022380Y-114974761D01*
X115974761Y-114879523D01*
X115927142Y-114831904D01*
X115831904Y-114784285D01*
X115593809Y-114784285D01*
X115498571Y-114831904D01*
X115450952Y-114879523D01*
X115403333Y-114974761D01*
X115403333Y-115165238D01*
X115450952Y-115260476D01*
X115498571Y-115308095D01*
X115593809Y-115355714D01*
X111682380Y-119641904D02*
X110682380Y-119641904D01*
X111682380Y-119070476D02*
X111110952Y-119499047D01*
X110682380Y-119070476D02*
X111253809Y-119641904D01*
X109732380Y-81613333D02*
X110446666Y-81613333D01*
X110589523Y-81660952D01*
X110684761Y-81756190D01*
X110732380Y-81899047D01*
X110732380Y-81994285D01*
X109827619Y-81184761D02*
X109780000Y-81137142D01*
X109732380Y-81041904D01*
X109732380Y-80803809D01*
X109780000Y-80708571D01*
X109827619Y-80660952D01*
X109922857Y-80613333D01*
X110018095Y-80613333D01*
X110160952Y-80660952D01*
X110732380Y-81232380D01*
X110732380Y-80613333D01*
X98893333Y-39992380D02*
X98560000Y-39516190D01*
X98321904Y-39992380D02*
X98321904Y-38992380D01*
X98702857Y-38992380D01*
X98798095Y-39040000D01*
X98845714Y-39087619D01*
X98893333Y-39182857D01*
X98893333Y-39325714D01*
X98845714Y-39420952D01*
X98798095Y-39468571D01*
X98702857Y-39516190D01*
X98321904Y-39516190D01*
X99845714Y-39992380D02*
X99274285Y-39992380D01*
X99560000Y-39992380D02*
X99560000Y-38992380D01*
X99464761Y-39135238D01*
X99369523Y-39230476D01*
X99274285Y-39278095D01*
X68413333Y-145062380D02*
X68080000Y-144586190D01*
X67841904Y-145062380D02*
X67841904Y-144062380D01*
X68222857Y-144062380D01*
X68318095Y-144110000D01*
X68365714Y-144157619D01*
X68413333Y-144252857D01*
X68413333Y-144395714D01*
X68365714Y-144490952D01*
X68318095Y-144538571D01*
X68222857Y-144586190D01*
X67841904Y-144586190D01*
X69270476Y-144395714D02*
X69270476Y-145062380D01*
X69032380Y-144014761D02*
X68794285Y-144729047D01*
X69413333Y-144729047D01*
X68413333Y-138712380D02*
X68080000Y-138236190D01*
X67841904Y-138712380D02*
X67841904Y-137712380D01*
X68222857Y-137712380D01*
X68318095Y-137760000D01*
X68365714Y-137807619D01*
X68413333Y-137902857D01*
X68413333Y-138045714D01*
X68365714Y-138140952D01*
X68318095Y-138188571D01*
X68222857Y-138236190D01*
X67841904Y-138236190D01*
X69318095Y-137712380D02*
X68841904Y-137712380D01*
X68794285Y-138188571D01*
X68841904Y-138140952D01*
X68937142Y-138093333D01*
X69175238Y-138093333D01*
X69270476Y-138140952D01*
X69318095Y-138188571D01*
X69365714Y-138283809D01*
X69365714Y-138521904D01*
X69318095Y-138617142D01*
X69270476Y-138664761D01*
X69175238Y-138712380D01*
X68937142Y-138712380D01*
X68841904Y-138664761D01*
X68794285Y-138617142D01*
X91273333Y-138712380D02*
X90940000Y-138236190D01*
X90701904Y-138712380D02*
X90701904Y-137712380D01*
X91082857Y-137712380D01*
X91178095Y-137760000D01*
X91225714Y-137807619D01*
X91273333Y-137902857D01*
X91273333Y-138045714D01*
X91225714Y-138140952D01*
X91178095Y-138188571D01*
X91082857Y-138236190D01*
X90701904Y-138236190D01*
X91749523Y-138712380D02*
X91940000Y-138712380D01*
X92035238Y-138664761D01*
X92082857Y-138617142D01*
X92178095Y-138474285D01*
X92225714Y-138283809D01*
X92225714Y-137902857D01*
X92178095Y-137807619D01*
X92130476Y-137760000D01*
X92035238Y-137712380D01*
X91844761Y-137712380D01*
X91749523Y-137760000D01*
X91701904Y-137807619D01*
X91654285Y-137902857D01*
X91654285Y-138140952D01*
X91701904Y-138236190D01*
X91749523Y-138283809D01*
X91844761Y-138331428D01*
X92035238Y-138331428D01*
X92130476Y-138283809D01*
X92178095Y-138236190D01*
X92225714Y-138140952D01*
X100957142Y-145232380D02*
X100623809Y-144756190D01*
X100385714Y-145232380D02*
X100385714Y-144232380D01*
X100766666Y-144232380D01*
X100861904Y-144280000D01*
X100909523Y-144327619D01*
X100957142Y-144422857D01*
X100957142Y-144565714D01*
X100909523Y-144660952D01*
X100861904Y-144708571D01*
X100766666Y-144756190D01*
X100385714Y-144756190D01*
X101909523Y-145232380D02*
X101338095Y-145232380D01*
X101623809Y-145232380D02*
X101623809Y-144232380D01*
X101528571Y-144375238D01*
X101433333Y-144470476D01*
X101338095Y-144518095D01*
X102290476Y-144327619D02*
X102338095Y-144280000D01*
X102433333Y-144232380D01*
X102671428Y-144232380D01*
X102766666Y-144280000D01*
X102814285Y-144327619D01*
X102861904Y-144422857D01*
X102861904Y-144518095D01*
X102814285Y-144660952D01*
X102242857Y-145232380D01*
X102861904Y-145232380D01*
X97147142Y-133802380D02*
X96813809Y-133326190D01*
X96575714Y-133802380D02*
X96575714Y-132802380D01*
X96956666Y-132802380D01*
X97051904Y-132850000D01*
X97099523Y-132897619D01*
X97147142Y-132992857D01*
X97147142Y-133135714D01*
X97099523Y-133230952D01*
X97051904Y-133278571D01*
X96956666Y-133326190D01*
X96575714Y-133326190D01*
X98099523Y-133802380D02*
X97528095Y-133802380D01*
X97813809Y-133802380D02*
X97813809Y-132802380D01*
X97718571Y-132945238D01*
X97623333Y-133040476D01*
X97528095Y-133088095D01*
X98432857Y-132802380D02*
X99051904Y-132802380D01*
X98718571Y-133183333D01*
X98861428Y-133183333D01*
X98956666Y-133230952D01*
X99004285Y-133278571D01*
X99051904Y-133373809D01*
X99051904Y-133611904D01*
X99004285Y-133707142D01*
X98956666Y-133754761D01*
X98861428Y-133802380D01*
X98575714Y-133802380D01*
X98480476Y-133754761D01*
X98432857Y-133707142D01*
X112387142Y-145232380D02*
X112053809Y-144756190D01*
X111815714Y-145232380D02*
X111815714Y-144232380D01*
X112196666Y-144232380D01*
X112291904Y-144280000D01*
X112339523Y-144327619D01*
X112387142Y-144422857D01*
X112387142Y-144565714D01*
X112339523Y-144660952D01*
X112291904Y-144708571D01*
X112196666Y-144756190D01*
X111815714Y-144756190D01*
X113339523Y-145232380D02*
X112768095Y-145232380D01*
X113053809Y-145232380D02*
X113053809Y-144232380D01*
X112958571Y-144375238D01*
X112863333Y-144470476D01*
X112768095Y-144518095D01*
X114196666Y-144565714D02*
X114196666Y-145232380D01*
X113958571Y-144184761D02*
X113720476Y-144899047D01*
X114339523Y-144899047D01*
X105692380Y-116212857D02*
X105216190Y-116546190D01*
X105692380Y-116784285D02*
X104692380Y-116784285D01*
X104692380Y-116403333D01*
X104740000Y-116308095D01*
X104787619Y-116260476D01*
X104882857Y-116212857D01*
X105025714Y-116212857D01*
X105120952Y-116260476D01*
X105168571Y-116308095D01*
X105216190Y-116403333D01*
X105216190Y-116784285D01*
X105692380Y-115260476D02*
X105692380Y-115831904D01*
X105692380Y-115546190D02*
X104692380Y-115546190D01*
X104835238Y-115641428D01*
X104930476Y-115736666D01*
X104978095Y-115831904D01*
X104692380Y-114927142D02*
X104692380Y-114260476D01*
X105692380Y-114689047D01*
X110772380Y-116212857D02*
X110296190Y-116546190D01*
X110772380Y-116784285D02*
X109772380Y-116784285D01*
X109772380Y-116403333D01*
X109820000Y-116308095D01*
X109867619Y-116260476D01*
X109962857Y-116212857D01*
X110105714Y-116212857D01*
X110200952Y-116260476D01*
X110248571Y-116308095D01*
X110296190Y-116403333D01*
X110296190Y-116784285D01*
X110772380Y-115260476D02*
X110772380Y-115831904D01*
X110772380Y-115546190D02*
X109772380Y-115546190D01*
X109915238Y-115641428D01*
X110010476Y-115736666D01*
X110058095Y-115831904D01*
X110772380Y-114784285D02*
X110772380Y-114593809D01*
X110724761Y-114498571D01*
X110677142Y-114450952D01*
X110534285Y-114355714D01*
X110343809Y-114308095D01*
X109962857Y-114308095D01*
X109867619Y-114355714D01*
X109820000Y-114403333D01*
X109772380Y-114498571D01*
X109772380Y-114689047D01*
X109820000Y-114784285D01*
X109867619Y-114831904D01*
X109962857Y-114879523D01*
X110200952Y-114879523D01*
X110296190Y-114831904D01*
X110343809Y-114784285D01*
X110391428Y-114689047D01*
X110391428Y-114498571D01*
X110343809Y-114403333D01*
X110296190Y-114355714D01*
X110200952Y-114308095D01*
X70477142Y-32372380D02*
X70143809Y-31896190D01*
X69905714Y-32372380D02*
X69905714Y-31372380D01*
X70286666Y-31372380D01*
X70381904Y-31420000D01*
X70429523Y-31467619D01*
X70477142Y-31562857D01*
X70477142Y-31705714D01*
X70429523Y-31800952D01*
X70381904Y-31848571D01*
X70286666Y-31896190D01*
X69905714Y-31896190D01*
X70858095Y-31467619D02*
X70905714Y-31420000D01*
X71000952Y-31372380D01*
X71239047Y-31372380D01*
X71334285Y-31420000D01*
X71381904Y-31467619D01*
X71429523Y-31562857D01*
X71429523Y-31658095D01*
X71381904Y-31800952D01*
X70810476Y-32372380D01*
X71429523Y-32372380D01*
X72381904Y-32372380D02*
X71810476Y-32372380D01*
X72096190Y-32372380D02*
X72096190Y-31372380D01*
X72000952Y-31515238D01*
X71905714Y-31610476D01*
X71810476Y-31658095D01*
X70477142Y-37452380D02*
X70143809Y-36976190D01*
X69905714Y-37452380D02*
X69905714Y-36452380D01*
X70286666Y-36452380D01*
X70381904Y-36500000D01*
X70429523Y-36547619D01*
X70477142Y-36642857D01*
X70477142Y-36785714D01*
X70429523Y-36880952D01*
X70381904Y-36928571D01*
X70286666Y-36976190D01*
X69905714Y-36976190D01*
X70858095Y-36547619D02*
X70905714Y-36500000D01*
X71000952Y-36452380D01*
X71239047Y-36452380D01*
X71334285Y-36500000D01*
X71381904Y-36547619D01*
X71429523Y-36642857D01*
X71429523Y-36738095D01*
X71381904Y-36880952D01*
X70810476Y-37452380D01*
X71429523Y-37452380D01*
X71810476Y-36547619D02*
X71858095Y-36500000D01*
X71953333Y-36452380D01*
X72191428Y-36452380D01*
X72286666Y-36500000D01*
X72334285Y-36547619D01*
X72381904Y-36642857D01*
X72381904Y-36738095D01*
X72334285Y-36880952D01*
X71762857Y-37452380D01*
X72381904Y-37452380D01*
X70477142Y-45072380D02*
X70143809Y-44596190D01*
X69905714Y-45072380D02*
X69905714Y-44072380D01*
X70286666Y-44072380D01*
X70381904Y-44120000D01*
X70429523Y-44167619D01*
X70477142Y-44262857D01*
X70477142Y-44405714D01*
X70429523Y-44500952D01*
X70381904Y-44548571D01*
X70286666Y-44596190D01*
X69905714Y-44596190D01*
X70858095Y-44167619D02*
X70905714Y-44120000D01*
X71000952Y-44072380D01*
X71239047Y-44072380D01*
X71334285Y-44120000D01*
X71381904Y-44167619D01*
X71429523Y-44262857D01*
X71429523Y-44358095D01*
X71381904Y-44500952D01*
X70810476Y-45072380D01*
X71429523Y-45072380D01*
X71762857Y-44072380D02*
X72381904Y-44072380D01*
X72048571Y-44453333D01*
X72191428Y-44453333D01*
X72286666Y-44500952D01*
X72334285Y-44548571D01*
X72381904Y-44643809D01*
X72381904Y-44881904D01*
X72334285Y-44977142D01*
X72286666Y-45024761D01*
X72191428Y-45072380D01*
X71905714Y-45072380D01*
X71810476Y-45024761D01*
X71762857Y-44977142D01*
X70858142Y-50152380D02*
X70524809Y-49676190D01*
X70286714Y-50152380D02*
X70286714Y-49152380D01*
X70667666Y-49152380D01*
X70762904Y-49200000D01*
X70810523Y-49247619D01*
X70858142Y-49342857D01*
X70858142Y-49485714D01*
X70810523Y-49580952D01*
X70762904Y-49628571D01*
X70667666Y-49676190D01*
X70286714Y-49676190D01*
X71239095Y-49247619D02*
X71286714Y-49200000D01*
X71381952Y-49152380D01*
X71620047Y-49152380D01*
X71715285Y-49200000D01*
X71762904Y-49247619D01*
X71810523Y-49342857D01*
X71810523Y-49438095D01*
X71762904Y-49580952D01*
X71191476Y-50152380D01*
X71810523Y-50152380D01*
X72667666Y-49485714D02*
X72667666Y-50152380D01*
X72429571Y-49104761D02*
X72191476Y-49819047D01*
X72810523Y-49819047D01*
X70858142Y-62852380D02*
X70524809Y-62376190D01*
X70286714Y-62852380D02*
X70286714Y-61852380D01*
X70667666Y-61852380D01*
X70762904Y-61900000D01*
X70810523Y-61947619D01*
X70858142Y-62042857D01*
X70858142Y-62185714D01*
X70810523Y-62280952D01*
X70762904Y-62328571D01*
X70667666Y-62376190D01*
X70286714Y-62376190D01*
X71239095Y-61947619D02*
X71286714Y-61900000D01*
X71381952Y-61852380D01*
X71620047Y-61852380D01*
X71715285Y-61900000D01*
X71762904Y-61947619D01*
X71810523Y-62042857D01*
X71810523Y-62138095D01*
X71762904Y-62280952D01*
X71191476Y-62852380D01*
X71810523Y-62852380D01*
X72667666Y-61852380D02*
X72477190Y-61852380D01*
X72381952Y-61900000D01*
X72334333Y-61947619D01*
X72239095Y-62090476D01*
X72191476Y-62280952D01*
X72191476Y-62661904D01*
X72239095Y-62757142D01*
X72286714Y-62804761D01*
X72381952Y-62852380D01*
X72572428Y-62852380D01*
X72667666Y-62804761D01*
X72715285Y-62757142D01*
X72762904Y-62661904D01*
X72762904Y-62423809D01*
X72715285Y-62328571D01*
X72667666Y-62280952D01*
X72572428Y-62233333D01*
X72381952Y-62233333D01*
X72286714Y-62280952D01*
X72239095Y-62328571D01*
X72191476Y-62423809D01*
X70477142Y-98877380D02*
X70143809Y-98401190D01*
X69905714Y-98877380D02*
X69905714Y-97877380D01*
X70286666Y-97877380D01*
X70381904Y-97925000D01*
X70429523Y-97972619D01*
X70477142Y-98067857D01*
X70477142Y-98210714D01*
X70429523Y-98305952D01*
X70381904Y-98353571D01*
X70286666Y-98401190D01*
X69905714Y-98401190D01*
X70858095Y-97972619D02*
X70905714Y-97925000D01*
X71000952Y-97877380D01*
X71239047Y-97877380D01*
X71334285Y-97925000D01*
X71381904Y-97972619D01*
X71429523Y-98067857D01*
X71429523Y-98163095D01*
X71381904Y-98305952D01*
X70810476Y-98877380D01*
X71429523Y-98877380D01*
X71762857Y-97877380D02*
X72429523Y-97877380D01*
X72000952Y-98877380D01*
X70477142Y-104127380D02*
X70143809Y-103651190D01*
X69905714Y-104127380D02*
X69905714Y-103127380D01*
X70286666Y-103127380D01*
X70381904Y-103175000D01*
X70429523Y-103222619D01*
X70477142Y-103317857D01*
X70477142Y-103460714D01*
X70429523Y-103555952D01*
X70381904Y-103603571D01*
X70286666Y-103651190D01*
X69905714Y-103651190D01*
X70858095Y-103222619D02*
X70905714Y-103175000D01*
X71000952Y-103127380D01*
X71239047Y-103127380D01*
X71334285Y-103175000D01*
X71381904Y-103222619D01*
X71429523Y-103317857D01*
X71429523Y-103413095D01*
X71381904Y-103555952D01*
X70810476Y-104127380D01*
X71429523Y-104127380D01*
X72000952Y-103555952D02*
X71905714Y-103508333D01*
X71858095Y-103460714D01*
X71810476Y-103365476D01*
X71810476Y-103317857D01*
X71858095Y-103222619D01*
X71905714Y-103175000D01*
X72000952Y-103127380D01*
X72191428Y-103127380D01*
X72286666Y-103175000D01*
X72334285Y-103222619D01*
X72381904Y-103317857D01*
X72381904Y-103365476D01*
X72334285Y-103460714D01*
X72286666Y-103508333D01*
X72191428Y-103555952D01*
X72000952Y-103555952D01*
X71905714Y-103603571D01*
X71858095Y-103651190D01*
X71810476Y-103746428D01*
X71810476Y-103936904D01*
X71858095Y-104032142D01*
X71905714Y-104079761D01*
X72000952Y-104127380D01*
X72191428Y-104127380D01*
X72286666Y-104079761D01*
X72334285Y-104032142D01*
X72381904Y-103936904D01*
X72381904Y-103746428D01*
X72334285Y-103651190D01*
X72286666Y-103603571D01*
X72191428Y-103555952D01*
X70477142Y-109842380D02*
X70143809Y-109366190D01*
X69905714Y-109842380D02*
X69905714Y-108842380D01*
X70286666Y-108842380D01*
X70381904Y-108890000D01*
X70429523Y-108937619D01*
X70477142Y-109032857D01*
X70477142Y-109175714D01*
X70429523Y-109270952D01*
X70381904Y-109318571D01*
X70286666Y-109366190D01*
X69905714Y-109366190D01*
X70858095Y-108937619D02*
X70905714Y-108890000D01*
X71000952Y-108842380D01*
X71239047Y-108842380D01*
X71334285Y-108890000D01*
X71381904Y-108937619D01*
X71429523Y-109032857D01*
X71429523Y-109128095D01*
X71381904Y-109270952D01*
X70810476Y-109842380D01*
X71429523Y-109842380D01*
X71905714Y-109842380D02*
X72096190Y-109842380D01*
X72191428Y-109794761D01*
X72239047Y-109747142D01*
X72334285Y-109604285D01*
X72381904Y-109413809D01*
X72381904Y-109032857D01*
X72334285Y-108937619D01*
X72286666Y-108890000D01*
X72191428Y-108842380D01*
X72000952Y-108842380D01*
X71905714Y-108890000D01*
X71858095Y-108937619D01*
X71810476Y-109032857D01*
X71810476Y-109270952D01*
X71858095Y-109366190D01*
X71905714Y-109413809D01*
X72000952Y-109461428D01*
X72191428Y-109461428D01*
X72286666Y-109413809D01*
X72334285Y-109366190D01*
X72381904Y-109270952D01*
X70477142Y-114922380D02*
X70143809Y-114446190D01*
X69905714Y-114922380D02*
X69905714Y-113922380D01*
X70286666Y-113922380D01*
X70381904Y-113970000D01*
X70429523Y-114017619D01*
X70477142Y-114112857D01*
X70477142Y-114255714D01*
X70429523Y-114350952D01*
X70381904Y-114398571D01*
X70286666Y-114446190D01*
X69905714Y-114446190D01*
X70810476Y-113922380D02*
X71429523Y-113922380D01*
X71096190Y-114303333D01*
X71239047Y-114303333D01*
X71334285Y-114350952D01*
X71381904Y-114398571D01*
X71429523Y-114493809D01*
X71429523Y-114731904D01*
X71381904Y-114827142D01*
X71334285Y-114874761D01*
X71239047Y-114922380D01*
X70953333Y-114922380D01*
X70858095Y-114874761D01*
X70810476Y-114827142D01*
X72048571Y-113922380D02*
X72143809Y-113922380D01*
X72239047Y-113970000D01*
X72286666Y-114017619D01*
X72334285Y-114112857D01*
X72381904Y-114303333D01*
X72381904Y-114541428D01*
X72334285Y-114731904D01*
X72286666Y-114827142D01*
X72239047Y-114874761D01*
X72143809Y-114922380D01*
X72048571Y-114922380D01*
X71953333Y-114874761D01*
X71905714Y-114827142D01*
X71858095Y-114731904D01*
X71810476Y-114541428D01*
X71810476Y-114303333D01*
X71858095Y-114112857D01*
X71905714Y-114017619D01*
X71953333Y-113970000D01*
X72048571Y-113922380D01*
X70477142Y-122097880D02*
X70143809Y-121621690D01*
X69905714Y-122097880D02*
X69905714Y-121097880D01*
X70286666Y-121097880D01*
X70381904Y-121145500D01*
X70429523Y-121193119D01*
X70477142Y-121288357D01*
X70477142Y-121431214D01*
X70429523Y-121526452D01*
X70381904Y-121574071D01*
X70286666Y-121621690D01*
X69905714Y-121621690D01*
X70810476Y-121097880D02*
X71429523Y-121097880D01*
X71096190Y-121478833D01*
X71239047Y-121478833D01*
X71334285Y-121526452D01*
X71381904Y-121574071D01*
X71429523Y-121669309D01*
X71429523Y-121907404D01*
X71381904Y-122002642D01*
X71334285Y-122050261D01*
X71239047Y-122097880D01*
X70953333Y-122097880D01*
X70858095Y-122050261D01*
X70810476Y-122002642D01*
X72381904Y-122097880D02*
X71810476Y-122097880D01*
X72096190Y-122097880D02*
X72096190Y-121097880D01*
X72000952Y-121240738D01*
X71905714Y-121335976D01*
X71810476Y-121383595D01*
X70477142Y-127622380D02*
X70143809Y-127146190D01*
X69905714Y-127622380D02*
X69905714Y-126622380D01*
X70286666Y-126622380D01*
X70381904Y-126670000D01*
X70429523Y-126717619D01*
X70477142Y-126812857D01*
X70477142Y-126955714D01*
X70429523Y-127050952D01*
X70381904Y-127098571D01*
X70286666Y-127146190D01*
X69905714Y-127146190D01*
X70810476Y-126622380D02*
X71429523Y-126622380D01*
X71096190Y-127003333D01*
X71239047Y-127003333D01*
X71334285Y-127050952D01*
X71381904Y-127098571D01*
X71429523Y-127193809D01*
X71429523Y-127431904D01*
X71381904Y-127527142D01*
X71334285Y-127574761D01*
X71239047Y-127622380D01*
X70953333Y-127622380D01*
X70858095Y-127574761D01*
X70810476Y-127527142D01*
X71810476Y-126717619D02*
X71858095Y-126670000D01*
X71953333Y-126622380D01*
X72191428Y-126622380D01*
X72286666Y-126670000D01*
X72334285Y-126717619D01*
X72381904Y-126812857D01*
X72381904Y-126908095D01*
X72334285Y-127050952D01*
X71762857Y-127622380D01*
X72381904Y-127622380D01*
X109156666Y-44854761D02*
X109299523Y-44902380D01*
X109537619Y-44902380D01*
X109632857Y-44854761D01*
X109680476Y-44807142D01*
X109728095Y-44711904D01*
X109728095Y-44616666D01*
X109680476Y-44521428D01*
X109632857Y-44473809D01*
X109537619Y-44426190D01*
X109347142Y-44378571D01*
X109251904Y-44330952D01*
X109204285Y-44283333D01*
X109156666Y-44188095D01*
X109156666Y-44092857D01*
X109204285Y-43997619D01*
X109251904Y-43950000D01*
X109347142Y-43902380D01*
X109585238Y-43902380D01*
X109728095Y-43950000D01*
X110061428Y-43902380D02*
X110299523Y-44902380D01*
X110490000Y-44188095D01*
X110680476Y-44902380D01*
X110918571Y-43902380D01*
X111823333Y-44902380D02*
X111251904Y-44902380D01*
X111537619Y-44902380D02*
X111537619Y-43902380D01*
X111442380Y-44045238D01*
X111347142Y-44140476D01*
X111251904Y-44188095D01*
X92372380Y-93471904D02*
X93181904Y-93471904D01*
X93277142Y-93424285D01*
X93324761Y-93376666D01*
X93372380Y-93281428D01*
X93372380Y-93090952D01*
X93324761Y-92995714D01*
X93277142Y-92948095D01*
X93181904Y-92900476D01*
X92372380Y-92900476D01*
X93372380Y-91900476D02*
X93372380Y-92471904D01*
X93372380Y-92186190D02*
X92372380Y-92186190D01*
X92515238Y-92281428D01*
X92610476Y-92376666D01*
X92658095Y-92471904D01*
X101262380Y-64261904D02*
X102071904Y-64261904D01*
X102167142Y-64214285D01*
X102214761Y-64166666D01*
X102262380Y-64071428D01*
X102262380Y-63880952D01*
X102214761Y-63785714D01*
X102167142Y-63738095D01*
X102071904Y-63690476D01*
X101262380Y-63690476D01*
X101357619Y-63261904D02*
X101310000Y-63214285D01*
X101262380Y-63119047D01*
X101262380Y-62880952D01*
X101310000Y-62785714D01*
X101357619Y-62738095D01*
X101452857Y-62690476D01*
X101548095Y-62690476D01*
X101690952Y-62738095D01*
X102262380Y-63309523D01*
X102262380Y-62690476D01*
X99992380Y-129031904D02*
X100801904Y-129031904D01*
X100897142Y-128984285D01*
X100944761Y-128936666D01*
X100992380Y-128841428D01*
X100992380Y-128650952D01*
X100944761Y-128555714D01*
X100897142Y-128508095D01*
X100801904Y-128460476D01*
X99992380Y-128460476D01*
X99992380Y-128079523D02*
X99992380Y-127460476D01*
X100373333Y-127793809D01*
X100373333Y-127650952D01*
X100420952Y-127555714D01*
X100468571Y-127508095D01*
X100563809Y-127460476D01*
X100801904Y-127460476D01*
X100897142Y-127508095D01*
X100944761Y-127555714D01*
X100992380Y-127650952D01*
X100992380Y-127936666D01*
X100944761Y-128031904D01*
X100897142Y-128079523D01*
X85598095Y-39032380D02*
X85598095Y-39841904D01*
X85645714Y-39937142D01*
X85693333Y-39984761D01*
X85788571Y-40032380D01*
X85979047Y-40032380D01*
X86074285Y-39984761D01*
X86121904Y-39937142D01*
X86169523Y-39841904D01*
X86169523Y-39032380D01*
X87074285Y-39365714D02*
X87074285Y-40032380D01*
X86836190Y-38984761D02*
X86598095Y-39699047D01*
X87217142Y-39699047D01*
X85598095Y-103802380D02*
X85598095Y-104611904D01*
X85645714Y-104707142D01*
X85693333Y-104754761D01*
X85788571Y-104802380D01*
X85979047Y-104802380D01*
X86074285Y-104754761D01*
X86121904Y-104707142D01*
X86169523Y-104611904D01*
X86169523Y-103802380D01*
X87121904Y-103802380D02*
X86645714Y-103802380D01*
X86598095Y-104278571D01*
X86645714Y-104230952D01*
X86740952Y-104183333D01*
X86979047Y-104183333D01*
X87074285Y-104230952D01*
X87121904Y-104278571D01*
X87169523Y-104373809D01*
X87169523Y-104611904D01*
X87121904Y-104707142D01*
X87074285Y-104754761D01*
X86979047Y-104802380D01*
X86740952Y-104802380D01*
X86645714Y-104754761D01*
X86598095Y-104707142D01*
X57658095Y-28872380D02*
X57658095Y-29681904D01*
X57705714Y-29777142D01*
X57753333Y-29824761D01*
X57848571Y-29872380D01*
X58039047Y-29872380D01*
X58134285Y-29824761D01*
X58181904Y-29777142D01*
X58229523Y-29681904D01*
X58229523Y-28872380D01*
X59134285Y-28872380D02*
X58943809Y-28872380D01*
X58848571Y-28920000D01*
X58800952Y-28967619D01*
X58705714Y-29110476D01*
X58658095Y-29300952D01*
X58658095Y-29681904D01*
X58705714Y-29777142D01*
X58753333Y-29824761D01*
X58848571Y-29872380D01*
X59039047Y-29872380D01*
X59134285Y-29824761D01*
X59181904Y-29777142D01*
X59229523Y-29681904D01*
X59229523Y-29443809D01*
X59181904Y-29348571D01*
X59134285Y-29300952D01*
X59039047Y-29253333D01*
X58848571Y-29253333D01*
X58753333Y-29300952D01*
X58705714Y-29348571D01*
X58658095Y-29443809D01*
X57658095Y-41572380D02*
X57658095Y-42381904D01*
X57705714Y-42477142D01*
X57753333Y-42524761D01*
X57848571Y-42572380D01*
X58039047Y-42572380D01*
X58134285Y-42524761D01*
X58181904Y-42477142D01*
X58229523Y-42381904D01*
X58229523Y-41572380D01*
X58610476Y-41572380D02*
X59277142Y-41572380D01*
X58848571Y-42572380D01*
X57658095Y-54018380D02*
X57658095Y-54827904D01*
X57705714Y-54923142D01*
X57753333Y-54970761D01*
X57848571Y-55018380D01*
X58039047Y-55018380D01*
X58134285Y-54970761D01*
X58181904Y-54923142D01*
X58229523Y-54827904D01*
X58229523Y-54018380D01*
X58848571Y-54446952D02*
X58753333Y-54399333D01*
X58705714Y-54351714D01*
X58658095Y-54256476D01*
X58658095Y-54208857D01*
X58705714Y-54113619D01*
X58753333Y-54066000D01*
X58848571Y-54018380D01*
X59039047Y-54018380D01*
X59134285Y-54066000D01*
X59181904Y-54113619D01*
X59229523Y-54208857D01*
X59229523Y-54256476D01*
X59181904Y-54351714D01*
X59134285Y-54399333D01*
X59039047Y-54446952D01*
X58848571Y-54446952D01*
X58753333Y-54494571D01*
X58705714Y-54542190D01*
X58658095Y-54637428D01*
X58658095Y-54827904D01*
X58705714Y-54923142D01*
X58753333Y-54970761D01*
X58848571Y-55018380D01*
X59039047Y-55018380D01*
X59134285Y-54970761D01*
X59181904Y-54923142D01*
X59229523Y-54827904D01*
X59229523Y-54637428D01*
X59181904Y-54542190D01*
X59134285Y-54494571D01*
X59039047Y-54446952D01*
X57658095Y-93642380D02*
X57658095Y-94451904D01*
X57705714Y-94547142D01*
X57753333Y-94594761D01*
X57848571Y-94642380D01*
X58039047Y-94642380D01*
X58134285Y-94594761D01*
X58181904Y-94547142D01*
X58229523Y-94451904D01*
X58229523Y-93642380D01*
X58753333Y-94642380D02*
X58943809Y-94642380D01*
X59039047Y-94594761D01*
X59086666Y-94547142D01*
X59181904Y-94404285D01*
X59229523Y-94213809D01*
X59229523Y-93832857D01*
X59181904Y-93737619D01*
X59134285Y-93690000D01*
X59039047Y-93642380D01*
X58848571Y-93642380D01*
X58753333Y-93690000D01*
X58705714Y-93737619D01*
X58658095Y-93832857D01*
X58658095Y-94070952D01*
X58705714Y-94166190D01*
X58753333Y-94213809D01*
X58848571Y-94261428D01*
X59039047Y-94261428D01*
X59134285Y-94213809D01*
X59181904Y-94166190D01*
X59229523Y-94070952D01*
X57181904Y-106342380D02*
X57181904Y-107151904D01*
X57229523Y-107247142D01*
X57277142Y-107294761D01*
X57372380Y-107342380D01*
X57562857Y-107342380D01*
X57658095Y-107294761D01*
X57705714Y-107247142D01*
X57753333Y-107151904D01*
X57753333Y-106342380D01*
X58753333Y-107342380D02*
X58181904Y-107342380D01*
X58467619Y-107342380D02*
X58467619Y-106342380D01*
X58372380Y-106485238D01*
X58277142Y-106580476D01*
X58181904Y-106628095D01*
X59372380Y-106342380D02*
X59467619Y-106342380D01*
X59562857Y-106390000D01*
X59610476Y-106437619D01*
X59658095Y-106532857D01*
X59705714Y-106723333D01*
X59705714Y-106961428D01*
X59658095Y-107151904D01*
X59610476Y-107247142D01*
X59562857Y-107294761D01*
X59467619Y-107342380D01*
X59372380Y-107342380D01*
X59277142Y-107294761D01*
X59229523Y-107247142D01*
X59181904Y-107151904D01*
X59134285Y-106961428D01*
X59134285Y-106723333D01*
X59181904Y-106532857D01*
X59229523Y-106437619D01*
X59277142Y-106390000D01*
X59372380Y-106342380D01*
X57181904Y-119042380D02*
X57181904Y-119851904D01*
X57229523Y-119947142D01*
X57277142Y-119994761D01*
X57372380Y-120042380D01*
X57562857Y-120042380D01*
X57658095Y-119994761D01*
X57705714Y-119947142D01*
X57753333Y-119851904D01*
X57753333Y-119042380D01*
X58753333Y-120042380D02*
X58181904Y-120042380D01*
X58467619Y-120042380D02*
X58467619Y-119042380D01*
X58372380Y-119185238D01*
X58277142Y-119280476D01*
X58181904Y-119328095D01*
X59705714Y-120042380D02*
X59134285Y-120042380D01*
X59420000Y-120042380D02*
X59420000Y-119042380D01*
X59324761Y-119185238D01*
X59229523Y-119280476D01*
X59134285Y-119328095D01*
X91273333Y-145062380D02*
X90940000Y-144586190D01*
X90701904Y-145062380D02*
X90701904Y-144062380D01*
X91082857Y-144062380D01*
X91178095Y-144110000D01*
X91225714Y-144157619D01*
X91273333Y-144252857D01*
X91273333Y-144395714D01*
X91225714Y-144490952D01*
X91178095Y-144538571D01*
X91082857Y-144586190D01*
X90701904Y-144586190D01*
X91844761Y-144490952D02*
X91749523Y-144443333D01*
X91701904Y-144395714D01*
X91654285Y-144300476D01*
X91654285Y-144252857D01*
X91701904Y-144157619D01*
X91749523Y-144110000D01*
X91844761Y-144062380D01*
X92035238Y-144062380D01*
X92130476Y-144110000D01*
X92178095Y-144157619D01*
X92225714Y-144252857D01*
X92225714Y-144300476D01*
X92178095Y-144395714D01*
X92130476Y-144443333D01*
X92035238Y-144490952D01*
X91844761Y-144490952D01*
X91749523Y-144538571D01*
X91701904Y-144586190D01*
X91654285Y-144681428D01*
X91654285Y-144871904D01*
X91701904Y-144967142D01*
X91749523Y-145014761D01*
X91844761Y-145062380D01*
X92035238Y-145062380D01*
X92130476Y-145014761D01*
X92178095Y-144967142D01*
X92225714Y-144871904D01*
X92225714Y-144681428D01*
X92178095Y-144586190D01*
X92130476Y-144538571D01*
X92035238Y-144490952D01*
X122613809Y-70111190D02*
X122613809Y-70587380D01*
X122280476Y-69587380D02*
X122613809Y-70111190D01*
X122947142Y-69587380D01*
X123804285Y-70587380D02*
X123232857Y-70587380D01*
X123518571Y-70587380D02*
X123518571Y-69587380D01*
X123423333Y-69730238D01*
X123328095Y-69825476D01*
X123232857Y-69873095D01*
X116827380Y-51442857D02*
X116351190Y-51776190D01*
X116827380Y-52014285D02*
X115827380Y-52014285D01*
X115827380Y-51633333D01*
X115875000Y-51538095D01*
X115922619Y-51490476D01*
X116017857Y-51442857D01*
X116160714Y-51442857D01*
X116255952Y-51490476D01*
X116303571Y-51538095D01*
X116351190Y-51633333D01*
X116351190Y-52014285D01*
X116827380Y-50490476D02*
X116827380Y-51061904D01*
X116827380Y-50776190D02*
X115827380Y-50776190D01*
X115970238Y-50871428D01*
X116065476Y-50966666D01*
X116113095Y-51061904D01*
X115827380Y-49585714D02*
X115827380Y-50061904D01*
X116303571Y-50109523D01*
X116255952Y-50061904D01*
X116208333Y-49966666D01*
X116208333Y-49728571D01*
X116255952Y-49633333D01*
X116303571Y-49585714D01*
X116398809Y-49538095D01*
X116636904Y-49538095D01*
X116732142Y-49585714D01*
X116779761Y-49633333D01*
X116827380Y-49728571D01*
X116827380Y-49966666D01*
X116779761Y-50061904D01*
X116732142Y-50109523D01*
X107132380Y-51442857D02*
X106656190Y-51776190D01*
X107132380Y-52014285D02*
X106132380Y-52014285D01*
X106132380Y-51633333D01*
X106180000Y-51538095D01*
X106227619Y-51490476D01*
X106322857Y-51442857D01*
X106465714Y-51442857D01*
X106560952Y-51490476D01*
X106608571Y-51538095D01*
X106656190Y-51633333D01*
X106656190Y-52014285D01*
X107132380Y-50490476D02*
X107132380Y-51061904D01*
X107132380Y-50776190D02*
X106132380Y-50776190D01*
X106275238Y-50871428D01*
X106370476Y-50966666D01*
X106418095Y-51061904D01*
X106560952Y-49919047D02*
X106513333Y-50014285D01*
X106465714Y-50061904D01*
X106370476Y-50109523D01*
X106322857Y-50109523D01*
X106227619Y-50061904D01*
X106180000Y-50014285D01*
X106132380Y-49919047D01*
X106132380Y-49728571D01*
X106180000Y-49633333D01*
X106227619Y-49585714D01*
X106322857Y-49538095D01*
X106370476Y-49538095D01*
X106465714Y-49585714D01*
X106513333Y-49633333D01*
X106560952Y-49728571D01*
X106560952Y-49919047D01*
X106608571Y-50014285D01*
X106656190Y-50061904D01*
X106751428Y-50109523D01*
X106941904Y-50109523D01*
X107037142Y-50061904D01*
X107084761Y-50014285D01*
X107132380Y-49919047D01*
X107132380Y-49728571D01*
X107084761Y-49633333D01*
X107037142Y-49585714D01*
X106941904Y-49538095D01*
X106751428Y-49538095D01*
X106656190Y-49585714D01*
X106608571Y-49633333D01*
X106560952Y-49728571D01*
X102052380Y-51442857D02*
X101576190Y-51776190D01*
X102052380Y-52014285D02*
X101052380Y-52014285D01*
X101052380Y-51633333D01*
X101100000Y-51538095D01*
X101147619Y-51490476D01*
X101242857Y-51442857D01*
X101385714Y-51442857D01*
X101480952Y-51490476D01*
X101528571Y-51538095D01*
X101576190Y-51633333D01*
X101576190Y-52014285D01*
X102052380Y-50490476D02*
X102052380Y-51061904D01*
X102052380Y-50776190D02*
X101052380Y-50776190D01*
X101195238Y-50871428D01*
X101290476Y-50966666D01*
X101338095Y-51061904D01*
X101052380Y-49633333D02*
X101052380Y-49823809D01*
X101100000Y-49919047D01*
X101147619Y-49966666D01*
X101290476Y-50061904D01*
X101480952Y-50109523D01*
X101861904Y-50109523D01*
X101957142Y-50061904D01*
X102004761Y-50014285D01*
X102052380Y-49919047D01*
X102052380Y-49728571D01*
X102004761Y-49633333D01*
X101957142Y-49585714D01*
X101861904Y-49538095D01*
X101623809Y-49538095D01*
X101528571Y-49585714D01*
X101480952Y-49633333D01*
X101433333Y-49728571D01*
X101433333Y-49919047D01*
X101480952Y-50014285D01*
X101528571Y-50061904D01*
X101623809Y-50109523D01*
X91273333Y-73942380D02*
X90940000Y-73466190D01*
X90701904Y-73942380D02*
X90701904Y-72942380D01*
X91082857Y-72942380D01*
X91178095Y-72990000D01*
X91225714Y-73037619D01*
X91273333Y-73132857D01*
X91273333Y-73275714D01*
X91225714Y-73370952D01*
X91178095Y-73418571D01*
X91082857Y-73466190D01*
X90701904Y-73466190D01*
X92130476Y-72942380D02*
X91940000Y-72942380D01*
X91844761Y-72990000D01*
X91797142Y-73037619D01*
X91701904Y-73180476D01*
X91654285Y-73370952D01*
X91654285Y-73751904D01*
X91701904Y-73847142D01*
X91749523Y-73894761D01*
X91844761Y-73942380D01*
X92035238Y-73942380D01*
X92130476Y-73894761D01*
X92178095Y-73847142D01*
X92225714Y-73751904D01*
X92225714Y-73513809D01*
X92178095Y-73418571D01*
X92130476Y-73370952D01*
X92035238Y-73323333D01*
X91844761Y-73323333D01*
X91749523Y-73370952D01*
X91701904Y-73418571D01*
X91654285Y-73513809D01*
X109212142Y-77922380D02*
X108878809Y-77446190D01*
X108640714Y-77922380D02*
X108640714Y-76922380D01*
X109021666Y-76922380D01*
X109116904Y-76970000D01*
X109164523Y-77017619D01*
X109212142Y-77112857D01*
X109212142Y-77255714D01*
X109164523Y-77350952D01*
X109116904Y-77398571D01*
X109021666Y-77446190D01*
X108640714Y-77446190D01*
X110164523Y-77922380D02*
X109593095Y-77922380D01*
X109878809Y-77922380D02*
X109878809Y-76922380D01*
X109783571Y-77065238D01*
X109688333Y-77160476D01*
X109593095Y-77208095D01*
X111116904Y-77922380D02*
X110545476Y-77922380D01*
X110831190Y-77922380D02*
X110831190Y-76922380D01*
X110735952Y-77065238D01*
X110640714Y-77160476D01*
X110545476Y-77208095D01*
X68413333Y-77752380D02*
X68080000Y-77276190D01*
X67841904Y-77752380D02*
X67841904Y-76752380D01*
X68222857Y-76752380D01*
X68318095Y-76800000D01*
X68365714Y-76847619D01*
X68413333Y-76942857D01*
X68413333Y-77085714D01*
X68365714Y-77180952D01*
X68318095Y-77228571D01*
X68222857Y-77276190D01*
X67841904Y-77276190D01*
X68746666Y-76752380D02*
X69365714Y-76752380D01*
X69032380Y-77133333D01*
X69175238Y-77133333D01*
X69270476Y-77180952D01*
X69318095Y-77228571D01*
X69365714Y-77323809D01*
X69365714Y-77561904D01*
X69318095Y-77657142D01*
X69270476Y-77704761D01*
X69175238Y-77752380D01*
X68889523Y-77752380D01*
X68794285Y-77704761D01*
X68746666Y-77657142D01*
X68413333Y-72037380D02*
X68080000Y-71561190D01*
X67841904Y-72037380D02*
X67841904Y-71037380D01*
X68222857Y-71037380D01*
X68318095Y-71085000D01*
X68365714Y-71132619D01*
X68413333Y-71227857D01*
X68413333Y-71370714D01*
X68365714Y-71465952D01*
X68318095Y-71513571D01*
X68222857Y-71561190D01*
X67841904Y-71561190D01*
X68794285Y-71132619D02*
X68841904Y-71085000D01*
X68937142Y-71037380D01*
X69175238Y-71037380D01*
X69270476Y-71085000D01*
X69318095Y-71132619D01*
X69365714Y-71227857D01*
X69365714Y-71323095D01*
X69318095Y-71465952D01*
X68746666Y-72037380D01*
X69365714Y-72037380D01*
X79271904Y-81662380D02*
X79271904Y-80662380D01*
X79510000Y-80662380D01*
X79652857Y-80710000D01*
X79748095Y-80805238D01*
X79795714Y-80900476D01*
X79843333Y-81090952D01*
X79843333Y-81233809D01*
X79795714Y-81424285D01*
X79748095Y-81519523D01*
X79652857Y-81614761D01*
X79510000Y-81662380D01*
X79271904Y-81662380D01*
X80224285Y-80757619D02*
X80271904Y-80710000D01*
X80367142Y-80662380D01*
X80605238Y-80662380D01*
X80700476Y-80710000D01*
X80748095Y-80757619D01*
X80795714Y-80852857D01*
X80795714Y-80948095D01*
X80748095Y-81090952D01*
X80176666Y-81662380D01*
X80795714Y-81662380D01*
X83558095Y-81292380D02*
X83558095Y-80292380D01*
X84129523Y-81292380D02*
X83700952Y-80720952D01*
X84129523Y-80292380D02*
X83558095Y-80863809D01*
X79271904Y-74042380D02*
X79271904Y-73042380D01*
X79510000Y-73042380D01*
X79652857Y-73090000D01*
X79748095Y-73185238D01*
X79795714Y-73280476D01*
X79843333Y-73470952D01*
X79843333Y-73613809D01*
X79795714Y-73804285D01*
X79748095Y-73899523D01*
X79652857Y-73994761D01*
X79510000Y-74042380D01*
X79271904Y-74042380D01*
X80795714Y-74042380D02*
X80224285Y-74042380D01*
X80510000Y-74042380D02*
X80510000Y-73042380D01*
X80414761Y-73185238D01*
X80319523Y-73280476D01*
X80224285Y-73328095D01*
X83558095Y-73672380D02*
X83558095Y-72672380D01*
X84129523Y-73672380D02*
X83700952Y-73100952D01*
X84129523Y-72672380D02*
X83558095Y-73243809D01*
X112632380Y-51538095D02*
X111632380Y-51538095D01*
X111632380Y-51300000D01*
X111680000Y-51157142D01*
X111775238Y-51061904D01*
X111870476Y-51014285D01*
X112060952Y-50966666D01*
X112203809Y-50966666D01*
X112394285Y-51014285D01*
X112489523Y-51061904D01*
X112584761Y-51157142D01*
X112632380Y-51300000D01*
X112632380Y-51538095D01*
X111632380Y-50061904D02*
X111632380Y-50538095D01*
X112108571Y-50585714D01*
X112060952Y-50538095D01*
X112013333Y-50442857D01*
X112013333Y-50204761D01*
X112060952Y-50109523D01*
X112108571Y-50061904D01*
X112203809Y-50014285D01*
X112441904Y-50014285D01*
X112537142Y-50061904D01*
X112584761Y-50109523D01*
X112632380Y-50204761D01*
X112632380Y-50442857D01*
X112584761Y-50538095D01*
X112537142Y-50585714D01*
X112952380Y-54871904D02*
X111952380Y-54871904D01*
X112952380Y-54300476D02*
X112380952Y-54729047D01*
X111952380Y-54300476D02*
X112523809Y-54871904D01*
X91273333Y-80292380D02*
X90940000Y-79816190D01*
X90701904Y-80292380D02*
X90701904Y-79292380D01*
X91082857Y-79292380D01*
X91178095Y-79340000D01*
X91225714Y-79387619D01*
X91273333Y-79482857D01*
X91273333Y-79625714D01*
X91225714Y-79720952D01*
X91178095Y-79768571D01*
X91082857Y-79816190D01*
X90701904Y-79816190D01*
X91606666Y-79292380D02*
X92273333Y-79292380D01*
X91844761Y-80292380D01*
X101667142Y-56502857D02*
X101714761Y-56550476D01*
X101762380Y-56693333D01*
X101762380Y-56788571D01*
X101714761Y-56931428D01*
X101619523Y-57026666D01*
X101524285Y-57074285D01*
X101333809Y-57121904D01*
X101190952Y-57121904D01*
X101000476Y-57074285D01*
X100905238Y-57026666D01*
X100810000Y-56931428D01*
X100762380Y-56788571D01*
X100762380Y-56693333D01*
X100810000Y-56550476D01*
X100857619Y-56502857D01*
X101762380Y-55550476D02*
X101762380Y-56121904D01*
X101762380Y-55836190D02*
X100762380Y-55836190D01*
X100905238Y-55931428D01*
X101000476Y-56026666D01*
X101048095Y-56121904D01*
X101762380Y-54598095D02*
X101762380Y-55169523D01*
X101762380Y-54883809D02*
X100762380Y-54883809D01*
X100905238Y-54979047D01*
X101000476Y-55074285D01*
X101048095Y-55169523D01*
X98417142Y-69202380D02*
X98083809Y-68726190D01*
X97845714Y-69202380D02*
X97845714Y-68202380D01*
X98226666Y-68202380D01*
X98321904Y-68250000D01*
X98369523Y-68297619D01*
X98417142Y-68392857D01*
X98417142Y-68535714D01*
X98369523Y-68630952D01*
X98321904Y-68678571D01*
X98226666Y-68726190D01*
X97845714Y-68726190D01*
X99369523Y-69202380D02*
X98798095Y-69202380D01*
X99083809Y-69202380D02*
X99083809Y-68202380D01*
X98988571Y-68345238D01*
X98893333Y-68440476D01*
X98798095Y-68488095D01*
X99988571Y-68202380D02*
X100083809Y-68202380D01*
X100179047Y-68250000D01*
X100226666Y-68297619D01*
X100274285Y-68392857D01*
X100321904Y-68583333D01*
X100321904Y-68821428D01*
X100274285Y-69011904D01*
X100226666Y-69107142D01*
X100179047Y-69154761D01*
X100083809Y-69202380D01*
X99988571Y-69202380D01*
X99893333Y-69154761D01*
X99845714Y-69107142D01*
X99798095Y-69011904D01*
X99750476Y-68821428D01*
X99750476Y-68583333D01*
X99798095Y-68392857D01*
X99845714Y-68297619D01*
X99893333Y-68250000D01*
X99988571Y-68202380D01*
X70858142Y-57772380D02*
X70524809Y-57296190D01*
X70286714Y-57772380D02*
X70286714Y-56772380D01*
X70667666Y-56772380D01*
X70762904Y-56820000D01*
X70810523Y-56867619D01*
X70858142Y-56962857D01*
X70858142Y-57105714D01*
X70810523Y-57200952D01*
X70762904Y-57248571D01*
X70667666Y-57296190D01*
X70286714Y-57296190D01*
X71239095Y-56867619D02*
X71286714Y-56820000D01*
X71381952Y-56772380D01*
X71620047Y-56772380D01*
X71715285Y-56820000D01*
X71762904Y-56867619D01*
X71810523Y-56962857D01*
X71810523Y-57058095D01*
X71762904Y-57200952D01*
X71191476Y-57772380D01*
X71810523Y-57772380D01*
X72715285Y-56772380D02*
X72239095Y-56772380D01*
X72191476Y-57248571D01*
X72239095Y-57200952D01*
X72334333Y-57153333D01*
X72572428Y-57153333D01*
X72667666Y-57200952D01*
X72715285Y-57248571D01*
X72762904Y-57343809D01*
X72762904Y-57581904D01*
X72715285Y-57677142D01*
X72667666Y-57724761D01*
X72572428Y-57772380D01*
X72334333Y-57772380D01*
X72239095Y-57724761D01*
X72191476Y-57677142D01*
X127627142Y-140322380D02*
X127293809Y-139846190D01*
X127055714Y-140322380D02*
X127055714Y-139322380D01*
X127436666Y-139322380D01*
X127531904Y-139370000D01*
X127579523Y-139417619D01*
X127627142Y-139512857D01*
X127627142Y-139655714D01*
X127579523Y-139750952D01*
X127531904Y-139798571D01*
X127436666Y-139846190D01*
X127055714Y-139846190D01*
X127960476Y-139322380D02*
X128579523Y-139322380D01*
X128246190Y-139703333D01*
X128389047Y-139703333D01*
X128484285Y-139750952D01*
X128531904Y-139798571D01*
X128579523Y-139893809D01*
X128579523Y-140131904D01*
X128531904Y-140227142D01*
X128484285Y-140274761D01*
X128389047Y-140322380D01*
X128103333Y-140322380D01*
X128008095Y-140274761D01*
X127960476Y-140227142D01*
X128912857Y-139322380D02*
X129531904Y-139322380D01*
X129198571Y-139703333D01*
X129341428Y-139703333D01*
X129436666Y-139750952D01*
X129484285Y-139798571D01*
X129531904Y-139893809D01*
X129531904Y-140131904D01*
X129484285Y-140227142D01*
X129436666Y-140274761D01*
X129341428Y-140322380D01*
X129055714Y-140322380D01*
X128960476Y-140274761D01*
X128912857Y-140227142D01*
X127627142Y-135242380D02*
X127293809Y-134766190D01*
X127055714Y-135242380D02*
X127055714Y-134242380D01*
X127436666Y-134242380D01*
X127531904Y-134290000D01*
X127579523Y-134337619D01*
X127627142Y-134432857D01*
X127627142Y-134575714D01*
X127579523Y-134670952D01*
X127531904Y-134718571D01*
X127436666Y-134766190D01*
X127055714Y-134766190D01*
X127960476Y-134242380D02*
X128579523Y-134242380D01*
X128246190Y-134623333D01*
X128389047Y-134623333D01*
X128484285Y-134670952D01*
X128531904Y-134718571D01*
X128579523Y-134813809D01*
X128579523Y-135051904D01*
X128531904Y-135147142D01*
X128484285Y-135194761D01*
X128389047Y-135242380D01*
X128103333Y-135242380D01*
X128008095Y-135194761D01*
X127960476Y-135147142D01*
X129436666Y-134575714D02*
X129436666Y-135242380D01*
X129198571Y-134194761D02*
X128960476Y-134909047D01*
X129579523Y-134909047D01*
X128892380Y-128912857D02*
X128416190Y-129246190D01*
X128892380Y-129484285D02*
X127892380Y-129484285D01*
X127892380Y-129103333D01*
X127940000Y-129008095D01*
X127987619Y-128960476D01*
X128082857Y-128912857D01*
X128225714Y-128912857D01*
X128320952Y-128960476D01*
X128368571Y-129008095D01*
X128416190Y-129103333D01*
X128416190Y-129484285D01*
X127892380Y-128579523D02*
X127892380Y-127960476D01*
X128273333Y-128293809D01*
X128273333Y-128150952D01*
X128320952Y-128055714D01*
X128368571Y-128008095D01*
X128463809Y-127960476D01*
X128701904Y-127960476D01*
X128797142Y-128008095D01*
X128844761Y-128055714D01*
X128892380Y-128150952D01*
X128892380Y-128436666D01*
X128844761Y-128531904D01*
X128797142Y-128579523D01*
X127892380Y-127055714D02*
X127892380Y-127531904D01*
X128368571Y-127579523D01*
X128320952Y-127531904D01*
X128273333Y-127436666D01*
X128273333Y-127198571D01*
X128320952Y-127103333D01*
X128368571Y-127055714D01*
X128463809Y-127008095D01*
X128701904Y-127008095D01*
X128797142Y-127055714D01*
X128844761Y-127103333D01*
X128892380Y-127198571D01*
X128892380Y-127436666D01*
X128844761Y-127531904D01*
X128797142Y-127579523D01*
X133972380Y-128912857D02*
X133496190Y-129246190D01*
X133972380Y-129484285D02*
X132972380Y-129484285D01*
X132972380Y-129103333D01*
X133020000Y-129008095D01*
X133067619Y-128960476D01*
X133162857Y-128912857D01*
X133305714Y-128912857D01*
X133400952Y-128960476D01*
X133448571Y-129008095D01*
X133496190Y-129103333D01*
X133496190Y-129484285D01*
X132972380Y-128579523D02*
X132972380Y-127960476D01*
X133353333Y-128293809D01*
X133353333Y-128150952D01*
X133400952Y-128055714D01*
X133448571Y-128008095D01*
X133543809Y-127960476D01*
X133781904Y-127960476D01*
X133877142Y-128008095D01*
X133924761Y-128055714D01*
X133972380Y-128150952D01*
X133972380Y-128436666D01*
X133924761Y-128531904D01*
X133877142Y-128579523D01*
X132972380Y-127103333D02*
X132972380Y-127293809D01*
X133020000Y-127389047D01*
X133067619Y-127436666D01*
X133210476Y-127531904D01*
X133400952Y-127579523D01*
X133781904Y-127579523D01*
X133877142Y-127531904D01*
X133924761Y-127484285D01*
X133972380Y-127389047D01*
X133972380Y-127198571D01*
X133924761Y-127103333D01*
X133877142Y-127055714D01*
X133781904Y-127008095D01*
X133543809Y-127008095D01*
X133448571Y-127055714D01*
X133400952Y-127103333D01*
X133353333Y-127198571D01*
X133353333Y-127389047D01*
X133400952Y-127484285D01*
X133448571Y-127531904D01*
X133543809Y-127579523D01*
X121951904Y-108882380D02*
X121951904Y-109691904D01*
X121999523Y-109787142D01*
X122047142Y-109834761D01*
X122142380Y-109882380D01*
X122332857Y-109882380D01*
X122428095Y-109834761D01*
X122475714Y-109787142D01*
X122523333Y-109691904D01*
X122523333Y-108882380D01*
X123523333Y-109882380D02*
X122951904Y-109882380D01*
X123237619Y-109882380D02*
X123237619Y-108882380D01*
X123142380Y-109025238D01*
X123047142Y-109120476D01*
X122951904Y-109168095D01*
X123904285Y-108977619D02*
X123951904Y-108930000D01*
X124047142Y-108882380D01*
X124285238Y-108882380D01*
X124380476Y-108930000D01*
X124428095Y-108977619D01*
X124475714Y-109072857D01*
X124475714Y-109168095D01*
X124428095Y-109310952D01*
X123856666Y-109882380D01*
X124475714Y-109882380D01*
X134651904Y-108882380D02*
X134651904Y-109691904D01*
X134699523Y-109787142D01*
X134747142Y-109834761D01*
X134842380Y-109882380D01*
X135032857Y-109882380D01*
X135128095Y-109834761D01*
X135175714Y-109787142D01*
X135223333Y-109691904D01*
X135223333Y-108882380D01*
X136223333Y-109882380D02*
X135651904Y-109882380D01*
X135937619Y-109882380D02*
X135937619Y-108882380D01*
X135842380Y-109025238D01*
X135747142Y-109120476D01*
X135651904Y-109168095D01*
X136556666Y-108882380D02*
X137175714Y-108882380D01*
X136842380Y-109263333D01*
X136985238Y-109263333D01*
X137080476Y-109310952D01*
X137128095Y-109358571D01*
X137175714Y-109453809D01*
X137175714Y-109691904D01*
X137128095Y-109787142D01*
X137080476Y-109834761D01*
X136985238Y-109882380D01*
X136699523Y-109882380D01*
X136604285Y-109834761D01*
X136556666Y-109787142D01*
X144041904Y-120848380D02*
X144041904Y-119848380D01*
X144280000Y-119848380D01*
X144422857Y-119896000D01*
X144518095Y-119991238D01*
X144565714Y-120086476D01*
X144613333Y-120276952D01*
X144613333Y-120419809D01*
X144565714Y-120610285D01*
X144518095Y-120705523D01*
X144422857Y-120800761D01*
X144280000Y-120848380D01*
X144041904Y-120848380D01*
X144946666Y-119848380D02*
X145613333Y-119848380D01*
X145184761Y-120848380D01*
X144041904Y-110688380D02*
X144041904Y-109688380D01*
X144280000Y-109688380D01*
X144422857Y-109736000D01*
X144518095Y-109831238D01*
X144565714Y-109926476D01*
X144613333Y-110116952D01*
X144613333Y-110259809D01*
X144565714Y-110450285D01*
X144518095Y-110545523D01*
X144422857Y-110640761D01*
X144280000Y-110688380D01*
X144041904Y-110688380D01*
X145184761Y-110116952D02*
X145089523Y-110069333D01*
X145041904Y-110021714D01*
X144994285Y-109926476D01*
X144994285Y-109878857D01*
X145041904Y-109783619D01*
X145089523Y-109736000D01*
X145184761Y-109688380D01*
X145375238Y-109688380D01*
X145470476Y-109736000D01*
X145518095Y-109783619D01*
X145565714Y-109878857D01*
X145565714Y-109926476D01*
X145518095Y-110021714D01*
X145470476Y-110069333D01*
X145375238Y-110116952D01*
X145184761Y-110116952D01*
X145089523Y-110164571D01*
X145041904Y-110212190D01*
X144994285Y-110307428D01*
X144994285Y-110497904D01*
X145041904Y-110593142D01*
X145089523Y-110640761D01*
X145184761Y-110688380D01*
X145375238Y-110688380D01*
X145470476Y-110640761D01*
X145518095Y-110593142D01*
X145565714Y-110497904D01*
X145565714Y-110307428D01*
X145518095Y-110212190D01*
X145470476Y-110164571D01*
X145375238Y-110116952D01*
X77237142Y-88292857D02*
X77284761Y-88340476D01*
X77332380Y-88483333D01*
X77332380Y-88578571D01*
X77284761Y-88721428D01*
X77189523Y-88816666D01*
X77094285Y-88864285D01*
X76903809Y-88911904D01*
X76760952Y-88911904D01*
X76570476Y-88864285D01*
X76475238Y-88816666D01*
X76380000Y-88721428D01*
X76332380Y-88578571D01*
X76332380Y-88483333D01*
X76380000Y-88340476D01*
X76427619Y-88292857D01*
X77332380Y-87340476D02*
X77332380Y-87911904D01*
X77332380Y-87626190D02*
X76332380Y-87626190D01*
X76475238Y-87721428D01*
X76570476Y-87816666D01*
X76618095Y-87911904D01*
X76332380Y-87007142D02*
X76332380Y-86340476D01*
X77332380Y-86769047D01*
X87007142Y-88292857D02*
X87054761Y-88340476D01*
X87102380Y-88483333D01*
X87102380Y-88578571D01*
X87054761Y-88721428D01*
X86959523Y-88816666D01*
X86864285Y-88864285D01*
X86673809Y-88911904D01*
X86530952Y-88911904D01*
X86340476Y-88864285D01*
X86245238Y-88816666D01*
X86150000Y-88721428D01*
X86102380Y-88578571D01*
X86102380Y-88483333D01*
X86150000Y-88340476D01*
X86197619Y-88292857D01*
X87102380Y-87340476D02*
X87102380Y-87911904D01*
X87102380Y-87626190D02*
X86102380Y-87626190D01*
X86245238Y-87721428D01*
X86340476Y-87816666D01*
X86388095Y-87911904D01*
X86530952Y-86769047D02*
X86483333Y-86864285D01*
X86435714Y-86911904D01*
X86340476Y-86959523D01*
X86292857Y-86959523D01*
X86197619Y-86911904D01*
X86150000Y-86864285D01*
X86102380Y-86769047D01*
X86102380Y-86578571D01*
X86150000Y-86483333D01*
X86197619Y-86435714D01*
X86292857Y-86388095D01*
X86340476Y-86388095D01*
X86435714Y-86435714D01*
X86483333Y-86483333D01*
X86530952Y-86578571D01*
X86530952Y-86769047D01*
X86578571Y-86864285D01*
X86626190Y-86911904D01*
X86721428Y-86959523D01*
X86911904Y-86959523D01*
X87007142Y-86911904D01*
X87054761Y-86864285D01*
X87102380Y-86769047D01*
X87102380Y-86578571D01*
X87054761Y-86483333D01*
X87007142Y-86435714D01*
X86911904Y-86388095D01*
X86721428Y-86388095D01*
X86626190Y-86435714D01*
X86578571Y-86483333D01*
X86530952Y-86578571D01*
X50220714Y-87447380D02*
X50220714Y-86447380D01*
X50601666Y-86447380D01*
X50696904Y-86495000D01*
X50744523Y-86542619D01*
X50792142Y-86637857D01*
X50792142Y-86780714D01*
X50744523Y-86875952D01*
X50696904Y-86923571D01*
X50601666Y-86971190D01*
X50220714Y-86971190D01*
X51173095Y-87399761D02*
X51315952Y-87447380D01*
X51554047Y-87447380D01*
X51649285Y-87399761D01*
X51696904Y-87352142D01*
X51744523Y-87256904D01*
X51744523Y-87161666D01*
X51696904Y-87066428D01*
X51649285Y-87018809D01*
X51554047Y-86971190D01*
X51363571Y-86923571D01*
X51268333Y-86875952D01*
X51220714Y-86828333D01*
X51173095Y-86733095D01*
X51173095Y-86637857D01*
X51220714Y-86542619D01*
X51268333Y-86495000D01*
X51363571Y-86447380D01*
X51601666Y-86447380D01*
X51744523Y-86495000D01*
X52696904Y-87447380D02*
X52125476Y-87447380D01*
X52411190Y-87447380D02*
X52411190Y-86447380D01*
X52315952Y-86590238D01*
X52220714Y-86685476D01*
X52125476Y-86733095D01*
X144041904Y-131008380D02*
X144041904Y-130008380D01*
X144280000Y-130008380D01*
X144422857Y-130056000D01*
X144518095Y-130151238D01*
X144565714Y-130246476D01*
X144613333Y-130436952D01*
X144613333Y-130579809D01*
X144565714Y-130770285D01*
X144518095Y-130865523D01*
X144422857Y-130960761D01*
X144280000Y-131008380D01*
X144041904Y-131008380D01*
X145089523Y-131008380D02*
X145280000Y-131008380D01*
X145375238Y-130960761D01*
X145422857Y-130913142D01*
X145518095Y-130770285D01*
X145565714Y-130579809D01*
X145565714Y-130198857D01*
X145518095Y-130103619D01*
X145470476Y-130056000D01*
X145375238Y-130008380D01*
X145184761Y-130008380D01*
X145089523Y-130056000D01*
X145041904Y-130103619D01*
X144994285Y-130198857D01*
X144994285Y-130436952D01*
X145041904Y-130532190D01*
X145089523Y-130579809D01*
X145184761Y-130627428D01*
X145375238Y-130627428D01*
X145470476Y-130579809D01*
X145518095Y-130532190D01*
X145565714Y-130436952D01*
X127627142Y-145232380D02*
X127293809Y-144756190D01*
X127055714Y-145232380D02*
X127055714Y-144232380D01*
X127436666Y-144232380D01*
X127531904Y-144280000D01*
X127579523Y-144327619D01*
X127627142Y-144422857D01*
X127627142Y-144565714D01*
X127579523Y-144660952D01*
X127531904Y-144708571D01*
X127436666Y-144756190D01*
X127055714Y-144756190D01*
X127960476Y-144232380D02*
X128579523Y-144232380D01*
X128246190Y-144613333D01*
X128389047Y-144613333D01*
X128484285Y-144660952D01*
X128531904Y-144708571D01*
X128579523Y-144803809D01*
X128579523Y-145041904D01*
X128531904Y-145137142D01*
X128484285Y-145184761D01*
X128389047Y-145232380D01*
X128103333Y-145232380D01*
X128008095Y-145184761D01*
X127960476Y-145137142D01*
X128912857Y-144232380D02*
X129579523Y-144232380D01*
X129150952Y-145232380D01*
X136497142Y-107037142D02*
X136449523Y-107084761D01*
X136306666Y-107132380D01*
X136211428Y-107132380D01*
X136068571Y-107084761D01*
X135973333Y-106989523D01*
X135925714Y-106894285D01*
X135878095Y-106703809D01*
X135878095Y-106560952D01*
X135925714Y-106370476D01*
X135973333Y-106275238D01*
X136068571Y-106180000D01*
X136211428Y-106132380D01*
X136306666Y-106132380D01*
X136449523Y-106180000D01*
X136497142Y-106227619D01*
X137449523Y-107132380D02*
X136878095Y-107132380D01*
X137163809Y-107132380D02*
X137163809Y-106132380D01*
X137068571Y-106275238D01*
X136973333Y-106370476D01*
X136878095Y-106418095D01*
X137925714Y-107132380D02*
X138116190Y-107132380D01*
X138211428Y-107084761D01*
X138259047Y-107037142D01*
X138354285Y-106894285D01*
X138401904Y-106703809D01*
X138401904Y-106322857D01*
X138354285Y-106227619D01*
X138306666Y-106180000D01*
X138211428Y-106132380D01*
X138020952Y-106132380D01*
X137925714Y-106180000D01*
X137878095Y-106227619D01*
X137830476Y-106322857D01*
X137830476Y-106560952D01*
X137878095Y-106656190D01*
X137925714Y-106703809D01*
X138020952Y-106751428D01*
X138211428Y-106751428D01*
X138306666Y-106703809D01*
X138354285Y-106656190D01*
X138401904Y-106560952D01*
X138892380Y-45243333D02*
X139606666Y-45243333D01*
X139749523Y-45290952D01*
X139844761Y-45386190D01*
X139892380Y-45529047D01*
X139892380Y-45624285D01*
X139225714Y-44338571D02*
X139892380Y-44338571D01*
X138844761Y-44576666D02*
X139559047Y-44814761D01*
X139559047Y-44195714D01*
X128301904Y-33952380D02*
X128301904Y-34761904D01*
X128349523Y-34857142D01*
X128397142Y-34904761D01*
X128492380Y-34952380D01*
X128682857Y-34952380D01*
X128778095Y-34904761D01*
X128825714Y-34857142D01*
X128873333Y-34761904D01*
X128873333Y-33952380D01*
X129873333Y-34952380D02*
X129301904Y-34952380D01*
X129587619Y-34952380D02*
X129587619Y-33952380D01*
X129492380Y-34095238D01*
X129397142Y-34190476D01*
X129301904Y-34238095D01*
X130730476Y-34285714D02*
X130730476Y-34952380D01*
X130492380Y-33904761D02*
X130254285Y-34619047D01*
X130873333Y-34619047D01*
X130237142Y-62912857D02*
X130284761Y-62960476D01*
X130332380Y-63103333D01*
X130332380Y-63198571D01*
X130284761Y-63341428D01*
X130189523Y-63436666D01*
X130094285Y-63484285D01*
X129903809Y-63531904D01*
X129760952Y-63531904D01*
X129570476Y-63484285D01*
X129475238Y-63436666D01*
X129380000Y-63341428D01*
X129332380Y-63198571D01*
X129332380Y-63103333D01*
X129380000Y-62960476D01*
X129427619Y-62912857D01*
X129427619Y-62531904D02*
X129380000Y-62484285D01*
X129332380Y-62389047D01*
X129332380Y-62150952D01*
X129380000Y-62055714D01*
X129427619Y-62008095D01*
X129522857Y-61960476D01*
X129618095Y-61960476D01*
X129760952Y-62008095D01*
X130332380Y-62579523D01*
X130332380Y-61960476D01*
X129332380Y-61341428D02*
X129332380Y-61246190D01*
X129380000Y-61150952D01*
X129427619Y-61103333D01*
X129522857Y-61055714D01*
X129713333Y-61008095D01*
X129951428Y-61008095D01*
X130141904Y-61055714D01*
X130237142Y-61103333D01*
X130284761Y-61150952D01*
X130332380Y-61246190D01*
X130332380Y-61341428D01*
X130284761Y-61436666D01*
X130237142Y-61484285D01*
X130141904Y-61531904D01*
X129951428Y-61579523D01*
X129713333Y-61579523D01*
X129522857Y-61531904D01*
X129427619Y-61484285D01*
X129380000Y-61436666D01*
X129332380Y-61341428D01*
X137517142Y-42552857D02*
X137564761Y-42600476D01*
X137612380Y-42743333D01*
X137612380Y-42838571D01*
X137564761Y-42981428D01*
X137469523Y-43076666D01*
X137374285Y-43124285D01*
X137183809Y-43171904D01*
X137040952Y-43171904D01*
X136850476Y-43124285D01*
X136755238Y-43076666D01*
X136660000Y-42981428D01*
X136612380Y-42838571D01*
X136612380Y-42743333D01*
X136660000Y-42600476D01*
X136707619Y-42552857D01*
X136707619Y-42171904D02*
X136660000Y-42124285D01*
X136612380Y-42029047D01*
X136612380Y-41790952D01*
X136660000Y-41695714D01*
X136707619Y-41648095D01*
X136802857Y-41600476D01*
X136898095Y-41600476D01*
X137040952Y-41648095D01*
X137612380Y-42219523D01*
X137612380Y-41600476D01*
X137612380Y-40648095D02*
X137612380Y-41219523D01*
X137612380Y-40933809D02*
X136612380Y-40933809D01*
X136755238Y-41029047D01*
X136850476Y-41124285D01*
X136898095Y-41219523D01*
X124527142Y-41262857D02*
X124574761Y-41310476D01*
X124622380Y-41453333D01*
X124622380Y-41548571D01*
X124574761Y-41691428D01*
X124479523Y-41786666D01*
X124384285Y-41834285D01*
X124193809Y-41881904D01*
X124050952Y-41881904D01*
X123860476Y-41834285D01*
X123765238Y-41786666D01*
X123670000Y-41691428D01*
X123622380Y-41548571D01*
X123622380Y-41453333D01*
X123670000Y-41310476D01*
X123717619Y-41262857D01*
X123717619Y-40881904D02*
X123670000Y-40834285D01*
X123622380Y-40739047D01*
X123622380Y-40500952D01*
X123670000Y-40405714D01*
X123717619Y-40358095D01*
X123812857Y-40310476D01*
X123908095Y-40310476D01*
X124050952Y-40358095D01*
X124622380Y-40929523D01*
X124622380Y-40310476D01*
X123717619Y-39929523D02*
X123670000Y-39881904D01*
X123622380Y-39786666D01*
X123622380Y-39548571D01*
X123670000Y-39453333D01*
X123717619Y-39405714D01*
X123812857Y-39358095D01*
X123908095Y-39358095D01*
X124050952Y-39405714D01*
X124622380Y-39977142D01*
X124622380Y-39358095D01*
X124452142Y-30202142D02*
X124404523Y-30249761D01*
X124261666Y-30297380D01*
X124166428Y-30297380D01*
X124023571Y-30249761D01*
X123928333Y-30154523D01*
X123880714Y-30059285D01*
X123833095Y-29868809D01*
X123833095Y-29725952D01*
X123880714Y-29535476D01*
X123928333Y-29440238D01*
X124023571Y-29345000D01*
X124166428Y-29297380D01*
X124261666Y-29297380D01*
X124404523Y-29345000D01*
X124452142Y-29392619D01*
X124833095Y-29392619D02*
X124880714Y-29345000D01*
X124975952Y-29297380D01*
X125214047Y-29297380D01*
X125309285Y-29345000D01*
X125356904Y-29392619D01*
X125404523Y-29487857D01*
X125404523Y-29583095D01*
X125356904Y-29725952D01*
X124785476Y-30297380D01*
X125404523Y-30297380D01*
X126261666Y-29630714D02*
X126261666Y-30297380D01*
X126023571Y-29249761D02*
X125785476Y-29964047D01*
X126404523Y-29964047D01*
X124527142Y-51422857D02*
X124574761Y-51470476D01*
X124622380Y-51613333D01*
X124622380Y-51708571D01*
X124574761Y-51851428D01*
X124479523Y-51946666D01*
X124384285Y-51994285D01*
X124193809Y-52041904D01*
X124050952Y-52041904D01*
X123860476Y-51994285D01*
X123765238Y-51946666D01*
X123670000Y-51851428D01*
X123622380Y-51708571D01*
X123622380Y-51613333D01*
X123670000Y-51470476D01*
X123717619Y-51422857D01*
X123717619Y-51041904D02*
X123670000Y-50994285D01*
X123622380Y-50899047D01*
X123622380Y-50660952D01*
X123670000Y-50565714D01*
X123717619Y-50518095D01*
X123812857Y-50470476D01*
X123908095Y-50470476D01*
X124050952Y-50518095D01*
X124622380Y-51089523D01*
X124622380Y-50470476D01*
X123622380Y-49565714D02*
X123622380Y-50041904D01*
X124098571Y-50089523D01*
X124050952Y-50041904D01*
X124003333Y-49946666D01*
X124003333Y-49708571D01*
X124050952Y-49613333D01*
X124098571Y-49565714D01*
X124193809Y-49518095D01*
X124431904Y-49518095D01*
X124527142Y-49565714D01*
X124574761Y-49613333D01*
X124622380Y-49708571D01*
X124622380Y-49946666D01*
X124574761Y-50041904D01*
X124527142Y-50089523D01*
X128897142Y-33377142D02*
X128849523Y-33424761D01*
X128706666Y-33472380D01*
X128611428Y-33472380D01*
X128468571Y-33424761D01*
X128373333Y-33329523D01*
X128325714Y-33234285D01*
X128278095Y-33043809D01*
X128278095Y-32900952D01*
X128325714Y-32710476D01*
X128373333Y-32615238D01*
X128468571Y-32520000D01*
X128611428Y-32472380D01*
X128706666Y-32472380D01*
X128849523Y-32520000D01*
X128897142Y-32567619D01*
X129278095Y-32567619D02*
X129325714Y-32520000D01*
X129420952Y-32472380D01*
X129659047Y-32472380D01*
X129754285Y-32520000D01*
X129801904Y-32567619D01*
X129849523Y-32662857D01*
X129849523Y-32758095D01*
X129801904Y-32900952D01*
X129230476Y-33472380D01*
X129849523Y-33472380D01*
X130706666Y-32472380D02*
X130516190Y-32472380D01*
X130420952Y-32520000D01*
X130373333Y-32567619D01*
X130278095Y-32710476D01*
X130230476Y-32900952D01*
X130230476Y-33281904D01*
X130278095Y-33377142D01*
X130325714Y-33424761D01*
X130420952Y-33472380D01*
X130611428Y-33472380D01*
X130706666Y-33424761D01*
X130754285Y-33377142D01*
X130801904Y-33281904D01*
X130801904Y-33043809D01*
X130754285Y-32948571D01*
X130706666Y-32900952D01*
X130611428Y-32853333D01*
X130420952Y-32853333D01*
X130325714Y-32900952D01*
X130278095Y-32948571D01*
X130230476Y-33043809D01*
X132262666Y-69302380D02*
X132262666Y-70016666D01*
X132215047Y-70159523D01*
X132119809Y-70254761D01*
X131976952Y-70302380D01*
X131881714Y-70302380D01*
X132738857Y-70302380D02*
X132738857Y-69302380D01*
X133119809Y-69302380D01*
X133215047Y-69350000D01*
X133262666Y-69397619D01*
X133310285Y-69492857D01*
X133310285Y-69635714D01*
X133262666Y-69730952D01*
X133215047Y-69778571D01*
X133119809Y-69826190D01*
X132738857Y-69826190D01*
X134262666Y-70302380D02*
X133691238Y-70302380D01*
X133976952Y-70302380D02*
X133976952Y-69302380D01*
X133881714Y-69445238D01*
X133786476Y-69540476D01*
X133691238Y-69588095D01*
X138247380Y-63507857D02*
X137771190Y-63841190D01*
X138247380Y-64079285D02*
X137247380Y-64079285D01*
X137247380Y-63698333D01*
X137295000Y-63603095D01*
X137342619Y-63555476D01*
X137437857Y-63507857D01*
X137580714Y-63507857D01*
X137675952Y-63555476D01*
X137723571Y-63603095D01*
X137771190Y-63698333D01*
X137771190Y-64079285D01*
X137247380Y-63174523D02*
X137247380Y-62555476D01*
X137628333Y-62888809D01*
X137628333Y-62745952D01*
X137675952Y-62650714D01*
X137723571Y-62603095D01*
X137818809Y-62555476D01*
X138056904Y-62555476D01*
X138152142Y-62603095D01*
X138199761Y-62650714D01*
X138247380Y-62745952D01*
X138247380Y-63031666D01*
X138199761Y-63126904D01*
X138152142Y-63174523D01*
X137675952Y-61984047D02*
X137628333Y-62079285D01*
X137580714Y-62126904D01*
X137485476Y-62174523D01*
X137437857Y-62174523D01*
X137342619Y-62126904D01*
X137295000Y-62079285D01*
X137247380Y-61984047D01*
X137247380Y-61793571D01*
X137295000Y-61698333D01*
X137342619Y-61650714D01*
X137437857Y-61603095D01*
X137485476Y-61603095D01*
X137580714Y-61650714D01*
X137628333Y-61698333D01*
X137675952Y-61793571D01*
X137675952Y-61984047D01*
X137723571Y-62079285D01*
X137771190Y-62126904D01*
X137866428Y-62174523D01*
X138056904Y-62174523D01*
X138152142Y-62126904D01*
X138199761Y-62079285D01*
X138247380Y-61984047D01*
X138247380Y-61793571D01*
X138199761Y-61698333D01*
X138152142Y-61650714D01*
X138056904Y-61603095D01*
X137866428Y-61603095D01*
X137771190Y-61650714D01*
X137723571Y-61698333D01*
X137675952Y-61793571D01*
X128897142Y-28392380D02*
X128563809Y-27916190D01*
X128325714Y-28392380D02*
X128325714Y-27392380D01*
X128706666Y-27392380D01*
X128801904Y-27440000D01*
X128849523Y-27487619D01*
X128897142Y-27582857D01*
X128897142Y-27725714D01*
X128849523Y-27820952D01*
X128801904Y-27868571D01*
X128706666Y-27916190D01*
X128325714Y-27916190D01*
X129230476Y-27392380D02*
X129849523Y-27392380D01*
X129516190Y-27773333D01*
X129659047Y-27773333D01*
X129754285Y-27820952D01*
X129801904Y-27868571D01*
X129849523Y-27963809D01*
X129849523Y-28201904D01*
X129801904Y-28297142D01*
X129754285Y-28344761D01*
X129659047Y-28392380D01*
X129373333Y-28392380D01*
X129278095Y-28344761D01*
X129230476Y-28297142D01*
X130325714Y-28392380D02*
X130516190Y-28392380D01*
X130611428Y-28344761D01*
X130659047Y-28297142D01*
X130754285Y-28154285D01*
X130801904Y-27963809D01*
X130801904Y-27582857D01*
X130754285Y-27487619D01*
X130706666Y-27440000D01*
X130611428Y-27392380D01*
X130420952Y-27392380D01*
X130325714Y-27440000D01*
X130278095Y-27487619D01*
X130230476Y-27582857D01*
X130230476Y-27820952D01*
X130278095Y-27916190D01*
X130325714Y-27963809D01*
X130420952Y-28011428D01*
X130611428Y-28011428D01*
X130706666Y-27963809D01*
X130754285Y-27916190D01*
X130801904Y-27820952D01*
X124527142Y-46342857D02*
X124574761Y-46390476D01*
X124622380Y-46533333D01*
X124622380Y-46628571D01*
X124574761Y-46771428D01*
X124479523Y-46866666D01*
X124384285Y-46914285D01*
X124193809Y-46961904D01*
X124050952Y-46961904D01*
X123860476Y-46914285D01*
X123765238Y-46866666D01*
X123670000Y-46771428D01*
X123622380Y-46628571D01*
X123622380Y-46533333D01*
X123670000Y-46390476D01*
X123717619Y-46342857D01*
X123717619Y-45961904D02*
X123670000Y-45914285D01*
X123622380Y-45819047D01*
X123622380Y-45580952D01*
X123670000Y-45485714D01*
X123717619Y-45438095D01*
X123812857Y-45390476D01*
X123908095Y-45390476D01*
X124050952Y-45438095D01*
X124622380Y-46009523D01*
X124622380Y-45390476D01*
X123622380Y-45057142D02*
X123622380Y-44438095D01*
X124003333Y-44771428D01*
X124003333Y-44628571D01*
X124050952Y-44533333D01*
X124098571Y-44485714D01*
X124193809Y-44438095D01*
X124431904Y-44438095D01*
X124527142Y-44485714D01*
X124574761Y-44533333D01*
X124622380Y-44628571D01*
X124622380Y-44914285D01*
X124574761Y-45009523D01*
X124527142Y-45057142D01*
X63166666Y-93908571D02*
X62833333Y-93908571D01*
X62833333Y-94432380D02*
X62833333Y-93432380D01*
X63309523Y-93432380D01*
X64214285Y-94432380D02*
X63642857Y-94432380D01*
X63928571Y-94432380D02*
X63928571Y-93432380D01*
X63833333Y-93575238D01*
X63738095Y-93670476D01*
X63642857Y-93718095D01*
X65071666Y-79938571D02*
X64738333Y-79938571D01*
X64738333Y-80462380D02*
X64738333Y-79462380D01*
X65214523Y-79462380D01*
X65547857Y-79557619D02*
X65595476Y-79510000D01*
X65690714Y-79462380D01*
X65928809Y-79462380D01*
X66024047Y-79510000D01*
X66071666Y-79557619D01*
X66119285Y-79652857D01*
X66119285Y-79748095D01*
X66071666Y-79890952D01*
X65500238Y-80462380D01*
X66119285Y-80462380D01*
X109212142Y-74747380D02*
X108878809Y-74271190D01*
X108640714Y-74747380D02*
X108640714Y-73747380D01*
X109021666Y-73747380D01*
X109116904Y-73795000D01*
X109164523Y-73842619D01*
X109212142Y-73937857D01*
X109212142Y-74080714D01*
X109164523Y-74175952D01*
X109116904Y-74223571D01*
X109021666Y-74271190D01*
X108640714Y-74271190D01*
X109593095Y-73842619D02*
X109640714Y-73795000D01*
X109735952Y-73747380D01*
X109974047Y-73747380D01*
X110069285Y-73795000D01*
X110116904Y-73842619D01*
X110164523Y-73937857D01*
X110164523Y-74033095D01*
X110116904Y-74175952D01*
X109545476Y-74747380D01*
X110164523Y-74747380D01*
X110783571Y-73747380D02*
X110878809Y-73747380D01*
X110974047Y-73795000D01*
X111021666Y-73842619D01*
X111069285Y-73937857D01*
X111116904Y-74128333D01*
X111116904Y-74366428D01*
X111069285Y-74556904D01*
X111021666Y-74652142D01*
X110974047Y-74699761D01*
X110878809Y-74747380D01*
X110783571Y-74747380D01*
X110688333Y-74699761D01*
X110640714Y-74652142D01*
X110593095Y-74556904D01*
X110545476Y-74366428D01*
X110545476Y-74128333D01*
X110593095Y-73937857D01*
X110640714Y-73842619D01*
X110688333Y-73795000D01*
X110783571Y-73747380D01*
X107561142Y-139644380D02*
X107227809Y-139168190D01*
X106989714Y-139644380D02*
X106989714Y-138644380D01*
X107370666Y-138644380D01*
X107465904Y-138692000D01*
X107513523Y-138739619D01*
X107561142Y-138834857D01*
X107561142Y-138977714D01*
X107513523Y-139072952D01*
X107465904Y-139120571D01*
X107370666Y-139168190D01*
X106989714Y-139168190D01*
X108418285Y-138977714D02*
X108418285Y-139644380D01*
X108180190Y-138596761D02*
X107942095Y-139311047D01*
X108561142Y-139311047D01*
X109132571Y-138644380D02*
X109227809Y-138644380D01*
X109323047Y-138692000D01*
X109370666Y-138739619D01*
X109418285Y-138834857D01*
X109465904Y-139025333D01*
X109465904Y-139263428D01*
X109418285Y-139453904D01*
X109370666Y-139549142D01*
X109323047Y-139596761D01*
X109227809Y-139644380D01*
X109132571Y-139644380D01*
X109037333Y-139596761D01*
X108989714Y-139549142D01*
X108942095Y-139453904D01*
X108894476Y-139263428D01*
X108894476Y-139025333D01*
X108942095Y-138834857D01*
X108989714Y-138739619D01*
X109037333Y-138692000D01*
X109132571Y-138644380D01*
X147772380Y-105306666D02*
X147772380Y-105782857D01*
X146772380Y-105782857D01*
X147677142Y-104401904D02*
X147724761Y-104449523D01*
X147772380Y-104592380D01*
X147772380Y-104687619D01*
X147724761Y-104830476D01*
X147629523Y-104925714D01*
X147534285Y-104973333D01*
X147343809Y-105020952D01*
X147200952Y-105020952D01*
X147010476Y-104973333D01*
X146915238Y-104925714D01*
X146820000Y-104830476D01*
X146772380Y-104687619D01*
X146772380Y-104592380D01*
X146820000Y-104449523D01*
X146867619Y-104401904D01*
X147772380Y-103973333D02*
X146772380Y-103973333D01*
X146772380Y-103735238D01*
X146820000Y-103592380D01*
X146915238Y-103497142D01*
X147010476Y-103449523D01*
X147200952Y-103401904D01*
X147343809Y-103401904D01*
X147534285Y-103449523D01*
X147629523Y-103497142D01*
X147724761Y-103592380D01*
X147772380Y-103735238D01*
X147772380Y-103973333D01*
X147772380Y-102449523D02*
X147772380Y-103020952D01*
X147772380Y-102735238D02*
X146772380Y-102735238D01*
X146915238Y-102830476D01*
X147010476Y-102925714D01*
X147058095Y-103020952D01*
X39878095Y-30042380D02*
X39878095Y-29042380D01*
X39878095Y-29518571D02*
X40449523Y-29518571D01*
X40449523Y-30042380D02*
X40449523Y-29042380D01*
X41449523Y-30042380D02*
X40878095Y-30042380D01*
X41163809Y-30042380D02*
X41163809Y-29042380D01*
X41068571Y-29185238D01*
X40973333Y-29280476D01*
X40878095Y-29328095D01*
X39878095Y-141802380D02*
X39878095Y-140802380D01*
X39878095Y-141278571D02*
X40449523Y-141278571D01*
X40449523Y-141802380D02*
X40449523Y-140802380D01*
X40878095Y-140897619D02*
X40925714Y-140850000D01*
X41020952Y-140802380D01*
X41259047Y-140802380D01*
X41354285Y-140850000D01*
X41401904Y-140897619D01*
X41449523Y-140992857D01*
X41449523Y-141088095D01*
X41401904Y-141230952D01*
X40830476Y-141802380D01*
X41449523Y-141802380D01*
X144018095Y-141802380D02*
X144018095Y-140802380D01*
X144018095Y-141278571D02*
X144589523Y-141278571D01*
X144589523Y-141802380D02*
X144589523Y-140802380D01*
X144970476Y-140802380D02*
X145589523Y-140802380D01*
X145256190Y-141183333D01*
X145399047Y-141183333D01*
X145494285Y-141230952D01*
X145541904Y-141278571D01*
X145589523Y-141373809D01*
X145589523Y-141611904D01*
X145541904Y-141707142D01*
X145494285Y-141754761D01*
X145399047Y-141802380D01*
X145113333Y-141802380D01*
X145018095Y-141754761D01*
X144970476Y-141707142D01*
X117348095Y-30042380D02*
X117348095Y-29042380D01*
X117348095Y-29518571D02*
X117919523Y-29518571D01*
X117919523Y-30042380D02*
X117919523Y-29042380D01*
X118824285Y-29375714D02*
X118824285Y-30042380D01*
X118586190Y-28994761D02*
X118348095Y-29709047D01*
X118967142Y-29709047D01*
D12*
X137880000Y-72390000D02*
X137380000Y-71890000D01*
X137380000Y-72890000D02*
X137880000Y-72390000D01*
X137380000Y-71890000D02*
X137380000Y-72890000D01*
X138100000Y-67480000D02*
X138100000Y-79800000D01*
X152908000Y-67480000D02*
X152908000Y-79800000D01*
X146460000Y-67480000D02*
X152908000Y-67480000D01*
X142360000Y-67480000D02*
X138100000Y-67480000D01*
X152908000Y-79800000D02*
X146460000Y-79800000D01*
X138100000Y-79800000D02*
X142360000Y-79800000D01*
X150190000Y-82700000D02*
X150190000Y-82765000D01*
X146950000Y-84940000D02*
X150190000Y-84940000D01*
X146950000Y-82700000D02*
X146950000Y-82765000D01*
X146950000Y-84875000D02*
X146950000Y-84940000D01*
X150190000Y-84875000D02*
X150190000Y-84940000D01*
X146950000Y-82700000D02*
X150190000Y-82700000D01*
X115200000Y-82335000D02*
X115200000Y-82400000D01*
X118440000Y-82335000D02*
X118440000Y-82400000D01*
X115200000Y-82400000D02*
X118440000Y-82400000D01*
X115200000Y-80160000D02*
X118440000Y-80160000D01*
X118440000Y-80160000D02*
X118440000Y-80225000D01*
X115200000Y-80160000D02*
X115200000Y-80225000D01*
X103479000Y-37180000D02*
X102221000Y-37180000D01*
X103479000Y-39020000D02*
X102221000Y-39020000D01*
X123520000Y-103020000D02*
X123520000Y-103085000D01*
X120280000Y-103020000D02*
X123520000Y-103020000D01*
X120280000Y-103020000D02*
X120280000Y-103085000D01*
X120280000Y-105195000D02*
X120280000Y-105260000D01*
X120280000Y-105260000D02*
X123520000Y-105260000D01*
X123520000Y-105195000D02*
X123520000Y-105260000D01*
X61060000Y-66595000D02*
X53320000Y-66595000D01*
X61060000Y-71835000D02*
X53320000Y-71835000D01*
X53320000Y-71835000D02*
X53320000Y-66595000D01*
X61060000Y-71835000D02*
X61060000Y-66595000D01*
X61060000Y-77550000D02*
X53320000Y-77550000D01*
X53320000Y-77550000D02*
X53320000Y-72310000D01*
X61060000Y-77550000D02*
X61060000Y-72310000D01*
X61060000Y-72310000D02*
X53320000Y-72310000D01*
X61060000Y-144860000D02*
X61060000Y-139620000D01*
X61060000Y-139620000D02*
X53320000Y-139620000D01*
X53320000Y-144860000D02*
X53320000Y-139620000D01*
X61060000Y-144860000D02*
X53320000Y-144860000D01*
X61060000Y-133270000D02*
X53320000Y-133270000D01*
X53320000Y-138510000D02*
X53320000Y-133270000D01*
X61060000Y-138510000D02*
X61060000Y-133270000D01*
X61060000Y-138510000D02*
X53320000Y-138510000D01*
X121550000Y-78890000D02*
X124790000Y-78890000D01*
X124790000Y-78890000D02*
X124790000Y-78955000D01*
X121550000Y-81065000D02*
X121550000Y-81130000D01*
X121550000Y-78890000D02*
X121550000Y-78955000D01*
X121550000Y-81130000D02*
X124790000Y-81130000D01*
X124790000Y-81065000D02*
X124790000Y-81130000D01*
X98910000Y-122250000D02*
X98845000Y-122250000D01*
X96735000Y-119010000D02*
X96670000Y-119010000D01*
X96670000Y-119010000D02*
X96670000Y-122250000D01*
X98910000Y-119010000D02*
X98910000Y-122250000D01*
X96735000Y-122250000D02*
X96670000Y-122250000D01*
X98910000Y-119010000D02*
X98845000Y-119010000D01*
X100180000Y-61860000D02*
X100180000Y-65100000D01*
X98005000Y-61860000D02*
X97940000Y-61860000D01*
X98005000Y-65100000D02*
X97940000Y-65100000D01*
X97940000Y-61860000D02*
X97940000Y-65100000D01*
X100180000Y-61860000D02*
X100115000Y-61860000D01*
X100180000Y-65100000D02*
X100115000Y-65100000D01*
X96670000Y-126630000D02*
X96670000Y-129870000D01*
X98910000Y-126630000D02*
X98910000Y-129870000D01*
X96735000Y-126630000D02*
X96670000Y-126630000D01*
X96735000Y-129870000D02*
X96670000Y-129870000D01*
X98910000Y-126630000D02*
X98845000Y-126630000D01*
X98910000Y-129870000D02*
X98845000Y-129870000D01*
X88000000Y-102720000D02*
X84760000Y-102720000D01*
X88000000Y-102720000D02*
X88000000Y-102655000D01*
X84760000Y-102720000D02*
X84760000Y-102655000D01*
X88000000Y-100480000D02*
X84760000Y-100480000D01*
X84760000Y-100545000D02*
X84760000Y-100480000D01*
X88000000Y-100545000D02*
X88000000Y-100480000D01*
X84760000Y-37950000D02*
X84760000Y-37885000D01*
X88000000Y-35775000D02*
X88000000Y-35710000D01*
X88000000Y-37950000D02*
X84760000Y-37950000D01*
X84760000Y-35775000D02*
X84760000Y-35710000D01*
X88000000Y-35710000D02*
X84760000Y-35710000D01*
X88000000Y-37950000D02*
X88000000Y-37885000D01*
X81950000Y-143710000D02*
X81950000Y-140770000D01*
X81710000Y-143710000D02*
X81710000Y-140770000D01*
X77290000Y-143710000D02*
X77290000Y-143580000D01*
X81830000Y-143710000D02*
X81830000Y-140770000D01*
X82730000Y-140900000D02*
X82730000Y-140770000D01*
X82730000Y-143710000D02*
X77290000Y-143710000D01*
X82730000Y-140770000D02*
X77290000Y-140770000D01*
X77290000Y-140770000D02*
X77290000Y-140900000D01*
X82730000Y-143580000D02*
X82730000Y-143710000D01*
X82730000Y-134420000D02*
X77290000Y-134420000D01*
X81710000Y-137360000D02*
X81710000Y-134420000D01*
X77290000Y-137360000D02*
X77290000Y-137230000D01*
X82730000Y-134550000D02*
X82730000Y-134420000D01*
X81830000Y-137360000D02*
X81830000Y-134420000D01*
X81950000Y-137360000D02*
X81950000Y-134420000D01*
X82730000Y-137360000D02*
X77290000Y-137360000D01*
X82730000Y-137230000D02*
X82730000Y-137360000D01*
X77290000Y-134420000D02*
X77290000Y-134550000D01*
X111910000Y-117690000D02*
X114150000Y-117690000D01*
X111910000Y-116970000D02*
X114150000Y-116970000D01*
X111910000Y-113450000D02*
X111910000Y-117690000D01*
X111910000Y-116850000D02*
X114150000Y-116850000D01*
X113030000Y-112800000D02*
X113030000Y-113450000D01*
X114150000Y-117690000D02*
X114150000Y-113450000D01*
X113030000Y-118340000D02*
X113030000Y-117690000D01*
X111910000Y-117090000D02*
X114150000Y-117090000D01*
X114150000Y-113450000D02*
X111910000Y-113450000D01*
X109280000Y-79950000D02*
X109280000Y-81280000D01*
X106680000Y-79950000D02*
X93920000Y-79950000D01*
X93920000Y-79950000D02*
X93920000Y-82610000D01*
X106680000Y-82610000D02*
X93920000Y-82610000D01*
X106680000Y-79950000D02*
X106680000Y-82610000D01*
X107950000Y-79950000D02*
X109280000Y-79950000D01*
X97060000Y-43280000D02*
X103600000Y-43280000D01*
X103600000Y-43280000D02*
X103600000Y-42950000D01*
X97060000Y-42950000D02*
X97060000Y-43280000D01*
X97060000Y-40540000D02*
X103600000Y-40540000D01*
X103600000Y-40540000D02*
X103600000Y-40870000D01*
X97060000Y-40870000D02*
X97060000Y-40540000D01*
X65310000Y-143610000D02*
X65310000Y-143280000D01*
X65310000Y-140870000D02*
X65310000Y-141200000D01*
X71850000Y-143610000D02*
X65310000Y-143610000D01*
X71850000Y-143280000D02*
X71850000Y-143610000D01*
X71850000Y-141200000D02*
X71850000Y-140870000D01*
X71850000Y-140870000D02*
X65310000Y-140870000D01*
X65310000Y-137260000D02*
X65310000Y-136930000D01*
X71850000Y-134520000D02*
X65310000Y-134520000D01*
X71850000Y-134850000D02*
X71850000Y-134520000D01*
X71850000Y-137260000D02*
X65310000Y-137260000D01*
X71850000Y-136930000D02*
X71850000Y-137260000D01*
X65310000Y-134520000D02*
X65310000Y-134850000D01*
X94710000Y-136930000D02*
X94710000Y-137260000D01*
X94710000Y-134850000D02*
X94710000Y-134520000D01*
X94710000Y-134520000D02*
X88170000Y-134520000D01*
X88170000Y-134520000D02*
X88170000Y-134850000D01*
X94710000Y-137260000D02*
X88170000Y-137260000D01*
X88170000Y-137260000D02*
X88170000Y-136930000D01*
X98330000Y-143610000D02*
X104870000Y-143610000D01*
X98330000Y-140870000D02*
X104870000Y-140870000D01*
X98330000Y-141200000D02*
X98330000Y-140870000D01*
X104870000Y-140870000D02*
X104870000Y-141200000D01*
X98330000Y-143280000D02*
X98330000Y-143610000D01*
X104870000Y-143610000D02*
X104870000Y-143280000D01*
X104870000Y-137260000D02*
X98330000Y-137260000D01*
X104870000Y-134850000D02*
X104870000Y-134520000D01*
X98330000Y-134520000D02*
X98330000Y-134850000D01*
X98330000Y-137260000D02*
X98330000Y-136930000D01*
X104870000Y-136930000D02*
X104870000Y-137260000D01*
X104870000Y-134520000D02*
X98330000Y-134520000D01*
X116300000Y-143610000D02*
X116300000Y-143280000D01*
X109760000Y-140870000D02*
X116300000Y-140870000D01*
X109760000Y-143280000D02*
X109760000Y-143610000D01*
X109760000Y-141200000D02*
X109760000Y-140870000D01*
X109760000Y-143610000D02*
X116300000Y-143610000D01*
X116300000Y-140870000D02*
X116300000Y-141200000D01*
X103910000Y-112300000D02*
X104240000Y-112300000D01*
X101500000Y-112300000D02*
X101500000Y-118840000D01*
X104240000Y-112300000D02*
X104240000Y-118840000D01*
X104240000Y-118840000D02*
X103910000Y-118840000D01*
X101500000Y-118840000D02*
X101830000Y-118840000D01*
X101830000Y-112300000D02*
X101500000Y-112300000D01*
X109320000Y-112300000D02*
X109320000Y-118840000D01*
X106580000Y-112300000D02*
X106580000Y-118840000D01*
X106580000Y-118840000D02*
X106910000Y-118840000D01*
X106910000Y-112300000D02*
X106580000Y-112300000D01*
X109320000Y-118840000D02*
X108990000Y-118840000D01*
X108990000Y-112300000D02*
X109320000Y-112300000D01*
X74390000Y-35660000D02*
X74390000Y-35330000D01*
X74390000Y-32920000D02*
X74390000Y-33250000D01*
X67850000Y-35330000D02*
X67850000Y-35660000D01*
X67850000Y-32920000D02*
X74390000Y-32920000D01*
X67850000Y-35660000D02*
X74390000Y-35660000D01*
X67850000Y-33250000D02*
X67850000Y-32920000D01*
X67850000Y-40410000D02*
X67850000Y-40740000D01*
X67850000Y-40740000D02*
X74390000Y-40740000D01*
X74390000Y-38000000D02*
X74390000Y-38330000D01*
X67850000Y-38330000D02*
X67850000Y-38000000D01*
X74390000Y-40740000D02*
X74390000Y-40410000D01*
X67850000Y-38000000D02*
X74390000Y-38000000D01*
X67850000Y-48030000D02*
X67850000Y-48360000D01*
X74390000Y-45620000D02*
X74390000Y-45950000D01*
X67850000Y-48360000D02*
X74390000Y-48360000D01*
X74390000Y-48360000D02*
X74390000Y-48030000D01*
X67850000Y-45620000D02*
X74390000Y-45620000D01*
X67850000Y-45950000D02*
X67850000Y-45620000D01*
X68231000Y-51030000D02*
X68231000Y-50700000D01*
X74771000Y-53440000D02*
X74771000Y-53110000D01*
X68231000Y-53440000D02*
X74771000Y-53440000D01*
X68231000Y-53110000D02*
X68231000Y-53440000D01*
X74771000Y-50700000D02*
X74771000Y-51030000D01*
X68231000Y-50700000D02*
X74771000Y-50700000D01*
X74771000Y-63400000D02*
X74771000Y-63730000D01*
X74771000Y-66140000D02*
X74771000Y-65810000D01*
X68231000Y-63730000D02*
X68231000Y-63400000D01*
X68231000Y-63400000D02*
X74771000Y-63400000D01*
X68231000Y-65810000D02*
X68231000Y-66140000D01*
X68231000Y-66140000D02*
X74771000Y-66140000D01*
X74390000Y-102335000D02*
X74390000Y-102005000D01*
X67850000Y-102005000D02*
X67850000Y-102335000D01*
X67850000Y-102335000D02*
X74390000Y-102335000D01*
X67850000Y-99595000D02*
X74390000Y-99595000D01*
X74390000Y-99595000D02*
X74390000Y-99925000D01*
X67850000Y-99925000D02*
X67850000Y-99595000D01*
X67850000Y-104675000D02*
X74390000Y-104675000D01*
X74390000Y-107415000D02*
X74390000Y-107085000D01*
X74390000Y-104675000D02*
X74390000Y-105005000D01*
X67850000Y-105005000D02*
X67850000Y-104675000D01*
X67850000Y-107085000D02*
X67850000Y-107415000D01*
X67850000Y-107415000D02*
X74390000Y-107415000D01*
X74390000Y-113130000D02*
X74390000Y-112800000D01*
X67850000Y-113130000D02*
X74390000Y-113130000D01*
X67850000Y-110390000D02*
X74390000Y-110390000D01*
X67850000Y-110720000D02*
X67850000Y-110390000D01*
X74390000Y-110390000D02*
X74390000Y-110720000D01*
X67850000Y-112800000D02*
X67850000Y-113130000D01*
X74390000Y-115470000D02*
X74390000Y-115800000D01*
X74390000Y-118210000D02*
X74390000Y-117880000D01*
X67850000Y-118210000D02*
X74390000Y-118210000D01*
X67850000Y-117880000D02*
X67850000Y-118210000D01*
X67850000Y-115470000D02*
X74390000Y-115470000D01*
X67850000Y-115800000D02*
X67850000Y-115470000D01*
X67850000Y-122645500D02*
X74390000Y-122645500D01*
X74390000Y-122645500D02*
X74390000Y-122975500D01*
X74390000Y-125385500D02*
X74390000Y-125055500D01*
X67850000Y-122975500D02*
X67850000Y-122645500D01*
X67850000Y-125385500D02*
X74390000Y-125385500D01*
X67850000Y-125055500D02*
X67850000Y-125385500D01*
X74390000Y-128170000D02*
X74390000Y-128500000D01*
X67850000Y-130580000D02*
X67850000Y-130910000D01*
X74390000Y-130910000D02*
X74390000Y-130580000D01*
X67850000Y-128170000D02*
X74390000Y-128170000D01*
X67850000Y-128500000D02*
X67850000Y-128170000D01*
X67850000Y-130910000D02*
X74390000Y-130910000D01*
X109450000Y-41906000D02*
X110950000Y-41906000D01*
X106950000Y-36156000D02*
X106950000Y-40656000D01*
X113450000Y-40656000D02*
X113450000Y-36156000D01*
X110950000Y-34906000D02*
X109450000Y-34906000D01*
X93920000Y-86250000D02*
X93920000Y-91710000D01*
X93920000Y-93710000D02*
X93920000Y-99170000D01*
X93920000Y-99170000D02*
X144840000Y-99170000D01*
X144840000Y-86250000D02*
X93920000Y-86250000D01*
X144840000Y-99170000D02*
X144840000Y-86250000D01*
X93920000Y-93710000D02*
G75*
G03*
X93920000Y-91710000I0J1000000D01*
G01*
X102810000Y-64500000D02*
X102810000Y-66150000D01*
X102810000Y-66150000D02*
X125790000Y-66150000D01*
X102810000Y-60850000D02*
X102810000Y-62500000D01*
X125790000Y-60850000D02*
X102810000Y-60850000D01*
X125790000Y-66150000D02*
X125790000Y-60850000D01*
X102810000Y-64500000D02*
G75*
G03*
X102810000Y-62500000I0J1000000D01*
G01*
X124520000Y-130920000D02*
X124520000Y-125620000D01*
X124520000Y-125620000D02*
X101540000Y-125620000D01*
X101540000Y-130920000D02*
X124520000Y-130920000D01*
X101540000Y-129270000D02*
X101540000Y-130920000D01*
X101540000Y-125620000D02*
X101540000Y-127270000D01*
X101540000Y-129270000D02*
G75*
G03*
X101540000Y-127270000I0J1000000D01*
G01*
X89010000Y-40580000D02*
X87360000Y-40580000D01*
X85360000Y-40580000D02*
X83710000Y-40580000D01*
X83710000Y-40580000D02*
X83710000Y-61020000D01*
X89010000Y-61020000D02*
X89010000Y-40580000D01*
X83710000Y-61020000D02*
X89010000Y-61020000D01*
X85360000Y-40580000D02*
G75*
G03*
X87360000Y-40580000I1000000J0D01*
G01*
X83710000Y-125790000D02*
X89010000Y-125790000D01*
X89010000Y-125790000D02*
X89010000Y-105350000D01*
X83710000Y-105350000D02*
X83710000Y-125790000D01*
X85360000Y-105350000D02*
X83710000Y-105350000D01*
X89010000Y-105350000D02*
X87360000Y-105350000D01*
X85360000Y-105350000D02*
G75*
G03*
X87360000Y-105350000I1000000J0D01*
G01*
X55770000Y-40700000D02*
X61070000Y-40700000D01*
X55770000Y-30420000D02*
X55770000Y-40700000D01*
X61070000Y-30420000D02*
X59420000Y-30420000D01*
X57420000Y-30420000D02*
X55770000Y-30420000D01*
X61070000Y-40700000D02*
X61070000Y-30420000D01*
X57420000Y-30420000D02*
G75*
G03*
X59420000Y-30420000I1000000J0D01*
G01*
X55770000Y-53400000D02*
X61070000Y-53400000D01*
X57420000Y-43120000D02*
X55770000Y-43120000D01*
X55770000Y-43120000D02*
X55770000Y-53400000D01*
X61070000Y-53400000D02*
X61070000Y-43120000D01*
X61070000Y-43120000D02*
X59420000Y-43120000D01*
X57420000Y-43120000D02*
G75*
G03*
X59420000Y-43120000I1000000J0D01*
G01*
X57420000Y-55566000D02*
X55770000Y-55566000D01*
X55770000Y-65846000D02*
X61070000Y-65846000D01*
X55770000Y-55566000D02*
X55770000Y-65846000D01*
X61070000Y-65846000D02*
X61070000Y-55566000D01*
X61070000Y-55566000D02*
X59420000Y-55566000D01*
X57420000Y-55566000D02*
G75*
G03*
X59420000Y-55566000I1000000J0D01*
G01*
X57420000Y-95190000D02*
X55770000Y-95190000D01*
X55770000Y-105470000D02*
X61070000Y-105470000D01*
X61070000Y-105470000D02*
X61070000Y-95190000D01*
X55770000Y-95190000D02*
X55770000Y-105470000D01*
X61070000Y-95190000D02*
X59420000Y-95190000D01*
X57420000Y-95190000D02*
G75*
G03*
X59420000Y-95190000I1000000J0D01*
G01*
X61070000Y-118170000D02*
X61070000Y-107890000D01*
X55770000Y-118170000D02*
X61070000Y-118170000D01*
X57420000Y-107890000D02*
X55770000Y-107890000D01*
X55770000Y-107890000D02*
X55770000Y-118170000D01*
X61070000Y-107890000D02*
X59420000Y-107890000D01*
X57420000Y-107890000D02*
G75*
G03*
X59420000Y-107890000I1000000J0D01*
G01*
X55770000Y-120590000D02*
X55770000Y-130870000D01*
X57420000Y-120590000D02*
X55770000Y-120590000D01*
X55770000Y-130870000D02*
X61070000Y-130870000D01*
X61070000Y-130870000D02*
X61070000Y-120590000D01*
X61070000Y-120590000D02*
X59420000Y-120590000D01*
X57420000Y-120590000D02*
G75*
G03*
X59420000Y-120590000I1000000J0D01*
G01*
X88170000Y-143610000D02*
X88170000Y-143280000D01*
X94710000Y-143280000D02*
X94710000Y-143610000D01*
X94710000Y-141200000D02*
X94710000Y-140870000D01*
X94710000Y-140870000D02*
X88170000Y-140870000D01*
X88170000Y-140870000D02*
X88170000Y-141200000D01*
X94710000Y-143610000D02*
X88170000Y-143610000D01*
X119965000Y-76185000D02*
X126215000Y-76185000D01*
X119965000Y-71135000D02*
X126215000Y-71135000D01*
X119965000Y-71135000D02*
G75*
G03*
X119965000Y-76185000I0J-2525000D01*
G01*
X126215000Y-76185000D02*
G75*
G03*
X126215000Y-71135000I0J2525000D01*
G01*
X117375000Y-47530000D02*
X117705000Y-47530000D01*
X120115000Y-54070000D02*
X120115000Y-47530000D01*
X119785000Y-54070000D02*
X120115000Y-54070000D01*
X117705000Y-54070000D02*
X117375000Y-54070000D01*
X120115000Y-47530000D02*
X119785000Y-47530000D01*
X117375000Y-54070000D02*
X117375000Y-47530000D01*
X110260000Y-47530000D02*
X110590000Y-47530000D01*
X110590000Y-54070000D02*
X110260000Y-54070000D01*
X107850000Y-47530000D02*
X107850000Y-54070000D01*
X107850000Y-54070000D02*
X108180000Y-54070000D01*
X110590000Y-47530000D02*
X110590000Y-54070000D01*
X108180000Y-47530000D02*
X107850000Y-47530000D01*
X105180000Y-47530000D02*
X105510000Y-47530000D01*
X103100000Y-47530000D02*
X102770000Y-47530000D01*
X102770000Y-47530000D02*
X102770000Y-54070000D01*
X105510000Y-54070000D02*
X105180000Y-54070000D01*
X102770000Y-54070000D02*
X103100000Y-54070000D01*
X105510000Y-47530000D02*
X105510000Y-54070000D01*
X94710000Y-72160000D02*
X94710000Y-72490000D01*
X94710000Y-72490000D02*
X88170000Y-72490000D01*
X88170000Y-69750000D02*
X88170000Y-70080000D01*
X94710000Y-70080000D02*
X94710000Y-69750000D01*
X88170000Y-72490000D02*
X88170000Y-72160000D01*
X94710000Y-69750000D02*
X88170000Y-69750000D01*
X106140000Y-76430000D02*
X106140000Y-76100000D01*
X99600000Y-76100000D02*
X99600000Y-76430000D01*
X106140000Y-78510000D02*
X106140000Y-78840000D01*
X99600000Y-78840000D02*
X99600000Y-78510000D01*
X106140000Y-78840000D02*
X99600000Y-78840000D01*
X106140000Y-76100000D02*
X99600000Y-76100000D01*
X71850000Y-75970000D02*
X71850000Y-76300000D01*
X71850000Y-73560000D02*
X65310000Y-73560000D01*
X71850000Y-76300000D02*
X65310000Y-76300000D01*
X71850000Y-73890000D02*
X71850000Y-73560000D01*
X65310000Y-73560000D02*
X65310000Y-73890000D01*
X65310000Y-76300000D02*
X65310000Y-75970000D01*
X71850000Y-70255000D02*
X71850000Y-70585000D01*
X71850000Y-67845000D02*
X65310000Y-67845000D01*
X71850000Y-70585000D02*
X65310000Y-70585000D01*
X71850000Y-68175000D02*
X71850000Y-67845000D01*
X65310000Y-70585000D02*
X65310000Y-70255000D01*
X65310000Y-67845000D02*
X65310000Y-68175000D01*
X82730000Y-80080000D02*
X82730000Y-80210000D01*
X81950000Y-80210000D02*
X81950000Y-77270000D01*
X77290000Y-80210000D02*
X77290000Y-80080000D01*
X82730000Y-77270000D02*
X77290000Y-77270000D01*
X81830000Y-80210000D02*
X81830000Y-77270000D01*
X82730000Y-80210000D02*
X77290000Y-80210000D01*
X81710000Y-80210000D02*
X81710000Y-77270000D01*
X77290000Y-77270000D02*
X77290000Y-77400000D01*
X82730000Y-77400000D02*
X82730000Y-77270000D01*
X81950000Y-72590000D02*
X81950000Y-69650000D01*
X82730000Y-72590000D02*
X77290000Y-72590000D01*
X77290000Y-72590000D02*
X77290000Y-72460000D01*
X81830000Y-72590000D02*
X81830000Y-69650000D01*
X77290000Y-69650000D02*
X77290000Y-69780000D01*
X82730000Y-72460000D02*
X82730000Y-72590000D01*
X81710000Y-72590000D02*
X81710000Y-69650000D01*
X82730000Y-69650000D02*
X77290000Y-69650000D01*
X82730000Y-69780000D02*
X82730000Y-69650000D01*
X113180000Y-52320000D02*
X115420000Y-52320000D01*
X113180000Y-48680000D02*
X113180000Y-52920000D01*
X113180000Y-52920000D02*
X115420000Y-52920000D01*
X113180000Y-52200000D02*
X115420000Y-52200000D01*
X114300000Y-48030000D02*
X114300000Y-48680000D01*
X114300000Y-53570000D02*
X114300000Y-52920000D01*
X115420000Y-52920000D02*
X115420000Y-48680000D01*
X113180000Y-52080000D02*
X115420000Y-52080000D01*
X115420000Y-48680000D02*
X113180000Y-48680000D01*
X94710000Y-76100000D02*
X88170000Y-76100000D01*
X94710000Y-76430000D02*
X94710000Y-76100000D01*
X88170000Y-78840000D02*
X88170000Y-78510000D01*
X94710000Y-78840000D02*
X88170000Y-78840000D01*
X88170000Y-76100000D02*
X88170000Y-76430000D01*
X94710000Y-78510000D02*
X94710000Y-78840000D01*
X100180000Y-54240000D02*
X100115000Y-54240000D01*
X98005000Y-54240000D02*
X97940000Y-54240000D01*
X97940000Y-54240000D02*
X97940000Y-57480000D01*
X100180000Y-54240000D02*
X100180000Y-57480000D01*
X98005000Y-57480000D02*
X97940000Y-57480000D01*
X100180000Y-57480000D02*
X100115000Y-57480000D01*
X106140000Y-69750000D02*
X106140000Y-70080000D01*
X99600000Y-72490000D02*
X106140000Y-72490000D01*
X99600000Y-69750000D02*
X106140000Y-69750000D01*
X106140000Y-72490000D02*
X106140000Y-72160000D01*
X99600000Y-72160000D02*
X99600000Y-72490000D01*
X99600000Y-70080000D02*
X99600000Y-69750000D01*
X74771000Y-58320000D02*
X74771000Y-58650000D01*
X68231000Y-58320000D02*
X74771000Y-58320000D01*
X74771000Y-61060000D02*
X74771000Y-60730000D01*
X68231000Y-58650000D02*
X68231000Y-58320000D01*
X68231000Y-60730000D02*
X68231000Y-61060000D01*
X68231000Y-61060000D02*
X74771000Y-61060000D01*
X131540000Y-143610000D02*
X131540000Y-143280000D01*
X125000000Y-140870000D02*
X131540000Y-140870000D01*
X131540000Y-140870000D02*
X131540000Y-141200000D01*
X125000000Y-143610000D02*
X131540000Y-143610000D01*
X125000000Y-141200000D02*
X125000000Y-140870000D01*
X125000000Y-143280000D02*
X125000000Y-143610000D01*
X125000000Y-135790000D02*
X131540000Y-135790000D01*
X131540000Y-135790000D02*
X131540000Y-136120000D01*
X131540000Y-138530000D02*
X131540000Y-138200000D01*
X125000000Y-138530000D02*
X131540000Y-138530000D01*
X125000000Y-138200000D02*
X125000000Y-138530000D01*
X125000000Y-136120000D02*
X125000000Y-135790000D01*
X129440000Y-131540000D02*
X129440000Y-125000000D01*
X132180000Y-131540000D02*
X132180000Y-125000000D01*
X131850000Y-131540000D02*
X132180000Y-131540000D01*
X129770000Y-131540000D02*
X129440000Y-131540000D01*
X132180000Y-125000000D02*
X131850000Y-125000000D01*
X129440000Y-125000000D02*
X129770000Y-125000000D01*
X134520000Y-125000000D02*
X134850000Y-125000000D01*
X137260000Y-125000000D02*
X136930000Y-125000000D01*
X134850000Y-131540000D02*
X134520000Y-131540000D01*
X136930000Y-131540000D02*
X137260000Y-131540000D01*
X137260000Y-131540000D02*
X137260000Y-125000000D01*
X134520000Y-131540000D02*
X134520000Y-125000000D01*
X122190000Y-110430000D02*
X120540000Y-110430000D01*
X120540000Y-110430000D02*
X120540000Y-118170000D01*
X125840000Y-110430000D02*
X124190000Y-110430000D01*
X125840000Y-118170000D02*
X125840000Y-110430000D01*
X120540000Y-118170000D02*
X125840000Y-118170000D01*
X122190000Y-110430000D02*
G75*
G03*
X124190000Y-110430000I1000000J0D01*
G01*
X138540000Y-110430000D02*
X136890000Y-110430000D01*
X134890000Y-110430000D02*
X133240000Y-110430000D01*
X133240000Y-110430000D02*
X133240000Y-118170000D01*
X133240000Y-118170000D02*
X138540000Y-118170000D01*
X138540000Y-118170000D02*
X138540000Y-110430000D01*
X134890000Y-110430000D02*
G75*
G03*
X136890000Y-110430000I1000000J0D01*
G01*
X146325000Y-121900000D02*
X143235000Y-121900000D01*
X144779538Y-127450000D02*
G75*
G03*
X146324830Y-121900000I462J2990000D01*
G01*
X143235170Y-121900000D02*
G75*
G03*
X144780462Y-127450000I1544830J-2560000D01*
G01*
X147280000Y-124460000D02*
G75*
G03*
X147280000Y-124460000I-2500000J0D01*
G01*
X146325000Y-111740000D02*
X143235000Y-111740000D01*
X144779538Y-117290000D02*
G75*
G03*
X146324830Y-111740000I462J2990000D01*
G01*
X143235170Y-111740000D02*
G75*
G03*
X144780462Y-117290000I1544830J-2560000D01*
G01*
X147280000Y-114300000D02*
G75*
G03*
X147280000Y-114300000I-2500000J0D01*
G01*
X82320000Y-86729000D02*
X84378000Y-86729000D01*
X78900000Y-85449000D02*
X80240000Y-85449000D01*
X82320000Y-85489000D02*
X83696000Y-85489000D01*
X78050000Y-87570000D02*
X84510000Y-87570000D01*
X82320000Y-86049000D02*
X84092000Y-86049000D01*
X82320000Y-86970000D02*
X84439000Y-86970000D01*
X78975000Y-85369000D02*
X80240000Y-85369000D01*
X78864000Y-85489000D02*
X80240000Y-85489000D01*
X82320000Y-86169000D02*
X84156000Y-86169000D01*
X78384000Y-86209000D02*
X80240000Y-86209000D01*
X82320000Y-86609000D02*
X84341000Y-86609000D01*
X78796000Y-85569000D02*
X80240000Y-85569000D01*
X78346000Y-86289000D02*
X80240000Y-86289000D01*
X82320000Y-87010000D02*
X84447000Y-87010000D01*
X78065000Y-87330000D02*
X80240000Y-87330000D01*
X78424000Y-86129000D02*
X80240000Y-86129000D01*
X82320000Y-87210000D02*
X84481000Y-87210000D01*
X78182000Y-86729000D02*
X80240000Y-86729000D01*
X82320000Y-87290000D02*
X84491000Y-87290000D01*
X82320000Y-85609000D02*
X83796000Y-85609000D01*
X82320000Y-86849000D02*
X84411000Y-86849000D01*
X79441000Y-91150241D02*
X79441000Y-90520241D01*
X78616000Y-85809000D02*
X80240000Y-85809000D01*
X79236000Y-85129000D02*
X83324000Y-85129000D01*
X82320000Y-86809000D02*
X84401000Y-86809000D01*
X78105000Y-87050000D02*
X80240000Y-87050000D01*
X82320000Y-87330000D02*
X84495000Y-87330000D01*
X78233000Y-86569000D02*
X80240000Y-86569000D01*
X79056000Y-85289000D02*
X83504000Y-85289000D01*
X82320000Y-85409000D02*
X83623000Y-85409000D01*
X78404000Y-86169000D02*
X80240000Y-86169000D01*
X78310000Y-86369000D02*
X80240000Y-86369000D01*
X82320000Y-87410000D02*
X84502000Y-87410000D01*
X78490000Y-86009000D02*
X80240000Y-86009000D01*
X82320000Y-86089000D02*
X84114000Y-86089000D01*
X78294000Y-86409000D02*
X80240000Y-86409000D01*
X82320000Y-85889000D02*
X83996000Y-85889000D01*
X78328000Y-86329000D02*
X80240000Y-86329000D01*
X82320000Y-87130000D02*
X84469000Y-87130000D01*
X78074000Y-87250000D02*
X80240000Y-87250000D01*
X80647000Y-84449000D02*
X81913000Y-84449000D01*
X78468000Y-86049000D02*
X80240000Y-86049000D01*
X79446000Y-84969000D02*
X83114000Y-84969000D01*
X78262000Y-86489000D02*
X80240000Y-86489000D01*
X78159000Y-86809000D02*
X80240000Y-86809000D01*
X79390000Y-85009000D02*
X83170000Y-85009000D01*
X82320000Y-86289000D02*
X84214000Y-86289000D01*
X82320000Y-86409000D02*
X84266000Y-86409000D01*
X78069000Y-87290000D02*
X80240000Y-87290000D01*
X79015000Y-85329000D02*
X83545000Y-85329000D01*
X79285000Y-85089000D02*
X83275000Y-85089000D01*
X78247000Y-86529000D02*
X80240000Y-86529000D01*
X80478000Y-84489000D02*
X82082000Y-84489000D01*
X78194000Y-86689000D02*
X80240000Y-86689000D01*
X78098000Y-87090000D02*
X80240000Y-87090000D01*
X79930000Y-84689000D02*
X82630000Y-84689000D01*
X78564000Y-85889000D02*
X80240000Y-85889000D01*
X78113000Y-87010000D02*
X80240000Y-87010000D01*
X82320000Y-86489000D02*
X84298000Y-86489000D01*
X78130000Y-86929000D02*
X80240000Y-86929000D01*
X82320000Y-86449000D02*
X84282000Y-86449000D01*
X78079000Y-87210000D02*
X80240000Y-87210000D01*
X78121000Y-86970000D02*
X80240000Y-86970000D01*
X78050000Y-87610000D02*
X84510000Y-87610000D01*
X79699000Y-84809000D02*
X82861000Y-84809000D01*
X78590000Y-85849000D02*
X80240000Y-85849000D01*
X78219000Y-86609000D02*
X80240000Y-86609000D01*
X78830000Y-85529000D02*
X80240000Y-85529000D01*
X78364000Y-86249000D02*
X80240000Y-86249000D01*
X79504000Y-84929000D02*
X83056000Y-84929000D01*
X78514000Y-85969000D02*
X80240000Y-85969000D01*
X82320000Y-87050000D02*
X84455000Y-87050000D01*
X78538000Y-85929000D02*
X80240000Y-85929000D01*
X78673000Y-85729000D02*
X80240000Y-85729000D01*
X78050000Y-87650000D02*
X84510000Y-87650000D01*
X82320000Y-85809000D02*
X83944000Y-85809000D01*
X78446000Y-86089000D02*
X80240000Y-86089000D01*
X82320000Y-86929000D02*
X84430000Y-86929000D01*
X79143000Y-85209000D02*
X83417000Y-85209000D01*
X82320000Y-86369000D02*
X84250000Y-86369000D01*
X82320000Y-86209000D02*
X84176000Y-86209000D01*
X79630000Y-84849000D02*
X82930000Y-84849000D01*
X79098000Y-85249000D02*
X83462000Y-85249000D01*
X80878000Y-84409000D02*
X81682000Y-84409000D01*
X82320000Y-86769000D02*
X84390000Y-86769000D01*
X79126000Y-90835241D02*
X79756000Y-90835241D01*
X78062000Y-87370000D02*
X80240000Y-87370000D01*
X82320000Y-85849000D02*
X83970000Y-85849000D01*
X78139000Y-86889000D02*
X80240000Y-86889000D01*
X78732000Y-85649000D02*
X80240000Y-85649000D01*
X78052000Y-87530000D02*
X84508000Y-87530000D01*
X78764000Y-85609000D02*
X80240000Y-85609000D01*
X82320000Y-86129000D02*
X84136000Y-86129000D01*
X82320000Y-86329000D02*
X84232000Y-86329000D01*
X82320000Y-85369000D02*
X83585000Y-85369000D01*
X80018000Y-84649000D02*
X82542000Y-84649000D01*
X82320000Y-86889000D02*
X84421000Y-86889000D01*
X78053000Y-87490000D02*
X84507000Y-87490000D01*
X82320000Y-85449000D02*
X83660000Y-85449000D01*
X78058000Y-87410000D02*
X80240000Y-87410000D01*
X82320000Y-85729000D02*
X83887000Y-85729000D01*
X79848000Y-84729000D02*
X82712000Y-84729000D01*
X79771000Y-84769000D02*
X82789000Y-84769000D01*
X79188000Y-85169000D02*
X83372000Y-85169000D01*
X78056000Y-87450000D02*
X84504000Y-87450000D01*
X78170000Y-86769000D02*
X80240000Y-86769000D01*
X78702000Y-85689000D02*
X80240000Y-85689000D01*
X80340000Y-84529000D02*
X82220000Y-84529000D01*
X82320000Y-86249000D02*
X84196000Y-86249000D01*
X82320000Y-86529000D02*
X84313000Y-86529000D01*
X82320000Y-86009000D02*
X84070000Y-86009000D01*
X78206000Y-86649000D02*
X80240000Y-86649000D01*
X80115000Y-84609000D02*
X82445000Y-84609000D01*
X82320000Y-86569000D02*
X84327000Y-86569000D01*
X78644000Y-85769000D02*
X80240000Y-85769000D01*
X82320000Y-85649000D02*
X83828000Y-85649000D01*
X82320000Y-85689000D02*
X83858000Y-85689000D01*
X82320000Y-85529000D02*
X83730000Y-85529000D01*
X82320000Y-87370000D02*
X84498000Y-87370000D01*
X78278000Y-86449000D02*
X80240000Y-86449000D01*
X78091000Y-87130000D02*
X80240000Y-87130000D01*
X82320000Y-86689000D02*
X84366000Y-86689000D01*
X82320000Y-87090000D02*
X84462000Y-87090000D01*
X78085000Y-87170000D02*
X80240000Y-87170000D01*
X78937000Y-85409000D02*
X80240000Y-85409000D01*
X79336000Y-85049000D02*
X83224000Y-85049000D01*
X82320000Y-87250000D02*
X84486000Y-87250000D01*
X79566000Y-84889000D02*
X82994000Y-84889000D01*
X78149000Y-86849000D02*
X80240000Y-86849000D01*
X82320000Y-85969000D02*
X84046000Y-85969000D01*
X82320000Y-85769000D02*
X83916000Y-85769000D01*
X80221000Y-84569000D02*
X82339000Y-84569000D01*
X82320000Y-87170000D02*
X84475000Y-87170000D01*
X82320000Y-86649000D02*
X84354000Y-86649000D01*
X82320000Y-85569000D02*
X83764000Y-85569000D01*
X82320000Y-85929000D02*
X84022000Y-85929000D01*
X84550000Y-87650000D02*
G75*
G03*
X84550000Y-87650000I-3270000J0D01*
G01*
X87780000Y-86030000D02*
X87845000Y-86030000D01*
X87780000Y-89270000D02*
X87780000Y-86030000D01*
X90020000Y-89270000D02*
X90020000Y-86030000D01*
X87780000Y-89270000D02*
X87845000Y-89270000D01*
X89955000Y-89270000D02*
X90020000Y-89270000D01*
X89955000Y-86030000D02*
X90020000Y-86030000D01*
X53380000Y-85360000D02*
X53380000Y-87360000D01*
X53760000Y-92480000D02*
X53760000Y-83040000D01*
X75800000Y-83040000D02*
X75800000Y-92480000D01*
X75800000Y-92480000D02*
X53760000Y-92480000D01*
X53760000Y-83040000D02*
X75800000Y-83040000D01*
X146325000Y-132060000D02*
X143235000Y-132060000D01*
X143235170Y-132060000D02*
G75*
G03*
X144780462Y-137610000I1544830J-2560000D01*
G01*
X144779538Y-137610000D02*
G75*
G03*
X146324830Y-132060000I462J2990000D01*
G01*
X147280000Y-134620000D02*
G75*
G03*
X147280000Y-134620000I-2500000J0D01*
G01*
X131540000Y-145950000D02*
X125000000Y-145950000D01*
X125000000Y-145950000D02*
X125000000Y-146280000D01*
X131540000Y-146280000D02*
X131540000Y-145950000D01*
X131540000Y-148360000D02*
X131540000Y-148690000D01*
X131540000Y-148690000D02*
X125000000Y-148690000D01*
X125000000Y-148690000D02*
X125000000Y-148360000D01*
X136511000Y-105060000D02*
X137769000Y-105060000D01*
X136511000Y-103220000D02*
X137769000Y-103220000D01*
X140380000Y-60395000D02*
X140380000Y-29425000D01*
X139918675Y-39370000D02*
X139485662Y-39620000D01*
X139485662Y-39120000D02*
X139918675Y-39370000D01*
X140380000Y-29425000D02*
X152720000Y-29425000D01*
X152720000Y-60395000D02*
X140380000Y-60395000D01*
X139485662Y-39620000D02*
X139485662Y-39120000D01*
X126890000Y-55940000D02*
X132190000Y-55940000D01*
X132190000Y-55940000D02*
X132190000Y-35500000D01*
X126890000Y-35500000D02*
X126890000Y-55940000D01*
X132190000Y-35500000D02*
X130540000Y-35500000D01*
X128540000Y-35500000D02*
X126890000Y-35500000D01*
X128540000Y-35500000D02*
G75*
G03*
X130540000Y-35500000I1000000J0D01*
G01*
X131010000Y-64540000D02*
X131025000Y-64540000D01*
X133135000Y-64540000D02*
X133150000Y-64540000D01*
X133150000Y-64540000D02*
X133150000Y-60000000D01*
X133135000Y-60000000D02*
X133150000Y-60000000D01*
X131010000Y-64540000D02*
X131010000Y-60000000D01*
X131010000Y-60000000D02*
X131025000Y-60000000D01*
X138280000Y-36460000D02*
X138215000Y-36460000D01*
X138280000Y-39700000D02*
X138215000Y-39700000D01*
X136040000Y-36460000D02*
X136040000Y-39700000D01*
X136105000Y-39700000D02*
X136040000Y-39700000D01*
X136105000Y-36460000D02*
X136040000Y-36460000D01*
X138280000Y-36460000D02*
X138280000Y-39700000D01*
X120800000Y-39000000D02*
X120800000Y-42240000D01*
X120865000Y-39000000D02*
X120800000Y-39000000D01*
X123040000Y-39000000D02*
X123040000Y-42240000D01*
X123040000Y-42240000D02*
X122975000Y-42240000D01*
X123040000Y-39000000D02*
X122975000Y-39000000D01*
X120865000Y-42240000D02*
X120800000Y-42240000D01*
X123495000Y-31330000D02*
X123495000Y-31265000D01*
X126735000Y-31265000D02*
X123495000Y-31265000D01*
X123495000Y-33505000D02*
X123495000Y-33440000D01*
X126735000Y-33505000D02*
X126735000Y-33440000D01*
X126735000Y-33505000D02*
X123495000Y-33505000D01*
X126735000Y-31330000D02*
X126735000Y-31265000D01*
X123040000Y-49160000D02*
X123040000Y-52400000D01*
X123040000Y-49160000D02*
X122975000Y-49160000D01*
X123040000Y-52400000D02*
X122975000Y-52400000D01*
X120865000Y-52400000D02*
X120800000Y-52400000D01*
X120865000Y-49160000D02*
X120800000Y-49160000D01*
X120800000Y-49160000D02*
X120800000Y-52400000D01*
X136930000Y-34725000D02*
X136930000Y-34710000D01*
X132390000Y-34725000D02*
X132390000Y-34710000D01*
X136930000Y-34725000D02*
X132390000Y-34725000D01*
X136930000Y-32600000D02*
X136930000Y-32585000D01*
X136930000Y-32585000D02*
X132390000Y-32585000D01*
X132390000Y-32600000D02*
X132390000Y-32585000D01*
X133350000Y-71060000D02*
X130750000Y-71060000D01*
X133350000Y-71060000D02*
X133350000Y-73720000D01*
X133350000Y-73720000D02*
X130750000Y-73720000D01*
X135950000Y-71060000D02*
X135950000Y-72390000D01*
X134620000Y-71060000D02*
X135950000Y-71060000D01*
X130750000Y-71060000D02*
X130750000Y-73720000D01*
X136752000Y-60230000D02*
X136422000Y-60230000D01*
X136422000Y-66770000D02*
X136752000Y-66770000D01*
X134012000Y-60230000D02*
X134342000Y-60230000D01*
X134012000Y-66770000D02*
X134012000Y-60230000D01*
X136752000Y-66770000D02*
X136752000Y-60230000D01*
X134342000Y-66770000D02*
X134012000Y-66770000D01*
X136620000Y-29110000D02*
X130080000Y-29110000D01*
X130080000Y-31850000D02*
X130080000Y-31520000D01*
X136620000Y-31520000D02*
X136620000Y-31850000D01*
X136620000Y-29440000D02*
X136620000Y-29110000D01*
X130080000Y-29110000D02*
X130080000Y-29440000D01*
X136620000Y-31850000D02*
X130080000Y-31850000D01*
X123040000Y-47320000D02*
X122975000Y-47320000D01*
X120800000Y-44080000D02*
X120800000Y-47320000D01*
X123040000Y-44080000D02*
X123040000Y-47320000D01*
X123040000Y-44080000D02*
X122975000Y-44080000D01*
X120865000Y-47320000D02*
X120800000Y-47320000D01*
X120865000Y-44080000D02*
X120800000Y-44080000D01*
X66445000Y-94615000D02*
X67135000Y-94615000D01*
X76375000Y-92895000D02*
X67135000Y-92895000D01*
X76375000Y-96335000D02*
X76375000Y-92895000D01*
X67135000Y-96335000D02*
X76375000Y-96335000D01*
X77065000Y-94615000D02*
X76375000Y-94615000D01*
X67135000Y-92895000D02*
X67135000Y-96335000D01*
X51840000Y-80010000D02*
X52530000Y-80010000D01*
X52530000Y-81730000D02*
X61770000Y-81730000D01*
X52530000Y-78290000D02*
X52530000Y-81730000D01*
X62460000Y-80010000D02*
X61770000Y-80010000D01*
X61770000Y-81730000D02*
X61770000Y-78290000D01*
X61770000Y-78290000D02*
X52530000Y-78290000D01*
X106140000Y-73255000D02*
X106140000Y-72925000D01*
X106140000Y-75335000D02*
X106140000Y-75665000D01*
X106140000Y-75665000D02*
X99600000Y-75665000D01*
X99600000Y-72925000D02*
X99600000Y-73255000D01*
X99600000Y-75665000D02*
X99600000Y-75335000D01*
X106140000Y-72925000D02*
X99600000Y-72925000D01*
X104870000Y-140435000D02*
X98330000Y-140435000D01*
X104870000Y-137695000D02*
X98330000Y-137695000D01*
X98330000Y-140435000D02*
X98330000Y-140105000D01*
X98330000Y-137695000D02*
X98330000Y-138025000D01*
X104870000Y-138025000D02*
X104870000Y-137695000D01*
X104870000Y-140105000D02*
X104870000Y-140435000D01*
X148530000Y-124520000D02*
X151190000Y-124520000D01*
X151190000Y-88900000D02*
X151190000Y-124520000D01*
X148530000Y-87630000D02*
X148530000Y-86300000D01*
X148530000Y-86300000D02*
X149860000Y-86300000D01*
X148530000Y-88900000D02*
X148530000Y-124520000D01*
X148530000Y-88900000D02*
X151190000Y-88900000D01*
M02*
