M48
; DRILL file {KiCad (6.0.5-0)} date Sunday, August 07, 2022 at 12:30:22 PM
; FORMAT={-:-/ absolute / inch / decimal}
; #@! TF.CreationDate,2022-08-07T12:30:22-07:00
; #@! TF.GenerationSoftware,Kicad,Pcbnew,(6.0.5-0)
; #@! TF.FileFunction,Plated,1,2,PTH
FMAT,2
INCH
; #@! TA.AperFunction,Plated,PTH,ViaDrill
T1C0.0157
; #@! TA.AperFunction,Plated,PTH,ViaDrill
T2C0.0315
; #@! TA.AperFunction,Plated,PTH,ComponentDrill
T3C0.0315
; #@! TA.AperFunction,Plated,PTH,ComponentDrill
T4C0.0354
; #@! TA.AperFunction,Plated,PTH,ComponentDrill
T5C0.0362
; #@! TA.AperFunction,Plated,PTH,ComponentDrill
T6C0.0394
; #@! TA.AperFunction,Plated,PTH,ComponentDrill
T7C0.0433
; #@! TA.AperFunction,Plated,PTH,ComponentDrill
T8C0.0917
; #@! TA.AperFunction,Plated,PTH,ComponentDrill
T9C0.1260
; #@! TA.AperFunction,Plated,PTH,ComponentDrill
T10C0.1457
%
G90
G05
T1
X2.8Y-4.95
X2.8Y-5.1
X3.65Y-2.25
X3.75Y-4.2
X4.85Y-3.65
X5.3Y-3.15
T2
X2.3Y-4.6
X3.5Y-3.8
X4.4Y-3.75
T3
X2.0Y-3.15
X2.15Y-1.25
X2.15Y-1.35
X2.15Y-1.45
X2.15Y-1.55
X2.15Y-1.75
X2.15Y-1.85
X2.15Y-1.95
X2.15Y-2.05
X2.15Y-2.24
X2.15Y-2.34
X2.15Y-2.44
X2.15Y-2.54
X2.15Y-3.8
X2.15Y-3.9
X2.15Y-4.0
X2.15Y-4.1
X2.15Y-4.3
X2.15Y-4.4
X2.15Y-4.5
X2.15Y-4.6
X2.15Y-4.8
X2.15Y-4.9
X2.15Y-5.0
X2.15Y-5.1
X2.45Y-1.25
X2.45Y-1.35
X2.45Y-1.45
X2.45Y-1.55
X2.45Y-1.75
X2.45Y-1.85
X2.45Y-1.95
X2.45Y-2.05
X2.45Y-2.24
X2.45Y-2.34
X2.45Y-2.44
X2.45Y-2.54
X2.45Y-3.8
X2.45Y-3.9
X2.45Y-4.0
X2.45Y-4.1
X2.45Y-4.3
X2.45Y-4.4
X2.45Y-4.5
X2.45Y-4.6
X2.45Y-4.8
X2.45Y-4.9
X2.45Y-5.0
X2.45Y-5.1
X2.5Y-3.15
X2.55Y-2.725
X2.55Y-2.95
X2.55Y-5.35
X2.55Y-5.6
X2.575Y-3.725
X2.65Y-1.35
X2.65Y-1.55
X2.65Y-1.85
X2.65Y-3.975
X2.65Y-4.175
X2.65Y-4.4
X2.65Y-4.6
X2.65Y-4.8825
X2.65Y-5.1
X2.665Y-2.05
X2.665Y-2.35
X2.665Y-2.55
X2.85Y-2.725
X2.85Y-2.95
X2.85Y-5.35
X2.85Y-5.6
X2.95Y-1.35
X2.95Y-1.55
X2.95Y-1.85
X2.95Y-3.975
X2.95Y-4.175
X2.95Y-4.4
X2.95Y-4.6
X2.95Y-4.8825
X2.95Y-5.1
X2.965Y-2.05
X2.965Y-2.35
X2.965Y-2.55
X3.075Y-3.725
X3.2Y-3.4016
X3.2Y-3.5
X3.25Y-1.65
X3.25Y-1.75
X3.25Y-1.85
X3.25Y-1.95
X3.25Y-2.05
X3.25Y-2.15
X3.25Y-2.25
X3.25Y-2.35
X3.25Y-4.2
X3.25Y-4.3
X3.25Y-4.4
X3.25Y-4.5
X3.25Y-4.6
X3.25Y-4.7
X3.25Y-4.8
X3.25Y-4.9
X3.3516Y-1.45
X3.3516Y-4.0
X3.45Y-1.45
X3.45Y-2.8
X3.45Y-3.05
X3.45Y-4.0
X3.45Y-5.35
X3.45Y-5.6
X3.5Y-3.4016
X3.5Y-3.5
X3.55Y-1.65
X3.55Y-1.75
X3.55Y-1.85
X3.55Y-1.95
X3.55Y-2.05
X3.55Y-2.15
X3.55Y-2.25
X3.55Y-2.35
X3.55Y-4.2
X3.55Y-4.3
X3.55Y-4.4
X3.55Y-4.5
X3.55Y-4.6
X3.55Y-4.7
X3.55Y-4.8
X3.55Y-4.9
X3.75Y-2.8
X3.75Y-3.05
X3.75Y-3.35
X3.75Y-3.95
X3.75Y-5.35
X3.75Y-5.6
X3.8Y-1.65
X3.85Y-3.35
X3.85Y-3.95
X3.85Y-4.7
X3.85Y-4.7984
X3.85Y-5.0
X3.85Y-5.0984
X3.85Y-5.35
X3.85Y-5.475
X3.85Y-5.6
X3.9Y-2.15
X3.9Y-2.2484
X3.9Y-2.45
X3.9Y-2.5484
X3.9Y-2.8
X3.9Y-2.925
X3.9Y-3.05
X3.95Y-3.35
X3.95Y-3.95
X4.0Y-1.5
X4.05Y-3.35
X4.05Y-3.95
X4.05Y-4.4
X4.05Y-4.7
X4.05Y-4.9
X4.05Y-5.2
X4.0984Y-1.5
X4.1Y-1.65
X4.1Y-1.85
X4.1Y-2.15
X4.1Y-2.35
X4.1Y-2.65
X4.15Y-3.35
X4.15Y-3.95
X4.15Y-4.9
X4.15Y-5.2
X4.15Y-5.35
X4.15Y-5.475
X4.15Y-5.6
X4.2Y-2.35
X4.2Y-2.65
X4.2Y-2.8
X4.2Y-2.925
X4.2Y-3.05
X4.25Y-3.35
X4.25Y-3.95
X4.25Y-4.4
X4.25Y-4.7
X4.25Y-4.9
X4.25Y-5.2
X4.3Y-1.85
X4.3Y-2.15
X4.3Y-2.35
X4.3Y-2.65
X4.3Y-5.6
X4.35Y-3.35
X4.35Y-3.95
X4.35Y-4.9
X4.35Y-5.2
X4.4Y-2.35
X4.4Y-2.65
X4.45Y-3.35
X4.45Y-3.95
X4.45Y-4.4
X4.45Y-4.7
X4.45Y-4.9
X4.45Y-5.2
X4.5Y-1.85
X4.5Y-2.15
X4.5Y-2.35
X4.5Y-2.65
X4.55Y-3.2
X4.55Y-3.35
X4.55Y-3.95
X4.55Y-4.9
X4.55Y-5.2
X4.6Y-2.35
X4.6Y-2.65
X4.6Y-5.6
X4.6484Y-3.2
X4.65Y-3.35
X4.65Y-3.95
X4.65Y-4.9
X4.65Y-5.2
X4.675Y-1.85
X4.675Y-2.15
X4.7Y-2.35
X4.7Y-2.65
X4.7Y-4.4
X4.7Y-4.5
X4.7Y-4.6
X4.75Y-2.9
X4.75Y-3.35
X4.75Y-3.95
X4.75Y-4.1
X4.75Y-4.9
X4.75Y-5.2
X4.8Y-1.55
X4.8Y-1.6484
X4.8Y-1.75
X4.8Y-1.8484
X4.8Y-1.95
X4.8Y-2.0484
X4.8Y-2.35
X4.8Y-2.65
X4.8Y-3.15
X4.8484Y-4.1
X4.85Y-3.35
X4.85Y-3.95
X4.85Y-4.9
X4.85Y-5.2
X4.8766Y-1.275
X4.8984Y-3.15
X4.9Y-2.35
X4.9Y-2.65
X4.9Y-5.4
X4.9Y-5.6
X4.9Y-5.8
X4.9421Y-2.9
X4.95Y-1.45
X4.95Y-1.55
X4.95Y-1.65
X4.95Y-1.75
X4.95Y-1.85
X4.95Y-1.95
X4.95Y-2.05
X4.95Y-2.15
X4.95Y-3.35
X4.95Y-3.95
X4.975Y-1.275
X5.0Y-4.4
X5.0Y-4.5
X5.0Y-4.6
X5.05Y-3.35
X5.05Y-3.95
X5.1Y-1.2
X5.15Y-3.35
X5.15Y-3.95
X5.15Y-4.9
X5.15Y-5.2
X5.2Y-2.3531
X5.2Y-2.55
X5.2Y-4.4
X5.2Y-4.5
X5.2Y-4.6
X5.2Y-5.4
X5.2Y-5.6
X5.2Y-5.8
X5.2031Y-1.325
X5.25Y-1.45
X5.25Y-1.55
X5.25Y-1.65
X5.25Y-1.75
X5.25Y-1.85
X5.25Y-1.95
X5.25Y-2.05
X5.25Y-2.15
X5.25Y-3.35
X5.25Y-3.95
X5.33Y-2.35
X5.33Y-2.65
X5.35Y-3.35
X5.35Y-3.95
X5.35Y-4.1
X5.35Y-4.9
X5.35Y-5.2
X5.4Y-1.2
X5.4Y-1.325
X5.4Y-1.45
X5.4Y-1.5484
X5.4484Y-4.1
X5.45Y-3.35
X5.45Y-3.95
X5.5Y-4.4
X5.5Y-4.5
X5.5Y-4.6
X5.55Y-3.35
X5.55Y-3.95
X5.65Y-3.35
X5.65Y-3.95
X5.8Y-3.3
X5.8984Y-3.3
T4
X5.7Y-4.45
X5.7Y-4.55
X5.7Y-4.85
X5.7Y-4.95
X5.7Y-5.25
X5.7Y-5.35
T5
X5.5Y-2.85
X5.5Y-2.9484
X5.5787Y-2.85
X5.5787Y-2.9484
T6
X1.6311Y-2.55
X1.6311Y-2.635
X1.6311Y-2.7201
X1.6311Y-2.8051
X1.6311Y-2.8902
X1.6311Y-2.9752
X1.6311Y-3.0602
X1.6311Y-3.1453
X1.6311Y-3.2303
X1.6311Y-3.3154
X1.6311Y-3.4004
X1.6311Y-3.4854
X1.6311Y-3.5705
X1.6311Y-3.6555
X1.6311Y-3.7406
X1.6311Y-3.8256
X1.6311Y-3.9106
X1.6311Y-3.9957
X1.6311Y-4.0807
X1.6311Y-4.1657
X1.6311Y-4.2508
X1.6311Y-4.3358
X1.6311Y-4.4209
X1.6311Y-4.5059
X1.6311Y-4.5909
X1.8Y-2.55
X1.8Y-2.635
X1.8Y-2.7201
X1.8Y-2.8051
X1.8Y-2.8902
X1.8Y-2.9752
X1.8Y-3.0602
X1.8Y-3.1453
X1.8Y-3.2303
X1.8Y-3.3154
X1.8Y-3.4004
X1.8Y-3.4854
X1.8Y-3.5705
X1.8Y-3.6555
X1.8Y-3.7406
X1.8Y-3.8256
X1.8Y-3.9106
X1.8Y-3.9957
X1.8Y-4.0807
X1.8Y-4.1657
X1.8Y-4.2508
X1.8Y-4.3358
X1.8Y-4.4209
X1.8Y-4.5059
X1.8Y-4.5909
X2.1531Y-2.725
X2.1531Y-2.95
X2.1531Y-5.35
X2.1531Y-5.6
X2.2Y-3.4
X2.3Y-3.4
X2.35Y-2.725
X2.35Y-2.95
X2.35Y-5.35
X2.35Y-5.6
X2.4Y-3.4
X2.6Y-3.4
X2.7Y-3.4
X2.8Y-3.4
X2.9Y-3.4
X3.75Y-3.2
X3.85Y-3.2
X3.95Y-3.2
X4.05Y-3.2
X4.15Y-3.2
X4.25Y-3.2
X5.2Y-2.85
X5.3Y-2.85
X5.6Y-1.55
X5.6Y-1.6591
X5.6Y-1.7681
X5.6Y-1.8772
X5.6Y-1.9862
X5.7118Y-1.6045
X5.7118Y-1.7136
X5.7118Y-1.8226
X5.7118Y-1.9317
X5.9Y-3.45
X5.9Y-3.55
X5.9Y-3.65
X5.9Y-3.75
X5.9Y-3.85
X5.9Y-3.95
X5.9Y-4.05
X5.9Y-4.15
X5.9Y-4.25
X5.9Y-4.35
X5.9Y-4.45
X5.9Y-4.55
X5.9Y-4.65
X5.9Y-4.75
X5.9Y-4.85
T7
X3.0Y-2.8
X3.0Y-3.1
X3.0Y-5.35
X3.0Y-5.6
X3.3Y-2.8
X3.3Y-3.1
X3.3Y-5.35
X3.3Y-5.6
X4.25Y-1.3841
X4.25Y-1.64
X4.4272Y-1.3841
X4.4272Y-1.64
T8
X5.6854Y-2.6622
X5.6854Y-3.1362
T9
X1.7156Y-2.097
X1.7156Y-5.0439
X5.6559Y-1.276
X5.6559Y-2.2602
T10
X1.6Y-1.35
X1.6Y-5.75
X4.65Y-1.35
X5.7Y-5.75
T0
M30
