G04 #@! TF.GenerationSoftware,KiCad,Pcbnew,(6.0.5-0)*
G04 #@! TF.CreationDate,2022-08-07T12:30:07-07:00*
G04 #@! TF.ProjectId,ac125a_dtmf,61633132-3561-45f6-9474-6d662e6b6963,rev?*
G04 #@! TF.SameCoordinates,Original*
G04 #@! TF.FileFunction,Copper,L1,Top*
G04 #@! TF.FilePolarity,Positive*
%FSLAX46Y46*%
G04 Gerber Fmt 4.6, Leading zero omitted, Abs format (unit mm)*
G04 Created by KiCad (PCBNEW (6.0.5-0)) date 2022-08-07 12:30:07*
%MOMM*%
%LPD*%
G01*
G04 APERTURE LIST*
%ADD10C,0.150000*%
G04 #@! TA.AperFunction,NonConductor*
%ADD11C,0.150000*%
G04 #@! TD*
G04 #@! TA.AperFunction,ComponentPad*
%ADD12C,1.500000*%
G04 #@! TD*
G04 #@! TA.AperFunction,ComponentPad*
%ADD13C,4.800000*%
G04 #@! TD*
G04 #@! TA.AperFunction,ComponentPad*
%ADD14R,1.700000X1.700000*%
G04 #@! TD*
G04 #@! TA.AperFunction,ComponentPad*
%ADD15C,1.700000*%
G04 #@! TD*
G04 #@! TA.AperFunction,ComponentPad*
%ADD16C,3.500000*%
G04 #@! TD*
G04 #@! TA.AperFunction,ComponentPad*
%ADD17C,1.600000*%
G04 #@! TD*
G04 #@! TA.AperFunction,ComponentPad*
%ADD18C,2.000000*%
G04 #@! TD*
G04 #@! TA.AperFunction,ComponentPad*
%ADD19R,2.200000X2.200000*%
G04 #@! TD*
G04 #@! TA.AperFunction,ComponentPad*
%ADD20O,2.200000X2.200000*%
G04 #@! TD*
G04 #@! TA.AperFunction,ComponentPad*
%ADD21R,1.600000X1.600000*%
G04 #@! TD*
G04 #@! TA.AperFunction,ComponentPad*
%ADD22O,1.600000X1.600000*%
G04 #@! TD*
G04 #@! TA.AperFunction,ComponentPad*
%ADD23O,1.700000X1.700000*%
G04 #@! TD*
G04 #@! TA.AperFunction,ComponentPad*
%ADD24R,1.800000X1.800000*%
G04 #@! TD*
G04 #@! TA.AperFunction,ComponentPad*
%ADD25C,1.800000*%
G04 #@! TD*
G04 #@! TA.AperFunction,ComponentPad*
%ADD26R,1.500000X3.000000*%
G04 #@! TD*
G04 #@! TA.AperFunction,ComponentPad*
%ADD27O,1.500000X3.000000*%
G04 #@! TD*
G04 #@! TA.AperFunction,ComponentPad*
%ADD28C,4.000000*%
G04 #@! TD*
G04 #@! TA.AperFunction,ComponentPad*
%ADD29C,7.400000*%
G04 #@! TD*
G04 #@! TA.AperFunction,ViaPad*
%ADD30C,0.800000*%
G04 #@! TD*
G04 #@! TA.AperFunction,ViaPad*
%ADD31C,1.600000*%
G04 #@! TD*
G04 #@! TA.AperFunction,Conductor*
%ADD32C,1.000000*%
G04 #@! TD*
G04 #@! TA.AperFunction,Conductor*
%ADD33C,0.500000*%
G04 #@! TD*
G04 #@! TA.AperFunction,Conductor*
%ADD34C,0.300000*%
G04 #@! TD*
G04 APERTURE END LIST*
D10*
D11*
X70073809Y-146602380D02*
X70264285Y-146602380D01*
X70359523Y-146650000D01*
X70454761Y-146745238D01*
X70502380Y-146935714D01*
X70502380Y-147269047D01*
X70454761Y-147459523D01*
X70359523Y-147554761D01*
X70264285Y-147602380D01*
X70073809Y-147602380D01*
X69978571Y-147554761D01*
X69883333Y-147459523D01*
X69835714Y-147269047D01*
X69835714Y-146935714D01*
X69883333Y-146745238D01*
X69978571Y-146650000D01*
X70073809Y-146602380D01*
X70930952Y-147602380D02*
X70930952Y-146602380D01*
X71502380Y-147602380D02*
X71073809Y-147030952D01*
X71502380Y-146602380D02*
X70930952Y-147173809D01*
X71930952Y-147602380D02*
X71930952Y-146602380D01*
X73121428Y-147316666D02*
X73597619Y-147316666D01*
X73026190Y-147602380D02*
X73359523Y-146602380D01*
X73692857Y-147602380D01*
X74597619Y-147507142D02*
X74550000Y-147554761D01*
X74407142Y-147602380D01*
X74311904Y-147602380D01*
X74169047Y-147554761D01*
X74073809Y-147459523D01*
X74026190Y-147364285D01*
X73978571Y-147173809D01*
X73978571Y-147030952D01*
X74026190Y-146840476D01*
X74073809Y-146745238D01*
X74169047Y-146650000D01*
X74311904Y-146602380D01*
X74407142Y-146602380D01*
X74550000Y-146650000D01*
X74597619Y-146697619D01*
X75550000Y-147602380D02*
X74978571Y-147602380D01*
X75264285Y-147602380D02*
X75264285Y-146602380D01*
X75169047Y-146745238D01*
X75073809Y-146840476D01*
X74978571Y-146888095D01*
X75930952Y-146697619D02*
X75978571Y-146650000D01*
X76073809Y-146602380D01*
X76311904Y-146602380D01*
X76407142Y-146650000D01*
X76454761Y-146697619D01*
X76502380Y-146792857D01*
X76502380Y-146888095D01*
X76454761Y-147030952D01*
X75883333Y-147602380D01*
X76502380Y-147602380D01*
X77407142Y-146602380D02*
X76930952Y-146602380D01*
X76883333Y-147078571D01*
X76930952Y-147030952D01*
X77026190Y-146983333D01*
X77264285Y-146983333D01*
X77359523Y-147030952D01*
X77407142Y-147078571D01*
X77454761Y-147173809D01*
X77454761Y-147411904D01*
X77407142Y-147507142D01*
X77359523Y-147554761D01*
X77264285Y-147602380D01*
X77026190Y-147602380D01*
X76930952Y-147554761D01*
X76883333Y-147507142D01*
X77835714Y-147316666D02*
X78311904Y-147316666D01*
X77740476Y-147602380D02*
X78073809Y-146602380D01*
X78407142Y-147602380D01*
X79502380Y-147602380D02*
X79502380Y-146602380D01*
X79740476Y-146602380D01*
X79883333Y-146650000D01*
X79978571Y-146745238D01*
X80026190Y-146840476D01*
X80073809Y-147030952D01*
X80073809Y-147173809D01*
X80026190Y-147364285D01*
X79978571Y-147459523D01*
X79883333Y-147554761D01*
X79740476Y-147602380D01*
X79502380Y-147602380D01*
X80359523Y-146602380D02*
X80930952Y-146602380D01*
X80645238Y-147602380D02*
X80645238Y-146602380D01*
X81264285Y-147602380D02*
X81264285Y-146602380D01*
X81597619Y-147316666D01*
X81930952Y-146602380D01*
X81930952Y-147602380D01*
X82740476Y-147078571D02*
X82407142Y-147078571D01*
X82407142Y-147602380D02*
X82407142Y-146602380D01*
X82883333Y-146602380D01*
X84597619Y-147507142D02*
X84549999Y-147554761D01*
X84407142Y-147602380D01*
X84311904Y-147602380D01*
X84169047Y-147554761D01*
X84073809Y-147459523D01*
X84026190Y-147364285D01*
X83978571Y-147173809D01*
X83978571Y-147030952D01*
X84026190Y-146840476D01*
X84073809Y-146745238D01*
X84169047Y-146650000D01*
X84311904Y-146602380D01*
X84407142Y-146602380D01*
X84549999Y-146650000D01*
X84597619Y-146697619D01*
X85169047Y-147602380D02*
X85073809Y-147554761D01*
X85026190Y-147507142D01*
X84978571Y-147411904D01*
X84978571Y-147126190D01*
X85026190Y-147030952D01*
X85073809Y-146983333D01*
X85169047Y-146935714D01*
X85311904Y-146935714D01*
X85407142Y-146983333D01*
X85454761Y-147030952D01*
X85502380Y-147126190D01*
X85502380Y-147411904D01*
X85454761Y-147507142D01*
X85407142Y-147554761D01*
X85311904Y-147602380D01*
X85169047Y-147602380D01*
X85930952Y-146935714D02*
X85930952Y-147602380D01*
X85930952Y-147030952D02*
X85978571Y-146983333D01*
X86073809Y-146935714D01*
X86216666Y-146935714D01*
X86311904Y-146983333D01*
X86359523Y-147078571D01*
X86359523Y-147602380D01*
X86740476Y-146935714D02*
X86978571Y-147602380D01*
X87216666Y-146935714D01*
X87978571Y-147554761D02*
X87883333Y-147602380D01*
X87692857Y-147602380D01*
X87597619Y-147554761D01*
X87549999Y-147459523D01*
X87549999Y-147078571D01*
X87597619Y-146983333D01*
X87692857Y-146935714D01*
X87883333Y-146935714D01*
X87978571Y-146983333D01*
X88026190Y-147078571D01*
X88026190Y-147173809D01*
X87549999Y-147269047D01*
X88454761Y-147602380D02*
X88454761Y-146935714D01*
X88454761Y-147126190D02*
X88502380Y-147030952D01*
X88549999Y-146983333D01*
X88645238Y-146935714D01*
X88740476Y-146935714D01*
X88930952Y-146935714D02*
X89311904Y-146935714D01*
X89073809Y-146602380D02*
X89073809Y-147459523D01*
X89121428Y-147554761D01*
X89216666Y-147602380D01*
X89311904Y-147602380D01*
X90026190Y-147554761D02*
X89930952Y-147602380D01*
X89740476Y-147602380D01*
X89645238Y-147554761D01*
X89597619Y-147459523D01*
X89597619Y-147078571D01*
X89645238Y-146983333D01*
X89740476Y-146935714D01*
X89930952Y-146935714D01*
X90026190Y-146983333D01*
X90073809Y-147078571D01*
X90073809Y-147173809D01*
X89597619Y-147269047D01*
X90502380Y-147602380D02*
X90502380Y-146935714D01*
X90502380Y-147126190D02*
X90550000Y-147030952D01*
X90597619Y-146983333D01*
X90692857Y-146935714D01*
X90788095Y-146935714D01*
X91883333Y-147602380D02*
X91883333Y-146602380D01*
X92311904Y-147554761D02*
X92407142Y-147602380D01*
X92597619Y-147602380D01*
X92692857Y-147554761D01*
X92740476Y-147459523D01*
X92740476Y-147411904D01*
X92692857Y-147316666D01*
X92597619Y-147269047D01*
X92454761Y-147269047D01*
X92359523Y-147221428D01*
X92311904Y-147126190D01*
X92311904Y-147078571D01*
X92359523Y-146983333D01*
X92454761Y-146935714D01*
X92597619Y-146935714D01*
X92692857Y-146983333D01*
X93121428Y-147554761D02*
X93216666Y-147602380D01*
X93407142Y-147602380D01*
X93502380Y-147554761D01*
X93550000Y-147459523D01*
X93550000Y-147411904D01*
X93502380Y-147316666D01*
X93407142Y-147269047D01*
X93264285Y-147269047D01*
X93169047Y-147221428D01*
X93121428Y-147126190D01*
X93121428Y-147078571D01*
X93169047Y-146983333D01*
X93264285Y-146935714D01*
X93407142Y-146935714D01*
X93502380Y-146983333D01*
X94692857Y-146697619D02*
X94740476Y-146650000D01*
X94835714Y-146602380D01*
X95073809Y-146602380D01*
X95169047Y-146650000D01*
X95216666Y-146697619D01*
X95264285Y-146792857D01*
X95264285Y-146888095D01*
X95216666Y-147030952D01*
X94645238Y-147602380D01*
X95264285Y-147602380D01*
X69597619Y-149593333D02*
X69550000Y-149545714D01*
X69454761Y-149402857D01*
X69407142Y-149307619D01*
X69359523Y-149164761D01*
X69311904Y-148926666D01*
X69311904Y-148736190D01*
X69359523Y-148498095D01*
X69407142Y-148355238D01*
X69454761Y-148260000D01*
X69550000Y-148117142D01*
X69597619Y-148069523D01*
X70407142Y-149164761D02*
X70311904Y-149212380D01*
X70121428Y-149212380D01*
X70026190Y-149164761D01*
X69978571Y-149117142D01*
X69930952Y-149021904D01*
X69930952Y-148736190D01*
X69978571Y-148640952D01*
X70026190Y-148593333D01*
X70121428Y-148545714D01*
X70311904Y-148545714D01*
X70407142Y-148593333D01*
X70740476Y-149593333D02*
X70788095Y-149545714D01*
X70883333Y-149402857D01*
X70930952Y-149307619D01*
X70978571Y-149164761D01*
X71026190Y-148926666D01*
X71026190Y-148736190D01*
X70978571Y-148498095D01*
X70930952Y-148355238D01*
X70883333Y-148260000D01*
X70788095Y-148117142D01*
X70740476Y-148069523D01*
X72216666Y-148307619D02*
X72264285Y-148260000D01*
X72359523Y-148212380D01*
X72597619Y-148212380D01*
X72692857Y-148260000D01*
X72740476Y-148307619D01*
X72788095Y-148402857D01*
X72788095Y-148498095D01*
X72740476Y-148640952D01*
X72169047Y-149212380D01*
X72788095Y-149212380D01*
X73407142Y-148212380D02*
X73502380Y-148212380D01*
X73597619Y-148260000D01*
X73645238Y-148307619D01*
X73692857Y-148402857D01*
X73740476Y-148593333D01*
X73740476Y-148831428D01*
X73692857Y-149021904D01*
X73645238Y-149117142D01*
X73597619Y-149164761D01*
X73502380Y-149212380D01*
X73407142Y-149212380D01*
X73311904Y-149164761D01*
X73264285Y-149117142D01*
X73216666Y-149021904D01*
X73169047Y-148831428D01*
X73169047Y-148593333D01*
X73216666Y-148402857D01*
X73264285Y-148307619D01*
X73311904Y-148260000D01*
X73407142Y-148212380D01*
X74121428Y-148307619D02*
X74169047Y-148260000D01*
X74264285Y-148212380D01*
X74502380Y-148212380D01*
X74597619Y-148260000D01*
X74645238Y-148307619D01*
X74692857Y-148402857D01*
X74692857Y-148498095D01*
X74645238Y-148640952D01*
X74073809Y-149212380D01*
X74692857Y-149212380D01*
X75311904Y-148212380D02*
X75407142Y-148212380D01*
X75502380Y-148260000D01*
X75550000Y-148307619D01*
X75597619Y-148402857D01*
X75645238Y-148593333D01*
X75645238Y-148831428D01*
X75597619Y-149021904D01*
X75550000Y-149117142D01*
X75502380Y-149164761D01*
X75407142Y-149212380D01*
X75311904Y-149212380D01*
X75216666Y-149164761D01*
X75169047Y-149117142D01*
X75121428Y-149021904D01*
X75073809Y-148831428D01*
X75073809Y-148593333D01*
X75121428Y-148402857D01*
X75169047Y-148307619D01*
X75216666Y-148260000D01*
X75311904Y-148212380D01*
X76835714Y-149212380D02*
X76835714Y-148212380D01*
X76835714Y-148688571D02*
X77407142Y-148688571D01*
X77407142Y-149212380D02*
X77407142Y-148212380D01*
X78026190Y-149212380D02*
X77930952Y-149164761D01*
X77883333Y-149117142D01*
X77835714Y-149021904D01*
X77835714Y-148736190D01*
X77883333Y-148640952D01*
X77930952Y-148593333D01*
X78026190Y-148545714D01*
X78169047Y-148545714D01*
X78264285Y-148593333D01*
X78311904Y-148640952D01*
X78359523Y-148736190D01*
X78359523Y-149021904D01*
X78311904Y-149117142D01*
X78264285Y-149164761D01*
X78169047Y-149212380D01*
X78026190Y-149212380D01*
X78692857Y-148545714D02*
X78883333Y-149212380D01*
X79073809Y-148736190D01*
X79264285Y-149212380D01*
X79454761Y-148545714D01*
X80264285Y-149212380D02*
X80264285Y-148688571D01*
X80216666Y-148593333D01*
X80121428Y-148545714D01*
X79930952Y-148545714D01*
X79835714Y-148593333D01*
X80264285Y-149164761D02*
X80169047Y-149212380D01*
X79930952Y-149212380D01*
X79835714Y-149164761D01*
X79788095Y-149069523D01*
X79788095Y-148974285D01*
X79835714Y-148879047D01*
X79930952Y-148831428D01*
X80169047Y-148831428D01*
X80264285Y-148783809D01*
X80740476Y-149212380D02*
X80740476Y-148545714D01*
X80740476Y-148736190D02*
X80788095Y-148640952D01*
X80835714Y-148593333D01*
X80930952Y-148545714D01*
X81026190Y-148545714D01*
X81788095Y-149212380D02*
X81788095Y-148212380D01*
X81788095Y-149164761D02*
X81692857Y-149212380D01*
X81502380Y-149212380D01*
X81407142Y-149164761D01*
X81359523Y-149117142D01*
X81311904Y-149021904D01*
X81311904Y-148736190D01*
X81359523Y-148640952D01*
X81407142Y-148593333D01*
X81502380Y-148545714D01*
X81692857Y-148545714D01*
X81788095Y-148593333D01*
X83026190Y-149212380D02*
X83026190Y-148212380D01*
X83359523Y-148926666D01*
X83692857Y-148212380D01*
X83692857Y-149212380D01*
X84169047Y-149117142D02*
X84216666Y-149164761D01*
X84169047Y-149212380D01*
X84121428Y-149164761D01*
X84169047Y-149117142D01*
X84169047Y-149212380D01*
X85407142Y-149212380D02*
X85407142Y-148212380D01*
X85407142Y-148688571D02*
X85978571Y-148688571D01*
X85978571Y-149212380D02*
X85978571Y-148212380D01*
X86883333Y-149212380D02*
X86883333Y-148688571D01*
X86835714Y-148593333D01*
X86740476Y-148545714D01*
X86550000Y-148545714D01*
X86454761Y-148593333D01*
X86883333Y-149164761D02*
X86788095Y-149212380D01*
X86550000Y-149212380D01*
X86454761Y-149164761D01*
X86407142Y-149069523D01*
X86407142Y-148974285D01*
X86454761Y-148879047D01*
X86550000Y-148831428D01*
X86788095Y-148831428D01*
X86883333Y-148783809D01*
X87359523Y-149212380D02*
X87359523Y-148545714D01*
X87359523Y-148736190D02*
X87407142Y-148640952D01*
X87454761Y-148593333D01*
X87550000Y-148545714D01*
X87645238Y-148545714D01*
X87835714Y-148545714D02*
X88216666Y-148545714D01*
X87978571Y-148212380D02*
X87978571Y-149069523D01*
X88026190Y-149164761D01*
X88121428Y-149212380D01*
X88216666Y-149212380D01*
X88930952Y-149164761D02*
X88835714Y-149212380D01*
X88645238Y-149212380D01*
X88550000Y-149164761D01*
X88502380Y-149069523D01*
X88502380Y-148688571D01*
X88550000Y-148593333D01*
X88645238Y-148545714D01*
X88835714Y-148545714D01*
X88930952Y-148593333D01*
X88978571Y-148688571D01*
X88978571Y-148783809D01*
X88502380Y-148879047D01*
X90169047Y-148831428D02*
X90930952Y-148831428D01*
X92073809Y-148212380D02*
X92311904Y-149212380D01*
X92502380Y-148498095D01*
X92692857Y-149212380D01*
X92930952Y-148212380D01*
X93216666Y-148212380D02*
X93883333Y-148212380D01*
X93216666Y-149212380D01*
X93883333Y-149212380D01*
X94216666Y-148307619D02*
X94264285Y-148260000D01*
X94359523Y-148212380D01*
X94597619Y-148212380D01*
X94692857Y-148260000D01*
X94740476Y-148307619D01*
X94788095Y-148402857D01*
X94788095Y-148498095D01*
X94740476Y-148640952D01*
X94169047Y-149212380D01*
X94788095Y-149212380D01*
X95883333Y-149307619D02*
X95788095Y-149260000D01*
X95692857Y-149164761D01*
X95549999Y-149021904D01*
X95454761Y-148974285D01*
X95359523Y-148974285D01*
X95407142Y-149212380D02*
X95311904Y-149164761D01*
X95216666Y-149069523D01*
X95169047Y-148879047D01*
X95169047Y-148545714D01*
X95216666Y-148355238D01*
X95311904Y-148260000D01*
X95407142Y-148212380D01*
X95597619Y-148212380D01*
X95692857Y-148260000D01*
X95788095Y-148355238D01*
X95835714Y-148545714D01*
X95835714Y-148879047D01*
X95788095Y-149069523D01*
X95692857Y-149164761D01*
X95597619Y-149212380D01*
X95407142Y-149212380D01*
D12*
X45720000Y-116610000D03*
X45720000Y-114450000D03*
X45720000Y-112290000D03*
X45720000Y-110130000D03*
X45720000Y-107970000D03*
X45720000Y-105810000D03*
X45720000Y-103650000D03*
X45720000Y-101490000D03*
X45720000Y-99330000D03*
X45720000Y-97170000D03*
X45720000Y-95010000D03*
X45720000Y-92850000D03*
X45720000Y-90690000D03*
X45720000Y-88530000D03*
X45720000Y-86370000D03*
X45720000Y-84210000D03*
X45720000Y-82050000D03*
X45720000Y-79890000D03*
X45720000Y-77730000D03*
X45720000Y-75570000D03*
X45720000Y-73410000D03*
X45720000Y-71250000D03*
X45720000Y-69090000D03*
X45720000Y-66930000D03*
X45720000Y-64770000D03*
X41430000Y-116610000D03*
X41430000Y-114450000D03*
X41430000Y-112290000D03*
X41430000Y-110130000D03*
X41430000Y-107970000D03*
X41430000Y-105810000D03*
X41430000Y-103650000D03*
X41430000Y-101490000D03*
X41430000Y-99330000D03*
X41430000Y-97170000D03*
X41430000Y-95010000D03*
X41430000Y-92850000D03*
X41430000Y-90690000D03*
X41430000Y-88530000D03*
X41430000Y-86370000D03*
X41430000Y-84210000D03*
X41430000Y-82050000D03*
X41430000Y-79890000D03*
X41430000Y-77730000D03*
X41430000Y-75570000D03*
X41430000Y-73410000D03*
X41430000Y-71250000D03*
X41430000Y-69090000D03*
X41430000Y-66930000D03*
X41430000Y-64770000D03*
D13*
X43575000Y-128115000D03*
X43575000Y-53265000D03*
D14*
X139700000Y-72390000D03*
D15*
X139700000Y-74890000D03*
X141700000Y-74890000D03*
X141700000Y-72390000D03*
D16*
X144410000Y-67620000D03*
X144410000Y-79660000D03*
D17*
X147320000Y-83820000D03*
X149820000Y-83820000D03*
X115570000Y-81280000D03*
X118070000Y-81280000D03*
X104100000Y-38100000D03*
X101600000Y-38100000D03*
X120650000Y-104140000D03*
X123150000Y-104140000D03*
D18*
X59690000Y-69215000D03*
X54690000Y-69215000D03*
X59690000Y-74930000D03*
X54690000Y-74930000D03*
X59690000Y-142240000D03*
X54690000Y-142240000D03*
X59690000Y-135890000D03*
X54690000Y-135890000D03*
D17*
X121920000Y-80010000D03*
X124420000Y-80010000D03*
X97790000Y-119380000D03*
X97790000Y-121880000D03*
X99060000Y-62230000D03*
X99060000Y-64730000D03*
X97790000Y-127000000D03*
X97790000Y-129500000D03*
X87630000Y-101600000D03*
X85130000Y-101600000D03*
X87630000Y-36830000D03*
X85130000Y-36830000D03*
D19*
X83820000Y-142240000D03*
D20*
X76200000Y-142240000D03*
D19*
X83820000Y-135890000D03*
D20*
X76200000Y-135890000D03*
D21*
X113030000Y-119380000D03*
D22*
X113030000Y-111760000D03*
D14*
X107950000Y-81280000D03*
D23*
X105410000Y-81280000D03*
X102870000Y-81280000D03*
X100330000Y-81280000D03*
X97790000Y-81280000D03*
X95250000Y-81280000D03*
D17*
X96520000Y-41910000D03*
D22*
X104140000Y-41910000D03*
D17*
X72390000Y-142240000D03*
D22*
X64770000Y-142240000D03*
D17*
X72390000Y-135890000D03*
D22*
X64770000Y-135890000D03*
D17*
X95250000Y-135890000D03*
D22*
X87630000Y-135890000D03*
D17*
X97790000Y-142240000D03*
D22*
X105410000Y-142240000D03*
D17*
X105410000Y-135890000D03*
D22*
X97790000Y-135890000D03*
D17*
X109220000Y-142240000D03*
D22*
X116840000Y-142240000D03*
D17*
X102870000Y-111760000D03*
D22*
X102870000Y-119380000D03*
D17*
X107950000Y-111760000D03*
D22*
X107950000Y-119380000D03*
D17*
X67310000Y-34290000D03*
D22*
X74930000Y-34290000D03*
D17*
X67310000Y-39370000D03*
D22*
X74930000Y-39370000D03*
D17*
X67310000Y-46990000D03*
D22*
X74930000Y-46990000D03*
D17*
X67691000Y-52070000D03*
D22*
X75311000Y-52070000D03*
D17*
X67691000Y-64770000D03*
D22*
X75311000Y-64770000D03*
D17*
X67310000Y-100965000D03*
D22*
X74930000Y-100965000D03*
D17*
X67310000Y-106045000D03*
D22*
X74930000Y-106045000D03*
D17*
X67310000Y-111760000D03*
D22*
X74930000Y-111760000D03*
D17*
X67310000Y-116840000D03*
D22*
X74930000Y-116840000D03*
D17*
X67310000Y-124015500D03*
D22*
X74930000Y-124015500D03*
D17*
X67310000Y-129540000D03*
D22*
X74930000Y-129540000D03*
D18*
X107950000Y-35156000D03*
X107950000Y-41656000D03*
X112450000Y-41656000D03*
X112450000Y-35156000D03*
D21*
X95250000Y-100330000D03*
D22*
X97790000Y-100330000D03*
X100330000Y-100330000D03*
X102870000Y-100330000D03*
X105410000Y-100330000D03*
X107950000Y-100330000D03*
X110490000Y-100330000D03*
X113030000Y-100330000D03*
X115570000Y-100330000D03*
X118110000Y-100330000D03*
X120650000Y-100330000D03*
X123190000Y-100330000D03*
X125730000Y-100330000D03*
X128270000Y-100330000D03*
X130810000Y-100330000D03*
X133350000Y-100330000D03*
X135890000Y-100330000D03*
X138430000Y-100330000D03*
X140970000Y-100330000D03*
X143510000Y-100330000D03*
X143510000Y-85090000D03*
X140970000Y-85090000D03*
X138430000Y-85090000D03*
X135890000Y-85090000D03*
X133350000Y-85090000D03*
X130810000Y-85090000D03*
X128270000Y-85090000D03*
X125730000Y-85090000D03*
X123190000Y-85090000D03*
X120650000Y-85090000D03*
X118110000Y-85090000D03*
X115570000Y-85090000D03*
X113030000Y-85090000D03*
X110490000Y-85090000D03*
X107950000Y-85090000D03*
X105410000Y-85090000D03*
X102870000Y-85090000D03*
X100330000Y-85090000D03*
X97790000Y-85090000D03*
X95250000Y-85090000D03*
D21*
X104140000Y-67310000D03*
D22*
X106680000Y-67310000D03*
X109220000Y-67310000D03*
X111760000Y-67310000D03*
X114300000Y-67310000D03*
X116840000Y-67310000D03*
X119380000Y-67310000D03*
X121920000Y-67310000D03*
X124460000Y-67310000D03*
X124460000Y-59690000D03*
X121920000Y-59690000D03*
X119380000Y-59690000D03*
X116840000Y-59690000D03*
X114300000Y-59690000D03*
X111760000Y-59690000D03*
X109220000Y-59690000D03*
X106680000Y-59690000D03*
X104140000Y-59690000D03*
D21*
X102870000Y-132080000D03*
D22*
X105410000Y-132080000D03*
X107950000Y-132080000D03*
X110490000Y-132080000D03*
X113030000Y-132080000D03*
X115570000Y-132080000D03*
X118110000Y-132080000D03*
X120650000Y-132080000D03*
X123190000Y-132080000D03*
X123190000Y-124460000D03*
X120650000Y-124460000D03*
X118110000Y-124460000D03*
X115570000Y-124460000D03*
X113030000Y-124460000D03*
X110490000Y-124460000D03*
X107950000Y-124460000D03*
X105410000Y-124460000D03*
X102870000Y-124460000D03*
D21*
X82550000Y-41910000D03*
D22*
X82550000Y-44450000D03*
X82550000Y-46990000D03*
X82550000Y-49530000D03*
X82550000Y-52070000D03*
X82550000Y-54610000D03*
X82550000Y-57150000D03*
X82550000Y-59690000D03*
X90170000Y-59690000D03*
X90170000Y-57150000D03*
X90170000Y-54610000D03*
X90170000Y-52070000D03*
X90170000Y-49530000D03*
X90170000Y-46990000D03*
X90170000Y-44450000D03*
X90170000Y-41910000D03*
D21*
X82550000Y-106680000D03*
D22*
X82550000Y-109220000D03*
X82550000Y-111760000D03*
X82550000Y-114300000D03*
X82550000Y-116840000D03*
X82550000Y-119380000D03*
X82550000Y-121920000D03*
X82550000Y-124460000D03*
X90170000Y-124460000D03*
X90170000Y-121920000D03*
X90170000Y-119380000D03*
X90170000Y-116840000D03*
X90170000Y-114300000D03*
X90170000Y-111760000D03*
X90170000Y-109220000D03*
X90170000Y-106680000D03*
D21*
X54610000Y-31750000D03*
D22*
X54610000Y-34290000D03*
X54610000Y-36830000D03*
X54610000Y-39370000D03*
X62230000Y-39370000D03*
X62230000Y-36830000D03*
X62230000Y-34290000D03*
X62230000Y-31750000D03*
D21*
X54610000Y-44450000D03*
D22*
X54610000Y-46990000D03*
X54610000Y-49530000D03*
X54610000Y-52070000D03*
X62230000Y-52070000D03*
X62230000Y-49530000D03*
X62230000Y-46990000D03*
X62230000Y-44450000D03*
D21*
X54610000Y-56896000D03*
D22*
X54610000Y-59436000D03*
X54610000Y-61976000D03*
X54610000Y-64516000D03*
X62230000Y-64516000D03*
X62230000Y-61976000D03*
X62230000Y-59436000D03*
X62230000Y-56896000D03*
D21*
X54610000Y-96520000D03*
D22*
X54610000Y-99060000D03*
X54610000Y-101600000D03*
X54610000Y-104140000D03*
X62230000Y-104140000D03*
X62230000Y-101600000D03*
X62230000Y-99060000D03*
X62230000Y-96520000D03*
D21*
X54610000Y-109220000D03*
D22*
X54610000Y-111760000D03*
X54610000Y-114300000D03*
X54610000Y-116840000D03*
X62230000Y-116840000D03*
X62230000Y-114300000D03*
X62230000Y-111760000D03*
X62230000Y-109220000D03*
D21*
X54610000Y-121920000D03*
D22*
X54610000Y-124460000D03*
X54610000Y-127000000D03*
X54610000Y-129540000D03*
X62230000Y-129540000D03*
X62230000Y-127000000D03*
X62230000Y-124460000D03*
X62230000Y-121920000D03*
D17*
X95250000Y-142240000D03*
D22*
X87630000Y-142240000D03*
D12*
X120650000Y-73660000D03*
X125530000Y-73660000D03*
D17*
X118745000Y-54610000D03*
D22*
X118745000Y-46990000D03*
D17*
X109220000Y-46990000D03*
D22*
X109220000Y-54610000D03*
D17*
X104140000Y-46990000D03*
D22*
X104140000Y-54610000D03*
D17*
X95250000Y-71120000D03*
D22*
X87630000Y-71120000D03*
D17*
X106680000Y-77470000D03*
D22*
X99060000Y-77470000D03*
D17*
X72390000Y-74930000D03*
D22*
X64770000Y-74930000D03*
D17*
X72390000Y-69215000D03*
D22*
X64770000Y-69215000D03*
D19*
X83820000Y-78740000D03*
D20*
X76200000Y-78740000D03*
D19*
X83820000Y-71120000D03*
D20*
X76200000Y-71120000D03*
D21*
X114300000Y-54610000D03*
D22*
X114300000Y-46990000D03*
D17*
X95250000Y-77470000D03*
D22*
X87630000Y-77470000D03*
D17*
X99060000Y-54610000D03*
X99060000Y-57110000D03*
X99060000Y-71120000D03*
D22*
X106680000Y-71120000D03*
D17*
X67691000Y-59690000D03*
D22*
X75311000Y-59690000D03*
D17*
X124460000Y-142240000D03*
D22*
X132080000Y-142240000D03*
D17*
X124460000Y-137160000D03*
D22*
X132080000Y-137160000D03*
D17*
X130810000Y-132080000D03*
D22*
X130810000Y-124460000D03*
D17*
X135890000Y-132080000D03*
D22*
X135890000Y-124460000D03*
D21*
X119380000Y-111760000D03*
D22*
X119380000Y-114300000D03*
X119380000Y-116840000D03*
X127000000Y-116840000D03*
X127000000Y-114300000D03*
X127000000Y-111760000D03*
D21*
X132080000Y-111760000D03*
D22*
X132080000Y-114300000D03*
X132080000Y-116840000D03*
X139700000Y-116840000D03*
X139700000Y-114300000D03*
X139700000Y-111760000D03*
D24*
X144780000Y-123190000D03*
D25*
X144780000Y-125730000D03*
D24*
X144780000Y-113030000D03*
D25*
X144780000Y-115570000D03*
D21*
X81280000Y-88900000D03*
D17*
X81280000Y-86400000D03*
X88900000Y-88900000D03*
X88900000Y-86400000D03*
D26*
X55880000Y-86360000D03*
D27*
X58420000Y-86360000D03*
X60960000Y-86360000D03*
X66040000Y-86360000D03*
X68580000Y-86360000D03*
X71120000Y-86360000D03*
X73660000Y-86360000D03*
D24*
X144780000Y-133350000D03*
D25*
X144780000Y-135890000D03*
D17*
X132080000Y-147320000D03*
D22*
X124460000Y-147320000D03*
D17*
X135890000Y-104140000D03*
X138390000Y-104140000D03*
D28*
X143660000Y-32410000D03*
X143660000Y-57410000D03*
D21*
X142240000Y-39370000D03*
D17*
X142240000Y-42140000D03*
X142240000Y-44910000D03*
X142240000Y-47680000D03*
X142240000Y-50450000D03*
X145080000Y-40755000D03*
X145080000Y-43525000D03*
X145080000Y-46295000D03*
X145080000Y-49065000D03*
D21*
X125730000Y-36830000D03*
D22*
X125730000Y-39370000D03*
X125730000Y-41910000D03*
X125730000Y-44450000D03*
X125730000Y-46990000D03*
X125730000Y-49530000D03*
X125730000Y-52070000D03*
X125730000Y-54610000D03*
X133350000Y-54610000D03*
X133350000Y-52070000D03*
X133350000Y-49530000D03*
X133350000Y-46990000D03*
X133350000Y-44450000D03*
X133350000Y-41910000D03*
X133350000Y-39370000D03*
X133350000Y-36830000D03*
D17*
X132080000Y-64770000D03*
X132080000Y-59770000D03*
X137160000Y-36830000D03*
X137160000Y-39330000D03*
X121920000Y-39370000D03*
X121920000Y-41870000D03*
X126365000Y-32385000D03*
X123865000Y-32385000D03*
X121920000Y-49530000D03*
X121920000Y-52030000D03*
X137160000Y-33655000D03*
X132160000Y-33655000D03*
D14*
X134620000Y-72390000D03*
D23*
X132080000Y-72390000D03*
D17*
X135382000Y-67310000D03*
D22*
X135382000Y-59690000D03*
D17*
X137160000Y-30480000D03*
D22*
X129540000Y-30480000D03*
D17*
X121920000Y-44450000D03*
X121920000Y-46950000D03*
X65405000Y-94615000D03*
D22*
X78105000Y-94615000D03*
D17*
X63500000Y-80010000D03*
D22*
X50800000Y-80010000D03*
D17*
X106680000Y-74295000D03*
D22*
X99060000Y-74295000D03*
D17*
X105410000Y-139065000D03*
D22*
X97790000Y-139065000D03*
D14*
X149860000Y-87630000D03*
D23*
X149860000Y-90170000D03*
X149860000Y-92710000D03*
X149860000Y-95250000D03*
X149860000Y-97790000D03*
X149860000Y-100330000D03*
X149860000Y-102870000D03*
X149860000Y-105410000D03*
X149860000Y-107950000D03*
X149860000Y-110490000D03*
X149860000Y-113030000D03*
X149860000Y-115570000D03*
X149860000Y-118110000D03*
X149860000Y-120650000D03*
X149860000Y-123190000D03*
D29*
X40640000Y-34290000D03*
X40640000Y-146050000D03*
X144780000Y-146050000D03*
X118110000Y-34290000D03*
D30*
X95250000Y-106680000D03*
X134620000Y-80010000D03*
D31*
X111760000Y-95250000D03*
D30*
X92710000Y-57150000D03*
D31*
X88900000Y-96520000D03*
D30*
X123190000Y-92710000D03*
X71120000Y-129540000D03*
X71120000Y-125730000D03*
D31*
X58420000Y-116840000D03*
D32*
X52070000Y-127522932D02*
X52070000Y-124460000D01*
X82550000Y-59690000D02*
X84136791Y-58103209D01*
X135890000Y-104140000D02*
X135890000Y-113030000D01*
X54610000Y-111760000D02*
X52070000Y-111760000D01*
X52070000Y-39370000D02*
X52070000Y-36830000D01*
D33*
X55308500Y-116840000D02*
X52070000Y-116840000D01*
D32*
X54610000Y-52070000D02*
X52070000Y-52070000D01*
X52070000Y-116840000D02*
X52070000Y-104140000D01*
X54610000Y-116840000D02*
X52070000Y-116840000D01*
X139700000Y-130170000D02*
X139700000Y-117971370D01*
X52070000Y-59690000D02*
X52070000Y-46990000D01*
X52070000Y-46990000D02*
X52070000Y-39370000D01*
X54610000Y-124460000D02*
X52070000Y-124460000D01*
X129540000Y-119380000D02*
X137160000Y-119380000D01*
X54610000Y-64516000D02*
X52324000Y-64516000D01*
D33*
X55245000Y-124460000D02*
X52070000Y-124460000D01*
D32*
X52070000Y-52070000D02*
X52070000Y-57216002D01*
X84136791Y-37823209D02*
X85130000Y-36830000D01*
X85130000Y-101600000D02*
X85130000Y-121880000D01*
X54610000Y-46990000D02*
X52070000Y-46990000D01*
X135890000Y-113030000D02*
X139700000Y-116840000D01*
X52070000Y-124460000D02*
X52070000Y-116840000D01*
X54610000Y-39370000D02*
X52070000Y-39370000D01*
X54087068Y-129540000D02*
X52070000Y-127522932D01*
X52070000Y-99060000D02*
X52070000Y-104140000D01*
X84136791Y-58103209D02*
X84136791Y-37823209D01*
X52070000Y-64262000D02*
X52070000Y-59690000D01*
X52324000Y-59436000D02*
X52070000Y-59690000D01*
D33*
X52070000Y-113601500D02*
X52070000Y-111760000D01*
D32*
X85130000Y-121880000D02*
X82550000Y-124460000D01*
X52070000Y-36830000D02*
X53810001Y-35089999D01*
X54610000Y-59436000D02*
X52324000Y-59436000D01*
X142880000Y-133350000D02*
X139700000Y-130170000D01*
X137160000Y-119380000D02*
X139700000Y-116840000D01*
X55245000Y-104140000D02*
X52070000Y-104140000D01*
X52324000Y-64516000D02*
X52070000Y-64262000D01*
X54610000Y-99060000D02*
X52070000Y-99060000D01*
X53810001Y-35089999D02*
X54610000Y-34290000D01*
X144780000Y-133350000D02*
X142880000Y-133350000D01*
X139700000Y-117971370D02*
X139700000Y-116840000D01*
X127000000Y-116840000D02*
X129540000Y-119380000D01*
X149860000Y-90170000D02*
X148657919Y-90170000D01*
X104140000Y-59690000D02*
X101600000Y-62230000D01*
X140970000Y-82550000D02*
X146050000Y-82550000D01*
X101600000Y-62230000D02*
X101600000Y-77470000D01*
X95250000Y-106680000D02*
X95250000Y-119340000D01*
X138430000Y-80010000D02*
X140970000Y-82550000D01*
X146050000Y-82550000D02*
X147320000Y-83820000D01*
X147320000Y-84951370D02*
X147320000Y-83820000D01*
X147320000Y-88832081D02*
X147320000Y-84951370D01*
X148657919Y-90170000D02*
X147320000Y-88832081D01*
X101600000Y-77470000D02*
X105410000Y-81280000D01*
X95250000Y-119340000D02*
X97790000Y-121880000D01*
X138430000Y-80010000D02*
X134620000Y-80010000D01*
D33*
X107950000Y-82630000D02*
X107950000Y-81280000D01*
X105426799Y-66023201D02*
X107950000Y-63500000D01*
X106680000Y-83900000D02*
X107950000Y-82630000D01*
X107950000Y-81280000D02*
X104140000Y-77470000D01*
X106680000Y-83900000D02*
X106680000Y-87600000D01*
X104140000Y-69850000D02*
X105426799Y-68563201D01*
X95250000Y-99030000D02*
X106680000Y-87600000D01*
X107950000Y-63500000D02*
X107950000Y-41656000D01*
X105426799Y-68563201D02*
X105426799Y-66023201D01*
X107950000Y-41656000D02*
X107950000Y-35156000D01*
X104140000Y-77470000D02*
X104140000Y-69850000D01*
X95250000Y-100330000D02*
X95250000Y-99030000D01*
X124460000Y-81181370D02*
X124420000Y-81141370D01*
X121920000Y-128270000D02*
X121920000Y-107950000D01*
X124420000Y-81141370D02*
X124420000Y-80010000D01*
X124460000Y-105410000D02*
X124460000Y-81181370D01*
X118110000Y-132080000D02*
X121920000Y-128270000D01*
X121920000Y-107950000D02*
X124460000Y-105410000D01*
D32*
X109220000Y-115570000D02*
X104140000Y-115570000D01*
X104140000Y-115570000D02*
X102870000Y-114300000D01*
X113030000Y-119380000D02*
X109220000Y-115570000D01*
X102870000Y-114300000D02*
X102870000Y-111760000D01*
X107950000Y-111760000D02*
X113030000Y-111760000D01*
D33*
X151163201Y-134586799D02*
X151163201Y-34323201D01*
X129556799Y-113046799D02*
X125713201Y-113046799D01*
D32*
X64770000Y-34290000D02*
X64770000Y-39370000D01*
D33*
X132080000Y-114300000D02*
X130810000Y-114300000D01*
D32*
X64770000Y-59690000D02*
X64770000Y-64770000D01*
X62230000Y-39370000D02*
X64770000Y-39370000D01*
X62230000Y-34290000D02*
X64770000Y-34290000D01*
X62230000Y-46990000D02*
X64770000Y-46990000D01*
D33*
X134620000Y-128270000D02*
X143593201Y-137243201D01*
D32*
X62230000Y-52070000D02*
X64770000Y-52070000D01*
X64516000Y-59436000D02*
X64770000Y-59690000D01*
X62230000Y-59436000D02*
X64516000Y-59436000D01*
D33*
X148506799Y-137243201D02*
X151163201Y-134586799D01*
D32*
X64516000Y-64516000D02*
X62230000Y-64516000D01*
D33*
X144780000Y-27940000D02*
X71120000Y-27940000D01*
D32*
X64770000Y-52070000D02*
X64770000Y-49530000D01*
D33*
X129540000Y-128270000D02*
X134620000Y-128270000D01*
X151163201Y-34323201D02*
X144780000Y-27940000D01*
D32*
X64770000Y-39370000D02*
X64770000Y-46990000D01*
D33*
X143593201Y-137243201D02*
X148506799Y-137243201D01*
X125713201Y-113046799D02*
X124460000Y-114300000D01*
D32*
X64770000Y-46990000D02*
X64770000Y-59690000D01*
D33*
X124460000Y-114300000D02*
X124460000Y-123190000D01*
X130810000Y-114300000D02*
X129556799Y-113046799D01*
X124460000Y-123190000D02*
X129540000Y-128270000D01*
D32*
X64770000Y-64770000D02*
X64516000Y-64516000D01*
X64770000Y-49530000D02*
X64770000Y-46990000D01*
D33*
X71120000Y-27940000D02*
X64770000Y-34290000D01*
D32*
X64770000Y-101600000D02*
X64770000Y-99060000D01*
D33*
X62865000Y-124460000D02*
X64770000Y-124460000D01*
X64770000Y-111760000D02*
X64770000Y-127000000D01*
D32*
X62230000Y-111760000D02*
X64770000Y-111760000D01*
X64770000Y-129540000D02*
X64770000Y-101600000D01*
X62230000Y-129540000D02*
X64770000Y-129540000D01*
D33*
X64770000Y-104140000D02*
X64770000Y-111760000D01*
D32*
X62230000Y-124460000D02*
X64770000Y-124460000D01*
D33*
X115570000Y-121920000D02*
X100330000Y-121920000D01*
D32*
X62230000Y-99060000D02*
X64770000Y-99060000D01*
X62230000Y-116840000D02*
X64770000Y-116840000D01*
D33*
X95250000Y-127000000D02*
X64770000Y-127000000D01*
X119380000Y-114300000D02*
X116840000Y-116840000D01*
X62928500Y-111760000D02*
X64770000Y-111760000D01*
D32*
X62230000Y-104140000D02*
X64770000Y-104140000D01*
D33*
X62928500Y-116840000D02*
X64770000Y-116840000D01*
X64770000Y-99060000D02*
X64770000Y-104140000D01*
X62865000Y-104140000D02*
X64770000Y-104140000D01*
X64770000Y-127000000D02*
X64770000Y-127635000D01*
X116840000Y-120650000D02*
X115570000Y-121920000D01*
X116840000Y-116840000D02*
X116840000Y-120650000D01*
X64770000Y-111760000D02*
X64770000Y-124460000D01*
X100330000Y-121920000D02*
X95250000Y-127000000D01*
X64770000Y-124460000D02*
X64770000Y-127000000D01*
X62865000Y-99060000D02*
X64770000Y-99060000D01*
D34*
X99060000Y-80010000D02*
X100330000Y-81280000D01*
X95250000Y-83820000D02*
X96586799Y-82483201D01*
X96586799Y-80702463D02*
X97279262Y-80010000D01*
X96586799Y-82483201D02*
X96586799Y-80702463D01*
X97279262Y-80010000D02*
X99060000Y-80010000D01*
X95250000Y-85090000D02*
X95250000Y-83820000D01*
D33*
X97790000Y-81280000D02*
X97790000Y-85090000D01*
X114300000Y-61540002D02*
X115570000Y-60270002D01*
X115570000Y-60270002D02*
X115570000Y-57785000D01*
X114300000Y-67310000D02*
X114300000Y-61540002D01*
X115570000Y-57785000D02*
X118745000Y-54610000D01*
X110490000Y-87630000D02*
X109220000Y-87630000D01*
X113030000Y-80010000D02*
X111760000Y-81280000D01*
X107950000Y-86360000D02*
X107950000Y-85090000D01*
X111760000Y-86360000D02*
X110490000Y-87630000D01*
X111760000Y-81280000D02*
X111760000Y-86360000D01*
X114300000Y-59690000D02*
X113030000Y-60960000D01*
X113030000Y-60960000D02*
X113030000Y-80010000D01*
X109220000Y-87630000D02*
X107950000Y-86360000D01*
X111760000Y-59690000D02*
X111760000Y-62919998D01*
X110490000Y-64189998D02*
X110490000Y-85090000D01*
X111760000Y-62919998D02*
X110490000Y-64189998D01*
X111760000Y-95250000D02*
X111760000Y-93980000D01*
X113030000Y-92710000D02*
X113030000Y-85090000D01*
X111760000Y-93980000D02*
X113030000Y-92710000D01*
X130010001Y-61759999D02*
X130810000Y-60960000D01*
X130810000Y-85090000D02*
X130010001Y-84290001D01*
X130810000Y-48398630D02*
X130810000Y-60960000D01*
X133350000Y-46990000D02*
X132218630Y-46990000D01*
X130010001Y-84290001D02*
X130010001Y-61759999D01*
X132218630Y-46990000D02*
X130810000Y-48398630D01*
X135923201Y-77358756D02*
X133350000Y-79931957D01*
X134128799Y-59088463D02*
X134128799Y-69383037D01*
X136525000Y-50800000D02*
X136525000Y-57785000D01*
X133350000Y-49530000D02*
X135255000Y-49530000D01*
X134128799Y-69383037D02*
X135923201Y-71177439D01*
X135255000Y-49530000D02*
X136525000Y-50800000D01*
X136525000Y-57785000D02*
X135432262Y-57785000D01*
X133350000Y-79931957D02*
X133350000Y-85090000D01*
X135923201Y-71177439D02*
X135923201Y-77358756D01*
X135432262Y-57785000D02*
X134128799Y-59088463D01*
X114300000Y-86360000D02*
X114300000Y-80010000D01*
X115550001Y-67914737D02*
X115550001Y-78759999D01*
X115550001Y-66705263D02*
X115553201Y-66708463D01*
X115553201Y-67911537D02*
X115550001Y-67914737D01*
X116840000Y-60821370D02*
X115550001Y-62111369D01*
X115553201Y-66708463D02*
X115553201Y-67911537D01*
X115550001Y-62111369D02*
X115550001Y-66705263D01*
X114300000Y-86360000D02*
X115570000Y-87630000D01*
X115570000Y-87630000D02*
X119380000Y-87630000D01*
X115550001Y-78759999D02*
X114300000Y-80010000D01*
X116840000Y-59690000D02*
X116840000Y-60821370D01*
X119380000Y-87630000D02*
X120650000Y-86360000D01*
X120650000Y-86360000D02*
X120650000Y-85090000D01*
X119380000Y-59690000D02*
X118129999Y-60940001D01*
X123190000Y-83820000D02*
X123190000Y-85090000D01*
X118126799Y-67911537D02*
X118129999Y-67914737D01*
X117409989Y-72100046D02*
X117409989Y-77999991D01*
X118129999Y-71380036D02*
X117409989Y-72100046D01*
X117409989Y-77999991D02*
X118129999Y-78720001D01*
X118126799Y-66708463D02*
X118126799Y-67911537D01*
X118129999Y-60940001D02*
X118129999Y-66705263D01*
X118129999Y-66705263D02*
X118126799Y-66708463D01*
X118129999Y-67914737D02*
X118129999Y-71380036D01*
X118129999Y-78720001D02*
X118129999Y-78759999D01*
X118129999Y-78759999D02*
X123190000Y-83820000D01*
X128270000Y-80010000D02*
X125730000Y-82550000D01*
X128270000Y-67310000D02*
X128270000Y-80010000D01*
X121920000Y-60960000D02*
X128270000Y-67310000D01*
X125730000Y-82550000D02*
X125730000Y-85090000D01*
X121920000Y-59690000D02*
X121920000Y-60960000D01*
X93946799Y-102903201D02*
X93946799Y-118143201D01*
X92710000Y-57150000D02*
X92710000Y-101666402D01*
X90170000Y-121920000D02*
X93946799Y-118143201D01*
X92710000Y-101666402D02*
X93946799Y-102903201D01*
X86376799Y-53323201D02*
X86376799Y-93996799D01*
X86376799Y-93996799D02*
X88900000Y-96520000D01*
X90170000Y-49530000D02*
X86376799Y-53323201D01*
X87528315Y-99593315D02*
X85673588Y-97738588D01*
X90170000Y-46990000D02*
X88900000Y-46990000D01*
X88900000Y-46990000D02*
X85673577Y-50216424D01*
X88883201Y-100998463D02*
X88883201Y-102886799D01*
X87528315Y-99643577D02*
X88883201Y-100998463D01*
X88883201Y-102886799D02*
X86360000Y-105410000D01*
X86360000Y-123190000D02*
X87630000Y-124460000D01*
X85673588Y-97738588D02*
X85673588Y-50216412D01*
X87528315Y-99643577D02*
X87528315Y-99593315D01*
X87630000Y-124460000D02*
X90170000Y-124460000D01*
X86360000Y-105410000D02*
X86360000Y-123190000D01*
D32*
X143312000Y-67620000D02*
X143902000Y-67620000D01*
X135382000Y-59690000D02*
X143312000Y-67620000D01*
X143902000Y-67620000D02*
X143902000Y-79660000D01*
X43575000Y-105015000D02*
X44940000Y-103650000D01*
X33748210Y-63091790D02*
X43575000Y-53265000D01*
X52070000Y-94615000D02*
X65405000Y-94615000D01*
X49530000Y-101600000D02*
X47480000Y-103650000D01*
X49530000Y-97155000D02*
X52070000Y-94615000D01*
X43575000Y-128115000D02*
X43575000Y-105015000D01*
X44940000Y-103650000D02*
X45720000Y-103650000D01*
X47480000Y-103650000D02*
X45720000Y-103650000D01*
X33748210Y-118288210D02*
X33748210Y-63091790D01*
X49530000Y-101600000D02*
X49530000Y-97155000D01*
X43575000Y-128115000D02*
X33748210Y-118288210D01*
X50800000Y-80010000D02*
X50800000Y-63500000D01*
X38880000Y-103650000D02*
X41430000Y-103650000D01*
X50800000Y-63500000D02*
X48260000Y-60960000D01*
X35560000Y-100330000D02*
X38880000Y-103650000D01*
X48260000Y-60960000D02*
X39370000Y-60960000D01*
X39370000Y-60960000D02*
X35560000Y-64770000D01*
X35560000Y-64770000D02*
X35560000Y-100330000D01*
D33*
X91559622Y-85215904D02*
X91440000Y-85096282D01*
X91440000Y-85096282D02*
X91440000Y-55880000D01*
X90170000Y-119380000D02*
X91559622Y-117990378D01*
X91440000Y-102870000D02*
X91559622Y-85215904D01*
X91559622Y-117990378D02*
X91440000Y-102870000D01*
X90170000Y-54610000D02*
X91440000Y-55880000D01*
X88900000Y-60274738D02*
X90170000Y-61544738D01*
X88900000Y-53340000D02*
X88900000Y-60274738D01*
X87630000Y-105410000D02*
X87630000Y-114300000D01*
X90170000Y-102870000D02*
X87630000Y-105410000D01*
X90170000Y-52070000D02*
X88900000Y-53340000D01*
X87630000Y-114300000D02*
X90170000Y-116840000D01*
X90170000Y-61544738D02*
X90170000Y-102870000D01*
X119964738Y-102870000D02*
X121936799Y-100897939D01*
X93996799Y-101492561D02*
X95374238Y-102870000D01*
X95374238Y-102870000D02*
X119964738Y-102870000D01*
X100330000Y-85090000D02*
X93996799Y-91423201D01*
X93996799Y-91423201D02*
X93996799Y-101492561D01*
X121936799Y-100897939D02*
X121936799Y-93963201D01*
X121936799Y-93963201D02*
X123190000Y-92710000D01*
X130810000Y-93980000D02*
X128270000Y-91440000D01*
X149860000Y-100330000D02*
X147320000Y-100330000D01*
X140970000Y-93980000D02*
X130810000Y-93980000D01*
X147320000Y-100330000D02*
X140970000Y-93980000D01*
X128270000Y-91440000D02*
X128270000Y-85090000D01*
X147320000Y-97790000D02*
X140970000Y-91440000D01*
X140970000Y-91440000D02*
X140970000Y-85090000D01*
X149860000Y-97790000D02*
X147320000Y-97790000D01*
X149860000Y-95250000D02*
X143510000Y-88900000D01*
X143510000Y-88900000D02*
X143510000Y-85090000D01*
X128270000Y-142240000D02*
X125730000Y-144780000D01*
X72390000Y-144780000D02*
X71120000Y-143510000D01*
X67961799Y-93361799D02*
X71120000Y-96520000D01*
X125730000Y-144780000D02*
X72390000Y-144780000D01*
X59071799Y-93361799D02*
X67961799Y-93361799D01*
X130810000Y-132080000D02*
X128270000Y-134620000D01*
X128270000Y-134620000D02*
X128270000Y-142240000D01*
X55880000Y-90170000D02*
X59071799Y-93361799D01*
X71120000Y-96520000D02*
X71120000Y-125730000D01*
X55880000Y-86360000D02*
X55880000Y-90170000D01*
X71120000Y-143510000D02*
X71120000Y-129540000D01*
D32*
X78105000Y-94615000D02*
X76973630Y-94615000D01*
X76973630Y-94615000D02*
X74433630Y-92075000D01*
X61635000Y-92075000D02*
X58420000Y-88860000D01*
X58420000Y-88860000D02*
X58420000Y-86360000D01*
X74433630Y-92075000D02*
X61635000Y-92075000D01*
D33*
X59690000Y-101600000D02*
X62230000Y-101600000D01*
X58420000Y-102870000D02*
X59690000Y-101600000D01*
X58420000Y-116840000D02*
X58420000Y-102870000D01*
D32*
X109220000Y-71755000D02*
X106680000Y-74295000D01*
X109220000Y-67310000D02*
X109220000Y-71755000D01*
X107950000Y-136525000D02*
X105410000Y-139065000D01*
X107950000Y-132080000D02*
X107950000Y-136525000D01*
M02*
