G04 #@! TF.GenerationSoftware,KiCad,Pcbnew,8.0.1*
G04 #@! TF.CreationDate,2024-04-13T23:21:52-07:00*
G04 #@! TF.ProjectId,ac125a_dtmf,61633132-3561-45f6-9474-6d662e6b6963,3*
G04 #@! TF.SameCoordinates,Original*
G04 #@! TF.FileFunction,Copper,L2,Bot*
G04 #@! TF.FilePolarity,Positive*
%FSLAX46Y46*%
G04 Gerber Fmt 4.6, Leading zero omitted, Abs format (unit mm)*
G04 Created by KiCad (PCBNEW 8.0.1) date 2024-04-13 23:21:52*
%MOMM*%
%LPD*%
G01*
G04 APERTURE LIST*
%ADD10C,0.150000*%
G04 #@! TA.AperFunction,NonConductor*
%ADD11C,0.150000*%
G04 #@! TD*
G04 #@! TA.AperFunction,ComponentPad*
%ADD12C,1.500000*%
G04 #@! TD*
G04 #@! TA.AperFunction,ComponentPad*
%ADD13C,4.800000*%
G04 #@! TD*
G04 #@! TA.AperFunction,ComponentPad*
%ADD14R,1.700000X1.700000*%
G04 #@! TD*
G04 #@! TA.AperFunction,ComponentPad*
%ADD15O,1.700000X1.700000*%
G04 #@! TD*
G04 #@! TA.AperFunction,ComponentPad*
%ADD16C,5.400000*%
G04 #@! TD*
G04 #@! TA.AperFunction,ComponentPad*
%ADD17C,1.600000*%
G04 #@! TD*
G04 #@! TA.AperFunction,ComponentPad*
%ADD18O,1.600000X1.600000*%
G04 #@! TD*
G04 #@! TA.AperFunction,ComponentPad*
%ADD19R,1.800000X1.800000*%
G04 #@! TD*
G04 #@! TA.AperFunction,ComponentPad*
%ADD20C,1.800000*%
G04 #@! TD*
G04 #@! TA.AperFunction,Conductor*
%ADD21C,0.250000*%
G04 #@! TD*
G04 #@! TA.AperFunction,Conductor*
%ADD22C,0.500000*%
G04 #@! TD*
G04 APERTURE END LIST*
D10*
D11*
X100892096Y-119045847D02*
X100701620Y-119045847D01*
X100701620Y-119045847D02*
X100606382Y-119093466D01*
X100606382Y-119093466D02*
X100511144Y-119188704D01*
X100511144Y-119188704D02*
X100463525Y-119379180D01*
X100463525Y-119379180D02*
X100463525Y-119712513D01*
X100463525Y-119712513D02*
X100511144Y-119902989D01*
X100511144Y-119902989D02*
X100606382Y-119998228D01*
X100606382Y-119998228D02*
X100701620Y-120045847D01*
X100701620Y-120045847D02*
X100892096Y-120045847D01*
X100892096Y-120045847D02*
X100987334Y-119998228D01*
X100987334Y-119998228D02*
X101082572Y-119902989D01*
X101082572Y-119902989D02*
X101130191Y-119712513D01*
X101130191Y-119712513D02*
X101130191Y-119379180D01*
X101130191Y-119379180D02*
X101082572Y-119188704D01*
X101082572Y-119188704D02*
X100987334Y-119093466D01*
X100987334Y-119093466D02*
X100892096Y-119045847D01*
X100034953Y-120045847D02*
X100034953Y-119045847D01*
X99463525Y-120045847D02*
X99892096Y-119474418D01*
X99463525Y-119045847D02*
X100034953Y-119617275D01*
X99034953Y-120045847D02*
X99034953Y-119045847D01*
X97844477Y-119760132D02*
X97368287Y-119760132D01*
X97939715Y-120045847D02*
X97606382Y-119045847D01*
X97606382Y-119045847D02*
X97273049Y-120045847D01*
X96368287Y-119950608D02*
X96415906Y-119998228D01*
X96415906Y-119998228D02*
X96558763Y-120045847D01*
X96558763Y-120045847D02*
X96654001Y-120045847D01*
X96654001Y-120045847D02*
X96796858Y-119998228D01*
X96796858Y-119998228D02*
X96892096Y-119902989D01*
X96892096Y-119902989D02*
X96939715Y-119807751D01*
X96939715Y-119807751D02*
X96987334Y-119617275D01*
X96987334Y-119617275D02*
X96987334Y-119474418D01*
X96987334Y-119474418D02*
X96939715Y-119283942D01*
X96939715Y-119283942D02*
X96892096Y-119188704D01*
X96892096Y-119188704D02*
X96796858Y-119093466D01*
X96796858Y-119093466D02*
X96654001Y-119045847D01*
X96654001Y-119045847D02*
X96558763Y-119045847D01*
X96558763Y-119045847D02*
X96415906Y-119093466D01*
X96415906Y-119093466D02*
X96368287Y-119141085D01*
X95415906Y-120045847D02*
X95987334Y-120045847D01*
X95701620Y-120045847D02*
X95701620Y-119045847D01*
X95701620Y-119045847D02*
X95796858Y-119188704D01*
X95796858Y-119188704D02*
X95892096Y-119283942D01*
X95892096Y-119283942D02*
X95987334Y-119331561D01*
X95034953Y-119141085D02*
X94987334Y-119093466D01*
X94987334Y-119093466D02*
X94892096Y-119045847D01*
X94892096Y-119045847D02*
X94654001Y-119045847D01*
X94654001Y-119045847D02*
X94558763Y-119093466D01*
X94558763Y-119093466D02*
X94511144Y-119141085D01*
X94511144Y-119141085D02*
X94463525Y-119236323D01*
X94463525Y-119236323D02*
X94463525Y-119331561D01*
X94463525Y-119331561D02*
X94511144Y-119474418D01*
X94511144Y-119474418D02*
X95082572Y-120045847D01*
X95082572Y-120045847D02*
X94463525Y-120045847D01*
X93558763Y-119045847D02*
X94034953Y-119045847D01*
X94034953Y-119045847D02*
X94082572Y-119522037D01*
X94082572Y-119522037D02*
X94034953Y-119474418D01*
X94034953Y-119474418D02*
X93939715Y-119426799D01*
X93939715Y-119426799D02*
X93701620Y-119426799D01*
X93701620Y-119426799D02*
X93606382Y-119474418D01*
X93606382Y-119474418D02*
X93558763Y-119522037D01*
X93558763Y-119522037D02*
X93511144Y-119617275D01*
X93511144Y-119617275D02*
X93511144Y-119855370D01*
X93511144Y-119855370D02*
X93558763Y-119950608D01*
X93558763Y-119950608D02*
X93606382Y-119998228D01*
X93606382Y-119998228D02*
X93701620Y-120045847D01*
X93701620Y-120045847D02*
X93939715Y-120045847D01*
X93939715Y-120045847D02*
X94034953Y-119998228D01*
X94034953Y-119998228D02*
X94082572Y-119950608D01*
X93130191Y-119760132D02*
X92654001Y-119760132D01*
X93225429Y-120045847D02*
X92892096Y-119045847D01*
X92892096Y-119045847D02*
X92558763Y-120045847D01*
X91463524Y-120045847D02*
X91463524Y-119045847D01*
X91463524Y-119045847D02*
X91225429Y-119045847D01*
X91225429Y-119045847D02*
X91082572Y-119093466D01*
X91082572Y-119093466D02*
X90987334Y-119188704D01*
X90987334Y-119188704D02*
X90939715Y-119283942D01*
X90939715Y-119283942D02*
X90892096Y-119474418D01*
X90892096Y-119474418D02*
X90892096Y-119617275D01*
X90892096Y-119617275D02*
X90939715Y-119807751D01*
X90939715Y-119807751D02*
X90987334Y-119902989D01*
X90987334Y-119902989D02*
X91082572Y-119998228D01*
X91082572Y-119998228D02*
X91225429Y-120045847D01*
X91225429Y-120045847D02*
X91463524Y-120045847D01*
X90606381Y-119045847D02*
X90034953Y-119045847D01*
X90320667Y-120045847D02*
X90320667Y-119045847D01*
X89701619Y-120045847D02*
X89701619Y-119045847D01*
X89701619Y-119045847D02*
X89368286Y-119760132D01*
X89368286Y-119760132D02*
X89034953Y-119045847D01*
X89034953Y-119045847D02*
X89034953Y-120045847D01*
X88225429Y-119522037D02*
X88558762Y-119522037D01*
X88558762Y-120045847D02*
X88558762Y-119045847D01*
X88558762Y-119045847D02*
X88082572Y-119045847D01*
X86987333Y-119760132D02*
X86511143Y-119760132D01*
X87082571Y-120045847D02*
X86749238Y-119045847D01*
X86749238Y-119045847D02*
X86415905Y-120045847D01*
X85654000Y-120045847D02*
X85654000Y-119045847D01*
X85654000Y-119998228D02*
X85749238Y-120045847D01*
X85749238Y-120045847D02*
X85939714Y-120045847D01*
X85939714Y-120045847D02*
X86034952Y-119998228D01*
X86034952Y-119998228D02*
X86082571Y-119950608D01*
X86082571Y-119950608D02*
X86130190Y-119855370D01*
X86130190Y-119855370D02*
X86130190Y-119569656D01*
X86130190Y-119569656D02*
X86082571Y-119474418D01*
X86082571Y-119474418D02*
X86034952Y-119426799D01*
X86034952Y-119426799D02*
X85939714Y-119379180D01*
X85939714Y-119379180D02*
X85749238Y-119379180D01*
X85749238Y-119379180D02*
X85654000Y-119426799D01*
X84749238Y-120045847D02*
X84749238Y-119522037D01*
X84749238Y-119522037D02*
X84796857Y-119426799D01*
X84796857Y-119426799D02*
X84892095Y-119379180D01*
X84892095Y-119379180D02*
X85082571Y-119379180D01*
X85082571Y-119379180D02*
X85177809Y-119426799D01*
X84749238Y-119998228D02*
X84844476Y-120045847D01*
X84844476Y-120045847D02*
X85082571Y-120045847D01*
X85082571Y-120045847D02*
X85177809Y-119998228D01*
X85177809Y-119998228D02*
X85225428Y-119902989D01*
X85225428Y-119902989D02*
X85225428Y-119807751D01*
X85225428Y-119807751D02*
X85177809Y-119712513D01*
X85177809Y-119712513D02*
X85082571Y-119664894D01*
X85082571Y-119664894D02*
X84844476Y-119664894D01*
X84844476Y-119664894D02*
X84749238Y-119617275D01*
X84273047Y-119379180D02*
X84273047Y-120379180D01*
X84273047Y-119426799D02*
X84177809Y-119379180D01*
X84177809Y-119379180D02*
X83987333Y-119379180D01*
X83987333Y-119379180D02*
X83892095Y-119426799D01*
X83892095Y-119426799D02*
X83844476Y-119474418D01*
X83844476Y-119474418D02*
X83796857Y-119569656D01*
X83796857Y-119569656D02*
X83796857Y-119855370D01*
X83796857Y-119855370D02*
X83844476Y-119950608D01*
X83844476Y-119950608D02*
X83892095Y-119998228D01*
X83892095Y-119998228D02*
X83987333Y-120045847D01*
X83987333Y-120045847D02*
X84177809Y-120045847D01*
X84177809Y-120045847D02*
X84273047Y-119998228D01*
X83511142Y-119379180D02*
X83130190Y-119379180D01*
X83368285Y-119045847D02*
X83368285Y-119902989D01*
X83368285Y-119902989D02*
X83320666Y-119998228D01*
X83320666Y-119998228D02*
X83225428Y-120045847D01*
X83225428Y-120045847D02*
X83130190Y-120045847D01*
X82415904Y-119998228D02*
X82511142Y-120045847D01*
X82511142Y-120045847D02*
X82701618Y-120045847D01*
X82701618Y-120045847D02*
X82796856Y-119998228D01*
X82796856Y-119998228D02*
X82844475Y-119902989D01*
X82844475Y-119902989D02*
X82844475Y-119522037D01*
X82844475Y-119522037D02*
X82796856Y-119426799D01*
X82796856Y-119426799D02*
X82701618Y-119379180D01*
X82701618Y-119379180D02*
X82511142Y-119379180D01*
X82511142Y-119379180D02*
X82415904Y-119426799D01*
X82415904Y-119426799D02*
X82368285Y-119522037D01*
X82368285Y-119522037D02*
X82368285Y-119617275D01*
X82368285Y-119617275D02*
X82844475Y-119712513D01*
X81939713Y-120045847D02*
X81939713Y-119379180D01*
X81939713Y-119569656D02*
X81892094Y-119474418D01*
X81892094Y-119474418D02*
X81844475Y-119426799D01*
X81844475Y-119426799D02*
X81749237Y-119379180D01*
X81749237Y-119379180D02*
X81653999Y-119379180D01*
X80558760Y-120045847D02*
X80558760Y-119045847D01*
X80130189Y-119998228D02*
X80034951Y-120045847D01*
X80034951Y-120045847D02*
X79844475Y-120045847D01*
X79844475Y-120045847D02*
X79749237Y-119998228D01*
X79749237Y-119998228D02*
X79701618Y-119902989D01*
X79701618Y-119902989D02*
X79701618Y-119855370D01*
X79701618Y-119855370D02*
X79749237Y-119760132D01*
X79749237Y-119760132D02*
X79844475Y-119712513D01*
X79844475Y-119712513D02*
X79987332Y-119712513D01*
X79987332Y-119712513D02*
X80082570Y-119664894D01*
X80082570Y-119664894D02*
X80130189Y-119569656D01*
X80130189Y-119569656D02*
X80130189Y-119522037D01*
X80130189Y-119522037D02*
X80082570Y-119426799D01*
X80082570Y-119426799D02*
X79987332Y-119379180D01*
X79987332Y-119379180D02*
X79844475Y-119379180D01*
X79844475Y-119379180D02*
X79749237Y-119426799D01*
X79320665Y-119998228D02*
X79225427Y-120045847D01*
X79225427Y-120045847D02*
X79034951Y-120045847D01*
X79034951Y-120045847D02*
X78939713Y-119998228D01*
X78939713Y-119998228D02*
X78892094Y-119902989D01*
X78892094Y-119902989D02*
X78892094Y-119855370D01*
X78892094Y-119855370D02*
X78939713Y-119760132D01*
X78939713Y-119760132D02*
X79034951Y-119712513D01*
X79034951Y-119712513D02*
X79177808Y-119712513D01*
X79177808Y-119712513D02*
X79273046Y-119664894D01*
X79273046Y-119664894D02*
X79320665Y-119569656D01*
X79320665Y-119569656D02*
X79320665Y-119522037D01*
X79320665Y-119522037D02*
X79273046Y-119426799D01*
X79273046Y-119426799D02*
X79177808Y-119379180D01*
X79177808Y-119379180D02*
X79034951Y-119379180D01*
X79034951Y-119379180D02*
X78939713Y-119426799D01*
X77796855Y-119045847D02*
X77177808Y-119045847D01*
X77177808Y-119045847D02*
X77511141Y-119426799D01*
X77511141Y-119426799D02*
X77368284Y-119426799D01*
X77368284Y-119426799D02*
X77273046Y-119474418D01*
X77273046Y-119474418D02*
X77225427Y-119522037D01*
X77225427Y-119522037D02*
X77177808Y-119617275D01*
X77177808Y-119617275D02*
X77177808Y-119855370D01*
X77177808Y-119855370D02*
X77225427Y-119950608D01*
X77225427Y-119950608D02*
X77273046Y-119998228D01*
X77273046Y-119998228D02*
X77368284Y-120045847D01*
X77368284Y-120045847D02*
X77653998Y-120045847D01*
X77653998Y-120045847D02*
X77749236Y-119998228D01*
X77749236Y-119998228D02*
X77796855Y-119950608D01*
X102106382Y-122036743D02*
X102154001Y-121989124D01*
X102154001Y-121989124D02*
X102249239Y-121846267D01*
X102249239Y-121846267D02*
X102296858Y-121751029D01*
X102296858Y-121751029D02*
X102344477Y-121608172D01*
X102344477Y-121608172D02*
X102392096Y-121370076D01*
X102392096Y-121370076D02*
X102392096Y-121179600D01*
X102392096Y-121179600D02*
X102344477Y-120941505D01*
X102344477Y-120941505D02*
X102296858Y-120798648D01*
X102296858Y-120798648D02*
X102249239Y-120703410D01*
X102249239Y-120703410D02*
X102154001Y-120560552D01*
X102154001Y-120560552D02*
X102106382Y-120512933D01*
X101296858Y-121608172D02*
X101392096Y-121655791D01*
X101392096Y-121655791D02*
X101582572Y-121655791D01*
X101582572Y-121655791D02*
X101677810Y-121608172D01*
X101677810Y-121608172D02*
X101725429Y-121560552D01*
X101725429Y-121560552D02*
X101773048Y-121465314D01*
X101773048Y-121465314D02*
X101773048Y-121179600D01*
X101773048Y-121179600D02*
X101725429Y-121084362D01*
X101725429Y-121084362D02*
X101677810Y-121036743D01*
X101677810Y-121036743D02*
X101582572Y-120989124D01*
X101582572Y-120989124D02*
X101392096Y-120989124D01*
X101392096Y-120989124D02*
X101296858Y-121036743D01*
X100963524Y-122036743D02*
X100915905Y-121989124D01*
X100915905Y-121989124D02*
X100820667Y-121846267D01*
X100820667Y-121846267D02*
X100773048Y-121751029D01*
X100773048Y-121751029D02*
X100725429Y-121608172D01*
X100725429Y-121608172D02*
X100677810Y-121370076D01*
X100677810Y-121370076D02*
X100677810Y-121179600D01*
X100677810Y-121179600D02*
X100725429Y-120941505D01*
X100725429Y-120941505D02*
X100773048Y-120798648D01*
X100773048Y-120798648D02*
X100820667Y-120703410D01*
X100820667Y-120703410D02*
X100915905Y-120560552D01*
X100915905Y-120560552D02*
X100963524Y-120512933D01*
X99487333Y-120751029D02*
X99439714Y-120703410D01*
X99439714Y-120703410D02*
X99344476Y-120655791D01*
X99344476Y-120655791D02*
X99106381Y-120655791D01*
X99106381Y-120655791D02*
X99011143Y-120703410D01*
X99011143Y-120703410D02*
X98963524Y-120751029D01*
X98963524Y-120751029D02*
X98915905Y-120846267D01*
X98915905Y-120846267D02*
X98915905Y-120941505D01*
X98915905Y-120941505D02*
X98963524Y-121084362D01*
X98963524Y-121084362D02*
X99534952Y-121655791D01*
X99534952Y-121655791D02*
X98915905Y-121655791D01*
X98296857Y-120655791D02*
X98201619Y-120655791D01*
X98201619Y-120655791D02*
X98106381Y-120703410D01*
X98106381Y-120703410D02*
X98058762Y-120751029D01*
X98058762Y-120751029D02*
X98011143Y-120846267D01*
X98011143Y-120846267D02*
X97963524Y-121036743D01*
X97963524Y-121036743D02*
X97963524Y-121274838D01*
X97963524Y-121274838D02*
X98011143Y-121465314D01*
X98011143Y-121465314D02*
X98058762Y-121560552D01*
X98058762Y-121560552D02*
X98106381Y-121608172D01*
X98106381Y-121608172D02*
X98201619Y-121655791D01*
X98201619Y-121655791D02*
X98296857Y-121655791D01*
X98296857Y-121655791D02*
X98392095Y-121608172D01*
X98392095Y-121608172D02*
X98439714Y-121560552D01*
X98439714Y-121560552D02*
X98487333Y-121465314D01*
X98487333Y-121465314D02*
X98534952Y-121274838D01*
X98534952Y-121274838D02*
X98534952Y-121036743D01*
X98534952Y-121036743D02*
X98487333Y-120846267D01*
X98487333Y-120846267D02*
X98439714Y-120751029D01*
X98439714Y-120751029D02*
X98392095Y-120703410D01*
X98392095Y-120703410D02*
X98296857Y-120655791D01*
X97582571Y-120751029D02*
X97534952Y-120703410D01*
X97534952Y-120703410D02*
X97439714Y-120655791D01*
X97439714Y-120655791D02*
X97201619Y-120655791D01*
X97201619Y-120655791D02*
X97106381Y-120703410D01*
X97106381Y-120703410D02*
X97058762Y-120751029D01*
X97058762Y-120751029D02*
X97011143Y-120846267D01*
X97011143Y-120846267D02*
X97011143Y-120941505D01*
X97011143Y-120941505D02*
X97058762Y-121084362D01*
X97058762Y-121084362D02*
X97630190Y-121655791D01*
X97630190Y-121655791D02*
X97011143Y-121655791D01*
X96154000Y-120989124D02*
X96154000Y-121655791D01*
X96392095Y-120608172D02*
X96630190Y-121322457D01*
X96630190Y-121322457D02*
X96011143Y-121322457D01*
X94868285Y-121655791D02*
X94868285Y-120655791D01*
X94868285Y-121131981D02*
X94296857Y-121131981D01*
X94296857Y-121655791D02*
X94296857Y-120655791D01*
X93677809Y-121655791D02*
X93773047Y-121608172D01*
X93773047Y-121608172D02*
X93820666Y-121560552D01*
X93820666Y-121560552D02*
X93868285Y-121465314D01*
X93868285Y-121465314D02*
X93868285Y-121179600D01*
X93868285Y-121179600D02*
X93820666Y-121084362D01*
X93820666Y-121084362D02*
X93773047Y-121036743D01*
X93773047Y-121036743D02*
X93677809Y-120989124D01*
X93677809Y-120989124D02*
X93534952Y-120989124D01*
X93534952Y-120989124D02*
X93439714Y-121036743D01*
X93439714Y-121036743D02*
X93392095Y-121084362D01*
X93392095Y-121084362D02*
X93344476Y-121179600D01*
X93344476Y-121179600D02*
X93344476Y-121465314D01*
X93344476Y-121465314D02*
X93392095Y-121560552D01*
X93392095Y-121560552D02*
X93439714Y-121608172D01*
X93439714Y-121608172D02*
X93534952Y-121655791D01*
X93534952Y-121655791D02*
X93677809Y-121655791D01*
X93011142Y-120989124D02*
X92820666Y-121655791D01*
X92820666Y-121655791D02*
X92630190Y-121179600D01*
X92630190Y-121179600D02*
X92439714Y-121655791D01*
X92439714Y-121655791D02*
X92249238Y-120989124D01*
X91439714Y-121655791D02*
X91439714Y-121131981D01*
X91439714Y-121131981D02*
X91487333Y-121036743D01*
X91487333Y-121036743D02*
X91582571Y-120989124D01*
X91582571Y-120989124D02*
X91773047Y-120989124D01*
X91773047Y-120989124D02*
X91868285Y-121036743D01*
X91439714Y-121608172D02*
X91534952Y-121655791D01*
X91534952Y-121655791D02*
X91773047Y-121655791D01*
X91773047Y-121655791D02*
X91868285Y-121608172D01*
X91868285Y-121608172D02*
X91915904Y-121512933D01*
X91915904Y-121512933D02*
X91915904Y-121417695D01*
X91915904Y-121417695D02*
X91868285Y-121322457D01*
X91868285Y-121322457D02*
X91773047Y-121274838D01*
X91773047Y-121274838D02*
X91534952Y-121274838D01*
X91534952Y-121274838D02*
X91439714Y-121227219D01*
X90963523Y-121655791D02*
X90963523Y-120989124D01*
X90963523Y-121179600D02*
X90915904Y-121084362D01*
X90915904Y-121084362D02*
X90868285Y-121036743D01*
X90868285Y-121036743D02*
X90773047Y-120989124D01*
X90773047Y-120989124D02*
X90677809Y-120989124D01*
X89915904Y-121655791D02*
X89915904Y-120655791D01*
X89915904Y-121608172D02*
X90011142Y-121655791D01*
X90011142Y-121655791D02*
X90201618Y-121655791D01*
X90201618Y-121655791D02*
X90296856Y-121608172D01*
X90296856Y-121608172D02*
X90344475Y-121560552D01*
X90344475Y-121560552D02*
X90392094Y-121465314D01*
X90392094Y-121465314D02*
X90392094Y-121179600D01*
X90392094Y-121179600D02*
X90344475Y-121084362D01*
X90344475Y-121084362D02*
X90296856Y-121036743D01*
X90296856Y-121036743D02*
X90201618Y-120989124D01*
X90201618Y-120989124D02*
X90011142Y-120989124D01*
X90011142Y-120989124D02*
X89915904Y-121036743D01*
X88677808Y-121655791D02*
X88677808Y-120655791D01*
X88677808Y-120655791D02*
X88344475Y-121370076D01*
X88344475Y-121370076D02*
X88011142Y-120655791D01*
X88011142Y-120655791D02*
X88011142Y-121655791D01*
X87534951Y-121560552D02*
X87487332Y-121608172D01*
X87487332Y-121608172D02*
X87534951Y-121655791D01*
X87534951Y-121655791D02*
X87582570Y-121608172D01*
X87582570Y-121608172D02*
X87534951Y-121560552D01*
X87534951Y-121560552D02*
X87534951Y-121655791D01*
X86296856Y-121655791D02*
X86296856Y-120655791D01*
X86296856Y-121131981D02*
X85725428Y-121131981D01*
X85725428Y-121655791D02*
X85725428Y-120655791D01*
X84820666Y-121655791D02*
X84820666Y-121131981D01*
X84820666Y-121131981D02*
X84868285Y-121036743D01*
X84868285Y-121036743D02*
X84963523Y-120989124D01*
X84963523Y-120989124D02*
X85153999Y-120989124D01*
X85153999Y-120989124D02*
X85249237Y-121036743D01*
X84820666Y-121608172D02*
X84915904Y-121655791D01*
X84915904Y-121655791D02*
X85153999Y-121655791D01*
X85153999Y-121655791D02*
X85249237Y-121608172D01*
X85249237Y-121608172D02*
X85296856Y-121512933D01*
X85296856Y-121512933D02*
X85296856Y-121417695D01*
X85296856Y-121417695D02*
X85249237Y-121322457D01*
X85249237Y-121322457D02*
X85153999Y-121274838D01*
X85153999Y-121274838D02*
X84915904Y-121274838D01*
X84915904Y-121274838D02*
X84820666Y-121227219D01*
X84344475Y-121655791D02*
X84344475Y-120989124D01*
X84344475Y-121179600D02*
X84296856Y-121084362D01*
X84296856Y-121084362D02*
X84249237Y-121036743D01*
X84249237Y-121036743D02*
X84153999Y-120989124D01*
X84153999Y-120989124D02*
X84058761Y-120989124D01*
X83868284Y-120989124D02*
X83487332Y-120989124D01*
X83725427Y-120655791D02*
X83725427Y-121512933D01*
X83725427Y-121512933D02*
X83677808Y-121608172D01*
X83677808Y-121608172D02*
X83582570Y-121655791D01*
X83582570Y-121655791D02*
X83487332Y-121655791D01*
X82773046Y-121608172D02*
X82868284Y-121655791D01*
X82868284Y-121655791D02*
X83058760Y-121655791D01*
X83058760Y-121655791D02*
X83153998Y-121608172D01*
X83153998Y-121608172D02*
X83201617Y-121512933D01*
X83201617Y-121512933D02*
X83201617Y-121131981D01*
X83201617Y-121131981D02*
X83153998Y-121036743D01*
X83153998Y-121036743D02*
X83058760Y-120989124D01*
X83058760Y-120989124D02*
X82868284Y-120989124D01*
X82868284Y-120989124D02*
X82773046Y-121036743D01*
X82773046Y-121036743D02*
X82725427Y-121131981D01*
X82725427Y-121131981D02*
X82725427Y-121227219D01*
X82725427Y-121227219D02*
X83201617Y-121322457D01*
X81534950Y-121274838D02*
X80773046Y-121274838D01*
X79630188Y-120655791D02*
X79392093Y-121655791D01*
X79392093Y-121655791D02*
X79201617Y-120941505D01*
X79201617Y-120941505D02*
X79011141Y-121655791D01*
X79011141Y-121655791D02*
X78773046Y-120655791D01*
X78487331Y-120655791D02*
X77820665Y-120655791D01*
X77820665Y-120655791D02*
X78487331Y-121655791D01*
X78487331Y-121655791D02*
X77820665Y-121655791D01*
X77487331Y-120751029D02*
X77439712Y-120703410D01*
X77439712Y-120703410D02*
X77344474Y-120655791D01*
X77344474Y-120655791D02*
X77106379Y-120655791D01*
X77106379Y-120655791D02*
X77011141Y-120703410D01*
X77011141Y-120703410D02*
X76963522Y-120751029D01*
X76963522Y-120751029D02*
X76915903Y-120846267D01*
X76915903Y-120846267D02*
X76915903Y-120941505D01*
X76915903Y-120941505D02*
X76963522Y-121084362D01*
X76963522Y-121084362D02*
X77534950Y-121655791D01*
X77534950Y-121655791D02*
X76915903Y-121655791D01*
X75820665Y-121751029D02*
X75915903Y-121703410D01*
X75915903Y-121703410D02*
X76011141Y-121608172D01*
X76011141Y-121608172D02*
X76153998Y-121465314D01*
X76153998Y-121465314D02*
X76249236Y-121417695D01*
X76249236Y-121417695D02*
X76344474Y-121417695D01*
X76296855Y-121655791D02*
X76392093Y-121608172D01*
X76392093Y-121608172D02*
X76487331Y-121512933D01*
X76487331Y-121512933D02*
X76534950Y-121322457D01*
X76534950Y-121322457D02*
X76534950Y-120989124D01*
X76534950Y-120989124D02*
X76487331Y-120798648D01*
X76487331Y-120798648D02*
X76392093Y-120703410D01*
X76392093Y-120703410D02*
X76296855Y-120655791D01*
X76296855Y-120655791D02*
X76106379Y-120655791D01*
X76106379Y-120655791D02*
X76011141Y-120703410D01*
X76011141Y-120703410D02*
X75915903Y-120798648D01*
X75915903Y-120798648D02*
X75868284Y-120989124D01*
X75868284Y-120989124D02*
X75868284Y-121322457D01*
X75868284Y-121322457D02*
X75915903Y-121512933D01*
X75915903Y-121512933D02*
X76011141Y-121608172D01*
X76011141Y-121608172D02*
X76106379Y-121655791D01*
X76106379Y-121655791D02*
X76296855Y-121655791D01*
D12*
X45720000Y-49750000D03*
X45720000Y-51910000D03*
X45720000Y-54070000D03*
X45720000Y-56230000D03*
X45720000Y-58390000D03*
X45720000Y-60550000D03*
X45720000Y-62710000D03*
X45720000Y-64870000D03*
X45720000Y-67030000D03*
X45720000Y-69190000D03*
X45720000Y-71350000D03*
X45720000Y-73510000D03*
X45720000Y-75670000D03*
X45720000Y-77830000D03*
X45720000Y-79990000D03*
X45720000Y-82150000D03*
X45720000Y-84310000D03*
X45720000Y-86470000D03*
X45720000Y-88630000D03*
X45720000Y-90790000D03*
X45720000Y-92950000D03*
X45720000Y-95110000D03*
X45720000Y-97270000D03*
X45720000Y-99430000D03*
X45720000Y-101590000D03*
X41430000Y-49750000D03*
X41430000Y-51910000D03*
X41430000Y-54070000D03*
X41430000Y-56230000D03*
X41430000Y-58390000D03*
X41430000Y-60550000D03*
X41430000Y-62710000D03*
X41430000Y-64870000D03*
X41430000Y-67030000D03*
X41430000Y-69190000D03*
X41430000Y-71350000D03*
X41430000Y-73510000D03*
X41430000Y-75670000D03*
X41430000Y-77830000D03*
X41430000Y-79990000D03*
X41430000Y-82150000D03*
X41430000Y-84310000D03*
X41430000Y-86470000D03*
X41430000Y-88630000D03*
X41430000Y-90790000D03*
X41430000Y-92950000D03*
X41430000Y-95110000D03*
X41430000Y-97270000D03*
X41430000Y-99430000D03*
X41430000Y-101590000D03*
D13*
X43575000Y-38245000D03*
X43575000Y-113095000D03*
D14*
X55388000Y-62920000D03*
D15*
X52848000Y-62920000D03*
X55388000Y-60380000D03*
X52848000Y-60380000D03*
X55388000Y-57840000D03*
X52848000Y-57840000D03*
X55388000Y-55300000D03*
X52848000Y-55300000D03*
X55388000Y-52760000D03*
X52848000Y-52760000D03*
X55388000Y-50220000D03*
X52848000Y-50220000D03*
X55388000Y-47680000D03*
X52848000Y-47680000D03*
X55388000Y-45140000D03*
X52848000Y-45140000D03*
X55388000Y-42600000D03*
X52848000Y-42600000D03*
X55388000Y-40060000D03*
X52848000Y-40060000D03*
D16*
X53848000Y-30920000D03*
X53848000Y-71920000D03*
X129388000Y-71920000D03*
D17*
X121920000Y-100330000D03*
D18*
X114300000Y-100330000D03*
D14*
X55388000Y-112518000D03*
D15*
X52848000Y-112518000D03*
X55388000Y-109978000D03*
X52848000Y-109978000D03*
X55388000Y-107438000D03*
X52848000Y-107438000D03*
X55388000Y-104898000D03*
X52848000Y-104898000D03*
X55388000Y-102358000D03*
X52848000Y-102358000D03*
X55388000Y-99818000D03*
X52848000Y-99818000D03*
X55388000Y-97278000D03*
X52848000Y-97278000D03*
X55388000Y-94738000D03*
X52848000Y-94738000D03*
X55388000Y-92198000D03*
X52848000Y-92198000D03*
X55388000Y-89658000D03*
X52848000Y-89658000D03*
D16*
X53848000Y-80518000D03*
X53848000Y-121518000D03*
X129388000Y-121518000D03*
D17*
X69850000Y-55880000D03*
D18*
X59690000Y-55880000D03*
D17*
X121920000Y-50800000D03*
D18*
X114300000Y-50800000D03*
D16*
X43020000Y-30670000D03*
D19*
X128270000Y-47980000D03*
D20*
X128270000Y-50520000D03*
D17*
X69850000Y-113030000D03*
D18*
X59690000Y-113030000D03*
D17*
X59690000Y-63500000D03*
D18*
X69850000Y-63500000D03*
D16*
X43020000Y-121670000D03*
D19*
X128270000Y-97575000D03*
D20*
X128270000Y-100115000D03*
D16*
X129270000Y-80670000D03*
D17*
X59516000Y-35306000D03*
X64516000Y-35306000D03*
X69850000Y-39370000D03*
D18*
X59690000Y-39370000D03*
D17*
X59690000Y-84455000D03*
D18*
X69850000Y-84455000D03*
D16*
X129270000Y-30670000D03*
D17*
X59516000Y-31556000D03*
D18*
X67136000Y-31556000D03*
D17*
X69850000Y-94420000D03*
D18*
X59690000Y-94420000D03*
D14*
X63480000Y-52830000D03*
D15*
X66020000Y-52830000D03*
X63480000Y-50290000D03*
X66020000Y-50290000D03*
X63480000Y-47750000D03*
X66020000Y-47750000D03*
X63480000Y-45210000D03*
X66020000Y-45210000D03*
X63480000Y-42670000D03*
X66020000Y-42670000D03*
D21*
X41430000Y-49750000D02*
X49905000Y-41275000D01*
X49905000Y-41275000D02*
X54235000Y-41275000D01*
X54235000Y-41275000D02*
X55560000Y-42600000D01*
X51888000Y-42600000D02*
X53020000Y-42600000D01*
X45720000Y-49750000D02*
X45720000Y-48768000D01*
X45720000Y-48768000D02*
X51888000Y-42600000D01*
D22*
X55388000Y-45140000D02*
X58550000Y-45140000D01*
X61020000Y-42670000D02*
X63480000Y-42670000D01*
X66020000Y-42670000D02*
X63480000Y-42670000D01*
X58550000Y-45140000D02*
X61020000Y-42670000D01*
D21*
X51308000Y-93472000D02*
X48895000Y-91059000D01*
X48895000Y-83800194D02*
X46163006Y-81068200D01*
X48895000Y-91059000D02*
X48895000Y-83800194D01*
X43904600Y-69504600D02*
X41430000Y-67030000D01*
X55388000Y-92198000D02*
X54114000Y-93472000D01*
X44962800Y-81068200D02*
X43904600Y-80010000D01*
X46163006Y-81068200D02*
X44962800Y-81068200D01*
X54114000Y-93472000D02*
X51308000Y-93472000D01*
X43904600Y-80010000D02*
X43904600Y-69504600D01*
D22*
X66020000Y-52830000D02*
X63480000Y-52830000D01*
X36830000Y-101600000D02*
X50800000Y-115570000D01*
X61785000Y-92075000D02*
X59440000Y-94420000D01*
X50800000Y-115570000D02*
X60706000Y-115570000D01*
D21*
X54052000Y-96012000D02*
X57848000Y-96012000D01*
D22*
X41430000Y-69190000D02*
X36830000Y-73790000D01*
D21*
X52930000Y-94890000D02*
X54052000Y-96012000D01*
D22*
X70485000Y-92075000D02*
X61785000Y-92075000D01*
X71755000Y-104521000D02*
X71755000Y-93345000D01*
X36830000Y-73790000D02*
X36830000Y-101600000D01*
X71755000Y-93345000D02*
X70485000Y-92075000D01*
X60706000Y-115570000D02*
X71755000Y-104521000D01*
D21*
X57848000Y-96012000D02*
X59440000Y-94420000D01*
X41430000Y-51910000D02*
X44195194Y-51910000D01*
X46196200Y-50831800D02*
X51888000Y-45140000D01*
X51888000Y-45140000D02*
X53020000Y-45140000D01*
X45273394Y-50831800D02*
X46196200Y-50831800D01*
X53566000Y-45140000D02*
X54927800Y-46501800D01*
X54927800Y-46501800D02*
X57931800Y-46501800D01*
X44195194Y-51910000D02*
X45273394Y-50831800D01*
X57931800Y-46501800D02*
X59690000Y-48260000D01*
X52848000Y-45140000D02*
X53566000Y-45140000D01*
X59690000Y-48260000D02*
X59690000Y-55880000D01*
X124170000Y-50800000D02*
X124450000Y-50520000D01*
X124450000Y-50520000D02*
X128270000Y-50520000D01*
X121920000Y-50800000D02*
X124170000Y-50800000D01*
X128270000Y-100071000D02*
X124465000Y-100071000D01*
X124206000Y-100330000D02*
X121920000Y-100330000D01*
X124465000Y-100071000D02*
X124206000Y-100330000D01*
D22*
X55560000Y-40060000D02*
X56410000Y-40910000D01*
X56410000Y-40910000D02*
X68310000Y-40910000D01*
X68310000Y-40910000D02*
X69850000Y-39370000D01*
X84580000Y-47980000D02*
X75970000Y-39370000D01*
X53020000Y-40060000D02*
X55560000Y-40060000D01*
X75970000Y-39370000D02*
X69850000Y-39370000D01*
X128270000Y-47980000D02*
X84580000Y-47980000D01*
D21*
X49530000Y-90170000D02*
X49530000Y-81777597D01*
X52848000Y-92198000D02*
X51558000Y-92198000D01*
X49530000Y-81777597D02*
X46664203Y-78911800D01*
X46664203Y-78911800D02*
X45085000Y-78911800D01*
X44450000Y-78276800D02*
X44450000Y-68300000D01*
X44450000Y-68300000D02*
X45720000Y-67030000D01*
X45085000Y-78911800D02*
X44450000Y-78276800D01*
X51558000Y-92198000D02*
X49530000Y-90170000D01*
D22*
X84582000Y-50800000D02*
X114300000Y-50800000D01*
X69850000Y-55880000D02*
X79502000Y-55880000D01*
X69850000Y-55880000D02*
X69850000Y-63500000D01*
X56250000Y-62230000D02*
X55560000Y-62920000D01*
X69850000Y-63500000D02*
X64770000Y-63500000D01*
X63500000Y-62230000D02*
X56250000Y-62230000D01*
X55560000Y-62920000D02*
X53020000Y-62920000D01*
X79502000Y-55880000D02*
X84582000Y-50800000D01*
X64770000Y-63500000D02*
X63500000Y-62230000D01*
D21*
X42508200Y-52991800D02*
X46703200Y-52991800D01*
X41430000Y-54070000D02*
X42508200Y-52991800D01*
X46703200Y-52991800D02*
X49475000Y-50220000D01*
X49475000Y-50220000D02*
X53020000Y-50220000D01*
X45720000Y-54070000D02*
X47260000Y-54070000D01*
X47260000Y-54070000D02*
X49748200Y-51581800D01*
X49748200Y-51581800D02*
X54198200Y-51581800D01*
X54198200Y-51581800D02*
X55560000Y-50220000D01*
X47255878Y-55148200D02*
X49644078Y-52760000D01*
X41430000Y-56230000D02*
X42511800Y-55148200D01*
X49644078Y-52760000D02*
X53020000Y-52760000D01*
X42511800Y-55148200D02*
X47255878Y-55148200D01*
X47583617Y-56230000D02*
X49691817Y-54121800D01*
X45720000Y-56230000D02*
X47583617Y-56230000D01*
X54198200Y-54121800D02*
X55560000Y-52760000D01*
X49691817Y-54121800D02*
X54198200Y-54121800D01*
X50506135Y-55300000D02*
X53020000Y-55300000D01*
X41430000Y-58390000D02*
X42511800Y-57308200D01*
X42511800Y-57308200D02*
X48497935Y-57308200D01*
X48497935Y-57308200D02*
X50506135Y-55300000D01*
X54198200Y-56661800D02*
X55560000Y-55300000D01*
X51288200Y-56661800D02*
X54198200Y-56661800D01*
X49560000Y-58390000D02*
X51288200Y-56661800D01*
X45720000Y-58390000D02*
X49560000Y-58390000D01*
X48078200Y-84908200D02*
X46398200Y-83228200D01*
X46398200Y-83228200D02*
X44764600Y-83228200D01*
X43451400Y-81915000D02*
X43451400Y-73371400D01*
X43451400Y-73371400D02*
X41430000Y-71350000D01*
X51710000Y-99970000D02*
X48078200Y-96338200D01*
X48078200Y-96338200D02*
X48078200Y-84908200D01*
X44764600Y-83228200D02*
X43451400Y-81915000D01*
X52930000Y-99970000D02*
X51710000Y-99970000D01*
X51558000Y-102358000D02*
X47625000Y-98425000D01*
X42998200Y-83185000D02*
X42998200Y-75078200D01*
X42998200Y-75078200D02*
X41430000Y-73510000D01*
X47625000Y-86850194D02*
X46163006Y-85388200D01*
X46163006Y-85388200D02*
X45201400Y-85388200D01*
X52848000Y-102358000D02*
X51558000Y-102358000D01*
X45201400Y-85388200D02*
X42998200Y-83185000D01*
X47625000Y-98425000D02*
X47625000Y-86850194D01*
X51710000Y-105050000D02*
X46798200Y-100138200D01*
X46798200Y-100138200D02*
X46798200Y-88179794D01*
X42545000Y-76785000D02*
X41430000Y-75670000D01*
X42545000Y-84819806D02*
X42545000Y-76785000D01*
X46166606Y-87548200D02*
X45273394Y-87548200D01*
X46798200Y-88179794D02*
X46166606Y-87548200D01*
X45273394Y-87548200D02*
X42545000Y-84819806D01*
X52930000Y-105050000D02*
X51710000Y-105050000D01*
D22*
X69850000Y-100076000D02*
X69850000Y-94670000D01*
X52930000Y-112670000D02*
X57256000Y-112670000D01*
X57256000Y-112670000D02*
X69850000Y-100076000D01*
X69850000Y-84455000D02*
X85725000Y-100330000D01*
X85725000Y-100330000D02*
X114300000Y-100330000D01*
X71120000Y-113030000D02*
X73660000Y-110490000D01*
X52852000Y-89662000D02*
X52848000Y-89658000D01*
X71882000Y-89662000D02*
X52852000Y-89662000D01*
X129425000Y-97575000D02*
X128270000Y-97575000D01*
X129520000Y-102170000D02*
X130520000Y-101170000D01*
X73660000Y-100330000D02*
X73660000Y-91440000D01*
X69850000Y-113030000D02*
X71120000Y-113030000D01*
X73660000Y-102170000D02*
X73660000Y-100330000D01*
X130520000Y-98670000D02*
X129425000Y-97575000D01*
X130520000Y-101170000D02*
X130520000Y-98670000D01*
X73660000Y-91440000D02*
X71882000Y-89662000D01*
X73660000Y-102170000D02*
X129520000Y-102170000D01*
X73660000Y-110490000D02*
X73660000Y-102170000D01*
X45720000Y-62710000D02*
X48740000Y-62710000D01*
X58420000Y-64770000D02*
X59690000Y-63500000D01*
X64516000Y-33274000D02*
X66234000Y-31556000D01*
X66234000Y-31556000D02*
X67136000Y-31556000D01*
X50800000Y-64770000D02*
X58420000Y-64770000D01*
X48740000Y-62710000D02*
X50800000Y-64770000D01*
X64516000Y-35306000D02*
X64516000Y-33274000D01*
X58420000Y-39370000D02*
X59690000Y-39370000D01*
X56515000Y-37465000D02*
X58420000Y-39370000D01*
X52013418Y-37465000D02*
X56515000Y-37465000D01*
X38735000Y-50743418D02*
X52013418Y-37465000D01*
X38735000Y-60015000D02*
X38735000Y-50743418D01*
X41430000Y-62710000D02*
X38735000Y-60015000D01*
X59690000Y-113538000D02*
X59690000Y-113030000D01*
X38100000Y-83320000D02*
X38100000Y-100965000D01*
X51435000Y-114300000D02*
X58928000Y-114300000D01*
X58928000Y-114300000D02*
X59690000Y-113538000D01*
X41430000Y-79990000D02*
X38100000Y-83320000D01*
X38100000Y-100965000D02*
X51435000Y-114300000D01*
X47353000Y-38245000D02*
X50292000Y-35306000D01*
X50292000Y-35306000D02*
X59516000Y-35306000D01*
X43575000Y-110377000D02*
X43575000Y-113095000D01*
X59516000Y-35306000D02*
X59516000Y-31556000D01*
X43575000Y-38245000D02*
X43575000Y-41007000D01*
X43575000Y-41007000D02*
X35560000Y-49022000D01*
X35560000Y-49022000D02*
X35560000Y-102362000D01*
X35560000Y-102362000D02*
X43575000Y-110377000D01*
X43575000Y-38245000D02*
X47353000Y-38245000D01*
M02*
