G04 #@! TF.GenerationSoftware,KiCad,Pcbnew,(6.0.5-0)*
G04 #@! TF.CreationDate,2022-08-07T12:30:08-07:00*
G04 #@! TF.ProjectId,ac125a_dtmf,61633132-3561-45f6-9474-6d662e6b6963,rev?*
G04 #@! TF.SameCoordinates,Original*
G04 #@! TF.FileFunction,Legend,Bot*
G04 #@! TF.FilePolarity,Positive*
%FSLAX46Y46*%
G04 Gerber Fmt 4.6, Leading zero omitted, Abs format (unit mm)*
G04 Created by KiCad (PCBNEW (6.0.5-0)) date 2022-08-07 12:30:08*
%MOMM*%
%LPD*%
G01*
G04 APERTURE LIST*
%ADD10C,0.300000*%
%ADD11C,0.254000*%
%ADD12C,0.100000*%
G04 APERTURE END LIST*
D10*
X35603571Y-65657857D02*
X34103571Y-65657857D01*
X34603571Y-66372142D02*
X35603571Y-66372142D01*
X34746428Y-66372142D02*
X34675000Y-66443571D01*
X34603571Y-66586428D01*
X34603571Y-66800714D01*
X34675000Y-66943571D01*
X34817857Y-67014999D01*
X35603571Y-67014999D01*
X35532142Y-67657857D02*
X35603571Y-67800714D01*
X35603571Y-68086428D01*
X35532142Y-68229285D01*
X35389285Y-68300714D01*
X35317857Y-68300714D01*
X35175000Y-68229285D01*
X35103571Y-68086428D01*
X35103571Y-67872142D01*
X35032142Y-67729285D01*
X34889285Y-67657857D01*
X34817857Y-67657857D01*
X34675000Y-67729285D01*
X34603571Y-67872142D01*
X34603571Y-68086428D01*
X34675000Y-68229285D01*
X34603571Y-68729285D02*
X34603571Y-69300714D01*
X34103571Y-68943571D02*
X35389285Y-68943571D01*
X35532142Y-69015000D01*
X35603571Y-69157857D01*
X35603571Y-69300714D01*
X35603571Y-70443571D02*
X34817857Y-70443571D01*
X34675000Y-70372142D01*
X34603571Y-70229285D01*
X34603571Y-69943571D01*
X34675000Y-69800714D01*
X35532142Y-70443571D02*
X35603571Y-70300714D01*
X35603571Y-69943571D01*
X35532142Y-69800714D01*
X35389285Y-69729285D01*
X35246428Y-69729285D01*
X35103571Y-69800714D01*
X35032142Y-69943571D01*
X35032142Y-70300714D01*
X34960714Y-70443571D01*
X35603571Y-71372142D02*
X35532142Y-71229285D01*
X35389285Y-71157857D01*
X34103571Y-71157857D01*
X35603571Y-72157857D02*
X35532142Y-72015000D01*
X35389285Y-71943571D01*
X34103571Y-71943571D01*
X35603571Y-74729285D02*
X34889285Y-74229285D01*
X35603571Y-73872142D02*
X34103571Y-73872142D01*
X34103571Y-74443571D01*
X34175000Y-74586428D01*
X34246428Y-74657857D01*
X34389285Y-74729285D01*
X34603571Y-74729285D01*
X34746428Y-74657857D01*
X34817857Y-74586428D01*
X34889285Y-74443571D01*
X34889285Y-73872142D01*
X34103571Y-75800714D02*
X35175000Y-75800714D01*
X35389285Y-75729285D01*
X35532142Y-75586428D01*
X35603571Y-75372142D01*
X35603571Y-75229285D01*
X34246428Y-76443571D02*
X34175000Y-76515000D01*
X34103571Y-76657857D01*
X34103571Y-77015000D01*
X34175000Y-77157857D01*
X34246428Y-77229285D01*
X34389285Y-77300714D01*
X34532142Y-77300714D01*
X34746428Y-77229285D01*
X35603571Y-76372142D01*
X35603571Y-77300714D01*
X35603571Y-78729285D02*
X35603571Y-77872142D01*
X35603571Y-78300714D02*
X34103571Y-78300714D01*
X34317857Y-78157857D01*
X34460714Y-78014999D01*
X34532142Y-77872142D01*
X34103571Y-79229285D02*
X35603571Y-80229285D01*
X34103571Y-80229285D02*
X35603571Y-79229285D01*
X35460714Y-82800714D02*
X35532142Y-82729285D01*
X35603571Y-82514999D01*
X35603571Y-82372142D01*
X35532142Y-82157857D01*
X35389285Y-82014999D01*
X35246428Y-81943571D01*
X34960714Y-81872142D01*
X34746428Y-81872142D01*
X34460714Y-81943571D01*
X34317857Y-82014999D01*
X34175000Y-82157857D01*
X34103571Y-82372142D01*
X34103571Y-82514999D01*
X34175000Y-82729285D01*
X34246428Y-82800714D01*
X35603571Y-83657857D02*
X35532142Y-83514999D01*
X35460714Y-83443571D01*
X35317857Y-83372142D01*
X34889285Y-83372142D01*
X34746428Y-83443571D01*
X34675000Y-83514999D01*
X34603571Y-83657857D01*
X34603571Y-83872142D01*
X34675000Y-84014999D01*
X34746428Y-84086428D01*
X34889285Y-84157857D01*
X35317857Y-84157857D01*
X35460714Y-84086428D01*
X35532142Y-84014999D01*
X35603571Y-83872142D01*
X35603571Y-83657857D01*
X34603571Y-84800714D02*
X35603571Y-84800714D01*
X34746428Y-84800714D02*
X34675000Y-84872142D01*
X34603571Y-85014999D01*
X34603571Y-85229285D01*
X34675000Y-85372142D01*
X34817857Y-85443571D01*
X35603571Y-85443571D01*
X34603571Y-86157857D02*
X35603571Y-86157857D01*
X34746428Y-86157857D02*
X34675000Y-86229285D01*
X34603571Y-86372142D01*
X34603571Y-86586428D01*
X34675000Y-86729285D01*
X34817857Y-86800714D01*
X35603571Y-86800714D01*
X35532142Y-88086428D02*
X35603571Y-87943571D01*
X35603571Y-87657857D01*
X35532142Y-87515000D01*
X35389285Y-87443571D01*
X34817857Y-87443571D01*
X34675000Y-87515000D01*
X34603571Y-87657857D01*
X34603571Y-87943571D01*
X34675000Y-88086428D01*
X34817857Y-88157857D01*
X34960714Y-88157857D01*
X35103571Y-87443571D01*
X35532142Y-89443571D02*
X35603571Y-89300714D01*
X35603571Y-89015000D01*
X35532142Y-88872142D01*
X35460714Y-88800714D01*
X35317857Y-88729285D01*
X34889285Y-88729285D01*
X34746428Y-88800714D01*
X34675000Y-88872142D01*
X34603571Y-89015000D01*
X34603571Y-89300714D01*
X34675000Y-89443571D01*
X34603571Y-89872142D02*
X34603571Y-90443571D01*
X34103571Y-90086428D02*
X35389285Y-90086428D01*
X35532142Y-90157857D01*
X35603571Y-90300714D01*
X35603571Y-90443571D01*
X35603571Y-91157857D02*
X35532142Y-91015000D01*
X35460714Y-90943571D01*
X35317857Y-90872142D01*
X34889285Y-90872142D01*
X34746428Y-90943571D01*
X34675000Y-91015000D01*
X34603571Y-91157857D01*
X34603571Y-91372142D01*
X34675000Y-91515000D01*
X34746428Y-91586428D01*
X34889285Y-91657857D01*
X35317857Y-91657857D01*
X35460714Y-91586428D01*
X35532142Y-91515000D01*
X35603571Y-91372142D01*
X35603571Y-91157857D01*
X35603571Y-92300714D02*
X34603571Y-92300714D01*
X34889285Y-92300714D02*
X34746428Y-92372142D01*
X34675000Y-92443571D01*
X34603571Y-92586428D01*
X34603571Y-92729285D01*
X35603571Y-94586428D02*
X35532142Y-94443571D01*
X35460714Y-94372142D01*
X35317857Y-94300714D01*
X34889285Y-94300714D01*
X34746428Y-94372142D01*
X34675000Y-94443571D01*
X34603571Y-94586428D01*
X34603571Y-94800714D01*
X34675000Y-94943571D01*
X34746428Y-95015000D01*
X34889285Y-95086428D01*
X35317857Y-95086428D01*
X35460714Y-95015000D01*
X35532142Y-94943571D01*
X35603571Y-94800714D01*
X35603571Y-94586428D01*
X34603571Y-95729285D02*
X35603571Y-95729285D01*
X34746428Y-95729285D02*
X34675000Y-95800714D01*
X34603571Y-95943571D01*
X34603571Y-96157857D01*
X34675000Y-96300714D01*
X34817857Y-96372142D01*
X35603571Y-96372142D01*
X35532142Y-98157857D02*
X35603571Y-98300714D01*
X35603571Y-98586428D01*
X35532142Y-98729285D01*
X35389285Y-98800714D01*
X35317857Y-98800714D01*
X35175000Y-98729285D01*
X35103571Y-98586428D01*
X35103571Y-98372142D01*
X35032142Y-98229285D01*
X34889285Y-98157857D01*
X34817857Y-98157857D01*
X34675000Y-98229285D01*
X34603571Y-98372142D01*
X34603571Y-98586428D01*
X34675000Y-98729285D01*
X35603571Y-99657857D02*
X35532142Y-99515000D01*
X35460714Y-99443571D01*
X35317857Y-99372142D01*
X34889285Y-99372142D01*
X34746428Y-99443571D01*
X34675000Y-99515000D01*
X34603571Y-99657857D01*
X34603571Y-99872142D01*
X34675000Y-100015000D01*
X34746428Y-100086428D01*
X34889285Y-100157857D01*
X35317857Y-100157857D01*
X35460714Y-100086428D01*
X35532142Y-100015000D01*
X35603571Y-99872142D01*
X35603571Y-99657857D01*
X35603571Y-101015000D02*
X35532142Y-100872142D01*
X35389285Y-100800714D01*
X34103571Y-100800714D01*
X35603571Y-102229285D02*
X34103571Y-102229285D01*
X35532142Y-102229285D02*
X35603571Y-102086428D01*
X35603571Y-101800714D01*
X35532142Y-101657857D01*
X35460714Y-101586428D01*
X35317857Y-101515000D01*
X34889285Y-101515000D01*
X34746428Y-101586428D01*
X34675000Y-101657857D01*
X34603571Y-101800714D01*
X34603571Y-102086428D01*
X34675000Y-102229285D01*
X35532142Y-103515000D02*
X35603571Y-103372142D01*
X35603571Y-103086428D01*
X35532142Y-102943571D01*
X35389285Y-102872142D01*
X34817857Y-102872142D01*
X34675000Y-102943571D01*
X34603571Y-103086428D01*
X34603571Y-103372142D01*
X34675000Y-103515000D01*
X34817857Y-103586428D01*
X34960714Y-103586428D01*
X35103571Y-102872142D01*
X35603571Y-104229285D02*
X34603571Y-104229285D01*
X34889285Y-104229285D02*
X34746428Y-104300714D01*
X34675000Y-104372142D01*
X34603571Y-104515000D01*
X34603571Y-104657857D01*
X35532142Y-106229285D02*
X35603571Y-106372142D01*
X35603571Y-106657857D01*
X35532142Y-106800714D01*
X35389285Y-106872142D01*
X35317857Y-106872142D01*
X35175000Y-106800714D01*
X35103571Y-106657857D01*
X35103571Y-106443571D01*
X35032142Y-106300714D01*
X34889285Y-106229285D01*
X34817857Y-106229285D01*
X34675000Y-106300714D01*
X34603571Y-106443571D01*
X34603571Y-106657857D01*
X34675000Y-106800714D01*
X35603571Y-107515000D02*
X34603571Y-107515000D01*
X34103571Y-107515000D02*
X34175000Y-107443571D01*
X34246428Y-107515000D01*
X34175000Y-107586428D01*
X34103571Y-107515000D01*
X34246428Y-107515000D01*
X35603571Y-108872142D02*
X34103571Y-108872142D01*
X35532142Y-108872142D02*
X35603571Y-108729285D01*
X35603571Y-108443571D01*
X35532142Y-108300714D01*
X35460714Y-108229285D01*
X35317857Y-108157857D01*
X34889285Y-108157857D01*
X34746428Y-108229285D01*
X34675000Y-108300714D01*
X34603571Y-108443571D01*
X34603571Y-108729285D01*
X34675000Y-108872142D01*
X35532142Y-110157857D02*
X35603571Y-110015000D01*
X35603571Y-109729285D01*
X35532142Y-109586428D01*
X35389285Y-109515000D01*
X34817857Y-109515000D01*
X34675000Y-109586428D01*
X34603571Y-109729285D01*
X34603571Y-110015000D01*
X34675000Y-110157857D01*
X34817857Y-110229285D01*
X34960714Y-110229285D01*
X35103571Y-109515000D01*
X35460714Y-110872142D02*
X35532142Y-110943571D01*
X35603571Y-110872142D01*
X35532142Y-110800714D01*
X35460714Y-110872142D01*
X35603571Y-110872142D01*
D11*
X36134523Y-88476666D02*
X37041666Y-88476666D01*
X37223095Y-88416190D01*
X37344047Y-88295238D01*
X37404523Y-88113809D01*
X37404523Y-87992857D01*
X37404523Y-89746666D02*
X37404523Y-89020952D01*
X37404523Y-89383809D02*
X36134523Y-89383809D01*
X36315952Y-89262857D01*
X36436904Y-89141904D01*
X36497380Y-89020952D01*
D12*
X48820000Y-64470000D02*
X48820000Y-64470000D01*
X33274000Y-53265000D02*
X37140000Y-53265000D01*
X37140000Y-128115000D02*
X33274000Y-128115000D01*
X48720000Y-64470000D02*
X48720000Y-64470000D01*
X33274000Y-128115000D02*
X33274000Y-53265000D01*
X48820000Y-64470000D02*
G75*
G03*
X48720000Y-64470000I-50000J0D01*
G01*
X48720000Y-64470000D02*
G75*
G03*
X48820000Y-64470000I50000J0D01*
G01*
M02*
