M48
; DRILL file {KiCad 8.0.1} date 2024-04-13T23:21:55-0700
; FORMAT={-:-/ absolute / inch / decimal}
; #@! TF.CreationDate,2024-04-13T23:21:55-07:00
; #@! TF.GenerationSoftware,Kicad,Pcbnew,8.0.1
; #@! TF.FileFunction,Plated,1,2,PTH
FMAT,2
INCH
; #@! TA.AperFunction,Plated,PTH,ComponentDrill
T1C0.0315
; #@! TA.AperFunction,Plated,PTH,ComponentDrill
T2C0.0354
; #@! TA.AperFunction,Plated,PTH,ComponentDrill
T3C0.0394
; #@! TA.AperFunction,Plated,PTH,ComponentDrill
T4C0.1063
; #@! TA.AperFunction,Plated,PTH,ComponentDrill
T5C0.1260
%
G90
G05
T1
X2.3431Y-1.2424
X2.3431Y-1.39
X2.35Y-1.55
X2.35Y-2.2
X2.35Y-2.5
X2.35Y-3.325
X2.35Y-3.7173
X2.35Y-4.45
X2.54Y-1.39
X2.6431Y-1.2424
X2.75Y-1.55
X2.75Y-2.2
X2.75Y-2.5
X2.75Y-3.325
X2.75Y-3.7173
X2.75Y-4.45
X4.5Y-2.0
X4.5Y-3.95
X4.8Y-2.0
X4.8Y-3.95
T2
X5.05Y-1.889
X5.05Y-1.989
X5.05Y-3.8415
X5.05Y-3.9415
T3
X1.6311Y-1.9587
X1.6311Y-2.0437
X1.6311Y-2.1287
X1.6311Y-2.2138
X1.6311Y-2.2988
X1.6311Y-2.3839
X1.6311Y-2.4689
X1.6311Y-2.5539
X1.6311Y-2.639
X1.6311Y-2.724
X1.6311Y-2.8091
X1.6311Y-2.8941
X1.6311Y-2.9791
X1.6311Y-3.0642
X1.6311Y-3.1492
X1.6311Y-3.2343
X1.6311Y-3.3193
X1.6311Y-3.4043
X1.6311Y-3.4894
X1.6311Y-3.5744
X1.6311Y-3.6594
X1.6311Y-3.7445
X1.6311Y-3.8295
X1.6311Y-3.9146
X1.6311Y-3.9996
X1.8Y-1.9587
X1.8Y-2.0437
X1.8Y-2.1287
X1.8Y-2.2138
X1.8Y-2.2988
X1.8Y-2.3839
X1.8Y-2.4689
X1.8Y-2.5539
X1.8Y-2.639
X1.8Y-2.724
X1.8Y-2.8091
X1.8Y-2.8941
X1.8Y-2.9791
X1.8Y-3.0642
X1.8Y-3.1492
X1.8Y-3.2343
X1.8Y-3.3193
X1.8Y-3.4043
X1.8Y-3.4894
X1.8Y-3.5744
X1.8Y-3.6594
X1.8Y-3.7445
X1.8Y-3.8295
X1.8Y-3.9146
X1.8Y-3.9996
X2.0806Y-1.5772
X2.0806Y-1.6772
X2.0806Y-1.7772
X2.0806Y-1.8772
X2.0806Y-1.9772
X2.0806Y-2.0772
X2.0806Y-2.1772
X2.0806Y-2.2772
X2.0806Y-2.3772
X2.0806Y-2.4772
X2.0806Y-3.5298
X2.0806Y-3.6298
X2.0806Y-3.7298
X2.0806Y-3.8298
X2.0806Y-3.9298
X2.0806Y-4.0298
X2.0806Y-4.1298
X2.0806Y-4.2298
X2.0806Y-4.3298
X2.0806Y-4.4298
X2.1806Y-1.5772
X2.1806Y-1.6772
X2.1806Y-1.7772
X2.1806Y-1.8772
X2.1806Y-1.9772
X2.1806Y-2.0772
X2.1806Y-2.1772
X2.1806Y-2.2772
X2.1806Y-2.3772
X2.1806Y-2.4772
X2.1806Y-3.5298
X2.1806Y-3.6298
X2.1806Y-3.7298
X2.1806Y-3.8298
X2.1806Y-3.9298
X2.1806Y-4.0298
X2.1806Y-4.1298
X2.1806Y-4.2298
X2.1806Y-4.3298
X2.1806Y-4.4298
X2.4992Y-1.6799
X2.4992Y-1.7799
X2.4992Y-1.8799
X2.4992Y-1.9799
X2.4992Y-2.0799
X2.5992Y-1.6799
X2.5992Y-1.7799
X2.5992Y-1.8799
X2.5992Y-1.9799
X2.5992Y-2.0799
T4
X1.6937Y-1.2075
X1.6937Y-4.7902
X2.12Y-1.2173
X2.12Y-2.8315
X2.12Y-3.17
X2.12Y-4.7842
X5.0894Y-1.2075
X5.0894Y-3.176
X5.094Y-2.8315
X5.094Y-4.7842
T5
X1.7156Y-1.5057
X1.7156Y-4.4526
M30
