G04 #@! TF.GenerationSoftware,KiCad,Pcbnew,8.0.1*
G04 #@! TF.CreationDate,2024-04-13T23:21:52-07:00*
G04 #@! TF.ProjectId,ac125a_dtmf,61633132-3561-45f6-9474-6d662e6b6963,3*
G04 #@! TF.SameCoordinates,Original*
G04 #@! TF.FileFunction,Soldermask,Bot*
G04 #@! TF.FilePolarity,Negative*
%FSLAX46Y46*%
G04 Gerber Fmt 4.6, Leading zero omitted, Abs format (unit mm)*
G04 Created by KiCad (PCBNEW 8.0.1) date 2024-04-13 23:21:52*
%MOMM*%
%LPD*%
G01*
G04 APERTURE LIST*
%ADD10C,1.500000*%
%ADD11C,4.800000*%
%ADD12R,1.700000X1.700000*%
%ADD13O,1.700000X1.700000*%
%ADD14C,5.400000*%
%ADD15C,1.600000*%
%ADD16O,1.600000X1.600000*%
%ADD17R,1.800000X1.800000*%
%ADD18C,1.800000*%
G04 APERTURE END LIST*
D10*
X45720000Y-49750000D03*
X45720000Y-51910000D03*
X45720000Y-54070000D03*
X45720000Y-56230000D03*
X45720000Y-58390000D03*
X45720000Y-60550000D03*
X45720000Y-62710000D03*
X45720000Y-64870000D03*
X45720000Y-67030000D03*
X45720000Y-69190000D03*
X45720000Y-71350000D03*
X45720000Y-73510000D03*
X45720000Y-75670000D03*
X45720000Y-77830000D03*
X45720000Y-79990000D03*
X45720000Y-82150000D03*
X45720000Y-84310000D03*
X45720000Y-86470000D03*
X45720000Y-88630000D03*
X45720000Y-90790000D03*
X45720000Y-92950000D03*
X45720000Y-95110000D03*
X45720000Y-97270000D03*
X45720000Y-99430000D03*
X45720000Y-101590000D03*
X41430000Y-49750000D03*
X41430000Y-51910000D03*
X41430000Y-54070000D03*
X41430000Y-56230000D03*
X41430000Y-58390000D03*
X41430000Y-60550000D03*
X41430000Y-62710000D03*
X41430000Y-64870000D03*
X41430000Y-67030000D03*
X41430000Y-69190000D03*
X41430000Y-71350000D03*
X41430000Y-73510000D03*
X41430000Y-75670000D03*
X41430000Y-77830000D03*
X41430000Y-79990000D03*
X41430000Y-82150000D03*
X41430000Y-84310000D03*
X41430000Y-86470000D03*
X41430000Y-88630000D03*
X41430000Y-90790000D03*
X41430000Y-92950000D03*
X41430000Y-95110000D03*
X41430000Y-97270000D03*
X41430000Y-99430000D03*
X41430000Y-101590000D03*
D11*
X43575000Y-38245000D03*
X43575000Y-113095000D03*
D12*
X55388000Y-62920000D03*
D13*
X52848000Y-62920000D03*
X55388000Y-60380000D03*
X52848000Y-60380000D03*
X55388000Y-57840000D03*
X52848000Y-57840000D03*
X55388000Y-55300000D03*
X52848000Y-55300000D03*
X55388000Y-52760000D03*
X52848000Y-52760000D03*
X55388000Y-50220000D03*
X52848000Y-50220000D03*
X55388000Y-47680000D03*
X52848000Y-47680000D03*
X55388000Y-45140000D03*
X52848000Y-45140000D03*
X55388000Y-42600000D03*
X52848000Y-42600000D03*
X55388000Y-40060000D03*
X52848000Y-40060000D03*
D14*
X53848000Y-30920000D03*
X53848000Y-71920000D03*
X129388000Y-71920000D03*
D15*
X121920000Y-100330000D03*
D16*
X114300000Y-100330000D03*
D12*
X55388000Y-112518000D03*
D13*
X52848000Y-112518000D03*
X55388000Y-109978000D03*
X52848000Y-109978000D03*
X55388000Y-107438000D03*
X52848000Y-107438000D03*
X55388000Y-104898000D03*
X52848000Y-104898000D03*
X55388000Y-102358000D03*
X52848000Y-102358000D03*
X55388000Y-99818000D03*
X52848000Y-99818000D03*
X55388000Y-97278000D03*
X52848000Y-97278000D03*
X55388000Y-94738000D03*
X52848000Y-94738000D03*
X55388000Y-92198000D03*
X52848000Y-92198000D03*
X55388000Y-89658000D03*
X52848000Y-89658000D03*
D14*
X53848000Y-80518000D03*
X53848000Y-121518000D03*
X129388000Y-121518000D03*
D15*
X69850000Y-55880000D03*
D16*
X59690000Y-55880000D03*
D15*
X121920000Y-50800000D03*
D16*
X114300000Y-50800000D03*
D14*
X43020000Y-30670000D03*
D17*
X128270000Y-47980000D03*
D18*
X128270000Y-50520000D03*
D15*
X69850000Y-113030000D03*
D16*
X59690000Y-113030000D03*
D15*
X59690000Y-63500000D03*
D16*
X69850000Y-63500000D03*
D14*
X43020000Y-121670000D03*
D17*
X128270000Y-97575000D03*
D18*
X128270000Y-100115000D03*
D14*
X129270000Y-80670000D03*
D15*
X59516000Y-35306000D03*
X64516000Y-35306000D03*
X69850000Y-39370000D03*
D16*
X59690000Y-39370000D03*
D15*
X59690000Y-84455000D03*
D16*
X69850000Y-84455000D03*
D14*
X129270000Y-30670000D03*
D15*
X59516000Y-31556000D03*
D16*
X67136000Y-31556000D03*
D15*
X69850000Y-94420000D03*
D16*
X59690000Y-94420000D03*
D12*
X63480000Y-52830000D03*
D13*
X66020000Y-52830000D03*
X63480000Y-50290000D03*
X66020000Y-50290000D03*
X63480000Y-47750000D03*
X66020000Y-47750000D03*
X63480000Y-45210000D03*
X66020000Y-45210000D03*
X63480000Y-42670000D03*
X66020000Y-42670000D03*
M02*
