G04 #@! TF.GenerationSoftware,KiCad,Pcbnew,(5.1.5)-3*
G04 #@! TF.CreationDate,2020-05-17T19:16:09-07:00*
G04 #@! TF.ProjectId,ac125a_dtmf,61633132-3561-45f6-9474-6d662e6b6963,rev?*
G04 #@! TF.SameCoordinates,Original*
G04 #@! TF.FileFunction,Copper,L2,Bot*
G04 #@! TF.FilePolarity,Positive*
%FSLAX46Y46*%
G04 Gerber Fmt 4.6, Leading zero omitted, Abs format (unit mm)*
G04 Created by KiCad (PCBNEW (5.1.5)-3) date 2020-05-17 19:16:09*
%MOMM*%
%LPD*%
G04 APERTURE LIST*
%ADD10C,0.300000*%
%ADD11C,0.150000*%
%ADD12C,7.400000*%
%ADD13O,1.600000X1.600000*%
%ADD14C,1.600000*%
%ADD15O,1.700000X1.700000*%
%ADD16R,1.700000X1.700000*%
%ADD17R,1.600000X1.600000*%
%ADD18C,4.000000*%
%ADD19C,1.500000*%
%ADD20C,4.800000*%
%ADD21R,1.800000X1.800000*%
%ADD22C,1.800000*%
%ADD23R,1.500000X3.000000*%
%ADD24O,1.500000X3.000000*%
%ADD25C,2.000000*%
%ADD26C,3.500000*%
%ADD27C,1.700000*%
%ADD28O,2.200000X2.200000*%
%ADD29R,2.200000X2.200000*%
%ADD30C,0.800000*%
%ADD31C,1.000000*%
%ADD32C,0.500000*%
%ADD33C,0.250000*%
G04 APERTURE END LIST*
D10*
X91692142Y-28467857D02*
X92192142Y-28467857D01*
X92192142Y-29253571D02*
X92192142Y-27753571D01*
X91477857Y-27753571D01*
X90120714Y-29253571D02*
X90977857Y-29253571D01*
X90549285Y-29253571D02*
X90549285Y-27753571D01*
X90692142Y-27967857D01*
X90835000Y-28110714D01*
X90977857Y-28182142D01*
X89406428Y-29182142D02*
X89406428Y-29253571D01*
X89477857Y-29396428D01*
X89549285Y-29467857D01*
X87120714Y-28467857D02*
X87620714Y-28467857D01*
X87620714Y-29253571D02*
X87620714Y-27753571D01*
X86906428Y-27753571D01*
X86406428Y-27896428D02*
X86335000Y-27825000D01*
X86192142Y-27753571D01*
X85835000Y-27753571D01*
X85692142Y-27825000D01*
X85620714Y-27896428D01*
X85549285Y-28039285D01*
X85549285Y-28182142D01*
X85620714Y-28396428D01*
X86477857Y-29253571D01*
X85549285Y-29253571D01*
X83763571Y-28682142D02*
X82620714Y-28682142D01*
X80120714Y-27753571D02*
X80406428Y-27753571D01*
X80549285Y-27825000D01*
X80620714Y-27896428D01*
X80763571Y-28110714D01*
X80835000Y-28396428D01*
X80835000Y-28967857D01*
X80763571Y-29110714D01*
X80692142Y-29182142D01*
X80549285Y-29253571D01*
X80263571Y-29253571D01*
X80120714Y-29182142D01*
X80049285Y-29110714D01*
X79977857Y-28967857D01*
X79977857Y-28610714D01*
X80049285Y-28467857D01*
X80120714Y-28396428D01*
X80263571Y-28325000D01*
X80549285Y-28325000D01*
X80692142Y-28396428D01*
X80763571Y-28467857D01*
X80835000Y-28610714D01*
X79477857Y-27753571D02*
X78549285Y-27753571D01*
X79049285Y-28325000D01*
X78835000Y-28325000D01*
X78692142Y-28396428D01*
X78620714Y-28467857D01*
X78549285Y-28610714D01*
X78549285Y-28967857D01*
X78620714Y-29110714D01*
X78692142Y-29182142D01*
X78835000Y-29253571D01*
X79263571Y-29253571D01*
X79406428Y-29182142D01*
X79477857Y-29110714D01*
X77620714Y-27753571D02*
X77477857Y-27753571D01*
X77335000Y-27825000D01*
X77263571Y-27896428D01*
X77192142Y-28039285D01*
X77120714Y-28325000D01*
X77120714Y-28682142D01*
X77192142Y-28967857D01*
X77263571Y-29110714D01*
X77335000Y-29182142D01*
X77477857Y-29253571D01*
X77620714Y-29253571D01*
X77763571Y-29182142D01*
X77835000Y-29110714D01*
X77906428Y-28967857D01*
X77977857Y-28682142D01*
X77977857Y-28325000D01*
X77906428Y-28039285D01*
X77835000Y-27896428D01*
X77763571Y-27825000D01*
X77620714Y-27753571D01*
X76477857Y-29253571D02*
X76477857Y-28253571D01*
X76477857Y-28396428D02*
X76406428Y-28325000D01*
X76263571Y-28253571D01*
X76049285Y-28253571D01*
X75906428Y-28325000D01*
X75835000Y-28467857D01*
X75835000Y-29253571D01*
X75835000Y-28467857D02*
X75763571Y-28325000D01*
X75620714Y-28253571D01*
X75406428Y-28253571D01*
X75263571Y-28325000D01*
X75192142Y-28467857D01*
X75192142Y-29253571D01*
X74549285Y-28825000D02*
X73835000Y-28825000D01*
X74692142Y-29253571D02*
X74192142Y-27753571D01*
X73692142Y-29253571D01*
X70977857Y-27682142D02*
X72263571Y-29610714D01*
X68549285Y-29253571D02*
X69406428Y-29253571D01*
X68977857Y-29253571D02*
X68977857Y-27753571D01*
X69120714Y-27967857D01*
X69263571Y-28110714D01*
X69406428Y-28182142D01*
X67977857Y-27896428D02*
X67906428Y-27825000D01*
X67763571Y-27753571D01*
X67406428Y-27753571D01*
X67263571Y-27825000D01*
X67192142Y-27896428D01*
X67120714Y-28039285D01*
X67120714Y-28182142D01*
X67192142Y-28396428D01*
X68049285Y-29253571D01*
X67120714Y-29253571D01*
X65763571Y-27753571D02*
X66477857Y-27753571D01*
X66549285Y-28467857D01*
X66477857Y-28396428D01*
X66335000Y-28325000D01*
X65977857Y-28325000D01*
X65835000Y-28396428D01*
X65763571Y-28467857D01*
X65692142Y-28610714D01*
X65692142Y-28967857D01*
X65763571Y-29110714D01*
X65835000Y-29182142D01*
X65977857Y-29253571D01*
X66335000Y-29253571D01*
X66477857Y-29182142D01*
X66549285Y-29110714D01*
X65263571Y-27753571D02*
X64763571Y-29253571D01*
X64263571Y-27753571D01*
X63763571Y-29253571D02*
X63763571Y-27753571D01*
X63406428Y-27753571D01*
X63192142Y-27825000D01*
X63049285Y-27967857D01*
X62977857Y-28110714D01*
X62906428Y-28396428D01*
X62906428Y-28610714D01*
X62977857Y-28896428D01*
X63049285Y-29039285D01*
X63192142Y-29182142D01*
X63406428Y-29253571D01*
X63763571Y-29253571D01*
X61406428Y-29110714D02*
X61477857Y-29182142D01*
X61692142Y-29253571D01*
X61835000Y-29253571D01*
X62049285Y-29182142D01*
X62192142Y-29039285D01*
X62263571Y-28896428D01*
X62335000Y-28610714D01*
X62335000Y-28396428D01*
X62263571Y-28110714D01*
X62192142Y-27967857D01*
X62049285Y-27825000D01*
X61835000Y-27753571D01*
X61692142Y-27753571D01*
X61477857Y-27825000D01*
X61406428Y-27896428D01*
D11*
X95026190Y-146582380D02*
X94835714Y-146582380D01*
X94740476Y-146630000D01*
X94645238Y-146725238D01*
X94597619Y-146915714D01*
X94597619Y-147249047D01*
X94645238Y-147439523D01*
X94740476Y-147534761D01*
X94835714Y-147582380D01*
X95026190Y-147582380D01*
X95121428Y-147534761D01*
X95216666Y-147439523D01*
X95264285Y-147249047D01*
X95264285Y-146915714D01*
X95216666Y-146725238D01*
X95121428Y-146630000D01*
X95026190Y-146582380D01*
X94169047Y-147582380D02*
X94169047Y-146582380D01*
X93597619Y-147582380D02*
X94026190Y-147010952D01*
X93597619Y-146582380D02*
X94169047Y-147153809D01*
X93169047Y-147582380D02*
X93169047Y-146582380D01*
X91978571Y-147296666D02*
X91502380Y-147296666D01*
X92073809Y-147582380D02*
X91740476Y-146582380D01*
X91407142Y-147582380D01*
X90502380Y-147487142D02*
X90550000Y-147534761D01*
X90692857Y-147582380D01*
X90788095Y-147582380D01*
X90930952Y-147534761D01*
X91026190Y-147439523D01*
X91073809Y-147344285D01*
X91121428Y-147153809D01*
X91121428Y-147010952D01*
X91073809Y-146820476D01*
X91026190Y-146725238D01*
X90930952Y-146630000D01*
X90788095Y-146582380D01*
X90692857Y-146582380D01*
X90550000Y-146630000D01*
X90502380Y-146677619D01*
X89550000Y-147582380D02*
X90121428Y-147582380D01*
X89835714Y-147582380D02*
X89835714Y-146582380D01*
X89930952Y-146725238D01*
X90026190Y-146820476D01*
X90121428Y-146868095D01*
X89169047Y-146677619D02*
X89121428Y-146630000D01*
X89026190Y-146582380D01*
X88788095Y-146582380D01*
X88692857Y-146630000D01*
X88645238Y-146677619D01*
X88597619Y-146772857D01*
X88597619Y-146868095D01*
X88645238Y-147010952D01*
X89216666Y-147582380D01*
X88597619Y-147582380D01*
X87692857Y-146582380D02*
X88169047Y-146582380D01*
X88216666Y-147058571D01*
X88169047Y-147010952D01*
X88073809Y-146963333D01*
X87835714Y-146963333D01*
X87740476Y-147010952D01*
X87692857Y-147058571D01*
X87645238Y-147153809D01*
X87645238Y-147391904D01*
X87692857Y-147487142D01*
X87740476Y-147534761D01*
X87835714Y-147582380D01*
X88073809Y-147582380D01*
X88169047Y-147534761D01*
X88216666Y-147487142D01*
X87264285Y-147296666D02*
X86788095Y-147296666D01*
X87359523Y-147582380D02*
X87026190Y-146582380D01*
X86692857Y-147582380D01*
X85597619Y-147582380D02*
X85597619Y-146582380D01*
X85359523Y-146582380D01*
X85216666Y-146630000D01*
X85121428Y-146725238D01*
X85073809Y-146820476D01*
X85026190Y-147010952D01*
X85026190Y-147153809D01*
X85073809Y-147344285D01*
X85121428Y-147439523D01*
X85216666Y-147534761D01*
X85359523Y-147582380D01*
X85597619Y-147582380D01*
X84740476Y-146582380D02*
X84169047Y-146582380D01*
X84454761Y-147582380D02*
X84454761Y-146582380D01*
X83835714Y-147582380D02*
X83835714Y-146582380D01*
X83502380Y-147296666D01*
X83169047Y-146582380D01*
X83169047Y-147582380D01*
X82359523Y-147058571D02*
X82692857Y-147058571D01*
X82692857Y-147582380D02*
X82692857Y-146582380D01*
X82216666Y-146582380D01*
X80502380Y-147487142D02*
X80550000Y-147534761D01*
X80692857Y-147582380D01*
X80788095Y-147582380D01*
X80930952Y-147534761D01*
X81026190Y-147439523D01*
X81073809Y-147344285D01*
X81121428Y-147153809D01*
X81121428Y-147010952D01*
X81073809Y-146820476D01*
X81026190Y-146725238D01*
X80930952Y-146630000D01*
X80788095Y-146582380D01*
X80692857Y-146582380D01*
X80550000Y-146630000D01*
X80502380Y-146677619D01*
X79930952Y-147582380D02*
X80026190Y-147534761D01*
X80073809Y-147487142D01*
X80121428Y-147391904D01*
X80121428Y-147106190D01*
X80073809Y-147010952D01*
X80026190Y-146963333D01*
X79930952Y-146915714D01*
X79788095Y-146915714D01*
X79692857Y-146963333D01*
X79645238Y-147010952D01*
X79597619Y-147106190D01*
X79597619Y-147391904D01*
X79645238Y-147487142D01*
X79692857Y-147534761D01*
X79788095Y-147582380D01*
X79930952Y-147582380D01*
X79169047Y-146915714D02*
X79169047Y-147582380D01*
X79169047Y-147010952D02*
X79121428Y-146963333D01*
X79026190Y-146915714D01*
X78883333Y-146915714D01*
X78788095Y-146963333D01*
X78740476Y-147058571D01*
X78740476Y-147582380D01*
X78359523Y-146915714D02*
X78121428Y-147582380D01*
X77883333Y-146915714D01*
X77121428Y-147534761D02*
X77216666Y-147582380D01*
X77407142Y-147582380D01*
X77502380Y-147534761D01*
X77550000Y-147439523D01*
X77550000Y-147058571D01*
X77502380Y-146963333D01*
X77407142Y-146915714D01*
X77216666Y-146915714D01*
X77121428Y-146963333D01*
X77073809Y-147058571D01*
X77073809Y-147153809D01*
X77550000Y-147249047D01*
X76645238Y-147582380D02*
X76645238Y-146915714D01*
X76645238Y-147106190D02*
X76597619Y-147010952D01*
X76550000Y-146963333D01*
X76454761Y-146915714D01*
X76359523Y-146915714D01*
X76169047Y-146915714D02*
X75788095Y-146915714D01*
X76026190Y-146582380D02*
X76026190Y-147439523D01*
X75978571Y-147534761D01*
X75883333Y-147582380D01*
X75788095Y-147582380D01*
X75073809Y-147534761D02*
X75169047Y-147582380D01*
X75359523Y-147582380D01*
X75454761Y-147534761D01*
X75502380Y-147439523D01*
X75502380Y-147058571D01*
X75454761Y-146963333D01*
X75359523Y-146915714D01*
X75169047Y-146915714D01*
X75073809Y-146963333D01*
X75026190Y-147058571D01*
X75026190Y-147153809D01*
X75502380Y-147249047D01*
X74597619Y-147582380D02*
X74597619Y-146915714D01*
X74597619Y-147106190D02*
X74550000Y-147010952D01*
X74502380Y-146963333D01*
X74407142Y-146915714D01*
X74311904Y-146915714D01*
X73216666Y-147582380D02*
X73216666Y-146582380D01*
X72788095Y-147534761D02*
X72692857Y-147582380D01*
X72502380Y-147582380D01*
X72407142Y-147534761D01*
X72359523Y-147439523D01*
X72359523Y-147391904D01*
X72407142Y-147296666D01*
X72502380Y-147249047D01*
X72645238Y-147249047D01*
X72740476Y-147201428D01*
X72788095Y-147106190D01*
X72788095Y-147058571D01*
X72740476Y-146963333D01*
X72645238Y-146915714D01*
X72502380Y-146915714D01*
X72407142Y-146963333D01*
X71978571Y-147534761D02*
X71883333Y-147582380D01*
X71692857Y-147582380D01*
X71597619Y-147534761D01*
X71550000Y-147439523D01*
X71550000Y-147391904D01*
X71597619Y-147296666D01*
X71692857Y-147249047D01*
X71835714Y-147249047D01*
X71930952Y-147201428D01*
X71978571Y-147106190D01*
X71978571Y-147058571D01*
X71930952Y-146963333D01*
X71835714Y-146915714D01*
X71692857Y-146915714D01*
X71597619Y-146963333D01*
X69835714Y-147582380D02*
X70407142Y-147582380D01*
X70121428Y-147582380D02*
X70121428Y-146582380D01*
X70216666Y-146725238D01*
X70311904Y-146820476D01*
X70407142Y-146868095D01*
X95502380Y-149613333D02*
X95550000Y-149565714D01*
X95645238Y-149422857D01*
X95692857Y-149327619D01*
X95740476Y-149184761D01*
X95788095Y-148946666D01*
X95788095Y-148756190D01*
X95740476Y-148518095D01*
X95692857Y-148375238D01*
X95645238Y-148280000D01*
X95550000Y-148137142D01*
X95502380Y-148089523D01*
X94692857Y-149184761D02*
X94788095Y-149232380D01*
X94978571Y-149232380D01*
X95073809Y-149184761D01*
X95121428Y-149137142D01*
X95169047Y-149041904D01*
X95169047Y-148756190D01*
X95121428Y-148660952D01*
X95073809Y-148613333D01*
X94978571Y-148565714D01*
X94788095Y-148565714D01*
X94692857Y-148613333D01*
X94359523Y-149613333D02*
X94311904Y-149565714D01*
X94216666Y-149422857D01*
X94169047Y-149327619D01*
X94121428Y-149184761D01*
X94073809Y-148946666D01*
X94073809Y-148756190D01*
X94121428Y-148518095D01*
X94169047Y-148375238D01*
X94216666Y-148280000D01*
X94311904Y-148137142D01*
X94359523Y-148089523D01*
X92883333Y-148327619D02*
X92835714Y-148280000D01*
X92740476Y-148232380D01*
X92502380Y-148232380D01*
X92407142Y-148280000D01*
X92359523Y-148327619D01*
X92311904Y-148422857D01*
X92311904Y-148518095D01*
X92359523Y-148660952D01*
X92930952Y-149232380D01*
X92311904Y-149232380D01*
X91692857Y-148232380D02*
X91597619Y-148232380D01*
X91502380Y-148280000D01*
X91454761Y-148327619D01*
X91407142Y-148422857D01*
X91359523Y-148613333D01*
X91359523Y-148851428D01*
X91407142Y-149041904D01*
X91454761Y-149137142D01*
X91502380Y-149184761D01*
X91597619Y-149232380D01*
X91692857Y-149232380D01*
X91788095Y-149184761D01*
X91835714Y-149137142D01*
X91883333Y-149041904D01*
X91930952Y-148851428D01*
X91930952Y-148613333D01*
X91883333Y-148422857D01*
X91835714Y-148327619D01*
X91788095Y-148280000D01*
X91692857Y-148232380D01*
X90978571Y-148327619D02*
X90930952Y-148280000D01*
X90835714Y-148232380D01*
X90597619Y-148232380D01*
X90502380Y-148280000D01*
X90454761Y-148327619D01*
X90407142Y-148422857D01*
X90407142Y-148518095D01*
X90454761Y-148660952D01*
X91026190Y-149232380D01*
X90407142Y-149232380D01*
X89788095Y-148232380D02*
X89692857Y-148232380D01*
X89597619Y-148280000D01*
X89550000Y-148327619D01*
X89502380Y-148422857D01*
X89454761Y-148613333D01*
X89454761Y-148851428D01*
X89502380Y-149041904D01*
X89550000Y-149137142D01*
X89597619Y-149184761D01*
X89692857Y-149232380D01*
X89788095Y-149232380D01*
X89883333Y-149184761D01*
X89930952Y-149137142D01*
X89978571Y-149041904D01*
X90026190Y-148851428D01*
X90026190Y-148613333D01*
X89978571Y-148422857D01*
X89930952Y-148327619D01*
X89883333Y-148280000D01*
X89788095Y-148232380D01*
X88264285Y-149232380D02*
X88264285Y-148232380D01*
X88264285Y-148708571D02*
X87692857Y-148708571D01*
X87692857Y-149232380D02*
X87692857Y-148232380D01*
X87073809Y-149232380D02*
X87169047Y-149184761D01*
X87216666Y-149137142D01*
X87264285Y-149041904D01*
X87264285Y-148756190D01*
X87216666Y-148660952D01*
X87169047Y-148613333D01*
X87073809Y-148565714D01*
X86930952Y-148565714D01*
X86835714Y-148613333D01*
X86788095Y-148660952D01*
X86740476Y-148756190D01*
X86740476Y-149041904D01*
X86788095Y-149137142D01*
X86835714Y-149184761D01*
X86930952Y-149232380D01*
X87073809Y-149232380D01*
X86407142Y-148565714D02*
X86216666Y-149232380D01*
X86026190Y-148756190D01*
X85835714Y-149232380D01*
X85645238Y-148565714D01*
X84835714Y-149232380D02*
X84835714Y-148708571D01*
X84883333Y-148613333D01*
X84978571Y-148565714D01*
X85169047Y-148565714D01*
X85264285Y-148613333D01*
X84835714Y-149184761D02*
X84930952Y-149232380D01*
X85169047Y-149232380D01*
X85264285Y-149184761D01*
X85311904Y-149089523D01*
X85311904Y-148994285D01*
X85264285Y-148899047D01*
X85169047Y-148851428D01*
X84930952Y-148851428D01*
X84835714Y-148803809D01*
X84359523Y-149232380D02*
X84359523Y-148565714D01*
X84359523Y-148756190D02*
X84311904Y-148660952D01*
X84264285Y-148613333D01*
X84169047Y-148565714D01*
X84073809Y-148565714D01*
X83311904Y-149232380D02*
X83311904Y-148232380D01*
X83311904Y-149184761D02*
X83407142Y-149232380D01*
X83597619Y-149232380D01*
X83692857Y-149184761D01*
X83740476Y-149137142D01*
X83788095Y-149041904D01*
X83788095Y-148756190D01*
X83740476Y-148660952D01*
X83692857Y-148613333D01*
X83597619Y-148565714D01*
X83407142Y-148565714D01*
X83311904Y-148613333D01*
X82073809Y-149232380D02*
X82073809Y-148232380D01*
X81740476Y-148946666D01*
X81407142Y-148232380D01*
X81407142Y-149232380D01*
X80930952Y-149137142D02*
X80883333Y-149184761D01*
X80930952Y-149232380D01*
X80978571Y-149184761D01*
X80930952Y-149137142D01*
X80930952Y-149232380D01*
X79692857Y-149232380D02*
X79692857Y-148232380D01*
X79692857Y-148708571D02*
X79121428Y-148708571D01*
X79121428Y-149232380D02*
X79121428Y-148232380D01*
X78216666Y-149232380D02*
X78216666Y-148708571D01*
X78264285Y-148613333D01*
X78359523Y-148565714D01*
X78550000Y-148565714D01*
X78645238Y-148613333D01*
X78216666Y-149184761D02*
X78311904Y-149232380D01*
X78550000Y-149232380D01*
X78645238Y-149184761D01*
X78692857Y-149089523D01*
X78692857Y-148994285D01*
X78645238Y-148899047D01*
X78550000Y-148851428D01*
X78311904Y-148851428D01*
X78216666Y-148803809D01*
X77740476Y-149232380D02*
X77740476Y-148565714D01*
X77740476Y-148756190D02*
X77692857Y-148660952D01*
X77645238Y-148613333D01*
X77550000Y-148565714D01*
X77454761Y-148565714D01*
X77264285Y-148565714D02*
X76883333Y-148565714D01*
X77121428Y-148232380D02*
X77121428Y-149089523D01*
X77073809Y-149184761D01*
X76978571Y-149232380D01*
X76883333Y-149232380D01*
X76169047Y-149184761D02*
X76264285Y-149232380D01*
X76454761Y-149232380D01*
X76550000Y-149184761D01*
X76597619Y-149089523D01*
X76597619Y-148708571D01*
X76550000Y-148613333D01*
X76454761Y-148565714D01*
X76264285Y-148565714D01*
X76169047Y-148613333D01*
X76121428Y-148708571D01*
X76121428Y-148803809D01*
X76597619Y-148899047D01*
X74930952Y-148851428D02*
X74169047Y-148851428D01*
X73026190Y-148232380D02*
X72788095Y-149232380D01*
X72597619Y-148518095D01*
X72407142Y-149232380D01*
X72169047Y-148232380D01*
X71883333Y-148232380D02*
X71216666Y-148232380D01*
X71883333Y-149232380D01*
X71216666Y-149232380D01*
X70883333Y-148327619D02*
X70835714Y-148280000D01*
X70740476Y-148232380D01*
X70502380Y-148232380D01*
X70407142Y-148280000D01*
X70359523Y-148327619D01*
X70311904Y-148422857D01*
X70311904Y-148518095D01*
X70359523Y-148660952D01*
X70930952Y-149232380D01*
X70311904Y-149232380D01*
X69216666Y-149327619D02*
X69311904Y-149280000D01*
X69407142Y-149184761D01*
X69550000Y-149041904D01*
X69645238Y-148994285D01*
X69740476Y-148994285D01*
X69692857Y-149232380D02*
X69788095Y-149184761D01*
X69883333Y-149089523D01*
X69930952Y-148899047D01*
X69930952Y-148565714D01*
X69883333Y-148375238D01*
X69788095Y-148280000D01*
X69692857Y-148232380D01*
X69502380Y-148232380D01*
X69407142Y-148280000D01*
X69311904Y-148375238D01*
X69264285Y-148565714D01*
X69264285Y-148899047D01*
X69311904Y-149089523D01*
X69407142Y-149184761D01*
X69502380Y-149232380D01*
X69692857Y-149232380D01*
D12*
X118745000Y-34290000D03*
D13*
X50800000Y-80010000D03*
D14*
X63500000Y-80010000D03*
D13*
X78105000Y-94615000D03*
D14*
X65405000Y-94615000D03*
D15*
X149860000Y-123190000D03*
X149860000Y-120650000D03*
X149860000Y-118110000D03*
X149860000Y-115570000D03*
X149860000Y-113030000D03*
X149860000Y-110490000D03*
X149860000Y-107950000D03*
X149860000Y-105410000D03*
X149860000Y-102870000D03*
X149860000Y-100330000D03*
X149860000Y-97790000D03*
X149860000Y-95250000D03*
X149860000Y-92710000D03*
X149860000Y-90170000D03*
D16*
X149860000Y-87630000D03*
D13*
X129540000Y-30480000D03*
D14*
X137160000Y-30480000D03*
D13*
X135382000Y-59690000D03*
D14*
X135382000Y-67310000D03*
D15*
X132080000Y-72390000D03*
D16*
X134620000Y-72390000D03*
D14*
X132160000Y-33655000D03*
X137160000Y-33655000D03*
X121920000Y-52030000D03*
X121920000Y-49530000D03*
X123865000Y-32385000D03*
X126365000Y-32385000D03*
X121920000Y-46950000D03*
X121920000Y-44450000D03*
X121920000Y-41870000D03*
X121920000Y-39370000D03*
X137160000Y-39330000D03*
X137160000Y-36830000D03*
X132080000Y-59770000D03*
X132080000Y-64770000D03*
D13*
X133350000Y-36830000D03*
X125730000Y-54610000D03*
X133350000Y-39370000D03*
X125730000Y-52070000D03*
X133350000Y-41910000D03*
X125730000Y-49530000D03*
X133350000Y-44450000D03*
X125730000Y-46990000D03*
X133350000Y-46990000D03*
X125730000Y-44450000D03*
X133350000Y-49530000D03*
X125730000Y-41910000D03*
X133350000Y-52070000D03*
X125730000Y-39370000D03*
X133350000Y-54610000D03*
D17*
X125730000Y-36830000D03*
D18*
X143660000Y-32410000D03*
X143660000Y-57410000D03*
D14*
X145080000Y-49065000D03*
X145080000Y-46295000D03*
X145080000Y-43525000D03*
X145080000Y-40755000D03*
X142240000Y-50450000D03*
X142240000Y-47680000D03*
X142240000Y-44910000D03*
X142240000Y-42140000D03*
D17*
X142240000Y-39370000D03*
X82550000Y-106680000D03*
D13*
X90170000Y-124460000D03*
X82550000Y-109220000D03*
X90170000Y-121920000D03*
X82550000Y-111760000D03*
X90170000Y-119380000D03*
X82550000Y-114300000D03*
X90170000Y-116840000D03*
X82550000Y-116840000D03*
X90170000Y-114300000D03*
X82550000Y-119380000D03*
X90170000Y-111760000D03*
X82550000Y-121920000D03*
X90170000Y-109220000D03*
X82550000Y-124460000D03*
X90170000Y-106680000D03*
D14*
X138390000Y-104140000D03*
X135890000Y-104140000D03*
D19*
X45720000Y-64770000D03*
X41430000Y-64770000D03*
X45720000Y-66930000D03*
X41430000Y-66930000D03*
X45720000Y-69090000D03*
X41430000Y-69090000D03*
X45720000Y-71250000D03*
X41430000Y-71250000D03*
X45720000Y-73410000D03*
X41430000Y-73410000D03*
X45720000Y-75570000D03*
X41430000Y-75570000D03*
X45720000Y-77730000D03*
X41430000Y-77730000D03*
X45720000Y-79890000D03*
X41430000Y-79890000D03*
X45720000Y-82050000D03*
X41430000Y-82050000D03*
X45720000Y-84210000D03*
X41430000Y-84210000D03*
X45720000Y-86370000D03*
X41430000Y-86370000D03*
X45720000Y-88530000D03*
X41430000Y-88530000D03*
X45720000Y-90690000D03*
X41430000Y-90690000D03*
X45720000Y-92850000D03*
X41430000Y-92850000D03*
X45720000Y-95010000D03*
X41430000Y-95010000D03*
X45720000Y-97170000D03*
X41430000Y-97170000D03*
X45720000Y-99330000D03*
X41430000Y-99330000D03*
X45720000Y-101490000D03*
X41430000Y-101490000D03*
X45720000Y-103650000D03*
X41430000Y-103650000D03*
X45720000Y-105810000D03*
X41430000Y-105810000D03*
X45720000Y-107970000D03*
X41430000Y-107970000D03*
X45720000Y-110130000D03*
X41430000Y-110130000D03*
X45720000Y-112290000D03*
X41430000Y-112290000D03*
X45720000Y-114450000D03*
X41430000Y-114450000D03*
X45720000Y-116610000D03*
X41430000Y-116610000D03*
D20*
X43575000Y-128115000D03*
X43575000Y-53265000D03*
D12*
X144780000Y-146050000D03*
X40640000Y-146050000D03*
X40640000Y-34290000D03*
D21*
X144780000Y-113030000D03*
D22*
X144780000Y-115570000D03*
D13*
X124460000Y-147320000D03*
D14*
X132080000Y-147320000D03*
D22*
X144780000Y-135890000D03*
D21*
X144780000Y-133350000D03*
D13*
X62230000Y-56896000D03*
X54610000Y-64516000D03*
X62230000Y-59436000D03*
X54610000Y-61976000D03*
X62230000Y-61976000D03*
X54610000Y-59436000D03*
X62230000Y-64516000D03*
D17*
X54610000Y-56896000D03*
D13*
X62230000Y-109220000D03*
X54610000Y-116840000D03*
X62230000Y-111760000D03*
X54610000Y-114300000D03*
X62230000Y-114300000D03*
X54610000Y-111760000D03*
X62230000Y-116840000D03*
D17*
X54610000Y-109220000D03*
D23*
X55880000Y-86360000D03*
D24*
X58420000Y-86360000D03*
X66040000Y-86360000D03*
X68580000Y-86360000D03*
X60960000Y-86360000D03*
X71120000Y-86360000D03*
X73660000Y-86360000D03*
D14*
X88900000Y-86400000D03*
X88900000Y-88900000D03*
X81280000Y-86400000D03*
D17*
X81280000Y-88900000D03*
D21*
X144780000Y-123190000D03*
D22*
X144780000Y-125730000D03*
D17*
X132080000Y-111760000D03*
D13*
X139700000Y-116840000D03*
X132080000Y-114300000D03*
X139700000Y-114300000D03*
X132080000Y-116840000D03*
X139700000Y-111760000D03*
D17*
X119380000Y-111760000D03*
D13*
X127000000Y-116840000D03*
X119380000Y-114300000D03*
X127000000Y-114300000D03*
X119380000Y-116840000D03*
X127000000Y-111760000D03*
X135890000Y-124460000D03*
D14*
X135890000Y-132080000D03*
D13*
X130810000Y-124460000D03*
D14*
X130810000Y-132080000D03*
D13*
X132080000Y-137160000D03*
D14*
X124460000Y-137160000D03*
D13*
X132080000Y-142240000D03*
D14*
X124460000Y-142240000D03*
D13*
X102870000Y-124460000D03*
X123190000Y-132080000D03*
X105410000Y-124460000D03*
X120650000Y-132080000D03*
X107950000Y-124460000D03*
X118110000Y-132080000D03*
X110490000Y-124460000D03*
X115570000Y-132080000D03*
X113030000Y-124460000D03*
X113030000Y-132080000D03*
X115570000Y-124460000D03*
X110490000Y-132080000D03*
X118110000Y-124460000D03*
X107950000Y-132080000D03*
X120650000Y-124460000D03*
X105410000Y-132080000D03*
X123190000Y-124460000D03*
D17*
X102870000Y-132080000D03*
D13*
X62230000Y-121920000D03*
X54610000Y-129540000D03*
X62230000Y-124460000D03*
X54610000Y-127000000D03*
X62230000Y-127000000D03*
X54610000Y-124460000D03*
X62230000Y-129540000D03*
D17*
X54610000Y-121920000D03*
X104140000Y-67310000D03*
D13*
X124460000Y-59690000D03*
X106680000Y-67310000D03*
X121920000Y-59690000D03*
X109220000Y-67310000D03*
X119380000Y-59690000D03*
X111760000Y-67310000D03*
X116840000Y-59690000D03*
X114300000Y-67310000D03*
X114300000Y-59690000D03*
X116840000Y-67310000D03*
X111760000Y-59690000D03*
X119380000Y-67310000D03*
X109220000Y-59690000D03*
X121920000Y-67310000D03*
X106680000Y-59690000D03*
X124460000Y-67310000D03*
X104140000Y-59690000D03*
D19*
X120650000Y-73660000D03*
X125530000Y-73660000D03*
D13*
X62230000Y-96520000D03*
X54610000Y-104140000D03*
X62230000Y-99060000D03*
X54610000Y-101600000D03*
X62230000Y-101600000D03*
X54610000Y-99060000D03*
X62230000Y-104140000D03*
D17*
X54610000Y-96520000D03*
D13*
X62230000Y-44450000D03*
X54610000Y-52070000D03*
X62230000Y-46990000D03*
X54610000Y-49530000D03*
X62230000Y-49530000D03*
X54610000Y-46990000D03*
X62230000Y-52070000D03*
D17*
X54610000Y-44450000D03*
D13*
X62230000Y-31750000D03*
X54610000Y-39370000D03*
X62230000Y-34290000D03*
X54610000Y-36830000D03*
X62230000Y-36830000D03*
X54610000Y-34290000D03*
X62230000Y-39370000D03*
D17*
X54610000Y-31750000D03*
X82550000Y-41910000D03*
D13*
X90170000Y-59690000D03*
X82550000Y-44450000D03*
X90170000Y-57150000D03*
X82550000Y-46990000D03*
X90170000Y-54610000D03*
X82550000Y-49530000D03*
X90170000Y-52070000D03*
X82550000Y-52070000D03*
X90170000Y-49530000D03*
X82550000Y-54610000D03*
X90170000Y-46990000D03*
X82550000Y-57150000D03*
X90170000Y-44450000D03*
X82550000Y-59690000D03*
X90170000Y-41910000D03*
D17*
X95250000Y-100330000D03*
D13*
X143510000Y-85090000D03*
X97790000Y-100330000D03*
X140970000Y-85090000D03*
X100330000Y-100330000D03*
X138430000Y-85090000D03*
X102870000Y-100330000D03*
X135890000Y-85090000D03*
X105410000Y-100330000D03*
X133350000Y-85090000D03*
X107950000Y-100330000D03*
X130810000Y-85090000D03*
X110490000Y-100330000D03*
X128270000Y-85090000D03*
X113030000Y-100330000D03*
X125730000Y-85090000D03*
X115570000Y-100330000D03*
X123190000Y-85090000D03*
X118110000Y-100330000D03*
X120650000Y-85090000D03*
X120650000Y-100330000D03*
X118110000Y-85090000D03*
X123190000Y-100330000D03*
X115570000Y-85090000D03*
X125730000Y-100330000D03*
X113030000Y-85090000D03*
X128270000Y-100330000D03*
X110490000Y-85090000D03*
X130810000Y-100330000D03*
X107950000Y-85090000D03*
X133350000Y-100330000D03*
X105410000Y-85090000D03*
X135890000Y-100330000D03*
X102870000Y-85090000D03*
X138430000Y-100330000D03*
X100330000Y-85090000D03*
X140970000Y-100330000D03*
X97790000Y-85090000D03*
X143510000Y-100330000D03*
X95250000Y-85090000D03*
D25*
X107950000Y-35156000D03*
X112450000Y-35156000D03*
X107950000Y-41656000D03*
X112450000Y-41656000D03*
D13*
X74930000Y-129540000D03*
D14*
X67310000Y-129540000D03*
D13*
X74930000Y-124015500D03*
D14*
X67310000Y-124015500D03*
D13*
X74930000Y-116840000D03*
D14*
X67310000Y-116840000D03*
D13*
X74930000Y-111760000D03*
D14*
X67310000Y-111760000D03*
D13*
X74930000Y-106045000D03*
D14*
X67310000Y-106045000D03*
D13*
X74930000Y-100965000D03*
D14*
X67310000Y-100965000D03*
D13*
X75311000Y-64770000D03*
D14*
X67691000Y-64770000D03*
D13*
X75311000Y-59690000D03*
D14*
X67691000Y-59690000D03*
D13*
X75311000Y-52070000D03*
D14*
X67691000Y-52070000D03*
D13*
X74930000Y-46990000D03*
D14*
X67310000Y-46990000D03*
D13*
X74930000Y-39370000D03*
D14*
X67310000Y-39370000D03*
D13*
X74930000Y-34290000D03*
D14*
X67310000Y-34290000D03*
D13*
X95250000Y-54610000D03*
D14*
X95250000Y-46990000D03*
D13*
X107950000Y-119380000D03*
D14*
X107950000Y-111760000D03*
X109220000Y-46990000D03*
D13*
X109220000Y-54610000D03*
X102870000Y-119380000D03*
D14*
X102870000Y-111760000D03*
X104140000Y-46990000D03*
D13*
X104140000Y-54610000D03*
D14*
X118745000Y-54610000D03*
D13*
X118745000Y-46990000D03*
X116840000Y-142240000D03*
D14*
X109220000Y-142240000D03*
D13*
X97790000Y-135890000D03*
D14*
X105410000Y-135890000D03*
D13*
X105410000Y-142240000D03*
D14*
X97790000Y-142240000D03*
X106680000Y-77470000D03*
D13*
X99060000Y-77470000D03*
D14*
X99060000Y-71120000D03*
D13*
X106680000Y-71120000D03*
X87630000Y-135890000D03*
D14*
X95250000Y-135890000D03*
D13*
X87630000Y-142240000D03*
D14*
X95250000Y-142240000D03*
X95250000Y-77470000D03*
D13*
X87630000Y-77470000D03*
D14*
X95250000Y-71120000D03*
D13*
X87630000Y-71120000D03*
X64770000Y-135890000D03*
D14*
X72390000Y-135890000D03*
D13*
X64770000Y-142240000D03*
D14*
X72390000Y-142240000D03*
X72390000Y-74930000D03*
D13*
X64770000Y-74930000D03*
D14*
X72390000Y-69215000D03*
D13*
X64770000Y-69215000D03*
X104140000Y-41910000D03*
D14*
X96520000Y-41910000D03*
D26*
X143902000Y-79660000D03*
X143902000Y-67620000D03*
D27*
X141192000Y-72390000D03*
X141192000Y-74890000D03*
X139192000Y-74890000D03*
D16*
X139192000Y-72390000D03*
D15*
X95250000Y-81280000D03*
X97790000Y-81280000D03*
X100330000Y-81280000D03*
X102870000Y-81280000D03*
X105410000Y-81280000D03*
D16*
X107950000Y-81280000D03*
D13*
X113030000Y-111760000D03*
D17*
X113030000Y-119380000D03*
D13*
X114300000Y-46990000D03*
D17*
X114300000Y-54610000D03*
D28*
X76200000Y-135890000D03*
D29*
X83820000Y-135890000D03*
D28*
X76200000Y-142240000D03*
D29*
X83820000Y-142240000D03*
X83820000Y-78740000D03*
D28*
X76200000Y-78740000D03*
D29*
X83820000Y-71120000D03*
D28*
X76200000Y-71120000D03*
D14*
X87630000Y-36830000D03*
X85130000Y-36830000D03*
X85130000Y-101600000D03*
X87630000Y-101600000D03*
X97790000Y-129500000D03*
X97790000Y-127000000D03*
X99060000Y-64730000D03*
X99060000Y-62230000D03*
X97790000Y-121880000D03*
X97790000Y-119380000D03*
X99060000Y-57110000D03*
X99060000Y-54610000D03*
X124420000Y-80010000D03*
X121920000Y-80010000D03*
D25*
X54690000Y-135890000D03*
X59690000Y-135890000D03*
X54690000Y-142240000D03*
X59690000Y-142240000D03*
X59690000Y-74930000D03*
X54690000Y-74930000D03*
X59690000Y-69215000D03*
X54690000Y-69215000D03*
D14*
X123150000Y-104140000D03*
X120650000Y-104140000D03*
X101600000Y-38100000D03*
X104100000Y-38100000D03*
X118070000Y-81280000D03*
X115570000Y-81280000D03*
X149820000Y-83820000D03*
X147320000Y-83820000D03*
D30*
X95250000Y-106680000D03*
X134620000Y-80010000D03*
D14*
X58420000Y-116840000D03*
X111760000Y-95250000D03*
X88900000Y-96520000D03*
D30*
X123190000Y-92710000D03*
D31*
X54610000Y-64516000D02*
X57150000Y-67056000D01*
X82550000Y-129540000D02*
X82550000Y-124460000D01*
X80010000Y-132080000D02*
X82550000Y-129540000D01*
X54610000Y-129540000D02*
X57150000Y-132080000D01*
X57150000Y-132080000D02*
X80010000Y-132080000D01*
X99060000Y-64730000D02*
X116800000Y-64730000D01*
X116840000Y-64770000D02*
X116840000Y-67310000D01*
X116800000Y-64730000D02*
X116840000Y-64770000D01*
X116840000Y-64770000D02*
X124460000Y-64770000D01*
X124460000Y-64770000D02*
X124460000Y-67310000D01*
X116840000Y-142240000D02*
X116840000Y-139700000D01*
X116840000Y-139700000D02*
X115570000Y-138430000D01*
X80050000Y-86400000D02*
X81280000Y-86400000D01*
X76200000Y-82550000D02*
X80050000Y-86400000D01*
X73660000Y-82550000D02*
X76200000Y-82550000D01*
X71120000Y-86360000D02*
X71120000Y-85090000D01*
X71120000Y-85090000D02*
X73660000Y-82550000D01*
X81280000Y-86400000D02*
X88900000Y-86400000D01*
X71120000Y-86360000D02*
X71120000Y-81280000D01*
X68580000Y-78740000D02*
X68580000Y-67310000D01*
X57150000Y-67056000D02*
X68580000Y-67310000D01*
X71120000Y-81280000D02*
X68580000Y-78740000D01*
X80264000Y-67056000D02*
X68580000Y-67310000D01*
X82550000Y-64770000D02*
X80264000Y-67056000D01*
X82590000Y-64730000D02*
X82550000Y-64770000D01*
X99060000Y-64730000D02*
X82590000Y-64730000D01*
X125730000Y-64770000D02*
X124460000Y-64770000D01*
X82590000Y-129500000D02*
X82550000Y-129540000D01*
X97790000Y-129500000D02*
X82590000Y-129500000D01*
X71120000Y-83860000D02*
X71120000Y-86360000D01*
X69810000Y-82550000D02*
X71120000Y-83860000D01*
X64770000Y-82550000D02*
X69810000Y-82550000D01*
X85130000Y-101600000D02*
X85130000Y-99100000D01*
X85130000Y-99100000D02*
X78740000Y-92710000D01*
X63500000Y-83820000D02*
X64770000Y-82550000D01*
X64770000Y-92710000D02*
X63500000Y-91440000D01*
X78740000Y-92710000D02*
X64770000Y-92710000D01*
X63500000Y-91440000D02*
X63500000Y-83820000D01*
X118110000Y-81320000D02*
X118070000Y-81280000D01*
X118110000Y-85090000D02*
X118110000Y-81320000D01*
X123150000Y-100370000D02*
X123190000Y-100330000D01*
X123150000Y-104140000D02*
X123150000Y-100370000D01*
X123190000Y-100330000D02*
X123190000Y-96520000D01*
X123190000Y-96520000D02*
X118110000Y-91440000D01*
X118110000Y-88900000D02*
X144780000Y-88900000D01*
X118110000Y-91440000D02*
X118110000Y-88900000D01*
X118110000Y-88900000D02*
X118110000Y-85090000D01*
X115570000Y-135890000D02*
X121920000Y-135890000D01*
X115570000Y-138430000D02*
X115570000Y-135890000D01*
X115570000Y-135890000D02*
X115570000Y-132080000D01*
X123190000Y-134620000D02*
X123190000Y-132080000D01*
X121920000Y-135890000D02*
X123190000Y-134620000D01*
X123150000Y-104140000D02*
X123150000Y-110450000D01*
X123150000Y-110450000D02*
X124460000Y-111760000D01*
X124460000Y-114300000D02*
X127000000Y-116840000D01*
X124460000Y-111760000D02*
X124460000Y-114300000D01*
X121880000Y-129500000D02*
X97790000Y-129500000D01*
X123190000Y-132080000D02*
X123190000Y-130810000D01*
X123190000Y-130810000D02*
X121880000Y-129500000D01*
X141192000Y-70679919D02*
X141192000Y-72390000D01*
X82550000Y-64690000D02*
X82590000Y-64730000D01*
X82550000Y-59690000D02*
X82550000Y-64690000D01*
X133350000Y-39370000D02*
X134620000Y-39370000D01*
D32*
X88900000Y-82550000D02*
X88900000Y-86400000D01*
X94624463Y-79976799D02*
X94621263Y-79979999D01*
X91470001Y-79979999D02*
X88900000Y-82550000D01*
X95875537Y-79976799D02*
X94624463Y-79976799D01*
X99704463Y-79976799D02*
X99701263Y-79979999D01*
X100955537Y-79976799D02*
X99704463Y-79976799D01*
X100958737Y-79979999D02*
X100955537Y-79976799D01*
X94621263Y-79979999D02*
X91470001Y-79979999D01*
X102870000Y-81280000D02*
X101569999Y-79979999D01*
X99701263Y-79979999D02*
X98418737Y-79979999D01*
X101569999Y-79979999D02*
X100958737Y-79979999D01*
X97164463Y-79976799D02*
X97161263Y-79979999D01*
X97161263Y-79979999D02*
X95878737Y-79979999D01*
X98415537Y-79976799D02*
X97164463Y-79976799D01*
X98418737Y-79979999D02*
X98415537Y-79976799D01*
X95878737Y-79979999D02*
X95875537Y-79976799D01*
D31*
X134660000Y-39330000D02*
X137160000Y-39330000D01*
X134620000Y-39370000D02*
X134660000Y-39330000D01*
X137160000Y-39330000D02*
X138470000Y-39330000D01*
X138470000Y-39330000D02*
X139700000Y-38100000D01*
X139700000Y-38100000D02*
X139700000Y-36195000D01*
X133831799Y-35326799D02*
X132959999Y-34454999D01*
X138831799Y-35326799D02*
X133831799Y-35326799D01*
X132959999Y-34454999D02*
X132160000Y-33655000D01*
X139700000Y-36195000D02*
X138831799Y-35326799D01*
X132160000Y-33100000D02*
X129540000Y-30480000D01*
X132160000Y-33655000D02*
X132160000Y-33100000D01*
X118745000Y-48855000D02*
X121920000Y-52030000D01*
X118745000Y-46990000D02*
X118745000Y-48855000D01*
X125730000Y-64770000D02*
X132080000Y-64770000D01*
X132842000Y-64770000D02*
X135382000Y-67310000D01*
X132080000Y-64770000D02*
X132842000Y-64770000D01*
X135382000Y-67310000D02*
X139700000Y-67310000D01*
X139700000Y-52990000D02*
X142240000Y-50450000D01*
X139700000Y-67310000D02*
X139700000Y-52990000D01*
X139700000Y-69187919D02*
X141192000Y-70679919D01*
X139700000Y-67310000D02*
X139700000Y-69187919D01*
X101600000Y-38100000D02*
X97790000Y-38100000D01*
X97790000Y-38100000D02*
X93980000Y-34290000D01*
X87670000Y-34290000D02*
X85130000Y-36830000D01*
X93980000Y-34290000D02*
X87670000Y-34290000D01*
X118745000Y-46990000D02*
X118745000Y-46681000D01*
X118745000Y-46990000D02*
X118745000Y-44450000D01*
X115951000Y-41656000D02*
X112450000Y-41656000D01*
X118745000Y-44450000D02*
X115951000Y-41656000D01*
X112450000Y-41656000D02*
X112450000Y-35156000D01*
X128270000Y-29210000D02*
X129540000Y-30480000D01*
X116981787Y-29210000D02*
X128270000Y-29210000D01*
X146050000Y-87630000D02*
X149860000Y-87630000D01*
X144780000Y-88900000D02*
X146050000Y-87630000D01*
X149860000Y-83860000D02*
X149820000Y-83820000D01*
X149860000Y-87630000D02*
X149860000Y-83860000D01*
X145609919Y-70679919D02*
X141192000Y-70679919D01*
X149820000Y-83820000D02*
X149820000Y-74890000D01*
X149820000Y-74890000D02*
X145609919Y-70679919D01*
X101600000Y-38100000D02*
X101600000Y-35560000D01*
X101600000Y-35560000D02*
X107950000Y-29210000D01*
X112450000Y-35156000D02*
X112450000Y-29900000D01*
X112450000Y-29900000D02*
X111760000Y-29210000D01*
X107950000Y-29210000D02*
X111760000Y-29210000D01*
X111760000Y-29210000D02*
X116981787Y-29210000D01*
X97790000Y-127000000D02*
X100330000Y-127000000D01*
X90170000Y-104140000D02*
X87630000Y-101600000D01*
X90170000Y-106680000D02*
X90170000Y-104140000D01*
X105410000Y-127000000D02*
X120650000Y-127000000D01*
X100330000Y-127000000D02*
X102870000Y-127000000D01*
X102870000Y-127000000D02*
X102870000Y-124460000D01*
X97790000Y-127000000D02*
X97790000Y-121880000D01*
X87630000Y-36830000D02*
X90170000Y-39370000D01*
X90170000Y-39370000D02*
X90170000Y-41910000D01*
X99060000Y-57110000D02*
X99060000Y-62230000D01*
X104140000Y-59690000D02*
X99060000Y-59690000D01*
X124460000Y-59690000D02*
X124460000Y-62230000D01*
X124460000Y-62230000D02*
X104140000Y-62230000D01*
X104140000Y-62230000D02*
X104140000Y-59690000D01*
X81280000Y-88900000D02*
X88900000Y-88900000D01*
X68580000Y-88860000D02*
X69850000Y-90130000D01*
X68580000Y-86360000D02*
X68580000Y-88860000D01*
X69850000Y-90130000D02*
X78700000Y-90130000D01*
X78700000Y-90130000D02*
X78740000Y-90170000D01*
X78740000Y-90170000D02*
X80010000Y-90170000D01*
X80010000Y-90170000D02*
X81280000Y-88900000D01*
X105410000Y-127000000D02*
X100330000Y-127000000D01*
X90170000Y-41910000D02*
X92710000Y-41910000D01*
X115570000Y-85090000D02*
X115570000Y-81280000D01*
X120650000Y-104140000D02*
X120650000Y-100330000D01*
X120650000Y-100330000D02*
X120650000Y-97790000D01*
X120650000Y-97790000D02*
X115570000Y-92710000D01*
X88900000Y-88900000D02*
X115570000Y-88900000D01*
X115570000Y-92710000D02*
X115570000Y-88900000D01*
X115570000Y-88900000D02*
X115570000Y-85090000D01*
X124460000Y-137160000D02*
X124460000Y-135890000D01*
X124460000Y-135890000D02*
X125730000Y-134620000D01*
X125730000Y-134620000D02*
X125730000Y-128270000D01*
X125730000Y-128270000D02*
X124460000Y-127000000D01*
X123190000Y-124460000D02*
X123190000Y-127000000D01*
X124460000Y-127000000D02*
X123190000Y-127000000D01*
X123190000Y-127000000D02*
X120650000Y-127000000D01*
X124460000Y-137160000D02*
X124460000Y-142240000D01*
X124460000Y-142240000D02*
X124460000Y-147320000D01*
X87630000Y-101600000D02*
X86830001Y-100800001D01*
X86830001Y-100800001D02*
X86830001Y-90969999D01*
X88100001Y-89699999D02*
X88900000Y-88900000D01*
X86830001Y-90969999D02*
X88100001Y-89699999D01*
X98260001Y-56310001D02*
X99060000Y-57110000D01*
X97556799Y-55606799D02*
X98260001Y-56310001D01*
X97556799Y-50566799D02*
X97556799Y-55606799D01*
X95250000Y-48260000D02*
X97556799Y-50566799D01*
X95250000Y-46990000D02*
X95250000Y-48260000D01*
X137160000Y-36830000D02*
X133350000Y-36830000D01*
X128270000Y-40778630D02*
X132218630Y-36830000D01*
X128270000Y-55880000D02*
X128270000Y-40778630D01*
X132218630Y-36830000D02*
X133350000Y-36830000D01*
X124460000Y-59690000D02*
X128270000Y-55880000D01*
X130810000Y-36830000D02*
X133350000Y-36830000D01*
X126365000Y-32385000D02*
X130810000Y-36830000D01*
X131230001Y-73239999D02*
X132080000Y-72390000D01*
X131230001Y-77811999D02*
X131230001Y-73239999D01*
X115570000Y-79776799D02*
X118791537Y-79776799D01*
X115570000Y-81280000D02*
X115570000Y-79776799D01*
X127152738Y-81889262D02*
X131230001Y-77811999D01*
X118791537Y-79776799D02*
X120904000Y-81889262D01*
X120904000Y-81889262D02*
X127152738Y-81889262D01*
X105761120Y-79726799D02*
X105410000Y-80077919D01*
X115599201Y-79726799D02*
X105761120Y-79726799D01*
X115570000Y-81280000D02*
X115570000Y-79756000D01*
X105410000Y-80077919D02*
X105410000Y-81280000D01*
X115570000Y-79756000D02*
X115599201Y-79726799D01*
X92710000Y-41910000D02*
X96520000Y-41910000D01*
X95250000Y-46990000D02*
X95250000Y-45720000D01*
X96520000Y-44450000D02*
X96520000Y-41910000D01*
X95250000Y-45720000D02*
X96520000Y-44450000D01*
X90170000Y-106680000D02*
X95250000Y-106680000D01*
X132421999Y-77811999D02*
X134620000Y-80010000D01*
X131230001Y-77811999D02*
X132421999Y-77811999D01*
D32*
X104100000Y-41870000D02*
X104140000Y-41910000D01*
X104100000Y-38100000D02*
X104100000Y-41870000D01*
X107696000Y-41910000D02*
X107950000Y-41656000D01*
X104140000Y-41910000D02*
X107696000Y-41910000D01*
D31*
X35840000Y-134900000D02*
X35840000Y-122200000D01*
X40640000Y-139700000D02*
X35840000Y-134900000D01*
X54690000Y-142240000D02*
X52150000Y-139700000D01*
X35840000Y-122200000D02*
X41430000Y-116610000D01*
X52150000Y-139700000D02*
X40640000Y-139700000D01*
X59690000Y-69215000D02*
X64770000Y-69215000D01*
X54690000Y-135890000D02*
X49530000Y-130730000D01*
X49530000Y-125500000D02*
X45720000Y-121690000D01*
X49530000Y-130730000D02*
X49530000Y-125500000D01*
X45720000Y-121690000D02*
X45720000Y-116610000D01*
X59690000Y-74930000D02*
X64770000Y-74930000D01*
D33*
X46528201Y-98251799D02*
X48260000Y-96520000D01*
X42508201Y-98251799D02*
X46528201Y-98251799D01*
X41430000Y-99330000D02*
X42508201Y-98251799D01*
D31*
X54690000Y-69215000D02*
X52303201Y-71601799D01*
X52303201Y-71601799D02*
X52303201Y-92476799D01*
X49213210Y-95566790D02*
X52303201Y-92476799D01*
X49213210Y-95644832D02*
X49213210Y-95566790D01*
X48654832Y-96203210D02*
X49213210Y-95644832D01*
X48576790Y-96203210D02*
X48654832Y-96203210D01*
X48260000Y-96520000D02*
X48576790Y-96203210D01*
X64770000Y-142240000D02*
X59690000Y-142240000D01*
X64770000Y-135890000D02*
X59690000Y-135890000D01*
D32*
X121920000Y-70050000D02*
X125530000Y-73660000D01*
X121920000Y-67310000D02*
X121920000Y-70050000D01*
X121920000Y-77270000D02*
X125530000Y-73660000D01*
X121920000Y-80010000D02*
X121920000Y-77270000D01*
D31*
X106680000Y-59690000D02*
X101600000Y-54610000D01*
X101600000Y-54610000D02*
X99060000Y-54610000D01*
X104140000Y-49530000D02*
X104140000Y-46990000D01*
X112290000Y-50800000D02*
X114300000Y-52810000D01*
X114300000Y-52810000D02*
X114300000Y-54610000D01*
X101600000Y-54610000D02*
X101600000Y-52070000D01*
X101600000Y-52070000D02*
X102870000Y-50800000D01*
X102870000Y-50800000D02*
X104140000Y-50800000D01*
X104140000Y-50800000D02*
X112290000Y-50800000D01*
X104140000Y-49530000D02*
X104140000Y-50800000D01*
X100330000Y-119380000D02*
X97790000Y-119380000D01*
X105410000Y-124460000D02*
X100330000Y-119380000D01*
X100330000Y-119380000D02*
X100330000Y-114300000D01*
X100330000Y-114300000D02*
X102870000Y-111760000D01*
X87630000Y-71120000D02*
X85090000Y-68580000D01*
X78740000Y-68580000D02*
X76200000Y-71120000D01*
X85090000Y-68580000D02*
X78740000Y-68580000D01*
X74295000Y-69215000D02*
X76200000Y-71120000D01*
X72390000Y-69215000D02*
X74295000Y-69215000D01*
X83820000Y-71120000D02*
X83820000Y-78740000D01*
X76200000Y-78740000D02*
X78740000Y-81280000D01*
X78740000Y-81280000D02*
X85090000Y-81280000D01*
X85090000Y-81280000D02*
X87630000Y-78740000D01*
X87630000Y-78740000D02*
X87630000Y-77470000D01*
X72390000Y-74930000D02*
X76200000Y-78740000D01*
X72390000Y-142240000D02*
X76200000Y-142240000D01*
X76200000Y-142240000D02*
X78740000Y-142240000D01*
X78740000Y-142240000D02*
X81280000Y-144780000D01*
X81280000Y-144780000D02*
X86360000Y-144780000D01*
X86360000Y-144780000D02*
X87630000Y-143510000D01*
X87630000Y-143510000D02*
X87630000Y-142240000D01*
X83820000Y-135890000D02*
X83820000Y-142240000D01*
X72390000Y-135890000D02*
X76200000Y-135890000D01*
X76200000Y-135890000D02*
X78740000Y-135890000D01*
X78740000Y-135890000D02*
X81280000Y-133350000D01*
X87630000Y-135890000D02*
X87630000Y-134620000D01*
X87630000Y-134620000D02*
X86360000Y-133350000D01*
X86360000Y-133350000D02*
X81280000Y-133350000D01*
X109220000Y-46990000D02*
X114300000Y-46990000D01*
D32*
X67564000Y-56896000D02*
X68944201Y-55515799D01*
X43180000Y-88940000D02*
X41430000Y-90690000D01*
X65735738Y-48260000D02*
X57734738Y-48260000D01*
X68944201Y-51468463D02*
X65735738Y-48260000D01*
X68944201Y-55515799D02*
X68944201Y-51468463D01*
X62230000Y-56896000D02*
X67564000Y-56896000D01*
X48260000Y-57150000D02*
X43180000Y-62230000D01*
X57734738Y-48260000D02*
X55211537Y-45736799D01*
X55211537Y-45736799D02*
X54008463Y-45736799D01*
X54008463Y-45736799D02*
X48260000Y-51485262D01*
X48260000Y-51485262D02*
X48260000Y-57150000D01*
X43180000Y-62230000D02*
X43180000Y-88940000D01*
X58420000Y-44450000D02*
X62230000Y-44450000D01*
X41430000Y-92850000D02*
X39370000Y-90790000D01*
X48260000Y-41910000D02*
X55880000Y-41910000D01*
X39370000Y-50800000D02*
X48260000Y-41910000D01*
X39370000Y-90790000D02*
X39370000Y-50800000D01*
X55880000Y-41910000D02*
X58420000Y-44450000D01*
X36830000Y-46990000D02*
X53340000Y-30480000D01*
X39130000Y-95010000D02*
X36830000Y-92710000D01*
X41430000Y-95010000D02*
X39130000Y-95010000D01*
X36830000Y-92710000D02*
X36830000Y-46990000D01*
X60960000Y-30480000D02*
X62230000Y-31750000D01*
X53340000Y-30480000D02*
X60960000Y-30480000D01*
D33*
X42179999Y-96420001D02*
X41430000Y-97170000D01*
X42511799Y-96088201D02*
X42179999Y-96420001D01*
X47421799Y-96088201D02*
X42511799Y-96088201D01*
X48260000Y-95250000D02*
X47421799Y-96088201D01*
D32*
X48260000Y-95171958D02*
X48260000Y-95250000D01*
X55177939Y-63229201D02*
X53610799Y-63229201D01*
X53610799Y-63229201D02*
X49530000Y-67310000D01*
X56464738Y-64516000D02*
X55177939Y-63229201D01*
X62230000Y-64516000D02*
X56464738Y-64516000D01*
X49530000Y-67310000D02*
X49530000Y-93901958D01*
X49530000Y-93901958D02*
X48260000Y-95171958D01*
D33*
X48221799Y-115531799D02*
X39331799Y-115531799D01*
X39331799Y-115531799D02*
X38100000Y-114300000D01*
X38100000Y-114300000D02*
X38100000Y-109220000D01*
X38100000Y-109220000D02*
X39370000Y-107950000D01*
X39390000Y-107970000D02*
X41430000Y-107970000D01*
X39370000Y-107950000D02*
X39390000Y-107970000D01*
D32*
X62230000Y-121920000D02*
X59690000Y-119380000D01*
X59690000Y-119380000D02*
X52070000Y-119380000D01*
X52070000Y-119380000D02*
X48260000Y-115570000D01*
X48260000Y-115570000D02*
X48221799Y-115531799D01*
X62230000Y-109220000D02*
X60960000Y-107950000D01*
X60960000Y-107950000D02*
X50800000Y-107950000D01*
D33*
X43568861Y-109051799D02*
X42490660Y-110130000D01*
X49530000Y-107950000D02*
X48428201Y-109051799D01*
X42490660Y-110130000D02*
X41430000Y-110130000D01*
X48428201Y-109051799D02*
X43568861Y-109051799D01*
X50800000Y-107950000D02*
X49530000Y-107950000D01*
X41430000Y-112290000D02*
X39900000Y-112290000D01*
X39900000Y-112290000D02*
X39370000Y-111760000D01*
X42078201Y-109051799D02*
X43180000Y-107950000D01*
X44241799Y-106888201D02*
X48051799Y-106888201D01*
X43180000Y-107950000D02*
X44241799Y-106888201D01*
X48051799Y-106888201D02*
X50800000Y-104140000D01*
X42078201Y-109051799D02*
X40808201Y-109051799D01*
X40808201Y-109051799D02*
X39370000Y-110490000D01*
X39370000Y-111760000D02*
X39370000Y-110490000D01*
D32*
X58420000Y-96520000D02*
X62230000Y-96520000D01*
X57166799Y-97773201D02*
X58420000Y-96520000D01*
X52086799Y-97773201D02*
X57166799Y-97773201D01*
X50800000Y-104140000D02*
X50800000Y-99060000D01*
X50800000Y-99060000D02*
X52086799Y-97773201D01*
D33*
X41430000Y-114450000D02*
X43030000Y-114450000D01*
X43030000Y-114450000D02*
X44111799Y-113368201D01*
X44111799Y-113368201D02*
X47921799Y-113368201D01*
D32*
X47921799Y-113368201D02*
X48598201Y-113368201D01*
X61430001Y-117639999D02*
X62230000Y-116840000D01*
X60976799Y-118093201D02*
X61430001Y-117639999D01*
X53323201Y-118093201D02*
X60976799Y-118093201D01*
X48598201Y-113368201D02*
X53323201Y-118093201D01*
X48260000Y-88150000D02*
X45720000Y-90690000D01*
X48260000Y-66471262D02*
X48260000Y-88150000D01*
X54008463Y-60722799D02*
X48260000Y-66471262D01*
X62230000Y-61976000D02*
X60976799Y-60722799D01*
X60976799Y-60722799D02*
X54008463Y-60722799D01*
X49530000Y-57150000D02*
X49530000Y-52755262D01*
X44516799Y-91646799D02*
X44516799Y-62163201D01*
X49530000Y-52755262D02*
X54008463Y-48276799D01*
X54008463Y-48276799D02*
X56757047Y-48276799D01*
X61098630Y-49530000D02*
X62230000Y-49530000D01*
X56757047Y-48276799D02*
X58010248Y-49530000D01*
X44516799Y-62163201D02*
X49530000Y-57150000D01*
X45720000Y-92850000D02*
X44516799Y-91646799D01*
X58010248Y-49530000D02*
X61098630Y-49530000D01*
X60976799Y-35576799D02*
X52053201Y-35576799D01*
X62230000Y-36830000D02*
X60976799Y-35576799D01*
X52053201Y-35576799D02*
X38100000Y-49530000D01*
X38100000Y-49530000D02*
X38100000Y-52012738D01*
X38100000Y-52012738D02*
X38100000Y-91440000D01*
X38100000Y-91440000D02*
X39370000Y-92710000D01*
D33*
X44638201Y-93928201D02*
X44970001Y-94260001D01*
X44970001Y-94260001D02*
X45720000Y-95010000D01*
X40588201Y-93928201D02*
X44638201Y-93928201D01*
X39370000Y-92710000D02*
X40588201Y-93928201D01*
D31*
X53690001Y-93629999D02*
X47990000Y-99330000D01*
X46780660Y-99330000D02*
X45720000Y-99330000D01*
X47990000Y-99330000D02*
X46780660Y-99330000D01*
X54690000Y-74930000D02*
X53690001Y-75929999D01*
X53690001Y-75929999D02*
X53690001Y-93629999D01*
D32*
X62230000Y-127000000D02*
X68580000Y-127000000D01*
X69850000Y-125730000D02*
X69850000Y-110439738D01*
X69850000Y-110439738D02*
X66090262Y-106680000D01*
X46780660Y-107970000D02*
X45720000Y-107970000D01*
X48240000Y-107970000D02*
X46780660Y-107970000D01*
X49530000Y-106680000D02*
X48240000Y-107970000D01*
X66090262Y-106680000D02*
X49530000Y-106680000D01*
X68580000Y-127000000D02*
X69850000Y-125730000D01*
D33*
X50440000Y-110130000D02*
X45720000Y-110130000D01*
D32*
X57133201Y-110473201D02*
X50783201Y-110473201D01*
X60960000Y-114300000D02*
X57133201Y-110473201D01*
X62230000Y-114300000D02*
X60960000Y-114300000D01*
X50783201Y-110473201D02*
X50440000Y-110130000D01*
X48889480Y-112664991D02*
X49254489Y-113030000D01*
X47155651Y-112664991D02*
X48889480Y-112664991D01*
X45720000Y-112290000D02*
X46780660Y-112290000D01*
X46780660Y-112290000D02*
X47155651Y-112664991D01*
X49254489Y-113030000D02*
X49530000Y-113030000D01*
X52053201Y-115553201D02*
X57133201Y-115553201D01*
X49530000Y-113030000D02*
X52053201Y-115553201D01*
X57133201Y-115553201D02*
X58420000Y-116840000D01*
X139680001Y-76401999D02*
X141192000Y-74890000D01*
X137160000Y-86360000D02*
X139010002Y-86360000D01*
X139010002Y-86360000D02*
X139700000Y-85670002D01*
X135890000Y-85090000D02*
X137160000Y-86360000D01*
X139700000Y-85670002D02*
X139700000Y-76421998D01*
X139700000Y-76421998D02*
X139680001Y-76401999D01*
X138430000Y-80010000D02*
X138430000Y-85090000D01*
X138342001Y-75739999D02*
X139192000Y-74890000D01*
X138342001Y-79922001D02*
X138342001Y-75739999D01*
X138430000Y-80010000D02*
X138342001Y-79922001D01*
D31*
X134620000Y-72390000D02*
X139192000Y-72390000D01*
X95250000Y-71120000D02*
X99060000Y-71120000D01*
X100330000Y-71120000D02*
X104140000Y-67310000D01*
X99060000Y-71120000D02*
X100330000Y-71120000D01*
X95250000Y-77470000D02*
X99060000Y-77470000D01*
X99859999Y-75715263D02*
X99859999Y-76670001D01*
X99859999Y-76670001D02*
X99060000Y-77470000D01*
X106680000Y-68895262D02*
X99859999Y-75715263D01*
X106680000Y-67310000D02*
X106680000Y-68895262D01*
D33*
X101820000Y-132080000D02*
X102870000Y-132080000D01*
D31*
X102870000Y-132080000D02*
X93980000Y-132080000D01*
X93980000Y-132080000D02*
X92710000Y-133350000D01*
X92710000Y-139700000D02*
X95250000Y-142240000D01*
X92710000Y-133350000D02*
X92710000Y-139700000D01*
X95250000Y-142240000D02*
X97790000Y-142240000D01*
X95250000Y-135890000D02*
X97790000Y-135890000D01*
X97790000Y-135890000D02*
X101600000Y-135890000D01*
X102731370Y-135890000D02*
X105410000Y-133211370D01*
X105410000Y-133211370D02*
X105410000Y-132080000D01*
X101600000Y-135890000D02*
X102731370Y-135890000D01*
X106680000Y-77470000D02*
X106680000Y-71120000D01*
X106680000Y-71120000D02*
X109220000Y-71120000D01*
X111760000Y-68580000D02*
X111760000Y-67310000D01*
X109220000Y-71120000D02*
X111760000Y-68580000D01*
X105410000Y-142240000D02*
X105410000Y-135890000D01*
X105410000Y-135890000D02*
X109220000Y-135890000D01*
X110490000Y-134620000D02*
X110490000Y-132080000D01*
X109220000Y-135890000D02*
X110490000Y-134620000D01*
X113030000Y-138430000D02*
X109220000Y-142240000D01*
X113030000Y-132080000D02*
X113030000Y-138430000D01*
X114226000Y-67384000D02*
X114300000Y-67310000D01*
X109220000Y-54610000D02*
X109220000Y-59690000D01*
X109220000Y-54610000D02*
X104140000Y-54610000D01*
X102870000Y-119380000D02*
X107950000Y-119380000D01*
X107950000Y-119380000D02*
X107950000Y-124460000D01*
X90170000Y-44450000D02*
X88900000Y-44450000D01*
X88900000Y-44450000D02*
X78740000Y-34290000D01*
X74930000Y-34290000D02*
X78740000Y-34290000D01*
D32*
X57199999Y-33039999D02*
X55910000Y-31750000D01*
X55910000Y-31750000D02*
X54610000Y-31750000D01*
X67310000Y-34290000D02*
X66059999Y-33039999D01*
D10*
X66020001Y-33039999D02*
X66059999Y-33039999D01*
D32*
X57199999Y-33039999D02*
X57219998Y-33020000D01*
X66000002Y-33020000D02*
X66020001Y-33039999D01*
X57219998Y-33020000D02*
X66000002Y-33020000D01*
D31*
X77470000Y-41910000D02*
X74930000Y-39370000D01*
X82550000Y-41910000D02*
X77470000Y-41910000D01*
D32*
X66059999Y-38119999D02*
X67310000Y-39370000D01*
X66056799Y-38116799D02*
X66059999Y-38119999D01*
X55899999Y-38119999D02*
X55903199Y-38116799D01*
X55903199Y-38116799D02*
X66056799Y-38116799D01*
X54610000Y-36830000D02*
X55899999Y-38119999D01*
D31*
X82550000Y-44450000D02*
X77470000Y-44450000D01*
X77470000Y-44450000D02*
X74930000Y-46990000D01*
D32*
X55910000Y-44450000D02*
X54610000Y-44450000D01*
X57199999Y-45739999D02*
X55910000Y-44450000D01*
X67310000Y-46990000D02*
X66059999Y-45739999D01*
X66056799Y-45736799D02*
X66059999Y-45739999D01*
X57203199Y-45736799D02*
X66056799Y-45736799D01*
X57199999Y-45739999D02*
X57203199Y-45736799D01*
D31*
X80391000Y-46990000D02*
X75311000Y-52070000D01*
X82550000Y-46990000D02*
X80391000Y-46990000D01*
D32*
X66437799Y-50816799D02*
X66440999Y-50819999D01*
X66440999Y-50819999D02*
X67691000Y-52070000D01*
X55899999Y-50819999D02*
X55903199Y-50816799D01*
X55903199Y-50816799D02*
X66437799Y-50816799D01*
X54610000Y-49530000D02*
X55899999Y-50819999D01*
D31*
X75311000Y-56769000D02*
X75311000Y-59690000D01*
X82550000Y-49530000D02*
X75311000Y-56769000D01*
D32*
X55910000Y-56896000D02*
X54610000Y-56896000D01*
X57199999Y-58185999D02*
X55910000Y-56896000D01*
X67691000Y-59690000D02*
X66186999Y-58185999D01*
X66183799Y-58182799D02*
X66186999Y-58185999D01*
X57203199Y-58182799D02*
X66183799Y-58182799D01*
X57199999Y-58185999D02*
X57203199Y-58182799D01*
D31*
X82550000Y-52070000D02*
X77470000Y-57150000D01*
X77470000Y-62611000D02*
X75311000Y-64770000D01*
X77470000Y-57150000D02*
X77470000Y-62611000D01*
D32*
X66186999Y-63265999D02*
X67691000Y-64770000D01*
X54610000Y-61976000D02*
X59548594Y-61976000D01*
X59548594Y-61976000D02*
X60838593Y-63265999D01*
X60838593Y-63265999D02*
X60841793Y-63262799D01*
X60841793Y-63262799D02*
X66183799Y-63262799D01*
X66183799Y-63262799D02*
X66186999Y-63265999D01*
D31*
X76061370Y-100965000D02*
X74930000Y-100965000D01*
X80783630Y-100965000D02*
X76061370Y-100965000D01*
X89038630Y-109220000D02*
X80783630Y-100965000D01*
X90170000Y-109220000D02*
X89038630Y-109220000D01*
D32*
X55910000Y-96520000D02*
X54610000Y-96520000D01*
X57150000Y-95250000D02*
X55910000Y-96490000D01*
X55910000Y-96490000D02*
X55910000Y-96520000D01*
X57150000Y-95250000D02*
X63500000Y-95250000D01*
X63500000Y-95250000D02*
X67310000Y-99060000D01*
X67310000Y-99060000D02*
X67310000Y-100965000D01*
D31*
X82550000Y-106680000D02*
X78549500Y-106680000D01*
X77914500Y-106045000D02*
X74930000Y-106045000D01*
X78549500Y-106680000D02*
X77914500Y-106045000D01*
D32*
X66675000Y-102870000D02*
X67310000Y-103505000D01*
X54610000Y-101600000D02*
X57150000Y-101600000D01*
X67310000Y-103505000D02*
X67310000Y-106045000D01*
X58420000Y-102870000D02*
X66675000Y-102870000D01*
X57150000Y-101600000D02*
X58420000Y-102870000D01*
D31*
X78549500Y-109220000D02*
X76009500Y-111760000D01*
X82550000Y-109220000D02*
X78549500Y-109220000D01*
X74930000Y-111760000D02*
X76009500Y-111760000D01*
D32*
X66040000Y-110490000D02*
X58144490Y-110490000D01*
X67310000Y-111760000D02*
X66040000Y-110490000D01*
X56874490Y-109220000D02*
X55308500Y-109220000D01*
X58144490Y-110490000D02*
X56874490Y-109220000D01*
D31*
X81089500Y-111760000D02*
X76009500Y-116840000D01*
X82550000Y-111760000D02*
X81089500Y-111760000D01*
X74930000Y-116840000D02*
X76009500Y-116840000D01*
D32*
X66023201Y-115553201D02*
X58127691Y-115553201D01*
X58127691Y-115553201D02*
X56874490Y-114300000D01*
X56874490Y-114300000D02*
X55308500Y-114300000D01*
X67310000Y-116840000D02*
X66023201Y-115553201D01*
D31*
X75946000Y-120904000D02*
X75946000Y-124015500D01*
X82550000Y-114300000D02*
X75946000Y-120904000D01*
X74930000Y-124015500D02*
X75946000Y-124015500D01*
D32*
X55245000Y-122098226D02*
X55245000Y-121920000D01*
X55910000Y-121920000D02*
X54610000Y-121920000D01*
X57196799Y-123206799D02*
X55910000Y-121920000D01*
X66501299Y-123206799D02*
X57196799Y-123206799D01*
X67310000Y-124015500D02*
X66501299Y-123206799D01*
D31*
X80010000Y-119380000D02*
X82550000Y-116840000D01*
X80010000Y-127000000D02*
X80010000Y-119380000D01*
X74930000Y-129540000D02*
X77470000Y-129540000D01*
X77470000Y-129540000D02*
X80010000Y-127000000D01*
D32*
X55409999Y-127799999D02*
X54610000Y-127000000D01*
X55896799Y-128286799D02*
X55409999Y-127799999D01*
X66056799Y-128286799D02*
X55896799Y-128286799D01*
X67310000Y-129540000D02*
X66056799Y-128286799D01*
X110490000Y-124460000D02*
X109690001Y-123660001D01*
X109690001Y-123660001D02*
X109690001Y-108749999D01*
X111740001Y-95269999D02*
X111760000Y-95250000D01*
X109690001Y-108749999D02*
X111760000Y-106680000D01*
X111760000Y-106680000D02*
X111760000Y-95250000D01*
X119380000Y-67310000D02*
X119380000Y-69850000D01*
X119380000Y-69850000D02*
X120650000Y-71120000D01*
X120650000Y-71120000D02*
X120650000Y-73660000D01*
D31*
X62368630Y-80010000D02*
X63500000Y-80010000D01*
X59730000Y-80010000D02*
X62368630Y-80010000D01*
X55880000Y-83860000D02*
X59730000Y-80010000D01*
X55880000Y-86360000D02*
X55880000Y-83860000D01*
D32*
X132080000Y-142240000D02*
X135890000Y-142240000D01*
X135890000Y-142240000D02*
X142240000Y-135890000D01*
X142240000Y-135890000D02*
X142240000Y-128270000D01*
X142240000Y-128270000D02*
X144780000Y-125730000D01*
X144780000Y-118110000D02*
X144780000Y-115570000D01*
X139700000Y-123190000D02*
X144780000Y-118110000D01*
X139700000Y-133350000D02*
X139700000Y-123190000D01*
X132080000Y-137160000D02*
X135890000Y-137160000D01*
X135890000Y-137160000D02*
X139700000Y-133350000D01*
X130810000Y-124460000D02*
X129540000Y-124460000D01*
X129540000Y-124460000D02*
X123190000Y-118110000D01*
X123190000Y-118110000D02*
X123190000Y-113030000D01*
X121920000Y-111760000D02*
X119380000Y-111760000D01*
X123190000Y-113030000D02*
X121920000Y-111760000D01*
X130810000Y-132080000D02*
X135890000Y-132080000D01*
X135890000Y-123328630D02*
X135890000Y-124460000D01*
X133380000Y-111760000D02*
X135890000Y-114270000D01*
X132080000Y-111760000D02*
X133380000Y-111760000D01*
X135890000Y-114270000D02*
X135890000Y-123328630D01*
X141780000Y-44450000D02*
X142240000Y-44910000D01*
X133350000Y-44450000D02*
X141780000Y-44450000D01*
X142010000Y-41910000D02*
X142240000Y-42140000D01*
X133350000Y-41910000D02*
X142010000Y-41910000D01*
X132080000Y-147320000D02*
X133350000Y-147320000D01*
X133350000Y-147320000D02*
X137160000Y-143510000D01*
X137160000Y-143510000D02*
X144780000Y-135890000D01*
X113030000Y-124460000D02*
X110490000Y-121920000D01*
X110490000Y-121920000D02*
X110490000Y-109220000D01*
X110490000Y-109220000D02*
X113030000Y-106680000D01*
X113030000Y-106680000D02*
X113030000Y-101600000D01*
X113030000Y-101600000D02*
X113030000Y-100330000D01*
X118110000Y-102870000D02*
X118110000Y-100330000D01*
X116840000Y-104140000D02*
X118110000Y-102870000D01*
X116840000Y-121920000D02*
X116840000Y-104140000D01*
X118110000Y-124460000D02*
X118110000Y-123190000D01*
X118110000Y-123190000D02*
X116840000Y-121920000D01*
X115570000Y-124460000D02*
X115570000Y-109220000D01*
X115570000Y-112449998D02*
X115570000Y-109220000D01*
X115570000Y-109220000D02*
X115570000Y-102870000D01*
X115570000Y-102870000D02*
X115570000Y-100330000D01*
X110490000Y-96520000D02*
X110490000Y-97790000D01*
X110490000Y-96520000D02*
X110490000Y-100330000D01*
X109220000Y-93980000D02*
X109220000Y-95250000D01*
X109220000Y-95250000D02*
X110490000Y-96520000D01*
X110490000Y-92710000D02*
X109220000Y-93980000D01*
X112340002Y-92710000D02*
X110490000Y-92710000D01*
X120650000Y-124460000D02*
X120650000Y-123190000D01*
X119380000Y-99749998D02*
X112340002Y-92710000D01*
X118110000Y-120650000D02*
X118110000Y-109220000D01*
X120650000Y-123190000D02*
X118110000Y-120650000D01*
X118110000Y-109220000D02*
X119380000Y-107950000D01*
X119380000Y-107950000D02*
X119380000Y-99749998D01*
X127000000Y-114300000D02*
X129540000Y-114300000D01*
X129540000Y-114300000D02*
X129540000Y-115570000D01*
X129540000Y-119380000D02*
X133350000Y-123190000D01*
X129540000Y-106680000D02*
X129540000Y-119380000D01*
X130810000Y-100330000D02*
X130810000Y-105410000D01*
X130810000Y-105410000D02*
X129540000Y-106680000D01*
X133350000Y-123190000D02*
X133350000Y-125730000D01*
X133350000Y-125730000D02*
X128270000Y-130810000D01*
X128270000Y-130810000D02*
X128270000Y-138430000D01*
X128270000Y-138430000D02*
X129540000Y-139700000D01*
X129540000Y-139700000D02*
X135890000Y-139700000D01*
X135890000Y-139700000D02*
X140970000Y-134620000D01*
X143380000Y-123190000D02*
X144780000Y-123190000D01*
X140970000Y-125600000D02*
X143380000Y-123190000D01*
X140970000Y-134620000D02*
X140970000Y-125600000D01*
X139700000Y-114300000D02*
X138430000Y-114300000D01*
X133350000Y-109220000D02*
X133350000Y-100330000D01*
X138430000Y-114300000D02*
X133350000Y-109220000D01*
X139700000Y-114300000D02*
X140970000Y-114300000D01*
X140970000Y-114300000D02*
X142240000Y-113030000D01*
X142240000Y-113030000D02*
X144780000Y-113030000D01*
D31*
X138430000Y-104100000D02*
X138390000Y-104140000D01*
X138430000Y-100330000D02*
X138430000Y-104100000D01*
X90170000Y-57150000D02*
X93980000Y-57150000D01*
X93980000Y-57150000D02*
X95250000Y-55880000D01*
X95250000Y-55880000D02*
X95250000Y-54610000D01*
D32*
X107950000Y-104140000D02*
X90170000Y-121920000D01*
X107950000Y-100330000D02*
X107950000Y-104140000D01*
X88900000Y-96520000D02*
X99060000Y-96520000D01*
X99060000Y-96520000D02*
X100330000Y-97790000D01*
X90170000Y-114300000D02*
X100330000Y-104140000D01*
X100330000Y-97790000D02*
X100330000Y-104140000D01*
X100330000Y-104140000D02*
X100330000Y-102870000D01*
D31*
X135302000Y-59770000D02*
X135382000Y-59690000D01*
X132080000Y-59770000D02*
X135302000Y-59770000D01*
X121960000Y-41910000D02*
X121920000Y-41870000D01*
X125730000Y-41910000D02*
X121960000Y-41910000D01*
X121920000Y-39370000D02*
X121920000Y-38100000D01*
X121920000Y-38100000D02*
X123190000Y-36830000D01*
X123190000Y-36830000D02*
X125730000Y-36830000D01*
X125690000Y-46950000D02*
X125730000Y-46990000D01*
X121920000Y-46950000D02*
X125690000Y-46950000D01*
X121920000Y-44450000D02*
X125730000Y-44450000D01*
X124950761Y-33184999D02*
X124664999Y-33184999D01*
X127233201Y-38998169D02*
X127233201Y-35467439D01*
X126861370Y-39370000D02*
X127233201Y-38998169D01*
X125730000Y-39370000D02*
X126861370Y-39370000D01*
X124664999Y-33184999D02*
X123865000Y-32385000D01*
X127233201Y-35467439D02*
X124950761Y-33184999D01*
X121920000Y-49530000D02*
X125730000Y-49530000D01*
X137160000Y-30480000D02*
X137160000Y-33655000D01*
X142415000Y-33655000D02*
X143660000Y-32410000D01*
X137160000Y-33655000D02*
X142415000Y-33655000D01*
X146488427Y-32410000D02*
X147955000Y-33876573D01*
X143660000Y-32410000D02*
X146488427Y-32410000D01*
X147955000Y-53115000D02*
X143660000Y-57410000D01*
X147955000Y-33876573D02*
X147955000Y-53115000D01*
D32*
X90170000Y-111760000D02*
X91518043Y-111760000D01*
X91518043Y-111760000D02*
X97790000Y-105488043D01*
X97790000Y-101461370D02*
X97790000Y-100330000D01*
X97790000Y-105488043D02*
X97790000Y-101461370D01*
X90170000Y-119380000D02*
X105410000Y-104140000D01*
X105410000Y-100330000D02*
X105410000Y-104140000D01*
X105410000Y-104140000D02*
X104775000Y-104775000D01*
X90170000Y-116840000D02*
X102870000Y-104140000D01*
X102870000Y-100330000D02*
X102870000Y-104140000D01*
X146133201Y-116923201D02*
X146133201Y-111767439D01*
X146133201Y-111767439D02*
X140970000Y-106604238D01*
X140970000Y-101461370D02*
X140970000Y-100330000D01*
X140970000Y-106604238D02*
X140970000Y-101461370D01*
X149860000Y-120650000D02*
X146133201Y-116923201D01*
X146836410Y-111476158D02*
X143510000Y-108149748D01*
X143510000Y-101461370D02*
X143510000Y-100330000D01*
X143510000Y-108149748D02*
X143510000Y-101461370D01*
X146836410Y-115086410D02*
X146836410Y-111476158D01*
X149860000Y-118110000D02*
X146836410Y-115086410D01*
X147539621Y-111184879D02*
X144763201Y-108408459D01*
X149860000Y-115570000D02*
X147539621Y-113249621D01*
X144763201Y-108408459D02*
X144763201Y-99762181D01*
X144763201Y-99762181D02*
X142791020Y-97790000D01*
X147539621Y-113249621D02*
X147539621Y-111184879D01*
X142791020Y-97790000D02*
X130810000Y-97790000D01*
X129069999Y-99530001D02*
X128270000Y-100330000D01*
X130810000Y-97790000D02*
X129069999Y-99530001D01*
X123190000Y-92710000D02*
X127000000Y-92710000D01*
X127000000Y-92710000D02*
X129540000Y-95250000D01*
X141279228Y-95250000D02*
X146050000Y-100020772D01*
X129540000Y-95250000D02*
X141279228Y-95250000D01*
X149010001Y-112180001D02*
X149860000Y-113030000D01*
X146050000Y-100020772D02*
X146050000Y-108700768D01*
X149010001Y-111660769D02*
X149010001Y-112180001D01*
X146050000Y-108700768D02*
X149010001Y-111660769D01*
M02*
